M48
METRIC,LZ,000.000
;FILE_FORMAT=3:3
;TYPE=PLATED
;Layer: PTH_Through
;EasyEDA v6.5.34, 2023-09-12 02:39:20
;e94bc10b37974a2b8ebe6637de124c00,5a6b42c53f6a479593ecc07194224c93,10
;Gerber Generator version 0.2
;Holesize 1 = 0.701 mm
T01C0.701
;Holesize 2 = 1.000 mm
T02C1.000
;Holesize 3 = 1.101 mm
T03C1.101
;Holesize 4 = 1.600 mm
T04C1.600
;Holesize 5 = 3.000 mm
T05C3.000
%
G05
G90
T01
X005562Y010412G85X006462Y010412
X005562Y019052G85X006462Y019052
X001762Y019052G85X002662Y019052
X001762Y010412G85X002662Y010412
T02
X019050Y156210
X019050Y153670
X016510Y156210
X016510Y153670
X059690Y163830
X062230Y163830
X059690Y161290
X062230Y161290
X052070Y140970
X052070Y143510
X054610Y140970
X054610Y143510
X052070Y077470
X052070Y080010
X054610Y077470
X054610Y080010
X121490Y204521
X121490Y207061
X124030Y204521
X124030Y207061
X121490Y141021
X121490Y143561
X124030Y141021
X124030Y143561
X121490Y077521
X121490Y080061
X124030Y077521
X124030Y080061
X190931Y204521
X190931Y207061
X193471Y204521
X193471Y207061
X190931Y141021
X190931Y143561
X193471Y141021
X193471Y143561
X190931Y077521
X190931Y080061
X193471Y077521
X193471Y080061
X260350Y204470
X260350Y207010
X262890Y204470
X262890Y207010
X260350Y140970
X260350Y143510
X262890Y140970
X262890Y143510
X260350Y077470
X260350Y080010
X262890Y077470
X262890Y080010
X011430Y133350
X008890Y133350
X011430Y135890
X008890Y135890
X011430Y069850
X008890Y069850
X011430Y072390
X008890Y072390
X080850Y196901
X078310Y196901
X080850Y199441
X078310Y199441
X080850Y133401
X078310Y133401
X080850Y135941
X078310Y135941
X080850Y069901
X078310Y069901
X080850Y072441
X078310Y072441
X150291Y196901
X147751Y196901
X150291Y199441
X147751Y199441
X150291Y133401
X147751Y133401
X150291Y135941
X147751Y135941
X150291Y069901
X147751Y069901
X150291Y072441
X147751Y072441
X219710Y196850
X217170Y196850
X219710Y199390
X217170Y199390
X219710Y133350
X217170Y133350
X219710Y135890
X217170Y135890
X219710Y069850
X217170Y069850
X219710Y072390
X217170Y072390
X019050Y092710
X019050Y090170
X016510Y092710
X016510Y090170
X019050Y029210
X019050Y026670
X016510Y029210
X016510Y026670
X088470Y156261
X088470Y153721
X085930Y156261
X085930Y153721
X088470Y092761
X088470Y090221
X085930Y092761
X085930Y090221
X088470Y029261
X088470Y026721
X085930Y029261
X085930Y026721
X157911Y156261
X157911Y153721
X155371Y156261
X155371Y153721
X157911Y092761
X157911Y090221
X155371Y092761
X155371Y090221
X157911Y029261
X157911Y026721
X155371Y029261
X155371Y026721
X227330Y156210
X227330Y153670
X224790Y156210
X224790Y153670
X227330Y092710
X227330Y090170
X224790Y092710
X224790Y090170
X227330Y029210
X227330Y026670
X224790Y029210
X224790Y026670
X059690Y100330
X062230Y100330
X059690Y097790
X062230Y097790
X059690Y036830
X062230Y036830
X059690Y034290
X062230Y034290
X129110Y036881
X131650Y036881
X129110Y034341
X131650Y034341
X129110Y100381
X131650Y100381
X129110Y097841
X131650Y097841
X129110Y163881
X131650Y163881
X129110Y161341
X131650Y161341
X198551Y163881
X201091Y163881
X198551Y161341
X201091Y161341
X198551Y100381
X201091Y100381
X198551Y097841
X201091Y097841
X198551Y036881
X201091Y036881
X198551Y034341
X201091Y034341
X267970Y036830
X270510Y036830
X267970Y034290
X270510Y034290
X267970Y100330
X270510Y100330
X267970Y097790
X270510Y097790
X267970Y163830
X270510Y163830
X267970Y161290
X270510Y161290
X052070Y204470
X052070Y207010
X054610Y204470
X054610Y207010
X011430Y196850
X008890Y196850
X011430Y199390
X008890Y199390
T03
X202946Y212090
T04
X193471Y212090
T05
X010160Y154940
X060960Y154940
X060960Y205740
X010160Y078740
X060960Y078740
X060960Y027940
X010160Y027940
X060960Y142240
X060960Y091440
X010160Y091440
X218440Y154940
X269240Y154940
X218440Y205740
X218440Y091440
X269240Y091440
X218440Y142240
X218440Y027940
X269240Y027940
X269240Y078740
X218440Y078740
X079580Y091491
X130380Y091491
X149021Y091491
X199821Y091491
X130380Y154991
X149021Y154991
X079580Y027991
X130380Y027991
X130380Y078791
X149021Y027991
X199821Y027991
X149021Y078791
X199821Y078791
X079580Y078791
X079580Y154991
X199821Y154991
X010160Y205740
X010160Y142240
X079580Y142291
X130380Y142291
X149021Y142291
X199821Y142291
X199821Y205791
X149021Y205791
X130380Y205791
X079580Y205791
X269240Y205740
X269240Y142240
M30
