G04 Layer: BottomSilkscreenLayer*
G04 EasyEDA v6.5.34, 2023-09-12 02:39:20*
G04 e94bc10b37974a2b8ebe6637de124c00,5a6b42c53f6a479593ecc07194224c93,10*
G04 Gerber Generator version 0.2*
G04 Scale: 100 percent, Rotated: No, Reflected: No *
G04 Dimensions in millimeters *
G04 leading zeros omitted , absolute positions ,4 integer and 5 decimal *
%FSLAX45Y45*%
%MOMM*%

%ADD10C,0.1520*%
%ADD11C,0.1524*%
%ADD12C,0.2032*%
%ADD13C,0.2540*%

%LPD*%
D10*
X4075539Y2947428D02*
G01*
X4075539Y2864302D01*
X4080736Y2848714D01*
X4085930Y2843519D01*
X4096321Y2838325D01*
X4106712Y2838325D01*
X4117103Y2843519D01*
X4122300Y2848714D01*
X4127494Y2864302D01*
X4127494Y2874693D01*
X4041249Y2947428D02*
G01*
X4041249Y2838325D01*
X4041249Y2838325D02*
G01*
X3978904Y2838325D01*
X3866682Y2921452D02*
G01*
X3871879Y2931843D01*
X3882270Y2942234D01*
X3892659Y2947428D01*
X3913441Y2947428D01*
X3923832Y2942234D01*
X3934223Y2931843D01*
X3939420Y2921452D01*
X3944614Y2905864D01*
X3944614Y2879887D01*
X3939420Y2864302D01*
X3934223Y2853910D01*
X3923832Y2843519D01*
X3913441Y2838325D01*
X3892659Y2838325D01*
X3882270Y2843519D01*
X3871879Y2853910D01*
X3866682Y2864302D01*
X3780439Y2947428D02*
G01*
X3780439Y2864302D01*
X3785633Y2848714D01*
X3790830Y2843519D01*
X3801219Y2838325D01*
X3811610Y2838325D01*
X3822001Y2843519D01*
X3827198Y2848714D01*
X3832392Y2864302D01*
X3832392Y2874693D01*
X3746149Y2947428D02*
G01*
X3746149Y2838325D01*
X3746149Y2838325D02*
G01*
X3683802Y2838325D01*
X3571580Y2921452D02*
G01*
X3576777Y2931843D01*
X3587168Y2942234D01*
X3597559Y2947428D01*
X3618339Y2947428D01*
X3628730Y2942234D01*
X3639121Y2931843D01*
X3644318Y2921452D01*
X3649512Y2905864D01*
X3649512Y2879887D01*
X3644318Y2864302D01*
X3639121Y2853910D01*
X3628730Y2843519D01*
X3618339Y2838325D01*
X3597559Y2838325D01*
X3587168Y2843519D01*
X3576777Y2853910D01*
X3571580Y2864302D01*
X3485337Y2947428D02*
G01*
X3485337Y2864302D01*
X3490531Y2848714D01*
X3495728Y2843519D01*
X3506119Y2838325D01*
X3516510Y2838325D01*
X3526899Y2843519D01*
X3532096Y2848714D01*
X3537290Y2864302D01*
X3537290Y2874693D01*
X3451047Y2947428D02*
G01*
X3451047Y2838325D01*
X3451047Y2838325D02*
G01*
X3388700Y2838325D01*
X3276480Y2921452D02*
G01*
X3281674Y2931843D01*
X3292066Y2942234D01*
X3302457Y2947428D01*
X3323239Y2947428D01*
X3333630Y2942234D01*
X3344019Y2931843D01*
X3349216Y2921452D01*
X3354410Y2905864D01*
X3354410Y2879887D01*
X3349216Y2864302D01*
X3344019Y2853910D01*
X3333630Y2843519D01*
X3323239Y2838325D01*
X3302457Y2838325D01*
X3292066Y2843519D01*
X3281674Y2853910D01*
X3276480Y2864302D01*
X3190234Y2947428D02*
G01*
X3190234Y2864302D01*
X3195429Y2848714D01*
X3200626Y2843519D01*
X3211017Y2838325D01*
X3221408Y2838325D01*
X3231799Y2843519D01*
X3236993Y2848714D01*
X3242190Y2864302D01*
X3242190Y2874693D01*
X3155944Y2947428D02*
G01*
X3155944Y2838325D01*
X3155944Y2838325D02*
G01*
X3093600Y2838325D01*
X2981378Y2921452D02*
G01*
X2986572Y2931843D01*
X2996963Y2942234D01*
X3007354Y2947428D01*
X3028137Y2947428D01*
X3038528Y2942234D01*
X3048919Y2931843D01*
X3054113Y2921452D01*
X3059310Y2905864D01*
X3059310Y2879887D01*
X3054113Y2864302D01*
X3048919Y2853910D01*
X3038528Y2843519D01*
X3028137Y2838325D01*
X3007354Y2838325D01*
X2996963Y2843519D01*
X2986572Y2853910D01*
X2981378Y2864302D01*
D11*
X5410200Y933891D02*
G01*
X5410200Y819345D01*
X5410200Y933891D02*
G01*
X5333837Y819345D01*
X5333837Y933891D02*
G01*
X5333837Y819345D01*
X5297835Y933891D02*
G01*
X5297835Y852073D01*
X5292382Y835708D01*
X5281472Y824798D01*
X5265110Y819345D01*
X5254200Y819345D01*
X5237835Y824798D01*
X5226926Y835708D01*
X5221472Y852073D01*
X5221472Y933891D01*
X5185473Y933891D02*
G01*
X5185473Y819345D01*
X5185473Y933891D02*
G01*
X5141836Y819345D01*
X5098199Y933891D02*
G01*
X5141836Y819345D01*
X5098199Y933891D02*
G01*
X5098199Y819345D01*
X5062199Y933891D02*
G01*
X5062199Y819345D01*
X5062199Y933891D02*
G01*
X5013109Y933891D01*
X4996746Y928436D01*
X4991290Y922982D01*
X4985837Y912073D01*
X4985837Y901164D01*
X4991290Y890254D01*
X4996746Y884798D01*
X5013109Y879345D01*
X5062199Y879345D02*
G01*
X5013109Y879345D01*
X4996746Y873892D01*
X4991290Y868436D01*
X4985837Y857526D01*
X4985837Y841164D01*
X4991290Y830254D01*
X4996746Y824798D01*
X5013109Y819345D01*
X5062199Y819345D01*
X4949835Y933891D02*
G01*
X4949835Y819345D01*
X4949835Y933891D02*
G01*
X4878928Y933891D01*
X4949835Y879345D02*
G01*
X4906200Y879345D01*
X4949835Y819345D02*
G01*
X4878928Y819345D01*
X4842926Y933891D02*
G01*
X4842926Y819345D01*
X4842926Y933891D02*
G01*
X4793835Y933891D01*
X4777473Y928436D01*
X4772017Y922982D01*
X4766563Y912073D01*
X4766563Y901164D01*
X4772017Y890254D01*
X4777473Y884798D01*
X4793835Y879345D01*
X4842926Y879345D01*
X4804745Y879345D02*
G01*
X4766563Y819345D01*
X6032337Y917526D02*
G01*
X6043244Y928436D01*
X6059609Y933891D01*
X6081428Y933891D01*
X6097790Y928436D01*
X6108700Y917526D01*
X6108700Y906617D01*
X6103246Y895708D01*
X6097790Y890254D01*
X6086881Y884798D01*
X6054153Y873892D01*
X6043244Y868436D01*
X6037790Y862982D01*
X6032337Y852073D01*
X6032337Y835708D01*
X6043244Y824798D01*
X6059609Y819345D01*
X6081428Y819345D01*
X6097790Y824798D01*
X6108700Y835708D01*
X5996335Y933891D02*
G01*
X5996335Y819345D01*
X5996335Y933891D02*
G01*
X5925426Y933891D01*
X5996335Y879345D02*
G01*
X5952700Y879345D01*
X5996335Y819345D02*
G01*
X5925426Y819345D01*
X5889426Y933891D02*
G01*
X5889426Y819345D01*
X5889426Y933891D02*
G01*
X5840336Y933891D01*
X5823973Y928436D01*
X5818517Y922982D01*
X5813064Y912073D01*
X5813064Y901164D01*
X5818517Y890254D01*
X5823973Y884798D01*
X5840336Y879345D01*
X5889426Y879345D01*
X5851245Y879345D02*
G01*
X5813064Y819345D01*
X5777064Y933891D02*
G01*
X5777064Y819345D01*
X5697428Y933891D02*
G01*
X5741062Y819345D01*
X5697428Y933891D02*
G01*
X5653791Y819345D01*
X5724700Y857526D02*
G01*
X5670153Y857526D01*
X5617791Y933891D02*
G01*
X5617791Y819345D01*
X5617791Y819345D02*
G01*
X5552335Y819345D01*
X8806472Y933889D02*
G01*
X8817381Y928436D01*
X8828290Y917526D01*
X8833746Y906617D01*
X8839200Y890254D01*
X8839200Y862982D01*
X8833746Y846617D01*
X8828290Y835708D01*
X8817381Y824798D01*
X8806472Y819345D01*
X8784653Y819345D01*
X8773746Y824798D01*
X8762837Y835708D01*
X8757381Y846617D01*
X8751928Y862982D01*
X8751928Y890254D01*
X8757381Y906617D01*
X8762837Y917526D01*
X8773746Y928436D01*
X8784653Y933889D01*
X8806472Y933889D01*
X8790109Y841164D02*
G01*
X8757381Y808436D01*
X8634110Y906617D02*
G01*
X8639563Y917526D01*
X8650472Y928436D01*
X8661382Y933889D01*
X8683200Y933889D01*
X8694110Y928436D01*
X8705019Y917526D01*
X8710472Y906617D01*
X8715928Y890254D01*
X8715928Y862982D01*
X8710472Y846617D01*
X8705019Y835708D01*
X8694110Y824798D01*
X8683200Y819345D01*
X8661382Y819345D01*
X8650472Y824798D01*
X8639563Y835708D01*
X8634110Y846617D01*
X8514110Y933889D02*
G01*
X8514110Y819345D01*
X8514110Y933889D02*
G01*
X8475929Y933889D01*
X8459563Y928436D01*
X8448654Y917526D01*
X8443201Y906617D01*
X8437745Y890254D01*
X8437745Y862982D01*
X8443201Y846617D01*
X8448654Y835708D01*
X8459563Y824798D01*
X8475929Y819345D01*
X8514110Y819345D01*
X8358111Y933889D02*
G01*
X8401745Y819345D01*
X8358111Y933889D02*
G01*
X8314474Y819345D01*
X8385383Y857526D02*
G01*
X8330836Y857526D01*
X8240290Y933889D02*
G01*
X8240290Y819345D01*
X8278474Y933889D02*
G01*
X8202109Y933889D01*
X8166110Y933889D02*
G01*
X8166110Y819345D01*
X8166110Y933889D02*
G01*
X8095200Y933889D01*
X8166110Y879345D02*
G01*
X8122472Y879345D01*
X8166110Y819345D02*
G01*
X8095200Y819345D01*
D12*
X3886200Y21418989D02*
G01*
X3886200Y21304445D01*
X3886200Y21418989D02*
G01*
X3837109Y21418989D01*
X3820746Y21413536D01*
X3815290Y21408082D01*
X3809837Y21397173D01*
X3809837Y21380808D01*
X3815290Y21369898D01*
X3820746Y21364445D01*
X3837109Y21358989D01*
X3886200Y21358989D01*
X3773835Y21418989D02*
G01*
X3773835Y21304445D01*
X3773835Y21418989D02*
G01*
X3724744Y21418989D01*
X3708382Y21413536D01*
X3702928Y21408082D01*
X3697472Y21397173D01*
X3697472Y21386264D01*
X3702928Y21375354D01*
X3708382Y21369898D01*
X3724744Y21364445D01*
X3773835Y21364445D01*
X3735654Y21364445D02*
G01*
X3697472Y21304445D01*
X3628745Y21418989D02*
G01*
X3639654Y21413536D01*
X3650564Y21402626D01*
X3656017Y21391717D01*
X3661473Y21375354D01*
X3661473Y21348082D01*
X3656017Y21331717D01*
X3650564Y21320808D01*
X3639654Y21309898D01*
X3628745Y21304445D01*
X3606927Y21304445D01*
X3596017Y21309898D01*
X3585110Y21320808D01*
X3579655Y21331717D01*
X3574201Y21348082D01*
X3574201Y21375354D01*
X3579655Y21391717D01*
X3585110Y21402626D01*
X3596017Y21413536D01*
X3606927Y21418989D01*
X3628745Y21418989D01*
X3500018Y21418989D02*
G01*
X3500018Y21304445D01*
X3538199Y21418989D02*
G01*
X3461837Y21418989D01*
X3393109Y21418989D02*
G01*
X3404019Y21413536D01*
X3414928Y21402626D01*
X3420381Y21391717D01*
X3425837Y21375354D01*
X3425837Y21348082D01*
X3420381Y21331717D01*
X3414928Y21320808D01*
X3404019Y21309898D01*
X3393109Y21304445D01*
X3371291Y21304445D01*
X3360381Y21309898D01*
X3349472Y21320808D01*
X3344019Y21331717D01*
X3338565Y21348082D01*
X3338565Y21375354D01*
X3344019Y21391717D01*
X3349472Y21402626D01*
X3360381Y21413536D01*
X3371291Y21418989D01*
X3393109Y21418989D01*
X3302563Y21418989D02*
G01*
X3302563Y21304445D01*
X3302563Y21418989D02*
G01*
X3226201Y21304445D01*
X3226201Y21418989D02*
G01*
X3226201Y21304445D01*
X3190201Y21418989D02*
G01*
X3190201Y21304445D01*
X3190201Y21418989D02*
G01*
X3119292Y21418989D01*
X3190201Y21364445D02*
G01*
X3146564Y21364445D01*
X3190201Y21304445D02*
G01*
X3119292Y21304445D01*
X3083293Y21418989D02*
G01*
X3083293Y21304445D01*
X3083293Y21418989D02*
G01*
X3039656Y21304445D01*
X2996018Y21418989D02*
G01*
X3039656Y21304445D01*
X2996018Y21418989D02*
G01*
X2996018Y21304445D01*
X2916384Y21418989D02*
G01*
X2960019Y21304445D01*
X2916384Y21418989D02*
G01*
X2872747Y21304445D01*
X2943656Y21342626D02*
G01*
X2889110Y21342626D01*
X2752747Y21418989D02*
G01*
X2752747Y21304445D01*
X2752747Y21418989D02*
G01*
X2703657Y21418989D01*
X2687292Y21413536D01*
X2681838Y21408082D01*
X2676385Y21397173D01*
X2676385Y21386264D01*
X2681838Y21375354D01*
X2687292Y21369898D01*
X2703657Y21364445D01*
X2752747Y21364445D02*
G01*
X2703657Y21364445D01*
X2687292Y21358989D01*
X2681838Y21353536D01*
X2676385Y21342626D01*
X2676385Y21326264D01*
X2681838Y21315354D01*
X2687292Y21309898D01*
X2703657Y21304445D01*
X2752747Y21304445D01*
X2596748Y21418989D02*
G01*
X2640383Y21304445D01*
X2596748Y21418989D02*
G01*
X2553111Y21304445D01*
X2624020Y21342626D02*
G01*
X2569474Y21342626D01*
X2440749Y21402626D02*
G01*
X2451656Y21413536D01*
X2468021Y21418989D01*
X2489840Y21418989D01*
X2506202Y21413536D01*
X2517112Y21402626D01*
X2517112Y21391717D01*
X2511656Y21380808D01*
X2506202Y21375354D01*
X2495293Y21369898D01*
X2462565Y21358989D01*
X2451656Y21353536D01*
X2446202Y21348082D01*
X2440749Y21337173D01*
X2440749Y21320808D01*
X2451656Y21309898D01*
X2468021Y21304445D01*
X2489840Y21304445D01*
X2506202Y21309898D01*
X2517112Y21320808D01*
X2404747Y21418989D02*
G01*
X2404747Y21304445D01*
X2404747Y21418989D02*
G01*
X2333838Y21418989D01*
X2404747Y21364445D02*
G01*
X2361112Y21364445D01*
X2404747Y21304445D02*
G01*
X2333838Y21304445D01*
X2297838Y21418989D02*
G01*
X2297838Y21304445D01*
X2297838Y21418989D02*
G01*
X2248748Y21418989D01*
X2232385Y21413536D01*
X2226929Y21408082D01*
X2221476Y21397173D01*
X2221476Y21386264D01*
X2226929Y21375354D01*
X2232385Y21369898D01*
X2248748Y21364445D01*
X2297838Y21364445D02*
G01*
X2248748Y21364445D01*
X2232385Y21358989D01*
X2226929Y21353536D01*
X2221476Y21342626D01*
X2221476Y21326264D01*
X2226929Y21315354D01*
X2232385Y21309898D01*
X2248748Y21304445D01*
X2297838Y21304445D01*
X2152749Y21418989D02*
G01*
X2163658Y21413536D01*
X2174567Y21402626D01*
X2180021Y21391717D01*
X2185476Y21375354D01*
X2185476Y21348082D01*
X2180021Y21331717D01*
X2174567Y21320808D01*
X2163658Y21309898D01*
X2152749Y21304445D01*
X2130930Y21304445D01*
X2120021Y21309898D01*
X2109111Y21320808D01*
X2103658Y21331717D01*
X2098202Y21348082D01*
X2098202Y21375354D01*
X2103658Y21391717D01*
X2109111Y21402626D01*
X2120021Y21413536D01*
X2130930Y21418989D01*
X2152749Y21418989D01*
X2018568Y21418989D02*
G01*
X2062203Y21304445D01*
X2018568Y21418989D02*
G01*
X1974931Y21304445D01*
X2045840Y21342626D02*
G01*
X1991293Y21342626D01*
X1938931Y21418989D02*
G01*
X1938931Y21304445D01*
X1938931Y21418989D02*
G01*
X1889841Y21418989D01*
X1873476Y21413536D01*
X1868022Y21408082D01*
X1862566Y21397173D01*
X1862566Y21386264D01*
X1868022Y21375354D01*
X1873476Y21369898D01*
X1889841Y21364445D01*
X1938931Y21364445D01*
X1900750Y21364445D02*
G01*
X1862566Y21304445D01*
X1826567Y21418989D02*
G01*
X1826567Y21304445D01*
X1826567Y21418989D02*
G01*
X1788386Y21418989D01*
X1772023Y21413536D01*
X1761114Y21402626D01*
X1755658Y21391717D01*
X1750204Y21375354D01*
X1750204Y21348082D01*
X1755658Y21331717D01*
X1761114Y21320808D01*
X1772023Y21309898D01*
X1788386Y21304445D01*
X1826567Y21304445D01*
X1630205Y21353536D02*
G01*
X1532023Y21353536D01*
X1412024Y21418989D02*
G01*
X1412024Y21304445D01*
X1412024Y21418989D02*
G01*
X1362933Y21418989D01*
X1346568Y21413536D01*
X1341114Y21408082D01*
X1335659Y21397173D01*
X1335659Y21386264D01*
X1341114Y21375354D01*
X1346568Y21369898D01*
X1362933Y21364445D01*
X1412024Y21364445D01*
X1373840Y21364445D02*
G01*
X1335659Y21304445D01*
X1299659Y21418989D02*
G01*
X1299659Y21304445D01*
X1299659Y21418989D02*
G01*
X1228750Y21418989D01*
X1299659Y21364445D02*
G01*
X1256022Y21364445D01*
X1299659Y21304445D02*
G01*
X1228750Y21304445D01*
X1149113Y21418989D02*
G01*
X1192750Y21304445D01*
X1149113Y21418989D02*
G01*
X1105479Y21304445D01*
X1176388Y21342626D02*
G01*
X1121841Y21342626D01*
X1069477Y21418989D02*
G01*
X1069477Y21304445D01*
X1069477Y21418989D02*
G01*
X1020386Y21418989D01*
X1004023Y21413536D01*
X998570Y21408082D01*
X993114Y21397173D01*
X993114Y21386264D01*
X998570Y21375354D01*
X1004023Y21369898D01*
X1020386Y21364445D01*
X1069477Y21364445D01*
X1031295Y21364445D02*
G01*
X993114Y21304445D01*
X3581400Y21228489D02*
G01*
X3581400Y21113945D01*
X3581400Y21228489D02*
G01*
X3532309Y21228489D01*
X3515946Y21223036D01*
X3510490Y21217582D01*
X3505037Y21206673D01*
X3505037Y21190308D01*
X3510490Y21179398D01*
X3515946Y21173945D01*
X3532309Y21168489D01*
X3581400Y21168489D01*
X3425400Y21228489D02*
G01*
X3469035Y21113945D01*
X3425400Y21228489D02*
G01*
X3381763Y21113945D01*
X3452672Y21152126D02*
G01*
X3398128Y21152126D01*
X3345764Y21228489D02*
G01*
X3345764Y21113945D01*
X3345764Y21228489D02*
G01*
X3296673Y21228489D01*
X3280310Y21223036D01*
X3274855Y21217582D01*
X3269401Y21206673D01*
X3269401Y21195764D01*
X3274855Y21184854D01*
X3280310Y21179398D01*
X3296673Y21173945D01*
X3345764Y21173945D01*
X3307582Y21173945D02*
G01*
X3269401Y21113945D01*
X3195218Y21228489D02*
G01*
X3195218Y21113945D01*
X3233399Y21228489D02*
G01*
X3157037Y21228489D01*
X3037037Y21228489D02*
G01*
X3037037Y21113945D01*
X3037037Y21228489D02*
G01*
X2960674Y21113945D01*
X2960674Y21228489D02*
G01*
X2960674Y21113945D01*
X2924672Y21228489D02*
G01*
X2924672Y21146673D01*
X2919219Y21130308D01*
X2908310Y21119398D01*
X2891947Y21113945D01*
X2881038Y21113945D01*
X2864672Y21119398D01*
X2853766Y21130308D01*
X2848310Y21146673D01*
X2848310Y21228489D01*
X2812310Y21228489D02*
G01*
X2812310Y21113945D01*
X2812310Y21228489D02*
G01*
X2768673Y21113945D01*
X2725038Y21228489D02*
G01*
X2768673Y21113945D01*
X2725038Y21228489D02*
G01*
X2725038Y21113945D01*
X2689037Y21228489D02*
G01*
X2689037Y21113945D01*
X2689037Y21228489D02*
G01*
X2639946Y21228489D01*
X2623583Y21223036D01*
X2618130Y21217582D01*
X2612674Y21206673D01*
X2612674Y21195764D01*
X2618130Y21184854D01*
X2623583Y21179398D01*
X2639946Y21173945D01*
X2689037Y21173945D02*
G01*
X2639946Y21173945D01*
X2623583Y21168489D01*
X2618130Y21163036D01*
X2612674Y21152126D01*
X2612674Y21135764D01*
X2618130Y21124854D01*
X2623583Y21119398D01*
X2639946Y21113945D01*
X2689037Y21113945D01*
X2576675Y21228489D02*
G01*
X2576675Y21113945D01*
X2576675Y21228489D02*
G01*
X2505765Y21228489D01*
X2576675Y21173945D02*
G01*
X2533037Y21173945D01*
X2576675Y21113945D02*
G01*
X2505765Y21113945D01*
X2469766Y21228489D02*
G01*
X2469766Y21113945D01*
X2469766Y21228489D02*
G01*
X2420675Y21228489D01*
X2404310Y21223036D01*
X2398857Y21217582D01*
X2393401Y21206673D01*
X2393401Y21195764D01*
X2398857Y21184854D01*
X2404310Y21179398D01*
X2420675Y21173945D01*
X2469766Y21173945D01*
X2431585Y21173945D02*
G01*
X2393401Y21113945D01*
X2273401Y21206673D02*
G01*
X2262492Y21212126D01*
X2246129Y21228489D01*
X2246129Y21113945D01*
X2144674Y21228489D02*
G01*
X2199220Y21228489D01*
X2204674Y21179398D01*
X2199220Y21184854D01*
X2182858Y21190308D01*
X2166493Y21190308D01*
X2150130Y21184854D01*
X2139221Y21173945D01*
X2133767Y21157582D01*
X2133767Y21146673D01*
X2139221Y21130308D01*
X2150130Y21119398D01*
X2166493Y21113945D01*
X2182858Y21113945D01*
X2199220Y21119398D01*
X2204674Y21124854D01*
X2210130Y21135764D01*
X2086856Y21228489D02*
G01*
X2026856Y21228489D01*
X2059584Y21184854D01*
X2043221Y21184854D01*
X2032312Y21179398D01*
X2026856Y21173945D01*
X2021403Y21157582D01*
X2021403Y21146673D01*
X2026856Y21130308D01*
X2037765Y21119398D01*
X2054131Y21113945D01*
X2070493Y21113945D01*
X2086856Y21119398D01*
X2092312Y21124854D01*
X2097765Y21135764D01*
X1930857Y21228489D02*
G01*
X1985403Y21152126D01*
X1903585Y21152126D01*
X1930857Y21228489D02*
G01*
X1930857Y21113945D01*
X1867585Y21163036D02*
G01*
X1769404Y21163036D01*
X1700677Y21228489D02*
G01*
X1717040Y21223036D01*
X1727949Y21206673D01*
X1733402Y21179398D01*
X1733402Y21163036D01*
X1727949Y21135764D01*
X1717040Y21119398D01*
X1700677Y21113945D01*
X1689768Y21113945D01*
X1673402Y21119398D01*
X1662493Y21135764D01*
X1657040Y21163036D01*
X1657040Y21179398D01*
X1662493Y21206673D01*
X1673402Y21223036D01*
X1689768Y21228489D01*
X1700677Y21228489D01*
X1621040Y21206673D02*
G01*
X1610131Y21212126D01*
X1593768Y21228489D01*
X1593768Y21113945D01*
X1525041Y21228489D02*
G01*
X1541404Y21223036D01*
X1552313Y21206673D01*
X1557766Y21179398D01*
X1557766Y21163036D01*
X1552313Y21135764D01*
X1541404Y21119398D01*
X1525041Y21113945D01*
X1514132Y21113945D01*
X1497766Y21119398D01*
X1486857Y21135764D01*
X1481404Y21163036D01*
X1481404Y21179398D01*
X1486857Y21206673D01*
X1497766Y21223036D01*
X1514132Y21228489D01*
X1525041Y21228489D01*
X1445404Y21206673D02*
G01*
X1434495Y21212126D01*
X1418132Y21228489D01*
X1418132Y21113945D01*
X1298133Y21228489D02*
G01*
X1254495Y21113945D01*
X1210858Y21228489D02*
G01*
X1254495Y21113945D01*
X1142131Y21228489D02*
G01*
X1158496Y21223036D01*
X1169405Y21206673D01*
X1174859Y21179398D01*
X1174859Y21163036D01*
X1169405Y21135764D01*
X1158496Y21119398D01*
X1142131Y21113945D01*
X1131222Y21113945D01*
X1114859Y21119398D01*
X1103950Y21135764D01*
X1098496Y21163036D01*
X1098496Y21179398D01*
X1103950Y21206673D01*
X1114859Y21223036D01*
X1131222Y21228489D01*
X1142131Y21228489D01*
X1057041Y21141217D02*
G01*
X1062494Y21135764D01*
X1057041Y21130308D01*
X1051587Y21135764D01*
X1057041Y21141217D01*
X1015585Y21206673D02*
G01*
X1004676Y21212126D01*
X988313Y21228489D01*
X988313Y21113945D01*
X4443425Y18907589D02*
G01*
X4443425Y18793045D01*
X4443425Y18907589D02*
G01*
X4399788Y18793045D01*
X4356153Y18907589D02*
G01*
X4399788Y18793045D01*
X4356153Y18907589D02*
G01*
X4356153Y18793045D01*
X4320153Y18907589D02*
G01*
X4320153Y18793045D01*
X4320153Y18907589D02*
G01*
X4271060Y18907589D01*
X4254698Y18902136D01*
X4249244Y18896683D01*
X4243788Y18885773D01*
X4243788Y18869408D01*
X4249244Y18858499D01*
X4254698Y18853045D01*
X4271060Y18847589D01*
X4320153Y18847589D01*
X4207789Y18885773D02*
G01*
X4196880Y18891227D01*
X4180517Y18907589D01*
X4180517Y18793045D01*
X25284125Y18907589D02*
G01*
X25284125Y18793045D01*
X25284125Y18907589D02*
G01*
X25240488Y18793045D01*
X25196853Y18907589D02*
G01*
X25240488Y18793045D01*
X25196853Y18907589D02*
G01*
X25196853Y18793045D01*
X25160853Y18907589D02*
G01*
X25160853Y18793045D01*
X25160853Y18907589D02*
G01*
X25111760Y18907589D01*
X25095398Y18902136D01*
X25089944Y18896683D01*
X25084488Y18885773D01*
X25084488Y18869408D01*
X25089944Y18858499D01*
X25095398Y18853045D01*
X25111760Y18847589D01*
X25160853Y18847589D01*
X25043036Y18880317D02*
G01*
X25043036Y18885773D01*
X25037580Y18896683D01*
X25032126Y18902136D01*
X25021217Y18907589D01*
X24999398Y18907589D01*
X24988489Y18902136D01*
X24983036Y18896683D01*
X24977580Y18885773D01*
X24977580Y18874864D01*
X24983036Y18863955D01*
X24993942Y18847589D01*
X25048489Y18793045D01*
X24972126Y18793045D01*
X4443425Y4924889D02*
G01*
X4443425Y4810345D01*
X4443425Y4924889D02*
G01*
X4399788Y4810345D01*
X4356153Y4924889D02*
G01*
X4399788Y4810345D01*
X4356153Y4924889D02*
G01*
X4356153Y4810345D01*
X4320153Y4924889D02*
G01*
X4320153Y4810345D01*
X4320153Y4924889D02*
G01*
X4271060Y4924889D01*
X4254698Y4919436D01*
X4249244Y4913983D01*
X4243788Y4903073D01*
X4243788Y4886708D01*
X4249244Y4875799D01*
X4254698Y4870345D01*
X4271060Y4864889D01*
X4320153Y4864889D01*
X4142336Y4924889D02*
G01*
X4196880Y4924889D01*
X4202336Y4875799D01*
X4196880Y4881255D01*
X4180517Y4886708D01*
X4164152Y4886708D01*
X4147789Y4881255D01*
X4136880Y4870345D01*
X4131426Y4853983D01*
X4131426Y4843073D01*
X4136880Y4826708D01*
X4147789Y4815799D01*
X4164152Y4810345D01*
X4180517Y4810345D01*
X4196880Y4815799D01*
X4202336Y4821255D01*
X4207789Y4832164D01*
X25284125Y4924889D02*
G01*
X25284125Y4810345D01*
X25284125Y4924889D02*
G01*
X25240488Y4810345D01*
X25196853Y4924889D02*
G01*
X25240488Y4810345D01*
X25196853Y4924889D02*
G01*
X25196853Y4810345D01*
X25160853Y4924889D02*
G01*
X25160853Y4810345D01*
X25160853Y4924889D02*
G01*
X25111760Y4924889D01*
X25095398Y4919436D01*
X25089944Y4913983D01*
X25084488Y4903073D01*
X25084488Y4886708D01*
X25089944Y4875799D01*
X25095398Y4870345D01*
X25111760Y4864889D01*
X25160853Y4864889D01*
X24983036Y4908527D02*
G01*
X24988489Y4919436D01*
X25004852Y4924889D01*
X25015761Y4924889D01*
X25032126Y4919436D01*
X25043036Y4903073D01*
X25048489Y4875799D01*
X25048489Y4848527D01*
X25043036Y4826708D01*
X25032126Y4815799D01*
X25015761Y4810345D01*
X25010308Y4810345D01*
X24993942Y4815799D01*
X24983036Y4826708D01*
X24977580Y4843073D01*
X24977580Y4848527D01*
X24983036Y4864889D01*
X24993942Y4875799D01*
X25010308Y4881255D01*
X25015761Y4881255D01*
X25032126Y4875799D01*
X25043036Y4864889D01*
X25048489Y4848527D01*
X1168400Y21025289D02*
G01*
X1168400Y20910745D01*
X1168400Y21025289D02*
G01*
X1124762Y20910745D01*
X1081128Y21025289D02*
G01*
X1124762Y20910745D01*
X1081128Y21025289D02*
G01*
X1081128Y20910745D01*
X1045128Y21025289D02*
G01*
X1045128Y20910745D01*
X1045128Y21025289D02*
G01*
X996035Y21025289D01*
X979672Y21019836D01*
X974219Y21014382D01*
X968763Y21003473D01*
X968763Y20987108D01*
X974219Y20976198D01*
X979672Y20970745D01*
X996035Y20965289D01*
X1045128Y20965289D01*
X856401Y21025289D02*
G01*
X910945Y20910745D01*
X932764Y21025289D02*
G01*
X856401Y21025289D01*
X6248400Y21025289D02*
G01*
X6248400Y20910745D01*
X6248400Y21025289D02*
G01*
X6204762Y20910745D01*
X6161128Y21025289D02*
G01*
X6204762Y20910745D01*
X6161128Y21025289D02*
G01*
X6161128Y20910745D01*
X6125128Y21025289D02*
G01*
X6125128Y20910745D01*
X6125128Y21025289D02*
G01*
X6076035Y21025289D01*
X6059672Y21019836D01*
X6054219Y21014382D01*
X6048763Y21003473D01*
X6048763Y20987108D01*
X6054219Y20976198D01*
X6059672Y20970745D01*
X6076035Y20965289D01*
X6125128Y20965289D01*
X5985492Y21025289D02*
G01*
X6001854Y21019836D01*
X6007310Y21008926D01*
X6007310Y20998017D01*
X6001854Y20987108D01*
X5990945Y20981654D01*
X5969127Y20976198D01*
X5952764Y20970745D01*
X5941855Y20959836D01*
X5936401Y20948926D01*
X5936401Y20932564D01*
X5941855Y20921654D01*
X5947310Y20916198D01*
X5963673Y20910745D01*
X5985492Y20910745D01*
X6001854Y20916198D01*
X6007310Y20921654D01*
X6012764Y20932564D01*
X6012764Y20948926D01*
X6007310Y20959836D01*
X5996401Y20970745D01*
X5980036Y20976198D01*
X5958217Y20981654D01*
X5947310Y20987108D01*
X5941855Y20998017D01*
X5941855Y21008926D01*
X5947310Y21019836D01*
X5963673Y21025289D01*
X5985492Y21025289D01*
X1172108Y15124894D02*
G01*
X1172108Y15010350D01*
X1172108Y15124894D02*
G01*
X1128471Y15010350D01*
X1084836Y15124894D02*
G01*
X1128471Y15010350D01*
X1084836Y15124894D02*
G01*
X1084836Y15010350D01*
X1048837Y15124894D02*
G01*
X1048837Y15010350D01*
X1048837Y15124894D02*
G01*
X999743Y15124894D01*
X983381Y15119441D01*
X977927Y15113988D01*
X972472Y15103078D01*
X972472Y15086713D01*
X977927Y15075804D01*
X983381Y15070350D01*
X999743Y15064894D01*
X1048837Y15064894D01*
X865563Y15086713D02*
G01*
X871019Y15070350D01*
X881926Y15059441D01*
X898291Y15053988D01*
X903744Y15053988D01*
X920109Y15059441D01*
X931019Y15070350D01*
X936472Y15086713D01*
X936472Y15092169D01*
X931019Y15108532D01*
X920109Y15119441D01*
X903744Y15124894D01*
X898291Y15124894D01*
X881926Y15119441D01*
X871019Y15108532D01*
X865563Y15086713D01*
X865563Y15059441D01*
X871019Y15032169D01*
X881926Y15015804D01*
X898291Y15010350D01*
X909200Y15010350D01*
X925563Y15015804D01*
X931019Y15026713D01*
X6290208Y15124894D02*
G01*
X6290208Y15010350D01*
X6290208Y15124894D02*
G01*
X6246571Y15010350D01*
X6202936Y15124894D02*
G01*
X6246571Y15010350D01*
X6202936Y15124894D02*
G01*
X6202936Y15010350D01*
X6166937Y15124894D02*
G01*
X6166937Y15010350D01*
X6166937Y15124894D02*
G01*
X6117843Y15124894D01*
X6101481Y15119441D01*
X6096027Y15113988D01*
X6090572Y15103078D01*
X6090572Y15086713D01*
X6096027Y15075804D01*
X6101481Y15070350D01*
X6117843Y15064894D01*
X6166937Y15064894D01*
X6054572Y15103078D02*
G01*
X6043663Y15108532D01*
X6027300Y15124894D01*
X6027300Y15010350D01*
X5958573Y15124894D02*
G01*
X5974935Y15119441D01*
X5985845Y15103078D01*
X5991298Y15075804D01*
X5991298Y15059441D01*
X5985845Y15032169D01*
X5974935Y15015804D01*
X5958573Y15010350D01*
X5947663Y15010350D01*
X5931298Y15015804D01*
X5920392Y15032169D01*
X5914936Y15059441D01*
X5914936Y15075804D01*
X5920392Y15103078D01*
X5931298Y15119441D01*
X5947663Y15124894D01*
X5958573Y15124894D01*
X1206500Y14675289D02*
G01*
X1206500Y14560745D01*
X1206500Y14675289D02*
G01*
X1162862Y14560745D01*
X1119228Y14675289D02*
G01*
X1162862Y14560745D01*
X1119228Y14675289D02*
G01*
X1119228Y14560745D01*
X1083228Y14675289D02*
G01*
X1083228Y14560745D01*
X1083228Y14675289D02*
G01*
X1034135Y14675289D01*
X1017772Y14669836D01*
X1012319Y14664382D01*
X1006863Y14653473D01*
X1006863Y14637108D01*
X1012319Y14626198D01*
X1017772Y14620745D01*
X1034135Y14615289D01*
X1083228Y14615289D01*
X970864Y14653473D02*
G01*
X959954Y14658926D01*
X943592Y14675289D01*
X943592Y14560745D01*
X907590Y14653473D02*
G01*
X896683Y14658926D01*
X880318Y14675289D01*
X880318Y14560745D01*
X6273800Y14675289D02*
G01*
X6273800Y14560745D01*
X6273800Y14675289D02*
G01*
X6230162Y14560745D01*
X6186528Y14675289D02*
G01*
X6230162Y14560745D01*
X6186528Y14675289D02*
G01*
X6186528Y14560745D01*
X6150528Y14675289D02*
G01*
X6150528Y14560745D01*
X6150528Y14675289D02*
G01*
X6101435Y14675289D01*
X6085072Y14669836D01*
X6079619Y14664382D01*
X6074163Y14653473D01*
X6074163Y14637108D01*
X6079619Y14626198D01*
X6085072Y14620745D01*
X6101435Y14615289D01*
X6150528Y14615289D01*
X6038164Y14653473D02*
G01*
X6027254Y14658926D01*
X6010892Y14675289D01*
X6010892Y14560745D01*
X5969436Y14648017D02*
G01*
X5969436Y14653473D01*
X5963983Y14664382D01*
X5958527Y14669836D01*
X5947618Y14675289D01*
X5925799Y14675289D01*
X5914890Y14669836D01*
X5909436Y14664382D01*
X5903983Y14653473D01*
X5903983Y14642564D01*
X5909436Y14631654D01*
X5920346Y14615289D01*
X5974890Y14560745D01*
X5898527Y14560745D01*
X1219200Y8782489D02*
G01*
X1219200Y8667945D01*
X1219200Y8782489D02*
G01*
X1175562Y8667945D01*
X1131928Y8782489D02*
G01*
X1175562Y8667945D01*
X1131928Y8782489D02*
G01*
X1131928Y8667945D01*
X1095928Y8782489D02*
G01*
X1095928Y8667945D01*
X1095928Y8782489D02*
G01*
X1046835Y8782489D01*
X1030472Y8777036D01*
X1025019Y8771582D01*
X1019563Y8760673D01*
X1019563Y8744308D01*
X1025019Y8733398D01*
X1030472Y8727945D01*
X1046835Y8722489D01*
X1095928Y8722489D01*
X983564Y8760673D02*
G01*
X972654Y8766126D01*
X956292Y8782489D01*
X956292Y8667945D01*
X909383Y8782489D02*
G01*
X849383Y8782489D01*
X882108Y8738854D01*
X865746Y8738854D01*
X854836Y8733398D01*
X849383Y8727945D01*
X843927Y8711582D01*
X843927Y8700673D01*
X849383Y8684308D01*
X860290Y8673398D01*
X876655Y8667945D01*
X893018Y8667945D01*
X909383Y8673398D01*
X914836Y8678854D01*
X920290Y8689764D01*
X6286500Y8782489D02*
G01*
X6286500Y8667945D01*
X6286500Y8782489D02*
G01*
X6242862Y8667945D01*
X6199228Y8782489D02*
G01*
X6242862Y8667945D01*
X6199228Y8782489D02*
G01*
X6199228Y8667945D01*
X6163228Y8782489D02*
G01*
X6163228Y8667945D01*
X6163228Y8782489D02*
G01*
X6114135Y8782489D01*
X6097772Y8777036D01*
X6092319Y8771582D01*
X6086863Y8760673D01*
X6086863Y8744308D01*
X6092319Y8733398D01*
X6097772Y8727945D01*
X6114135Y8722489D01*
X6163228Y8722489D01*
X6050864Y8760673D02*
G01*
X6039954Y8766126D01*
X6023592Y8782489D01*
X6023592Y8667945D01*
X5933046Y8782489D02*
G01*
X5987590Y8706126D01*
X5905774Y8706126D01*
X5933046Y8782489D02*
G01*
X5933046Y8667945D01*
X1206500Y8325289D02*
G01*
X1206500Y8210745D01*
X1206500Y8325289D02*
G01*
X1162862Y8210745D01*
X1119228Y8325289D02*
G01*
X1162862Y8210745D01*
X1119228Y8325289D02*
G01*
X1119228Y8210745D01*
X1083228Y8325289D02*
G01*
X1083228Y8210745D01*
X1083228Y8325289D02*
G01*
X1034135Y8325289D01*
X1017772Y8319836D01*
X1012319Y8314382D01*
X1006863Y8303473D01*
X1006863Y8287108D01*
X1012319Y8276198D01*
X1017772Y8270745D01*
X1034135Y8265289D01*
X1083228Y8265289D01*
X970864Y8303473D02*
G01*
X959954Y8308926D01*
X943592Y8325289D01*
X943592Y8210745D01*
X842136Y8325289D02*
G01*
X896683Y8325289D01*
X902136Y8276198D01*
X896683Y8281654D01*
X880318Y8287108D01*
X863955Y8287108D01*
X847590Y8281654D01*
X836683Y8270745D01*
X831227Y8254382D01*
X831227Y8243473D01*
X836683Y8227108D01*
X847590Y8216198D01*
X863955Y8210745D01*
X880318Y8210745D01*
X896683Y8216198D01*
X902136Y8221654D01*
X907590Y8232564D01*
X6286500Y8325289D02*
G01*
X6286500Y8210745D01*
X6286500Y8325289D02*
G01*
X6242862Y8210745D01*
X6199228Y8325289D02*
G01*
X6242862Y8210745D01*
X6199228Y8325289D02*
G01*
X6199228Y8210745D01*
X6163228Y8325289D02*
G01*
X6163228Y8210745D01*
X6163228Y8325289D02*
G01*
X6114135Y8325289D01*
X6097772Y8319836D01*
X6092319Y8314382D01*
X6086863Y8303473D01*
X6086863Y8287108D01*
X6092319Y8276198D01*
X6097772Y8270745D01*
X6114135Y8265289D01*
X6163228Y8265289D01*
X6050864Y8303473D02*
G01*
X6039954Y8308926D01*
X6023592Y8325289D01*
X6023592Y8210745D01*
X5922136Y8308926D02*
G01*
X5927590Y8319836D01*
X5943955Y8325289D01*
X5954864Y8325289D01*
X5971227Y8319836D01*
X5982136Y8303473D01*
X5987590Y8276198D01*
X5987590Y8248926D01*
X5982136Y8227108D01*
X5971227Y8216198D01*
X5954864Y8210745D01*
X5949408Y8210745D01*
X5933046Y8216198D01*
X5922136Y8227108D01*
X5916683Y8243473D01*
X5916683Y8248926D01*
X5922136Y8265289D01*
X5933046Y8276198D01*
X5949408Y8281654D01*
X5954864Y8281654D01*
X5971227Y8276198D01*
X5982136Y8265289D01*
X5987590Y8248926D01*
X1193800Y3245289D02*
G01*
X1193800Y3130745D01*
X1193800Y3245289D02*
G01*
X1150162Y3130745D01*
X1106528Y3245289D02*
G01*
X1150162Y3130745D01*
X1106528Y3245289D02*
G01*
X1106528Y3130745D01*
X1070528Y3245289D02*
G01*
X1070528Y3130745D01*
X1070528Y3245289D02*
G01*
X1021435Y3245289D01*
X1005072Y3239836D01*
X999619Y3234382D01*
X994163Y3223473D01*
X994163Y3207108D01*
X999619Y3196198D01*
X1005072Y3190745D01*
X1021435Y3185289D01*
X1070528Y3185289D01*
X958164Y3223473D02*
G01*
X947254Y3228926D01*
X930892Y3245289D01*
X930892Y3130745D01*
X818527Y3245289D02*
G01*
X873074Y3130745D01*
X894890Y3245289D02*
G01*
X818527Y3245289D01*
X6286500Y3245289D02*
G01*
X6286500Y3130745D01*
X6286500Y3245289D02*
G01*
X6242862Y3130745D01*
X6199228Y3245289D02*
G01*
X6242862Y3130745D01*
X6199228Y3245289D02*
G01*
X6199228Y3130745D01*
X6163228Y3245289D02*
G01*
X6163228Y3130745D01*
X6163228Y3245289D02*
G01*
X6114135Y3245289D01*
X6097772Y3239836D01*
X6092319Y3234382D01*
X6086863Y3223473D01*
X6086863Y3207108D01*
X6092319Y3196198D01*
X6097772Y3190745D01*
X6114135Y3185289D01*
X6163228Y3185289D01*
X6050864Y3223473D02*
G01*
X6039954Y3228926D01*
X6023592Y3245289D01*
X6023592Y3130745D01*
X5960318Y3245289D02*
G01*
X5976683Y3239836D01*
X5982136Y3228926D01*
X5982136Y3218017D01*
X5976683Y3207108D01*
X5965774Y3201654D01*
X5943955Y3196198D01*
X5927590Y3190745D01*
X5916683Y3179836D01*
X5911227Y3168926D01*
X5911227Y3152564D01*
X5916683Y3141654D01*
X5922136Y3136198D01*
X5938499Y3130745D01*
X5960318Y3130745D01*
X5976683Y3136198D01*
X5982136Y3141654D01*
X5987590Y3152564D01*
X5987590Y3168926D01*
X5982136Y3179836D01*
X5971227Y3190745D01*
X5954864Y3196198D01*
X5933046Y3201654D01*
X5922136Y3207108D01*
X5916683Y3218017D01*
X5916683Y3228926D01*
X5922136Y3239836D01*
X5938499Y3245289D01*
X5960318Y3245289D01*
X8148497Y21030394D02*
G01*
X8148497Y20915850D01*
X8148497Y21030394D02*
G01*
X8104860Y20915850D01*
X8061225Y21030394D02*
G01*
X8104860Y20915850D01*
X8061225Y21030394D02*
G01*
X8061225Y20915850D01*
X8025226Y21030394D02*
G01*
X8025226Y20915850D01*
X8025226Y21030394D02*
G01*
X7976133Y21030394D01*
X7959770Y21024941D01*
X7954317Y21019488D01*
X7948861Y21008578D01*
X7948861Y20992213D01*
X7954317Y20981304D01*
X7959770Y20975850D01*
X7976133Y20970394D01*
X8025226Y20970394D01*
X7912861Y21008578D02*
G01*
X7901952Y21014032D01*
X7885590Y21030394D01*
X7885590Y20915850D01*
X7778681Y20992213D02*
G01*
X7784134Y20975850D01*
X7795044Y20964941D01*
X7811406Y20959488D01*
X7816862Y20959488D01*
X7833225Y20964941D01*
X7844134Y20975850D01*
X7849588Y20992213D01*
X7849588Y20997669D01*
X7844134Y21014032D01*
X7833225Y21024941D01*
X7816862Y21030394D01*
X7811406Y21030394D01*
X7795044Y21024941D01*
X7784134Y21014032D01*
X7778681Y20992213D01*
X7778681Y20964941D01*
X7784134Y20937669D01*
X7795044Y20921304D01*
X7811406Y20915850D01*
X7822316Y20915850D01*
X7838681Y20921304D01*
X7844134Y20932213D01*
X13233400Y20237889D02*
G01*
X13233400Y20123345D01*
X13233400Y20237889D02*
G01*
X13189762Y20123345D01*
X13146128Y20237889D02*
G01*
X13189762Y20123345D01*
X13146128Y20237889D02*
G01*
X13146128Y20123345D01*
X13110128Y20237889D02*
G01*
X13110128Y20123345D01*
X13110128Y20237889D02*
G01*
X13061035Y20237889D01*
X13044672Y20232436D01*
X13039219Y20226982D01*
X13033763Y20216073D01*
X13033763Y20199708D01*
X13039219Y20188798D01*
X13044672Y20183345D01*
X13061035Y20177889D01*
X13110128Y20177889D01*
X12992310Y20210617D02*
G01*
X12992310Y20216073D01*
X12986854Y20226982D01*
X12981401Y20232436D01*
X12970492Y20237889D01*
X12948673Y20237889D01*
X12937764Y20232436D01*
X12932310Y20226982D01*
X12926855Y20216073D01*
X12926855Y20205164D01*
X12932310Y20194254D01*
X12943217Y20177889D01*
X12997764Y20123345D01*
X12921401Y20123345D01*
X12852674Y20237889D02*
G01*
X12869036Y20232436D01*
X12879946Y20216073D01*
X12885399Y20188798D01*
X12885399Y20172436D01*
X12879946Y20145164D01*
X12869036Y20128798D01*
X12852674Y20123345D01*
X12841765Y20123345D01*
X12825399Y20128798D01*
X12814490Y20145164D01*
X12809037Y20172436D01*
X12809037Y20188798D01*
X12814490Y20216073D01*
X12825399Y20232436D01*
X12841765Y20237889D01*
X12852674Y20237889D01*
X8186597Y15124894D02*
G01*
X8186597Y15010350D01*
X8186597Y15124894D02*
G01*
X8142960Y15010350D01*
X8099325Y15124894D02*
G01*
X8142960Y15010350D01*
X8099325Y15124894D02*
G01*
X8099325Y15010350D01*
X8063326Y15124894D02*
G01*
X8063326Y15010350D01*
X8063326Y15124894D02*
G01*
X8014233Y15124894D01*
X7997870Y15119441D01*
X7992417Y15113988D01*
X7986961Y15103078D01*
X7986961Y15086713D01*
X7992417Y15075804D01*
X7997870Y15070350D01*
X8014233Y15064894D01*
X8063326Y15064894D01*
X7945508Y15097622D02*
G01*
X7945508Y15103078D01*
X7940052Y15113988D01*
X7934599Y15119441D01*
X7923690Y15124894D01*
X7901871Y15124894D01*
X7890962Y15119441D01*
X7885508Y15113988D01*
X7880052Y15103078D01*
X7880052Y15092169D01*
X7885508Y15081260D01*
X7896415Y15064894D01*
X7950961Y15010350D01*
X7874599Y15010350D01*
X7838597Y15103078D02*
G01*
X7827688Y15108532D01*
X7811325Y15124894D01*
X7811325Y15010350D01*
X13241197Y15124894D02*
G01*
X13241197Y15010350D01*
X13241197Y15124894D02*
G01*
X13197560Y15010350D01*
X13153925Y15124894D02*
G01*
X13197560Y15010350D01*
X13153925Y15124894D02*
G01*
X13153925Y15010350D01*
X13117926Y15124894D02*
G01*
X13117926Y15010350D01*
X13117926Y15124894D02*
G01*
X13068833Y15124894D01*
X13052470Y15119441D01*
X13047017Y15113988D01*
X13041561Y15103078D01*
X13041561Y15086713D01*
X13047017Y15075804D01*
X13052470Y15070350D01*
X13068833Y15064894D01*
X13117926Y15064894D01*
X13000108Y15097622D02*
G01*
X13000108Y15103078D01*
X12994652Y15113988D01*
X12989199Y15119441D01*
X12978290Y15124894D01*
X12956471Y15124894D01*
X12945562Y15119441D01*
X12940108Y15113988D01*
X12934652Y15103078D01*
X12934652Y15092169D01*
X12940108Y15081260D01*
X12951015Y15064894D01*
X13005561Y15010350D01*
X12929199Y15010350D01*
X12887744Y15097622D02*
G01*
X12887744Y15103078D01*
X12882288Y15113988D01*
X12876834Y15119441D01*
X12865925Y15124894D01*
X12844106Y15124894D01*
X12833197Y15119441D01*
X12827744Y15113988D01*
X12822288Y15103078D01*
X12822288Y15092169D01*
X12827744Y15081260D01*
X12838653Y15064894D01*
X12893197Y15010350D01*
X12816834Y15010350D01*
X8182889Y14675289D02*
G01*
X8182889Y14560745D01*
X8182889Y14675289D02*
G01*
X8139252Y14560745D01*
X8095617Y14675289D02*
G01*
X8139252Y14560745D01*
X8095617Y14675289D02*
G01*
X8095617Y14560745D01*
X8059618Y14675289D02*
G01*
X8059618Y14560745D01*
X8059618Y14675289D02*
G01*
X8010525Y14675289D01*
X7994162Y14669836D01*
X7988708Y14664382D01*
X7983253Y14653473D01*
X7983253Y14637108D01*
X7988708Y14626198D01*
X7994162Y14620745D01*
X8010525Y14615289D01*
X8059618Y14615289D01*
X7941800Y14648017D02*
G01*
X7941800Y14653473D01*
X7936344Y14664382D01*
X7930890Y14669836D01*
X7919981Y14675289D01*
X7898163Y14675289D01*
X7887253Y14669836D01*
X7881800Y14664382D01*
X7876344Y14653473D01*
X7876344Y14642564D01*
X7881800Y14631654D01*
X7892707Y14615289D01*
X7947253Y14560745D01*
X7870891Y14560745D01*
X7823979Y14675289D02*
G01*
X7763979Y14675289D01*
X7796707Y14631654D01*
X7780345Y14631654D01*
X7769435Y14626198D01*
X7763979Y14620745D01*
X7758526Y14604382D01*
X7758526Y14593473D01*
X7763979Y14577108D01*
X7774889Y14566198D01*
X7791254Y14560745D01*
X7807617Y14560745D01*
X7823979Y14566198D01*
X7829435Y14571654D01*
X7834889Y14582564D01*
X13262889Y14675289D02*
G01*
X13262889Y14560745D01*
X13262889Y14675289D02*
G01*
X13219252Y14560745D01*
X13175617Y14675289D02*
G01*
X13219252Y14560745D01*
X13175617Y14675289D02*
G01*
X13175617Y14560745D01*
X13139618Y14675289D02*
G01*
X13139618Y14560745D01*
X13139618Y14675289D02*
G01*
X13090525Y14675289D01*
X13074162Y14669836D01*
X13068708Y14664382D01*
X13063253Y14653473D01*
X13063253Y14637108D01*
X13068708Y14626198D01*
X13074162Y14620745D01*
X13090525Y14615289D01*
X13139618Y14615289D01*
X13021800Y14648017D02*
G01*
X13021800Y14653473D01*
X13016344Y14664382D01*
X13010890Y14669836D01*
X12999981Y14675289D01*
X12978163Y14675289D01*
X12967253Y14669836D01*
X12961800Y14664382D01*
X12956344Y14653473D01*
X12956344Y14642564D01*
X12961800Y14631654D01*
X12972707Y14615289D01*
X13027253Y14560745D01*
X12950891Y14560745D01*
X12860345Y14675289D02*
G01*
X12914889Y14598926D01*
X12833073Y14598926D01*
X12860345Y14675289D02*
G01*
X12860345Y14560745D01*
X8178800Y8782489D02*
G01*
X8178800Y8667945D01*
X8178800Y8782489D02*
G01*
X8135162Y8667945D01*
X8091528Y8782489D02*
G01*
X8135162Y8667945D01*
X8091528Y8782489D02*
G01*
X8091528Y8667945D01*
X8055528Y8782489D02*
G01*
X8055528Y8667945D01*
X8055528Y8782489D02*
G01*
X8006435Y8782489D01*
X7990072Y8777036D01*
X7984619Y8771582D01*
X7979163Y8760673D01*
X7979163Y8744308D01*
X7984619Y8733398D01*
X7990072Y8727945D01*
X8006435Y8722489D01*
X8055528Y8722489D01*
X7937710Y8755217D02*
G01*
X7937710Y8760673D01*
X7932254Y8771582D01*
X7926801Y8777036D01*
X7915892Y8782489D01*
X7894073Y8782489D01*
X7883164Y8777036D01*
X7877710Y8771582D01*
X7872255Y8760673D01*
X7872255Y8749764D01*
X7877710Y8738854D01*
X7888617Y8722489D01*
X7943164Y8667945D01*
X7866801Y8667945D01*
X7765346Y8782489D02*
G01*
X7819890Y8782489D01*
X7825346Y8733398D01*
X7819890Y8738854D01*
X7803527Y8744308D01*
X7787165Y8744308D01*
X7770799Y8738854D01*
X7759890Y8727945D01*
X7754437Y8711582D01*
X7754437Y8700673D01*
X7759890Y8684308D01*
X7770799Y8673398D01*
X7787165Y8667945D01*
X7803527Y8667945D01*
X7819890Y8673398D01*
X7825346Y8678854D01*
X7830799Y8689764D01*
X13258800Y8782489D02*
G01*
X13258800Y8667945D01*
X13258800Y8782489D02*
G01*
X13215162Y8667945D01*
X13171528Y8782489D02*
G01*
X13215162Y8667945D01*
X13171528Y8782489D02*
G01*
X13171528Y8667945D01*
X13135528Y8782489D02*
G01*
X13135528Y8667945D01*
X13135528Y8782489D02*
G01*
X13086435Y8782489D01*
X13070072Y8777036D01*
X13064619Y8771582D01*
X13059163Y8760673D01*
X13059163Y8744308D01*
X13064619Y8733398D01*
X13070072Y8727945D01*
X13086435Y8722489D01*
X13135528Y8722489D01*
X13017710Y8755217D02*
G01*
X13017710Y8760673D01*
X13012254Y8771582D01*
X13006801Y8777036D01*
X12995892Y8782489D01*
X12974073Y8782489D01*
X12963164Y8777036D01*
X12957710Y8771582D01*
X12952255Y8760673D01*
X12952255Y8749764D01*
X12957710Y8738854D01*
X12968617Y8722489D01*
X13023164Y8667945D01*
X12946801Y8667945D01*
X12845346Y8766126D02*
G01*
X12850799Y8777036D01*
X12867165Y8782489D01*
X12878074Y8782489D01*
X12894436Y8777036D01*
X12905346Y8760673D01*
X12910799Y8733398D01*
X12910799Y8706126D01*
X12905346Y8684308D01*
X12894436Y8673398D01*
X12878074Y8667945D01*
X12872618Y8667945D01*
X12856255Y8673398D01*
X12845346Y8684308D01*
X12839890Y8700673D01*
X12839890Y8706126D01*
X12845346Y8722489D01*
X12856255Y8733398D01*
X12872618Y8738854D01*
X12878074Y8738854D01*
X12894436Y8733398D01*
X12905346Y8722489D01*
X12910799Y8706126D01*
X8182889Y8325289D02*
G01*
X8182889Y8210745D01*
X8182889Y8325289D02*
G01*
X8139252Y8210745D01*
X8095617Y8325289D02*
G01*
X8139252Y8210745D01*
X8095617Y8325289D02*
G01*
X8095617Y8210745D01*
X8059618Y8325289D02*
G01*
X8059618Y8210745D01*
X8059618Y8325289D02*
G01*
X8010525Y8325289D01*
X7994162Y8319836D01*
X7988708Y8314382D01*
X7983253Y8303473D01*
X7983253Y8287108D01*
X7988708Y8276198D01*
X7994162Y8270745D01*
X8010525Y8265289D01*
X8059618Y8265289D01*
X7941800Y8298017D02*
G01*
X7941800Y8303473D01*
X7936344Y8314382D01*
X7930890Y8319836D01*
X7919981Y8325289D01*
X7898163Y8325289D01*
X7887253Y8319836D01*
X7881800Y8314382D01*
X7876344Y8303473D01*
X7876344Y8292564D01*
X7881800Y8281654D01*
X7892707Y8265289D01*
X7947253Y8210745D01*
X7870891Y8210745D01*
X7758526Y8325289D02*
G01*
X7813073Y8210745D01*
X7834889Y8325289D02*
G01*
X7758526Y8325289D01*
X13262889Y8325289D02*
G01*
X13262889Y8210745D01*
X13262889Y8325289D02*
G01*
X13219252Y8210745D01*
X13175617Y8325289D02*
G01*
X13219252Y8210745D01*
X13175617Y8325289D02*
G01*
X13175617Y8210745D01*
X13139618Y8325289D02*
G01*
X13139618Y8210745D01*
X13139618Y8325289D02*
G01*
X13090525Y8325289D01*
X13074162Y8319836D01*
X13068708Y8314382D01*
X13063253Y8303473D01*
X13063253Y8287108D01*
X13068708Y8276198D01*
X13074162Y8270745D01*
X13090525Y8265289D01*
X13139618Y8265289D01*
X13021800Y8298017D02*
G01*
X13021800Y8303473D01*
X13016344Y8314382D01*
X13010890Y8319836D01*
X12999981Y8325289D01*
X12978163Y8325289D01*
X12967253Y8319836D01*
X12961800Y8314382D01*
X12956344Y8303473D01*
X12956344Y8292564D01*
X12961800Y8281654D01*
X12972707Y8265289D01*
X13027253Y8210745D01*
X12950891Y8210745D01*
X12887617Y8325289D02*
G01*
X12903979Y8319836D01*
X12909435Y8308926D01*
X12909435Y8298017D01*
X12903979Y8287108D01*
X12893073Y8281654D01*
X12871254Y8276198D01*
X12854889Y8270745D01*
X12843979Y8259836D01*
X12838526Y8248926D01*
X12838526Y8232564D01*
X12843979Y8221654D01*
X12849435Y8216198D01*
X12865798Y8210745D01*
X12887617Y8210745D01*
X12903979Y8216198D01*
X12909435Y8221654D01*
X12914889Y8232564D01*
X12914889Y8248926D01*
X12909435Y8259836D01*
X12898526Y8270745D01*
X12882163Y8276198D01*
X12860345Y8281654D01*
X12849435Y8287108D01*
X12843979Y8298017D01*
X12843979Y8308926D01*
X12849435Y8319836D01*
X12865798Y8325289D01*
X12887617Y8325289D01*
X8153400Y3245289D02*
G01*
X8153400Y3130745D01*
X8153400Y3245289D02*
G01*
X8109762Y3130745D01*
X8066128Y3245289D02*
G01*
X8109762Y3130745D01*
X8066128Y3245289D02*
G01*
X8066128Y3130745D01*
X8030128Y3245289D02*
G01*
X8030128Y3130745D01*
X8030128Y3245289D02*
G01*
X7981035Y3245289D01*
X7964672Y3239836D01*
X7959219Y3234382D01*
X7953763Y3223473D01*
X7953763Y3207108D01*
X7959219Y3196198D01*
X7964672Y3190745D01*
X7981035Y3185289D01*
X8030128Y3185289D01*
X7912310Y3218017D02*
G01*
X7912310Y3223473D01*
X7906854Y3234382D01*
X7901401Y3239836D01*
X7890492Y3245289D01*
X7868673Y3245289D01*
X7857764Y3239836D01*
X7852310Y3234382D01*
X7846855Y3223473D01*
X7846855Y3212564D01*
X7852310Y3201654D01*
X7863217Y3185289D01*
X7917764Y3130745D01*
X7841401Y3130745D01*
X7734490Y3207108D02*
G01*
X7739946Y3190745D01*
X7750855Y3179836D01*
X7767218Y3174382D01*
X7772674Y3174382D01*
X7789036Y3179836D01*
X7799946Y3190745D01*
X7805399Y3207108D01*
X7805399Y3212564D01*
X7799946Y3228926D01*
X7789036Y3239836D01*
X7772674Y3245289D01*
X7767218Y3245289D01*
X7750855Y3239836D01*
X7739946Y3228926D01*
X7734490Y3207108D01*
X7734490Y3179836D01*
X7739946Y3152564D01*
X7750855Y3136198D01*
X7767218Y3130745D01*
X7778127Y3130745D01*
X7794490Y3136198D01*
X7799946Y3147108D01*
X15087600Y20225189D02*
G01*
X15087600Y20110645D01*
X15087600Y20225189D02*
G01*
X15043962Y20110645D01*
X15000328Y20225189D02*
G01*
X15043962Y20110645D01*
X15000328Y20225189D02*
G01*
X15000328Y20110645D01*
X14964328Y20225189D02*
G01*
X14964328Y20110645D01*
X14964328Y20225189D02*
G01*
X14915235Y20225189D01*
X14898872Y20219736D01*
X14893419Y20214282D01*
X14887963Y20203373D01*
X14887963Y20187008D01*
X14893419Y20176098D01*
X14898872Y20170645D01*
X14915235Y20165189D01*
X14964328Y20165189D01*
X14841054Y20225189D02*
G01*
X14781055Y20225189D01*
X14813782Y20181554D01*
X14797417Y20181554D01*
X14786510Y20176098D01*
X14781055Y20170645D01*
X14775601Y20154282D01*
X14775601Y20143373D01*
X14781055Y20127008D01*
X14791964Y20116098D01*
X14808327Y20110645D01*
X14824692Y20110645D01*
X14841054Y20116098D01*
X14846510Y20121554D01*
X14851964Y20132464D01*
X14739599Y20203373D02*
G01*
X14728690Y20208826D01*
X14712327Y20225189D01*
X14712327Y20110645D01*
X20181595Y21025289D02*
G01*
X20181595Y20910745D01*
X20181595Y21025289D02*
G01*
X20137958Y20910745D01*
X20094323Y21025289D02*
G01*
X20137958Y20910745D01*
X20094323Y21025289D02*
G01*
X20094323Y20910745D01*
X20058324Y21025289D02*
G01*
X20058324Y20910745D01*
X20058324Y21025289D02*
G01*
X20009231Y21025289D01*
X19992868Y21019836D01*
X19987414Y21014382D01*
X19981959Y21003473D01*
X19981959Y20987108D01*
X19987414Y20976198D01*
X19992868Y20970745D01*
X20009231Y20965289D01*
X20058324Y20965289D01*
X19935050Y21025289D02*
G01*
X19875050Y21025289D01*
X19907778Y20981654D01*
X19891413Y20981654D01*
X19880506Y20976198D01*
X19875050Y20970745D01*
X19869597Y20954382D01*
X19869597Y20943473D01*
X19875050Y20927108D01*
X19885959Y20916198D01*
X19902322Y20910745D01*
X19918687Y20910745D01*
X19935050Y20916198D01*
X19940506Y20921654D01*
X19945959Y20932564D01*
X19828141Y20998017D02*
G01*
X19828141Y21003473D01*
X19822685Y21014382D01*
X19817232Y21019836D01*
X19806323Y21025289D01*
X19784504Y21025289D01*
X19773595Y21019836D01*
X19768141Y21014382D01*
X19762685Y21003473D01*
X19762685Y20992564D01*
X19768141Y20981654D01*
X19779051Y20965289D01*
X19833595Y20910745D01*
X19757232Y20910745D01*
X15130703Y15124894D02*
G01*
X15130703Y15010350D01*
X15130703Y15124894D02*
G01*
X15087066Y15010350D01*
X15043431Y15124894D02*
G01*
X15087066Y15010350D01*
X15043431Y15124894D02*
G01*
X15043431Y15010350D01*
X15007432Y15124894D02*
G01*
X15007432Y15010350D01*
X15007432Y15124894D02*
G01*
X14958339Y15124894D01*
X14941976Y15119441D01*
X14936523Y15113988D01*
X14931067Y15103078D01*
X14931067Y15086713D01*
X14936523Y15075804D01*
X14941976Y15070350D01*
X14958339Y15064894D01*
X15007432Y15064894D01*
X14884158Y15124894D02*
G01*
X14824158Y15124894D01*
X14856886Y15081260D01*
X14840521Y15081260D01*
X14829614Y15075804D01*
X14824158Y15070350D01*
X14818705Y15053988D01*
X14818705Y15043078D01*
X14824158Y15026713D01*
X14835068Y15015804D01*
X14851430Y15010350D01*
X14867796Y15010350D01*
X14884158Y15015804D01*
X14889614Y15021260D01*
X14895068Y15032169D01*
X14771794Y15124894D02*
G01*
X14711794Y15124894D01*
X14744522Y15081260D01*
X14728159Y15081260D01*
X14717250Y15075804D01*
X14711794Y15070350D01*
X14706340Y15053988D01*
X14706340Y15043078D01*
X14711794Y15026713D01*
X14722703Y15015804D01*
X14739068Y15010350D01*
X14755431Y15010350D01*
X14771794Y15015804D01*
X14777250Y15021260D01*
X14782703Y15032169D01*
X20210703Y15124894D02*
G01*
X20210703Y15010350D01*
X20210703Y15124894D02*
G01*
X20167066Y15010350D01*
X20123431Y15124894D02*
G01*
X20167066Y15010350D01*
X20123431Y15124894D02*
G01*
X20123431Y15010350D01*
X20087432Y15124894D02*
G01*
X20087432Y15010350D01*
X20087432Y15124894D02*
G01*
X20038339Y15124894D01*
X20021976Y15119441D01*
X20016523Y15113988D01*
X20011067Y15103078D01*
X20011067Y15086713D01*
X20016523Y15075804D01*
X20021976Y15070350D01*
X20038339Y15064894D01*
X20087432Y15064894D01*
X19964158Y15124894D02*
G01*
X19904158Y15124894D01*
X19936886Y15081260D01*
X19920521Y15081260D01*
X19909614Y15075804D01*
X19904158Y15070350D01*
X19898705Y15053988D01*
X19898705Y15043078D01*
X19904158Y15026713D01*
X19915068Y15015804D01*
X19931430Y15010350D01*
X19947796Y15010350D01*
X19964158Y15015804D01*
X19969614Y15021260D01*
X19975068Y15032169D01*
X19808159Y15124894D02*
G01*
X19862703Y15048532D01*
X19780887Y15048532D01*
X19808159Y15124894D02*
G01*
X19808159Y15010350D01*
X15126995Y14675289D02*
G01*
X15126995Y14560745D01*
X15126995Y14675289D02*
G01*
X15083358Y14560745D01*
X15039723Y14675289D02*
G01*
X15083358Y14560745D01*
X15039723Y14675289D02*
G01*
X15039723Y14560745D01*
X15003724Y14675289D02*
G01*
X15003724Y14560745D01*
X15003724Y14675289D02*
G01*
X14954631Y14675289D01*
X14938268Y14669836D01*
X14932814Y14664382D01*
X14927359Y14653473D01*
X14927359Y14637108D01*
X14932814Y14626198D01*
X14938268Y14620745D01*
X14954631Y14615289D01*
X15003724Y14615289D01*
X14880450Y14675289D02*
G01*
X14820450Y14675289D01*
X14853178Y14631654D01*
X14836813Y14631654D01*
X14825906Y14626198D01*
X14820450Y14620745D01*
X14814997Y14604382D01*
X14814997Y14593473D01*
X14820450Y14577108D01*
X14831359Y14566198D01*
X14847722Y14560745D01*
X14864087Y14560745D01*
X14880450Y14566198D01*
X14885906Y14571654D01*
X14891359Y14582564D01*
X14713541Y14675289D02*
G01*
X14768085Y14675289D01*
X14773541Y14626198D01*
X14768085Y14631654D01*
X14751723Y14637108D01*
X14735360Y14637108D01*
X14718995Y14631654D01*
X14708085Y14620745D01*
X14702632Y14604382D01*
X14702632Y14593473D01*
X14708085Y14577108D01*
X14718995Y14566198D01*
X14735360Y14560745D01*
X14751723Y14560745D01*
X14768085Y14566198D01*
X14773541Y14571654D01*
X14778995Y14582564D01*
X20206995Y14675289D02*
G01*
X20206995Y14560745D01*
X20206995Y14675289D02*
G01*
X20163358Y14560745D01*
X20119723Y14675289D02*
G01*
X20163358Y14560745D01*
X20119723Y14675289D02*
G01*
X20119723Y14560745D01*
X20083724Y14675289D02*
G01*
X20083724Y14560745D01*
X20083724Y14675289D02*
G01*
X20034631Y14675289D01*
X20018268Y14669836D01*
X20012814Y14664382D01*
X20007359Y14653473D01*
X20007359Y14637108D01*
X20012814Y14626198D01*
X20018268Y14620745D01*
X20034631Y14615289D01*
X20083724Y14615289D01*
X19960450Y14675289D02*
G01*
X19900450Y14675289D01*
X19933178Y14631654D01*
X19916813Y14631654D01*
X19905906Y14626198D01*
X19900450Y14620745D01*
X19894997Y14604382D01*
X19894997Y14593473D01*
X19900450Y14577108D01*
X19911359Y14566198D01*
X19927722Y14560745D01*
X19944087Y14560745D01*
X19960450Y14566198D01*
X19965906Y14571654D01*
X19971359Y14582564D01*
X19793541Y14658926D02*
G01*
X19798995Y14669836D01*
X19815360Y14675289D01*
X19826269Y14675289D01*
X19842632Y14669836D01*
X19853541Y14653473D01*
X19858995Y14626198D01*
X19858995Y14598926D01*
X19853541Y14577108D01*
X19842632Y14566198D01*
X19826269Y14560745D01*
X19820813Y14560745D01*
X19804451Y14566198D01*
X19793541Y14577108D01*
X19788085Y14593473D01*
X19788085Y14598926D01*
X19793541Y14615289D01*
X19804451Y14626198D01*
X19820813Y14631654D01*
X19826269Y14631654D01*
X19842632Y14626198D01*
X19853541Y14615289D01*
X19858995Y14598926D01*
X15125700Y8782489D02*
G01*
X15125700Y8667945D01*
X15125700Y8782489D02*
G01*
X15082062Y8667945D01*
X15038428Y8782489D02*
G01*
X15082062Y8667945D01*
X15038428Y8782489D02*
G01*
X15038428Y8667945D01*
X15002428Y8782489D02*
G01*
X15002428Y8667945D01*
X15002428Y8782489D02*
G01*
X14953335Y8782489D01*
X14936972Y8777036D01*
X14931519Y8771582D01*
X14926063Y8760673D01*
X14926063Y8744308D01*
X14931519Y8733398D01*
X14936972Y8727945D01*
X14953335Y8722489D01*
X15002428Y8722489D01*
X14879154Y8782489D02*
G01*
X14819155Y8782489D01*
X14851882Y8738854D01*
X14835517Y8738854D01*
X14824610Y8733398D01*
X14819155Y8727945D01*
X14813701Y8711582D01*
X14813701Y8700673D01*
X14819155Y8684308D01*
X14830064Y8673398D01*
X14846427Y8667945D01*
X14862792Y8667945D01*
X14879154Y8673398D01*
X14884610Y8678854D01*
X14890064Y8689764D01*
X14701337Y8782489D02*
G01*
X14755883Y8667945D01*
X14777699Y8782489D02*
G01*
X14701337Y8782489D01*
X20205700Y8782489D02*
G01*
X20205700Y8667945D01*
X20205700Y8782489D02*
G01*
X20162062Y8667945D01*
X20118428Y8782489D02*
G01*
X20162062Y8667945D01*
X20118428Y8782489D02*
G01*
X20118428Y8667945D01*
X20082428Y8782489D02*
G01*
X20082428Y8667945D01*
X20082428Y8782489D02*
G01*
X20033335Y8782489D01*
X20016972Y8777036D01*
X20011519Y8771582D01*
X20006063Y8760673D01*
X20006063Y8744308D01*
X20011519Y8733398D01*
X20016972Y8727945D01*
X20033335Y8722489D01*
X20082428Y8722489D01*
X19959154Y8782489D02*
G01*
X19899155Y8782489D01*
X19931882Y8738854D01*
X19915517Y8738854D01*
X19904610Y8733398D01*
X19899155Y8727945D01*
X19893701Y8711582D01*
X19893701Y8700673D01*
X19899155Y8684308D01*
X19910064Y8673398D01*
X19926427Y8667945D01*
X19942792Y8667945D01*
X19959154Y8673398D01*
X19964610Y8678854D01*
X19970064Y8689764D01*
X19830427Y8782489D02*
G01*
X19846790Y8777036D01*
X19852246Y8766126D01*
X19852246Y8755217D01*
X19846790Y8744308D01*
X19835883Y8738854D01*
X19814065Y8733398D01*
X19797699Y8727945D01*
X19786790Y8717036D01*
X19781337Y8706126D01*
X19781337Y8689764D01*
X19786790Y8678854D01*
X19792246Y8673398D01*
X19808609Y8667945D01*
X19830427Y8667945D01*
X19846790Y8673398D01*
X19852246Y8678854D01*
X19857699Y8689764D01*
X19857699Y8706126D01*
X19852246Y8717036D01*
X19841336Y8727945D01*
X19824974Y8733398D01*
X19803155Y8738854D01*
X19792246Y8744308D01*
X19786790Y8755217D01*
X19786790Y8766126D01*
X19792246Y8777036D01*
X19808609Y8782489D01*
X19830427Y8782489D01*
X15126995Y8325289D02*
G01*
X15126995Y8210745D01*
X15126995Y8325289D02*
G01*
X15083358Y8210745D01*
X15039723Y8325289D02*
G01*
X15083358Y8210745D01*
X15039723Y8325289D02*
G01*
X15039723Y8210745D01*
X15003724Y8325289D02*
G01*
X15003724Y8210745D01*
X15003724Y8325289D02*
G01*
X14954631Y8325289D01*
X14938268Y8319836D01*
X14932814Y8314382D01*
X14927359Y8303473D01*
X14927359Y8287108D01*
X14932814Y8276198D01*
X14938268Y8270745D01*
X14954631Y8265289D01*
X15003724Y8265289D01*
X14880450Y8325289D02*
G01*
X14820450Y8325289D01*
X14853178Y8281654D01*
X14836813Y8281654D01*
X14825906Y8276198D01*
X14820450Y8270745D01*
X14814997Y8254382D01*
X14814997Y8243473D01*
X14820450Y8227108D01*
X14831359Y8216198D01*
X14847722Y8210745D01*
X14864087Y8210745D01*
X14880450Y8216198D01*
X14885906Y8221654D01*
X14891359Y8232564D01*
X14708085Y8287108D02*
G01*
X14713541Y8270745D01*
X14724451Y8259836D01*
X14740813Y8254382D01*
X14746269Y8254382D01*
X14762632Y8259836D01*
X14773541Y8270745D01*
X14778995Y8287108D01*
X14778995Y8292564D01*
X14773541Y8308926D01*
X14762632Y8319836D01*
X14746269Y8325289D01*
X14740813Y8325289D01*
X14724451Y8319836D01*
X14713541Y8308926D01*
X14708085Y8287108D01*
X14708085Y8259836D01*
X14713541Y8232564D01*
X14724451Y8216198D01*
X14740813Y8210745D01*
X14751723Y8210745D01*
X14768085Y8216198D01*
X14773541Y8227108D01*
X20206995Y8325289D02*
G01*
X20206995Y8210745D01*
X20206995Y8325289D02*
G01*
X20163358Y8210745D01*
X20119723Y8325289D02*
G01*
X20163358Y8210745D01*
X20119723Y8325289D02*
G01*
X20119723Y8210745D01*
X20083724Y8325289D02*
G01*
X20083724Y8210745D01*
X20083724Y8325289D02*
G01*
X20034631Y8325289D01*
X20018268Y8319836D01*
X20012814Y8314382D01*
X20007359Y8303473D01*
X20007359Y8287108D01*
X20012814Y8276198D01*
X20018268Y8270745D01*
X20034631Y8265289D01*
X20083724Y8265289D01*
X19916813Y8325289D02*
G01*
X19971359Y8248926D01*
X19889541Y8248926D01*
X19916813Y8325289D02*
G01*
X19916813Y8210745D01*
X19820813Y8325289D02*
G01*
X19837179Y8319836D01*
X19848085Y8303473D01*
X19853541Y8276198D01*
X19853541Y8259836D01*
X19848085Y8232564D01*
X19837179Y8216198D01*
X19820813Y8210745D01*
X19809904Y8210745D01*
X19793541Y8216198D01*
X19782632Y8232564D01*
X19777179Y8259836D01*
X19777179Y8276198D01*
X19782632Y8303473D01*
X19793541Y8319836D01*
X19809904Y8325289D01*
X19820813Y8325289D01*
X15074900Y3245289D02*
G01*
X15074900Y3130745D01*
X15074900Y3245289D02*
G01*
X15031262Y3130745D01*
X14987628Y3245289D02*
G01*
X15031262Y3130745D01*
X14987628Y3245289D02*
G01*
X14987628Y3130745D01*
X14951628Y3245289D02*
G01*
X14951628Y3130745D01*
X14951628Y3245289D02*
G01*
X14902535Y3245289D01*
X14886172Y3239836D01*
X14880719Y3234382D01*
X14875263Y3223473D01*
X14875263Y3207108D01*
X14880719Y3196198D01*
X14886172Y3190745D01*
X14902535Y3185289D01*
X14951628Y3185289D01*
X14784717Y3245289D02*
G01*
X14839264Y3168926D01*
X14757445Y3168926D01*
X14784717Y3245289D02*
G01*
X14784717Y3130745D01*
X14721446Y3223473D02*
G01*
X14710536Y3228926D01*
X14694174Y3245289D01*
X14694174Y3130745D01*
X20180300Y3245289D02*
G01*
X20180300Y3130745D01*
X20180300Y3245289D02*
G01*
X20136662Y3130745D01*
X20093028Y3245289D02*
G01*
X20136662Y3130745D01*
X20093028Y3245289D02*
G01*
X20093028Y3130745D01*
X20057028Y3245289D02*
G01*
X20057028Y3130745D01*
X20057028Y3245289D02*
G01*
X20007935Y3245289D01*
X19991572Y3239836D01*
X19986119Y3234382D01*
X19980663Y3223473D01*
X19980663Y3207108D01*
X19986119Y3196198D01*
X19991572Y3190745D01*
X20007935Y3185289D01*
X20057028Y3185289D01*
X19890117Y3245289D02*
G01*
X19944664Y3168926D01*
X19862845Y3168926D01*
X19890117Y3245289D02*
G01*
X19890117Y3130745D01*
X19821390Y3218017D02*
G01*
X19821390Y3223473D01*
X19815936Y3234382D01*
X19810483Y3239836D01*
X19799574Y3245289D01*
X19777755Y3245289D01*
X19766846Y3239836D01*
X19761390Y3234382D01*
X19755937Y3223473D01*
X19755937Y3212564D01*
X19761390Y3201654D01*
X19772299Y3185289D01*
X19826846Y3130745D01*
X19750483Y3130745D01*
X22068891Y21020184D02*
G01*
X22068891Y20905640D01*
X22068891Y21020184D02*
G01*
X22025254Y20905640D01*
X21981619Y21020184D02*
G01*
X22025254Y20905640D01*
X21981619Y21020184D02*
G01*
X21981619Y20905640D01*
X21945620Y21020184D02*
G01*
X21945620Y20905640D01*
X21945620Y21020184D02*
G01*
X21896527Y21020184D01*
X21880164Y21014730D01*
X21874711Y21009277D01*
X21869255Y20998367D01*
X21869255Y20982002D01*
X21874711Y20971093D01*
X21880164Y20965640D01*
X21896527Y20960184D01*
X21945620Y20960184D01*
X21778709Y21020184D02*
G01*
X21833255Y20943821D01*
X21751437Y20943821D01*
X21778709Y21020184D02*
G01*
X21778709Y20905640D01*
X21704528Y21020184D02*
G01*
X21644528Y21020184D01*
X21677256Y20976549D01*
X21660891Y20976549D01*
X21649982Y20971093D01*
X21644528Y20965640D01*
X21639075Y20949277D01*
X21639075Y20938368D01*
X21644528Y20922002D01*
X21655438Y20911093D01*
X21671800Y20905640D01*
X21688165Y20905640D01*
X21704528Y20911093D01*
X21709981Y20916549D01*
X21715437Y20927458D01*
X27148891Y21020184D02*
G01*
X27148891Y20905640D01*
X27148891Y21020184D02*
G01*
X27105254Y20905640D01*
X27061619Y21020184D02*
G01*
X27105254Y20905640D01*
X27061619Y21020184D02*
G01*
X27061619Y20905640D01*
X27025620Y21020184D02*
G01*
X27025620Y20905640D01*
X27025620Y21020184D02*
G01*
X26976527Y21020184D01*
X26960164Y21014730D01*
X26954711Y21009277D01*
X26949255Y20998367D01*
X26949255Y20982002D01*
X26954711Y20971093D01*
X26960164Y20965640D01*
X26976527Y20960184D01*
X27025620Y20960184D01*
X26858709Y21020184D02*
G01*
X26913255Y20943821D01*
X26831437Y20943821D01*
X26858709Y21020184D02*
G01*
X26858709Y20905640D01*
X26740891Y21020184D02*
G01*
X26795437Y20943821D01*
X26713619Y20943821D01*
X26740891Y21020184D02*
G01*
X26740891Y20905640D01*
X22072600Y15119789D02*
G01*
X22072600Y15005245D01*
X22072600Y15119789D02*
G01*
X22028962Y15005245D01*
X21985328Y15119789D02*
G01*
X22028962Y15005245D01*
X21985328Y15119789D02*
G01*
X21985328Y15005245D01*
X21949328Y15119789D02*
G01*
X21949328Y15005245D01*
X21949328Y15119789D02*
G01*
X21900235Y15119789D01*
X21883872Y15114336D01*
X21878419Y15108882D01*
X21872963Y15097973D01*
X21872963Y15081608D01*
X21878419Y15070698D01*
X21883872Y15065245D01*
X21900235Y15059789D01*
X21949328Y15059789D01*
X21782417Y15119789D02*
G01*
X21836964Y15043426D01*
X21755145Y15043426D01*
X21782417Y15119789D02*
G01*
X21782417Y15005245D01*
X21653690Y15119789D02*
G01*
X21708236Y15119789D01*
X21713690Y15070698D01*
X21708236Y15076154D01*
X21691874Y15081608D01*
X21675509Y15081608D01*
X21659146Y15076154D01*
X21648237Y15065245D01*
X21642783Y15048882D01*
X21642783Y15037973D01*
X21648237Y15021608D01*
X21659146Y15010698D01*
X21675509Y15005245D01*
X21691874Y15005245D01*
X21708236Y15010698D01*
X21713690Y15016154D01*
X21719146Y15027064D01*
X27152600Y15119789D02*
G01*
X27152600Y15005245D01*
X27152600Y15119789D02*
G01*
X27108962Y15005245D01*
X27065328Y15119789D02*
G01*
X27108962Y15005245D01*
X27065328Y15119789D02*
G01*
X27065328Y15005245D01*
X27029328Y15119789D02*
G01*
X27029328Y15005245D01*
X27029328Y15119789D02*
G01*
X26980235Y15119789D01*
X26963872Y15114336D01*
X26958419Y15108882D01*
X26952963Y15097973D01*
X26952963Y15081608D01*
X26958419Y15070698D01*
X26963872Y15065245D01*
X26980235Y15059789D01*
X27029328Y15059789D01*
X26862417Y15119789D02*
G01*
X26916964Y15043426D01*
X26835145Y15043426D01*
X26862417Y15119789D02*
G01*
X26862417Y15005245D01*
X26733690Y15103426D02*
G01*
X26739146Y15114336D01*
X26755509Y15119789D01*
X26766418Y15119789D01*
X26782783Y15114336D01*
X26793690Y15097973D01*
X26799146Y15070698D01*
X26799146Y15043426D01*
X26793690Y15021608D01*
X26782783Y15010698D01*
X26766418Y15005245D01*
X26760965Y15005245D01*
X26744599Y15010698D01*
X26733690Y15021608D01*
X26728237Y15037973D01*
X26728237Y15043426D01*
X26733690Y15059789D01*
X26744599Y15070698D01*
X26760965Y15076154D01*
X26766418Y15076154D01*
X26782783Y15070698D01*
X26793690Y15059789D01*
X26799146Y15043426D01*
X22068891Y14670184D02*
G01*
X22068891Y14555640D01*
X22068891Y14670184D02*
G01*
X22025254Y14555640D01*
X21981619Y14670184D02*
G01*
X22025254Y14555640D01*
X21981619Y14670184D02*
G01*
X21981619Y14555640D01*
X21945620Y14670184D02*
G01*
X21945620Y14555640D01*
X21945620Y14670184D02*
G01*
X21896527Y14670184D01*
X21880164Y14664730D01*
X21874711Y14659277D01*
X21869255Y14648367D01*
X21869255Y14632002D01*
X21874711Y14621093D01*
X21880164Y14615640D01*
X21896527Y14610184D01*
X21945620Y14610184D01*
X21778709Y14670184D02*
G01*
X21833255Y14593821D01*
X21751437Y14593821D01*
X21778709Y14670184D02*
G01*
X21778709Y14555640D01*
X21639075Y14670184D02*
G01*
X21693619Y14555640D01*
X21715437Y14670184D02*
G01*
X21639075Y14670184D01*
X27148891Y14670184D02*
G01*
X27148891Y14555640D01*
X27148891Y14670184D02*
G01*
X27105254Y14555640D01*
X27061619Y14670184D02*
G01*
X27105254Y14555640D01*
X27061619Y14670184D02*
G01*
X27061619Y14555640D01*
X27025620Y14670184D02*
G01*
X27025620Y14555640D01*
X27025620Y14670184D02*
G01*
X26976527Y14670184D01*
X26960164Y14664730D01*
X26954711Y14659277D01*
X26949255Y14648367D01*
X26949255Y14632002D01*
X26954711Y14621093D01*
X26960164Y14615640D01*
X26976527Y14610184D01*
X27025620Y14610184D01*
X26858709Y14670184D02*
G01*
X26913255Y14593821D01*
X26831437Y14593821D01*
X26858709Y14670184D02*
G01*
X26858709Y14555640D01*
X26768165Y14670184D02*
G01*
X26784528Y14664730D01*
X26789981Y14653821D01*
X26789981Y14642912D01*
X26784528Y14632002D01*
X26773619Y14626549D01*
X26751800Y14621093D01*
X26735438Y14615640D01*
X26724528Y14604730D01*
X26719075Y14593821D01*
X26719075Y14577458D01*
X26724528Y14566549D01*
X26729982Y14561093D01*
X26746347Y14555640D01*
X26768165Y14555640D01*
X26784528Y14561093D01*
X26789981Y14566549D01*
X26795437Y14577458D01*
X26795437Y14593821D01*
X26789981Y14604730D01*
X26779075Y14615640D01*
X26762709Y14621093D01*
X26740891Y14626549D01*
X26729982Y14632002D01*
X26724528Y14642912D01*
X26724528Y14653821D01*
X26729982Y14664730D01*
X26746347Y14670184D01*
X26768165Y14670184D01*
X22068891Y8777384D02*
G01*
X22068891Y8662840D01*
X22068891Y8777384D02*
G01*
X22025254Y8662840D01*
X21981619Y8777384D02*
G01*
X22025254Y8662840D01*
X21981619Y8777384D02*
G01*
X21981619Y8662840D01*
X21945620Y8777384D02*
G01*
X21945620Y8662840D01*
X21945620Y8777384D02*
G01*
X21896527Y8777384D01*
X21880164Y8771930D01*
X21874711Y8766477D01*
X21869255Y8755567D01*
X21869255Y8739202D01*
X21874711Y8728293D01*
X21880164Y8722840D01*
X21896527Y8717384D01*
X21945620Y8717384D01*
X21778709Y8777384D02*
G01*
X21833255Y8701021D01*
X21751437Y8701021D01*
X21778709Y8777384D02*
G01*
X21778709Y8662840D01*
X21644528Y8739202D02*
G01*
X21649982Y8722840D01*
X21660891Y8711930D01*
X21677256Y8706477D01*
X21682709Y8706477D01*
X21699075Y8711930D01*
X21709981Y8722840D01*
X21715437Y8739202D01*
X21715437Y8744658D01*
X21709981Y8761021D01*
X21699075Y8771930D01*
X21682709Y8777384D01*
X21677256Y8777384D01*
X21660891Y8771930D01*
X21649982Y8761021D01*
X21644528Y8739202D01*
X21644528Y8711930D01*
X21649982Y8684658D01*
X21660891Y8668293D01*
X21677256Y8662840D01*
X21688165Y8662840D01*
X21704528Y8668293D01*
X21709981Y8679202D01*
X27152600Y8782489D02*
G01*
X27152600Y8667945D01*
X27152600Y8782489D02*
G01*
X27108962Y8667945D01*
X27065328Y8782489D02*
G01*
X27108962Y8667945D01*
X27065328Y8782489D02*
G01*
X27065328Y8667945D01*
X27029328Y8782489D02*
G01*
X27029328Y8667945D01*
X27029328Y8782489D02*
G01*
X26980235Y8782489D01*
X26963872Y8777036D01*
X26958419Y8771582D01*
X26952963Y8760673D01*
X26952963Y8744308D01*
X26958419Y8733398D01*
X26963872Y8727945D01*
X26980235Y8722489D01*
X27029328Y8722489D01*
X26851510Y8782489D02*
G01*
X26906054Y8782489D01*
X26911510Y8733398D01*
X26906054Y8738854D01*
X26889692Y8744308D01*
X26873327Y8744308D01*
X26856964Y8738854D01*
X26846055Y8727945D01*
X26840601Y8711582D01*
X26840601Y8700673D01*
X26846055Y8684308D01*
X26856964Y8673398D01*
X26873327Y8667945D01*
X26889692Y8667945D01*
X26906054Y8673398D01*
X26911510Y8678854D01*
X26916964Y8689764D01*
X26771874Y8782489D02*
G01*
X26788236Y8777036D01*
X26799146Y8760673D01*
X26804599Y8733398D01*
X26804599Y8717036D01*
X26799146Y8689764D01*
X26788236Y8673398D01*
X26771874Y8667945D01*
X26760965Y8667945D01*
X26744599Y8673398D01*
X26733690Y8689764D01*
X26728237Y8717036D01*
X26728237Y8733398D01*
X26733690Y8760673D01*
X26744599Y8777036D01*
X26760965Y8782489D01*
X26771874Y8782489D01*
X22068891Y8320184D02*
G01*
X22068891Y8205640D01*
X22068891Y8320184D02*
G01*
X22025254Y8205640D01*
X21981619Y8320184D02*
G01*
X22025254Y8205640D01*
X21981619Y8320184D02*
G01*
X21981619Y8205640D01*
X21945620Y8320184D02*
G01*
X21945620Y8205640D01*
X21945620Y8320184D02*
G01*
X21896527Y8320184D01*
X21880164Y8314730D01*
X21874711Y8309277D01*
X21869255Y8298367D01*
X21869255Y8282002D01*
X21874711Y8271093D01*
X21880164Y8265640D01*
X21896527Y8260184D01*
X21945620Y8260184D01*
X21767802Y8320184D02*
G01*
X21822346Y8320184D01*
X21827802Y8271093D01*
X21822346Y8276549D01*
X21805983Y8282002D01*
X21789618Y8282002D01*
X21773255Y8276549D01*
X21762346Y8265640D01*
X21756893Y8249277D01*
X21756893Y8238368D01*
X21762346Y8222002D01*
X21773255Y8211093D01*
X21789618Y8205640D01*
X21805983Y8205640D01*
X21822346Y8211093D01*
X21827802Y8216549D01*
X21833255Y8227458D01*
X21720891Y8298367D02*
G01*
X21709981Y8303821D01*
X21693619Y8320184D01*
X21693619Y8205640D01*
X27148891Y8320184D02*
G01*
X27148891Y8205640D01*
X27148891Y8320184D02*
G01*
X27105254Y8205640D01*
X27061619Y8320184D02*
G01*
X27105254Y8205640D01*
X27061619Y8320184D02*
G01*
X27061619Y8205640D01*
X27025620Y8320184D02*
G01*
X27025620Y8205640D01*
X27025620Y8320184D02*
G01*
X26976527Y8320184D01*
X26960164Y8314730D01*
X26954711Y8309277D01*
X26949255Y8298367D01*
X26949255Y8282002D01*
X26954711Y8271093D01*
X26960164Y8265640D01*
X26976527Y8260184D01*
X27025620Y8260184D01*
X26847802Y8320184D02*
G01*
X26902346Y8320184D01*
X26907802Y8271093D01*
X26902346Y8276549D01*
X26885983Y8282002D01*
X26869618Y8282002D01*
X26853255Y8276549D01*
X26842346Y8265640D01*
X26836893Y8249277D01*
X26836893Y8238368D01*
X26842346Y8222002D01*
X26853255Y8211093D01*
X26869618Y8205640D01*
X26885983Y8205640D01*
X26902346Y8211093D01*
X26907802Y8216549D01*
X26913255Y8227458D01*
X26795437Y8292912D02*
G01*
X26795437Y8298367D01*
X26789981Y8309277D01*
X26784528Y8314730D01*
X26773619Y8320184D01*
X26751800Y8320184D01*
X26740891Y8314730D01*
X26735438Y8309277D01*
X26729982Y8298367D01*
X26729982Y8287458D01*
X26735438Y8276549D01*
X26746347Y8260184D01*
X26800891Y8205640D01*
X26724528Y8205640D01*
X22034500Y3245289D02*
G01*
X22034500Y3130745D01*
X22034500Y3245289D02*
G01*
X21990862Y3130745D01*
X21947228Y3245289D02*
G01*
X21990862Y3130745D01*
X21947228Y3245289D02*
G01*
X21947228Y3130745D01*
X21911228Y3245289D02*
G01*
X21911228Y3130745D01*
X21911228Y3245289D02*
G01*
X21862135Y3245289D01*
X21845772Y3239836D01*
X21840319Y3234382D01*
X21834863Y3223473D01*
X21834863Y3207108D01*
X21840319Y3196198D01*
X21845772Y3190745D01*
X21862135Y3185289D01*
X21911228Y3185289D01*
X21733410Y3245289D02*
G01*
X21787954Y3245289D01*
X21793410Y3196198D01*
X21787954Y3201654D01*
X21771592Y3207108D01*
X21755227Y3207108D01*
X21738864Y3201654D01*
X21727955Y3190745D01*
X21722501Y3174382D01*
X21722501Y3163473D01*
X21727955Y3147108D01*
X21738864Y3136198D01*
X21755227Y3130745D01*
X21771592Y3130745D01*
X21787954Y3136198D01*
X21793410Y3141654D01*
X21798864Y3152564D01*
X21675590Y3245289D02*
G01*
X21615590Y3245289D01*
X21648318Y3201654D01*
X21631955Y3201654D01*
X21621046Y3196198D01*
X21615590Y3190745D01*
X21610137Y3174382D01*
X21610137Y3163473D01*
X21615590Y3147108D01*
X21626499Y3136198D01*
X21642865Y3130745D01*
X21659227Y3130745D01*
X21675590Y3136198D01*
X21681046Y3141654D01*
X21686499Y3152564D01*
X27114500Y3245289D02*
G01*
X27114500Y3130745D01*
X27114500Y3245289D02*
G01*
X27070862Y3130745D01*
X27027228Y3245289D02*
G01*
X27070862Y3130745D01*
X27027228Y3245289D02*
G01*
X27027228Y3130745D01*
X26991228Y3245289D02*
G01*
X26991228Y3130745D01*
X26991228Y3245289D02*
G01*
X26942135Y3245289D01*
X26925772Y3239836D01*
X26920319Y3234382D01*
X26914863Y3223473D01*
X26914863Y3207108D01*
X26920319Y3196198D01*
X26925772Y3190745D01*
X26942135Y3185289D01*
X26991228Y3185289D01*
X26813410Y3245289D02*
G01*
X26867954Y3245289D01*
X26873410Y3196198D01*
X26867954Y3201654D01*
X26851592Y3207108D01*
X26835227Y3207108D01*
X26818864Y3201654D01*
X26807955Y3190745D01*
X26802501Y3174382D01*
X26802501Y3163473D01*
X26807955Y3147108D01*
X26818864Y3136198D01*
X26835227Y3130745D01*
X26851592Y3130745D01*
X26867954Y3136198D01*
X26873410Y3141654D01*
X26878864Y3152564D01*
X26711955Y3245289D02*
G01*
X26766499Y3168926D01*
X26684683Y3168926D01*
X26711955Y3245289D02*
G01*
X26711955Y3130745D01*
X11834825Y12443289D02*
G01*
X11834825Y12328745D01*
X11834825Y12443289D02*
G01*
X11791188Y12328745D01*
X11747553Y12443289D02*
G01*
X11791188Y12328745D01*
X11747553Y12443289D02*
G01*
X11747553Y12328745D01*
X11711553Y12443289D02*
G01*
X11711553Y12328745D01*
X11711553Y12443289D02*
G01*
X11662460Y12443289D01*
X11646098Y12437836D01*
X11640644Y12432383D01*
X11635188Y12421473D01*
X11635188Y12405108D01*
X11640644Y12394199D01*
X11646098Y12388745D01*
X11662460Y12383289D01*
X11711553Y12383289D01*
X11588280Y12443289D02*
G01*
X11528280Y12443289D01*
X11561008Y12399655D01*
X11544642Y12399655D01*
X11533736Y12394199D01*
X11528280Y12388745D01*
X11522826Y12372383D01*
X11522826Y12361473D01*
X11528280Y12345108D01*
X11539189Y12334199D01*
X11555552Y12328745D01*
X11571917Y12328745D01*
X11588280Y12334199D01*
X11593736Y12339655D01*
X11599189Y12350564D01*
X17829225Y12443289D02*
G01*
X17829225Y12328745D01*
X17829225Y12443289D02*
G01*
X17785588Y12328745D01*
X17741953Y12443289D02*
G01*
X17785588Y12328745D01*
X17741953Y12443289D02*
G01*
X17741953Y12328745D01*
X17705953Y12443289D02*
G01*
X17705953Y12328745D01*
X17705953Y12443289D02*
G01*
X17656860Y12443289D01*
X17640498Y12437836D01*
X17635044Y12432383D01*
X17629588Y12421473D01*
X17629588Y12405108D01*
X17635044Y12394199D01*
X17640498Y12388745D01*
X17656860Y12383289D01*
X17705953Y12383289D01*
X17539042Y12443289D02*
G01*
X17593589Y12366927D01*
X17511770Y12366927D01*
X17539042Y12443289D02*
G01*
X17539042Y12328745D01*
X13233400Y3245289D02*
G01*
X13233400Y3130745D01*
X13233400Y3245289D02*
G01*
X13189762Y3130745D01*
X13146128Y3245289D02*
G01*
X13189762Y3130745D01*
X13146128Y3245289D02*
G01*
X13146128Y3130745D01*
X13110128Y3245289D02*
G01*
X13110128Y3130745D01*
X13110128Y3245289D02*
G01*
X13061035Y3245289D01*
X13044672Y3239836D01*
X13039219Y3234382D01*
X13033763Y3223473D01*
X13033763Y3207108D01*
X13039219Y3196198D01*
X13044672Y3190745D01*
X13061035Y3185289D01*
X13110128Y3185289D01*
X12986854Y3245289D02*
G01*
X12926855Y3245289D01*
X12959582Y3201654D01*
X12943217Y3201654D01*
X12932310Y3196198D01*
X12926855Y3190745D01*
X12921401Y3174382D01*
X12921401Y3163473D01*
X12926855Y3147108D01*
X12937764Y3136198D01*
X12954127Y3130745D01*
X12970492Y3130745D01*
X12986854Y3136198D01*
X12992310Y3141654D01*
X12997764Y3152564D01*
X12852674Y3245289D02*
G01*
X12869036Y3239836D01*
X12879946Y3223473D01*
X12885399Y3196198D01*
X12885399Y3179836D01*
X12879946Y3152564D01*
X12869036Y3136198D01*
X12852674Y3130745D01*
X12841765Y3130745D01*
X12825399Y3136198D01*
X12814490Y3152564D01*
X12809037Y3179836D01*
X12809037Y3196198D01*
X12814490Y3223473D01*
X12825399Y3239836D01*
X12841765Y3245289D01*
X12852674Y3245289D01*
D13*
G75*
G01
X2074799Y1206500D02*
G03X2074799Y1206500I-499999J0D01*
X9941280Y12560300D02*
G01*
X11941276Y12560300D01*
X11941276Y10560304D01*
X9941280Y10560304D01*
X9941280Y12560300D01*
X2552700Y19024600D02*
G01*
X4552695Y19024600D01*
X4552695Y17024604D01*
X2552700Y17024604D01*
X2552700Y19024600D01*
X23387354Y19024600D02*
G01*
X25387350Y19024600D01*
X25387350Y17024604D01*
X23387354Y17024604D01*
X23387354Y19024600D01*
X23387354Y5041900D02*
G01*
X25387350Y5041900D01*
X25387350Y3041904D01*
X23387354Y3041904D01*
X23387354Y5041900D01*
X2552700Y5041900D02*
G01*
X4552695Y5041900D01*
X4552695Y3041904D01*
X2552700Y3041904D01*
X2552700Y5041900D01*
X15941268Y12560300D02*
G01*
X17941264Y12560300D01*
X17941264Y10560304D01*
X15941268Y10560304D01*
X15941268Y12560300D01*
G36*
X4187825Y1507286D02*
G01*
X6124575Y1507286D01*
X6124575Y1007287D01*
X4187825Y1007287D01*
G37*
G36*
X6918325Y1507286D02*
G01*
X8855075Y1507286D01*
X8855075Y1007287D01*
X6918325Y1007287D01*
G37*
M02*
