G04 Layer: TopSilkscreenLayer*
G04 EasyEDA v6.5.34, 2023-09-12 02:39:20*
G04 e94bc10b37974a2b8ebe6637de124c00,5a6b42c53f6a479593ecc07194224c93,10*
G04 Gerber Generator version 0.2*
G04 Scale: 100 percent, Rotated: No, Reflected: No *
G04 Dimensions in millimeters *
G04 leading zeros omitted , absolute positions ,4 integer and 5 decimal *
%FSLAX45Y45*%
%MOMM*%

%ADD10C,0.2032*%
%ADD11C,0.3000*%
%ADD12C,0.2030*%
%ADD13C,0.1524*%
%ADD14C,0.5000*%
%ADD15C,0.2030*%
%ADD16C,0.2540*%
%ADD17C,0.6350*%
%ADD18C,0.1500*%
%ADD19C,0.1520*%
%ADD20C,0.0172*%

%LPD*%
D10*
X990600Y21419058D02*
G01*
X990600Y21304504D01*
X990600Y21419058D02*
G01*
X1039622Y21419058D01*
X1056131Y21413470D01*
X1061465Y21408136D01*
X1067054Y21397213D01*
X1067054Y21380704D01*
X1061465Y21369781D01*
X1056131Y21364448D01*
X1039622Y21359113D01*
X990600Y21359113D01*
X1102868Y21419058D02*
G01*
X1102868Y21304504D01*
X1102868Y21419058D02*
G01*
X1152143Y21419058D01*
X1168400Y21413470D01*
X1173988Y21408136D01*
X1179322Y21397213D01*
X1179322Y21386292D01*
X1173988Y21375370D01*
X1168400Y21369781D01*
X1152143Y21364448D01*
X1102868Y21364448D01*
X1141222Y21364448D02*
G01*
X1179322Y21304504D01*
X1248156Y21419058D02*
G01*
X1237234Y21413470D01*
X1226311Y21402548D01*
X1220724Y21391626D01*
X1215390Y21375370D01*
X1215390Y21348192D01*
X1220724Y21331681D01*
X1226311Y21320760D01*
X1237234Y21309837D01*
X1248156Y21304504D01*
X1269745Y21304504D01*
X1280668Y21309837D01*
X1291590Y21320760D01*
X1297177Y21331681D01*
X1302511Y21348192D01*
X1302511Y21375370D01*
X1297177Y21391626D01*
X1291590Y21402548D01*
X1280668Y21413470D01*
X1269745Y21419058D01*
X1248156Y21419058D01*
X1376679Y21419058D02*
G01*
X1376679Y21304504D01*
X1338579Y21419058D02*
G01*
X1415034Y21419058D01*
X1483613Y21419058D02*
G01*
X1472691Y21413470D01*
X1461770Y21402548D01*
X1456436Y21391626D01*
X1450847Y21375370D01*
X1450847Y21348192D01*
X1456436Y21331681D01*
X1461770Y21320760D01*
X1472691Y21309837D01*
X1483613Y21304504D01*
X1505458Y21304504D01*
X1516379Y21309837D01*
X1527302Y21320760D01*
X1532890Y21331681D01*
X1538224Y21348192D01*
X1538224Y21375370D01*
X1532890Y21391626D01*
X1527302Y21402548D01*
X1516379Y21413470D01*
X1505458Y21419058D01*
X1483613Y21419058D01*
X1574291Y21419058D02*
G01*
X1574291Y21304504D01*
X1574291Y21419058D02*
G01*
X1650491Y21304504D01*
X1650491Y21419058D02*
G01*
X1650491Y21304504D01*
X1686559Y21419058D02*
G01*
X1686559Y21304504D01*
X1686559Y21419058D02*
G01*
X1757425Y21419058D01*
X1686559Y21364448D02*
G01*
X1730247Y21364448D01*
X1686559Y21304504D02*
G01*
X1757425Y21304504D01*
X1793493Y21419058D02*
G01*
X1793493Y21304504D01*
X1793493Y21419058D02*
G01*
X1837181Y21304504D01*
X1880870Y21419058D02*
G01*
X1837181Y21304504D01*
X1880870Y21419058D02*
G01*
X1880870Y21304504D01*
X1960372Y21419058D02*
G01*
X1916684Y21304504D01*
X1960372Y21419058D02*
G01*
X2004059Y21304504D01*
X1933193Y21342604D02*
G01*
X1987804Y21342604D01*
X2123947Y21419058D02*
G01*
X2123947Y21304504D01*
X2123947Y21419058D02*
G01*
X2173224Y21419058D01*
X2189479Y21413470D01*
X2195068Y21408136D01*
X2200402Y21397213D01*
X2200402Y21386292D01*
X2195068Y21375370D01*
X2189479Y21369781D01*
X2173224Y21364448D01*
X2123947Y21364448D02*
G01*
X2173224Y21364448D01*
X2189479Y21359113D01*
X2195068Y21353526D01*
X2200402Y21342604D01*
X2200402Y21326348D01*
X2195068Y21315426D01*
X2189479Y21309837D01*
X2173224Y21304504D01*
X2123947Y21304504D01*
X2280158Y21419058D02*
G01*
X2236470Y21304504D01*
X2280158Y21419058D02*
G01*
X2323591Y21304504D01*
X2252725Y21342604D02*
G01*
X2307336Y21342604D01*
X2436113Y21402548D02*
G01*
X2425191Y21413470D01*
X2408681Y21419058D01*
X2386838Y21419058D01*
X2370581Y21413470D01*
X2359659Y21402548D01*
X2359659Y21391626D01*
X2365247Y21380704D01*
X2370581Y21375370D01*
X2381504Y21369781D01*
X2414270Y21359113D01*
X2425191Y21353526D01*
X2430525Y21348192D01*
X2436113Y21337270D01*
X2436113Y21320760D01*
X2425191Y21309837D01*
X2408681Y21304504D01*
X2386838Y21304504D01*
X2370581Y21309837D01*
X2359659Y21320760D01*
X2471927Y21419058D02*
G01*
X2471927Y21304504D01*
X2471927Y21419058D02*
G01*
X2543047Y21419058D01*
X2471927Y21364448D02*
G01*
X2515615Y21364448D01*
X2471927Y21304504D02*
G01*
X2543047Y21304504D01*
X2578861Y21419058D02*
G01*
X2578861Y21304504D01*
X2578861Y21419058D02*
G01*
X2628138Y21419058D01*
X2644393Y21413470D01*
X2649981Y21408136D01*
X2655315Y21397213D01*
X2655315Y21386292D01*
X2649981Y21375370D01*
X2644393Y21369781D01*
X2628138Y21364448D01*
X2578861Y21364448D02*
G01*
X2628138Y21364448D01*
X2644393Y21359113D01*
X2649981Y21353526D01*
X2655315Y21342604D01*
X2655315Y21326348D01*
X2649981Y21315426D01*
X2644393Y21309837D01*
X2628138Y21304504D01*
X2578861Y21304504D01*
X2724150Y21419058D02*
G01*
X2713227Y21413470D01*
X2702306Y21402548D01*
X2696718Y21391626D01*
X2691384Y21375370D01*
X2691384Y21348192D01*
X2696718Y21331681D01*
X2702306Y21320760D01*
X2713227Y21309837D01*
X2724150Y21304504D01*
X2745993Y21304504D01*
X2756661Y21309837D01*
X2767584Y21320760D01*
X2773172Y21331681D01*
X2778506Y21348192D01*
X2778506Y21375370D01*
X2773172Y21391626D01*
X2767584Y21402548D01*
X2756661Y21413470D01*
X2745993Y21419058D01*
X2724150Y21419058D01*
X2858261Y21419058D02*
G01*
X2814574Y21304504D01*
X2858261Y21419058D02*
G01*
X2901950Y21304504D01*
X2831084Y21342604D02*
G01*
X2885440Y21342604D01*
X2937763Y21419058D02*
G01*
X2937763Y21304504D01*
X2937763Y21419058D02*
G01*
X2987040Y21419058D01*
X3003295Y21413470D01*
X3008884Y21408136D01*
X3014218Y21397213D01*
X3014218Y21386292D01*
X3008884Y21375370D01*
X3003295Y21369781D01*
X2987040Y21364448D01*
X2937763Y21364448D01*
X2976118Y21364448D02*
G01*
X3014218Y21304504D01*
X3050286Y21419058D02*
G01*
X3050286Y21304504D01*
X3050286Y21419058D02*
G01*
X3088386Y21419058D01*
X3104895Y21413470D01*
X3115563Y21402548D01*
X3121152Y21391626D01*
X3126486Y21375370D01*
X3126486Y21348192D01*
X3121152Y21331681D01*
X3115563Y21320760D01*
X3104895Y21309837D01*
X3088386Y21304504D01*
X3050286Y21304504D01*
X3246627Y21353526D02*
G01*
X3344672Y21353526D01*
X3464813Y21419058D02*
G01*
X3464813Y21304504D01*
X3464813Y21419058D02*
G01*
X3535679Y21419058D01*
X3464813Y21364448D02*
G01*
X3508502Y21364448D01*
X3571747Y21419058D02*
G01*
X3571747Y21304504D01*
X3571747Y21419058D02*
G01*
X3620770Y21419058D01*
X3637025Y21413470D01*
X3642613Y21408136D01*
X3647947Y21397213D01*
X3647947Y21386292D01*
X3642613Y21375370D01*
X3637025Y21369781D01*
X3620770Y21364448D01*
X3571747Y21364448D01*
X3609847Y21364448D02*
G01*
X3647947Y21304504D01*
X3716781Y21419058D02*
G01*
X3705859Y21413470D01*
X3694938Y21402548D01*
X3689604Y21391626D01*
X3684015Y21375370D01*
X3684015Y21348192D01*
X3689604Y21331681D01*
X3694938Y21320760D01*
X3705859Y21309837D01*
X3716781Y21304504D01*
X3738625Y21304504D01*
X3749547Y21309837D01*
X3760470Y21320760D01*
X3765804Y21331681D01*
X3771391Y21348192D01*
X3771391Y21375370D01*
X3765804Y21391626D01*
X3760470Y21402548D01*
X3749547Y21413470D01*
X3738625Y21419058D01*
X3716781Y21419058D01*
X3807206Y21419058D02*
G01*
X3807206Y21304504D01*
X3807206Y21419058D02*
G01*
X3883659Y21304504D01*
X3883659Y21419058D02*
G01*
X3883659Y21304504D01*
X3957827Y21419058D02*
G01*
X3957827Y21304504D01*
X3919727Y21419058D02*
G01*
X3995927Y21419058D01*
X990600Y21228558D02*
G01*
X990600Y21114004D01*
X990600Y21228558D02*
G01*
X1039622Y21228558D01*
X1056131Y21222970D01*
X1061465Y21217636D01*
X1067054Y21206713D01*
X1067054Y21190204D01*
X1061465Y21179281D01*
X1056131Y21173948D01*
X1039622Y21168613D01*
X990600Y21168613D01*
X1146556Y21228558D02*
G01*
X1102868Y21114004D01*
X1146556Y21228558D02*
G01*
X1190243Y21114004D01*
X1119377Y21152104D02*
G01*
X1173988Y21152104D01*
X1226311Y21228558D02*
G01*
X1226311Y21114004D01*
X1226311Y21228558D02*
G01*
X1275334Y21228558D01*
X1291590Y21222970D01*
X1297177Y21217636D01*
X1302511Y21206713D01*
X1302511Y21195792D01*
X1297177Y21184870D01*
X1291590Y21179281D01*
X1275334Y21173948D01*
X1226311Y21173948D01*
X1264411Y21173948D02*
G01*
X1302511Y21114004D01*
X1376679Y21228558D02*
G01*
X1376679Y21114004D01*
X1338579Y21228558D02*
G01*
X1415034Y21228558D01*
X1534922Y21228558D02*
G01*
X1534922Y21114004D01*
X1534922Y21228558D02*
G01*
X1611375Y21114004D01*
X1611375Y21228558D02*
G01*
X1611375Y21114004D01*
X1647443Y21228558D02*
G01*
X1647443Y21146770D01*
X1652777Y21130260D01*
X1663700Y21119337D01*
X1679956Y21114004D01*
X1690877Y21114004D01*
X1707388Y21119337D01*
X1718309Y21130260D01*
X1723643Y21146770D01*
X1723643Y21228558D01*
X1759711Y21228558D02*
G01*
X1759711Y21114004D01*
X1759711Y21228558D02*
G01*
X1803400Y21114004D01*
X1847088Y21228558D02*
G01*
X1803400Y21114004D01*
X1847088Y21228558D02*
G01*
X1847088Y21114004D01*
X1882902Y21228558D02*
G01*
X1882902Y21114004D01*
X1882902Y21228558D02*
G01*
X1932177Y21228558D01*
X1948434Y21222970D01*
X1953768Y21217636D01*
X1959356Y21206713D01*
X1959356Y21195792D01*
X1953768Y21184870D01*
X1948434Y21179281D01*
X1932177Y21173948D01*
X1882902Y21173948D02*
G01*
X1932177Y21173948D01*
X1948434Y21168613D01*
X1953768Y21163026D01*
X1959356Y21152104D01*
X1959356Y21135848D01*
X1953768Y21124926D01*
X1948434Y21119337D01*
X1932177Y21114004D01*
X1882902Y21114004D01*
X1995424Y21228558D02*
G01*
X1995424Y21114004D01*
X1995424Y21228558D02*
G01*
X2066290Y21228558D01*
X1995424Y21173948D02*
G01*
X2038858Y21173948D01*
X1995424Y21114004D02*
G01*
X2066290Y21114004D01*
X2102358Y21228558D02*
G01*
X2102358Y21114004D01*
X2102358Y21228558D02*
G01*
X2151379Y21228558D01*
X2167636Y21222970D01*
X2173224Y21217636D01*
X2178558Y21206713D01*
X2178558Y21195792D01*
X2173224Y21184870D01*
X2167636Y21179281D01*
X2151379Y21173948D01*
X2102358Y21173948D01*
X2140458Y21173948D02*
G01*
X2178558Y21114004D01*
X2298700Y21206713D02*
G01*
X2309622Y21212048D01*
X2325877Y21228558D01*
X2325877Y21114004D01*
X2427224Y21228558D02*
G01*
X2372868Y21228558D01*
X2367279Y21179281D01*
X2372868Y21184870D01*
X2389124Y21190204D01*
X2405379Y21190204D01*
X2421890Y21184870D01*
X2432811Y21173948D01*
X2438145Y21157692D01*
X2438145Y21146770D01*
X2432811Y21130260D01*
X2421890Y21119337D01*
X2405379Y21114004D01*
X2389124Y21114004D01*
X2372868Y21119337D01*
X2367279Y21124926D01*
X2361945Y21135848D01*
X2485136Y21228558D02*
G01*
X2545079Y21228558D01*
X2512313Y21184870D01*
X2528824Y21184870D01*
X2539745Y21179281D01*
X2545079Y21173948D01*
X2550668Y21157692D01*
X2550668Y21146770D01*
X2545079Y21130260D01*
X2534158Y21119337D01*
X2517902Y21114004D01*
X2501391Y21114004D01*
X2485136Y21119337D01*
X2479802Y21124926D01*
X2474213Y21135848D01*
X2641091Y21228558D02*
G01*
X2586481Y21152104D01*
X2668524Y21152104D01*
X2641091Y21228558D02*
G01*
X2641091Y21114004D01*
X2704338Y21163026D02*
G01*
X2802636Y21163026D01*
X2871215Y21228558D02*
G01*
X2854959Y21222970D01*
X2844038Y21206713D01*
X2838704Y21179281D01*
X2838704Y21163026D01*
X2844038Y21135848D01*
X2854959Y21119337D01*
X2871215Y21114004D01*
X2882138Y21114004D01*
X2898647Y21119337D01*
X2909570Y21135848D01*
X2914904Y21163026D01*
X2914904Y21179281D01*
X2909570Y21206713D01*
X2898647Y21222970D01*
X2882138Y21228558D01*
X2871215Y21228558D01*
X2950972Y21206713D02*
G01*
X2961893Y21212048D01*
X2978150Y21228558D01*
X2978150Y21114004D01*
X3046984Y21228558D02*
G01*
X3030474Y21222970D01*
X3019806Y21206713D01*
X3014218Y21179281D01*
X3014218Y21163026D01*
X3019806Y21135848D01*
X3030474Y21119337D01*
X3046984Y21114004D01*
X3057906Y21114004D01*
X3074161Y21119337D01*
X3085084Y21135848D01*
X3090672Y21163026D01*
X3090672Y21179281D01*
X3085084Y21206713D01*
X3074161Y21222970D01*
X3057906Y21228558D01*
X3046984Y21228558D01*
X3126486Y21206713D02*
G01*
X3137408Y21212048D01*
X3153918Y21228558D01*
X3153918Y21114004D01*
X3273806Y21228558D02*
G01*
X3317493Y21114004D01*
X3361181Y21228558D02*
G01*
X3317493Y21114004D01*
X3429761Y21228558D02*
G01*
X3413506Y21222970D01*
X3402584Y21206713D01*
X3397250Y21179281D01*
X3397250Y21163026D01*
X3402584Y21135848D01*
X3413506Y21119337D01*
X3429761Y21114004D01*
X3440684Y21114004D01*
X3457193Y21119337D01*
X3468115Y21135848D01*
X3473450Y21163026D01*
X3473450Y21179281D01*
X3468115Y21206713D01*
X3457193Y21222970D01*
X3440684Y21228558D01*
X3429761Y21228558D01*
X3514852Y21141181D02*
G01*
X3509518Y21135848D01*
X3514852Y21130260D01*
X3520440Y21135848D01*
X3514852Y21141181D01*
X3556508Y21206713D02*
G01*
X3567429Y21212048D01*
X3583686Y21228558D01*
X3583686Y21114004D01*
D11*
X2946654Y20672298D02*
G01*
X2928365Y20690586D01*
X2901188Y20699729D01*
X2864865Y20699729D01*
X2837688Y20690586D01*
X2819400Y20672298D01*
X2819400Y20654263D01*
X2828543Y20635976D01*
X2837688Y20626831D01*
X2855722Y20617687D01*
X2910331Y20599654D01*
X2928365Y20590510D01*
X2937509Y20581366D01*
X2946654Y20563331D01*
X2946654Y20535900D01*
X2928365Y20517866D01*
X2901188Y20508721D01*
X2864865Y20508721D01*
X2837688Y20517866D01*
X2819400Y20535900D01*
X3070352Y20699729D02*
G01*
X3070352Y20508721D01*
X3006597Y20699729D02*
G01*
X3133852Y20699729D01*
X3266693Y20699729D02*
G01*
X3194050Y20508721D01*
X3266693Y20699729D02*
G01*
X3339338Y20508721D01*
X3221227Y20572221D02*
G01*
X3312159Y20572221D01*
X3399281Y20699729D02*
G01*
X3399281Y20508721D01*
X3399281Y20699729D02*
G01*
X3472179Y20508721D01*
X3544824Y20699729D02*
G01*
X3472179Y20508721D01*
X3544824Y20699729D02*
G01*
X3544824Y20508721D01*
X3604768Y20699729D02*
G01*
X3604768Y20508721D01*
X3604768Y20699729D02*
G01*
X3686556Y20699729D01*
X3713988Y20690586D01*
X3723131Y20681442D01*
X3732022Y20663154D01*
X3732022Y20635976D01*
X3723131Y20617687D01*
X3713988Y20608798D01*
X3686556Y20599654D01*
X3604768Y20599654D01*
X4004818Y20699729D02*
G01*
X3932174Y20508721D01*
X4004818Y20699729D02*
G01*
X4077461Y20508721D01*
X3959352Y20572221D02*
G01*
X4050284Y20572221D01*
X4137659Y20663154D02*
G01*
X4155693Y20672298D01*
X4183125Y20699729D01*
X4183125Y20508721D01*
X4279900Y1992629D02*
G01*
X4279900Y1801621D01*
X4279900Y1992629D02*
G01*
X4407154Y1801621D01*
X4407154Y1992629D02*
G01*
X4407154Y1801621D01*
X4539995Y1992629D02*
G01*
X4467097Y1801621D01*
X4539995Y1992629D02*
G01*
X4612640Y1801621D01*
X4494529Y1865121D02*
G01*
X4585461Y1865121D01*
X4672584Y1992629D02*
G01*
X4672584Y1801621D01*
X4672584Y1992629D02*
G01*
X4745227Y1801621D01*
X4818125Y1992629D02*
G01*
X4745227Y1801621D01*
X4818125Y1992629D02*
G01*
X4818125Y1801621D01*
X4878070Y1992629D02*
G01*
X4878070Y1801621D01*
X4878070Y1992629D02*
G01*
X4996179Y1992629D01*
X4878070Y1901697D02*
G01*
X4950713Y1901697D01*
X4878070Y1801621D02*
G01*
X4996179Y1801621D01*
X19202400Y1992629D02*
G01*
X19202400Y1801621D01*
X19202400Y1992629D02*
G01*
X19284188Y1992629D01*
X19311366Y1983486D01*
X19320509Y1974342D01*
X19329654Y1956054D01*
X19329654Y1928876D01*
X19320509Y1910587D01*
X19311366Y1901697D01*
X19284188Y1892554D01*
X19202400Y1892554D01*
X19389598Y1992629D02*
G01*
X19389598Y1801621D01*
X19389598Y1992629D02*
G01*
X19471386Y1992629D01*
X19498818Y1983486D01*
X19507961Y1974342D01*
X19516852Y1956054D01*
X19516852Y1938020D01*
X19507961Y1919731D01*
X19498818Y1910587D01*
X19471386Y1901697D01*
X19389598Y1901697D01*
X19453352Y1901697D02*
G01*
X19516852Y1801621D01*
X19631406Y1992629D02*
G01*
X19613372Y1983486D01*
X19595084Y1965197D01*
X19585940Y1947163D01*
X19577050Y1919731D01*
X19577050Y1874265D01*
X19585940Y1847087D01*
X19595084Y1828800D01*
X19613372Y1810765D01*
X19631406Y1801621D01*
X19667727Y1801621D01*
X19686016Y1810765D01*
X19704304Y1828800D01*
X19713193Y1847087D01*
X19722338Y1874265D01*
X19722338Y1919731D01*
X19713193Y1947163D01*
X19704304Y1965197D01*
X19686016Y1983486D01*
X19667727Y1992629D01*
X19631406Y1992629D01*
X19873213Y1992629D02*
G01*
X19873213Y1847087D01*
X19864324Y1819910D01*
X19855179Y1810765D01*
X19836891Y1801621D01*
X19818858Y1801621D01*
X19800570Y1810765D01*
X19791425Y1819910D01*
X19782281Y1847087D01*
X19782281Y1865121D01*
X19933411Y1992629D02*
G01*
X19933411Y1801621D01*
X19933411Y1992629D02*
G01*
X20051522Y1992629D01*
X19933411Y1901697D02*
G01*
X20006056Y1901697D01*
X19933411Y1801621D02*
G01*
X20051522Y1801621D01*
X20247863Y1947163D02*
G01*
X20238720Y1965197D01*
X20220686Y1983486D01*
X20202398Y1992629D01*
X20166075Y1992629D01*
X20147788Y1983486D01*
X20129754Y1965197D01*
X20120609Y1947163D01*
X20111466Y1919731D01*
X20111466Y1874265D01*
X20120609Y1847087D01*
X20129754Y1828800D01*
X20147788Y1810765D01*
X20166075Y1801621D01*
X20202398Y1801621D01*
X20220686Y1810765D01*
X20238720Y1828800D01*
X20247863Y1847087D01*
X20371561Y1992629D02*
G01*
X20371561Y1801621D01*
X20307808Y1992629D02*
G01*
X20435061Y1992629D01*
D12*
X22560788Y21391626D02*
G01*
X22555454Y21402548D01*
X22544531Y21413470D01*
X22533609Y21419058D01*
X22511766Y21419058D01*
X22500843Y21413470D01*
X22489922Y21402548D01*
X22484334Y21391626D01*
X22479000Y21375370D01*
X22479000Y21348192D01*
X22484334Y21331681D01*
X22489922Y21320760D01*
X22500843Y21309837D01*
X22511766Y21304504D01*
X22533609Y21304504D01*
X22544531Y21309837D01*
X22555454Y21320760D01*
X22560788Y21331681D01*
X22629622Y21419058D02*
G01*
X22618700Y21413470D01*
X22607777Y21402548D01*
X22602190Y21391626D01*
X22596856Y21375370D01*
X22596856Y21348192D01*
X22602190Y21331681D01*
X22607777Y21320760D01*
X22618700Y21309837D01*
X22629622Y21304504D01*
X22651466Y21304504D01*
X22662388Y21309837D01*
X22673056Y21320760D01*
X22678643Y21331681D01*
X22683977Y21348192D01*
X22683977Y21375370D01*
X22678643Y21391626D01*
X22673056Y21402548D01*
X22662388Y21413470D01*
X22651466Y21419058D01*
X22629622Y21419058D01*
X22720045Y21419058D02*
G01*
X22720045Y21304504D01*
X22720045Y21419058D02*
G01*
X22769068Y21419058D01*
X22785577Y21413470D01*
X22790911Y21408136D01*
X22796500Y21397213D01*
X22796500Y21380704D01*
X22790911Y21369781D01*
X22785577Y21364448D01*
X22769068Y21359113D01*
X22720045Y21359113D01*
X22832568Y21419058D02*
G01*
X22876002Y21364448D01*
X22876002Y21304504D01*
X22919690Y21419058D02*
G01*
X22876002Y21364448D01*
X22955758Y21419058D02*
G01*
X22955758Y21304504D01*
X22955758Y21419058D02*
G01*
X23004779Y21419058D01*
X23021290Y21413470D01*
X23026624Y21408136D01*
X23032211Y21397213D01*
X23032211Y21386292D01*
X23026624Y21375370D01*
X23021290Y21369781D01*
X23004779Y21364448D01*
X22955758Y21364448D01*
X22993858Y21364448D02*
G01*
X23032211Y21304504D01*
X23068025Y21419058D02*
G01*
X23068025Y21304504D01*
X23185881Y21391626D02*
G01*
X23180548Y21402548D01*
X23169625Y21413470D01*
X23158704Y21419058D01*
X23136859Y21419058D01*
X23125938Y21413470D01*
X23115016Y21402548D01*
X23109427Y21391626D01*
X23104093Y21375370D01*
X23104093Y21348192D01*
X23109427Y21331681D01*
X23115016Y21320760D01*
X23125938Y21309837D01*
X23136859Y21304504D01*
X23158704Y21304504D01*
X23169625Y21309837D01*
X23180548Y21320760D01*
X23185881Y21331681D01*
X23185881Y21348192D01*
X23158704Y21348192D02*
G01*
X23185881Y21348192D01*
X23221950Y21419058D02*
G01*
X23221950Y21304504D01*
X23298150Y21419058D02*
G01*
X23298150Y21304504D01*
X23221950Y21364448D02*
G01*
X23298150Y21364448D01*
X23372572Y21419058D02*
G01*
X23372572Y21304504D01*
X23334218Y21419058D02*
G01*
X23410672Y21419058D01*
X23536148Y21391626D02*
G01*
X23536148Y21397213D01*
X23541481Y21408136D01*
X23547070Y21413470D01*
X23557991Y21419058D01*
X23579836Y21419058D01*
X23590758Y21413470D01*
X23596091Y21408136D01*
X23601425Y21397213D01*
X23601425Y21386292D01*
X23596091Y21375370D01*
X23585170Y21359113D01*
X23530559Y21304504D01*
X23607013Y21304504D01*
X23675848Y21419058D02*
G01*
X23659338Y21413470D01*
X23648416Y21397213D01*
X23643081Y21369781D01*
X23643081Y21353526D01*
X23648416Y21326348D01*
X23659338Y21309837D01*
X23675848Y21304504D01*
X23686516Y21304504D01*
X23703025Y21309837D01*
X23713948Y21326348D01*
X23719281Y21353526D01*
X23719281Y21369781D01*
X23713948Y21397213D01*
X23703025Y21413470D01*
X23686516Y21419058D01*
X23675848Y21419058D01*
X23760938Y21391626D02*
G01*
X23760938Y21397213D01*
X23766272Y21408136D01*
X23771606Y21413470D01*
X23782527Y21419058D01*
X23804372Y21419058D01*
X23815293Y21413470D01*
X23820881Y21408136D01*
X23826216Y21397213D01*
X23826216Y21386292D01*
X23820881Y21375370D01*
X23809959Y21359113D01*
X23755350Y21304504D01*
X23831804Y21304504D01*
X23878540Y21419058D02*
G01*
X23938738Y21419058D01*
X23905972Y21375370D01*
X23922227Y21375370D01*
X23933150Y21369781D01*
X23938738Y21364448D01*
X23944072Y21348192D01*
X23944072Y21337270D01*
X23938738Y21320760D01*
X23927816Y21309837D01*
X23911306Y21304504D01*
X23895050Y21304504D01*
X23878540Y21309837D01*
X23873206Y21315426D01*
X23867618Y21326348D01*
X24064213Y21419058D02*
G01*
X24107648Y21304504D01*
X24151336Y21419058D02*
G01*
X24107648Y21304504D01*
X24187404Y21419058D02*
G01*
X24187404Y21304504D01*
X24187404Y21419058D02*
G01*
X24258270Y21419058D01*
X24187404Y21364448D02*
G01*
X24231091Y21364448D01*
X24187404Y21304504D02*
G01*
X24258270Y21304504D01*
X24370538Y21419058D02*
G01*
X24316181Y21304504D01*
X24294338Y21419058D02*
G01*
X24370538Y21419058D01*
X24406606Y21419058D02*
G01*
X24406606Y21304504D01*
X24406606Y21419058D02*
G01*
X24477472Y21419058D01*
X24406606Y21364448D02*
G01*
X24450293Y21364448D01*
X24513540Y21419058D02*
G01*
X24513540Y21304504D01*
X24549608Y21419058D02*
G01*
X24549608Y21304504D01*
X24549608Y21419058D02*
G01*
X24593295Y21304504D01*
X24636729Y21419058D02*
G01*
X24593295Y21304504D01*
X24636729Y21419058D02*
G01*
X24636729Y21304504D01*
X24756872Y21353526D02*
G01*
X24854916Y21353526D01*
X25018745Y21419058D02*
G01*
X24975058Y21304504D01*
X25018745Y21419058D02*
G01*
X25062179Y21304504D01*
X24991313Y21342604D02*
G01*
X25045924Y21342604D01*
X25098248Y21419058D02*
G01*
X25098248Y21304504D01*
X25098248Y21304504D02*
G01*
X25163779Y21304504D01*
X25199848Y21419058D02*
G01*
X25199848Y21304504D01*
X25199848Y21304504D02*
G01*
X25265125Y21304504D01*
X25385268Y21419058D02*
G01*
X25385268Y21304504D01*
X25385268Y21419058D02*
G01*
X25434290Y21419058D01*
X25450545Y21413470D01*
X25456134Y21408136D01*
X25461468Y21397213D01*
X25461468Y21386292D01*
X25456134Y21375370D01*
X25450545Y21369781D01*
X25434290Y21364448D01*
X25385268Y21364448D01*
X25423368Y21364448D02*
G01*
X25461468Y21304504D01*
X25497536Y21419058D02*
G01*
X25497536Y21304504D01*
X25615391Y21391626D02*
G01*
X25609804Y21402548D01*
X25598881Y21413470D01*
X25587959Y21419058D01*
X25566370Y21419058D01*
X25555448Y21413470D01*
X25544525Y21402548D01*
X25538938Y21391626D01*
X25533604Y21375370D01*
X25533604Y21348192D01*
X25538938Y21331681D01*
X25544525Y21320760D01*
X25555448Y21309837D01*
X25566370Y21304504D01*
X25587959Y21304504D01*
X25598881Y21309837D01*
X25609804Y21320760D01*
X25615391Y21331681D01*
X25615391Y21348192D01*
X25587959Y21348192D02*
G01*
X25615391Y21348192D01*
X25651459Y21419058D02*
G01*
X25651459Y21304504D01*
X25727659Y21419058D02*
G01*
X25727659Y21304504D01*
X25651459Y21364448D02*
G01*
X25727659Y21364448D01*
X25801827Y21419058D02*
G01*
X25801827Y21304504D01*
X25763727Y21419058D02*
G01*
X25840181Y21419058D01*
X25952450Y21402548D02*
G01*
X25941527Y21413470D01*
X25925272Y21419058D01*
X25903427Y21419058D01*
X25886918Y21413470D01*
X25875995Y21402548D01*
X25875995Y21391626D01*
X25881584Y21380704D01*
X25886918Y21375370D01*
X25897840Y21369781D01*
X25930606Y21359113D01*
X25941527Y21353526D01*
X25947116Y21348192D01*
X25952450Y21337270D01*
X25952450Y21320760D01*
X25941527Y21309837D01*
X25925272Y21304504D01*
X25903427Y21304504D01*
X25886918Y21309837D01*
X25875995Y21320760D01*
X26072338Y21419058D02*
G01*
X26072338Y21304504D01*
X26072338Y21419058D02*
G01*
X26121613Y21419058D01*
X26137870Y21413470D01*
X26143458Y21408136D01*
X26148791Y21397213D01*
X26148791Y21386292D01*
X26143458Y21375370D01*
X26137870Y21369781D01*
X26121613Y21364448D01*
X26072338Y21364448D01*
X26110691Y21364448D02*
G01*
X26148791Y21304504D01*
X26184859Y21419058D02*
G01*
X26184859Y21304504D01*
X26184859Y21419058D02*
G01*
X26255725Y21419058D01*
X26184859Y21364448D02*
G01*
X26228548Y21364448D01*
X26184859Y21304504D02*
G01*
X26255725Y21304504D01*
X26367993Y21402548D02*
G01*
X26357072Y21413470D01*
X26340815Y21419058D01*
X26318972Y21419058D01*
X26302715Y21413470D01*
X26291793Y21402548D01*
X26291793Y21391626D01*
X26297127Y21380704D01*
X26302715Y21375370D01*
X26313638Y21369781D01*
X26346150Y21359113D01*
X26357072Y21353526D01*
X26362659Y21348192D01*
X26367993Y21337270D01*
X26367993Y21320760D01*
X26357072Y21309837D01*
X26340815Y21304504D01*
X26318972Y21304504D01*
X26302715Y21309837D01*
X26291793Y21320760D01*
X26404061Y21419058D02*
G01*
X26404061Y21304504D01*
X26404061Y21419058D02*
G01*
X26474927Y21419058D01*
X26404061Y21364448D02*
G01*
X26447750Y21364448D01*
X26404061Y21304504D02*
G01*
X26474927Y21304504D01*
X26510995Y21419058D02*
G01*
X26510995Y21304504D01*
X26510995Y21419058D02*
G01*
X26560018Y21419058D01*
X26576527Y21413470D01*
X26581861Y21408136D01*
X26587450Y21397213D01*
X26587450Y21386292D01*
X26581861Y21375370D01*
X26576527Y21369781D01*
X26560018Y21364448D01*
X26510995Y21364448D01*
X26549095Y21364448D02*
G01*
X26587450Y21304504D01*
X26623263Y21419058D02*
G01*
X26666952Y21304504D01*
X26710640Y21419058D02*
G01*
X26666952Y21304504D01*
X26746708Y21419058D02*
G01*
X26746708Y21304504D01*
X26746708Y21419058D02*
G01*
X26817574Y21419058D01*
X26746708Y21364448D02*
G01*
X26790141Y21364448D01*
X26746708Y21304504D02*
G01*
X26817574Y21304504D01*
X26853641Y21419058D02*
G01*
X26853641Y21304504D01*
X26853641Y21419058D02*
G01*
X26891741Y21419058D01*
X26907998Y21413470D01*
X26918920Y21402548D01*
X26924508Y21391626D01*
X26929841Y21375370D01*
X26929841Y21348192D01*
X26924508Y21331681D01*
X26918920Y21320760D01*
X26907998Y21309837D01*
X26891741Y21304504D01*
X26853641Y21304504D01*
D11*
X2946654Y14322297D02*
G01*
X2928365Y14340586D01*
X2901188Y14349729D01*
X2864865Y14349729D01*
X2837688Y14340586D01*
X2819400Y14322297D01*
X2819400Y14304263D01*
X2828543Y14285976D01*
X2837688Y14276831D01*
X2855722Y14267687D01*
X2910331Y14249654D01*
X2928365Y14240510D01*
X2937509Y14231366D01*
X2946654Y14213331D01*
X2946654Y14185900D01*
X2928365Y14167866D01*
X2901188Y14158721D01*
X2864865Y14158721D01*
X2837688Y14167866D01*
X2819400Y14185900D01*
X3070352Y14349729D02*
G01*
X3070352Y14158721D01*
X3006597Y14349729D02*
G01*
X3133852Y14349729D01*
X3266693Y14349729D02*
G01*
X3194050Y14158721D01*
X3266693Y14349729D02*
G01*
X3339338Y14158721D01*
X3221227Y14222221D02*
G01*
X3312159Y14222221D01*
X3399281Y14349729D02*
G01*
X3399281Y14158721D01*
X3399281Y14349729D02*
G01*
X3472179Y14158721D01*
X3544824Y14349729D02*
G01*
X3472179Y14158721D01*
X3544824Y14349729D02*
G01*
X3544824Y14158721D01*
X3604768Y14349729D02*
G01*
X3604768Y14158721D01*
X3604768Y14349729D02*
G01*
X3686556Y14349729D01*
X3713988Y14340586D01*
X3723131Y14331442D01*
X3732022Y14313154D01*
X3732022Y14285976D01*
X3723131Y14267687D01*
X3713988Y14258797D01*
X3686556Y14249654D01*
X3604768Y14249654D01*
X4004818Y14349729D02*
G01*
X3932174Y14158721D01*
X4004818Y14349729D02*
G01*
X4077461Y14158721D01*
X3959352Y14222221D02*
G01*
X4050284Y14222221D01*
X4146550Y14304263D02*
G01*
X4146550Y14313154D01*
X4155693Y14331442D01*
X4164838Y14340586D01*
X4183125Y14349729D01*
X4219447Y14349729D01*
X4237481Y14340586D01*
X4246625Y14331442D01*
X4255770Y14313154D01*
X4255770Y14295120D01*
X4246625Y14276831D01*
X4228591Y14249654D01*
X4137659Y14158721D01*
X4264913Y14158721D01*
X2946654Y7972297D02*
G01*
X2928365Y7990586D01*
X2901188Y7999729D01*
X2864865Y7999729D01*
X2837688Y7990586D01*
X2819400Y7972297D01*
X2819400Y7954263D01*
X2828543Y7935976D01*
X2837688Y7926831D01*
X2855722Y7917687D01*
X2910331Y7899654D01*
X2928365Y7890510D01*
X2937509Y7881365D01*
X2946654Y7863331D01*
X2946654Y7835900D01*
X2928365Y7817865D01*
X2901188Y7808721D01*
X2864865Y7808721D01*
X2837688Y7817865D01*
X2819400Y7835900D01*
X3070352Y7999729D02*
G01*
X3070352Y7808721D01*
X3006597Y7999729D02*
G01*
X3133852Y7999729D01*
X3266693Y7999729D02*
G01*
X3194050Y7808721D01*
X3266693Y7999729D02*
G01*
X3339338Y7808721D01*
X3221227Y7872221D02*
G01*
X3312159Y7872221D01*
X3399281Y7999729D02*
G01*
X3399281Y7808721D01*
X3399281Y7999729D02*
G01*
X3472179Y7808721D01*
X3544824Y7999729D02*
G01*
X3472179Y7808721D01*
X3544824Y7999729D02*
G01*
X3544824Y7808721D01*
X3604768Y7999729D02*
G01*
X3604768Y7808721D01*
X3604768Y7999729D02*
G01*
X3686556Y7999729D01*
X3713988Y7990586D01*
X3723131Y7981442D01*
X3732022Y7963154D01*
X3732022Y7935976D01*
X3723131Y7917687D01*
X3713988Y7908797D01*
X3686556Y7899654D01*
X3604768Y7899654D01*
X4004818Y7999729D02*
G01*
X3932174Y7808721D01*
X4004818Y7999729D02*
G01*
X4077461Y7808721D01*
X3959352Y7872221D02*
G01*
X4050284Y7872221D01*
X4155693Y7999729D02*
G01*
X4255770Y7999729D01*
X4201159Y7926831D01*
X4228591Y7926831D01*
X4246625Y7917687D01*
X4255770Y7908797D01*
X4264913Y7881365D01*
X4264913Y7863331D01*
X4255770Y7835900D01*
X4237481Y7817865D01*
X4210304Y7808721D01*
X4183125Y7808721D01*
X4155693Y7817865D01*
X4146550Y7827010D01*
X4137659Y7845044D01*
X9888727Y7977378D02*
G01*
X9870440Y7995665D01*
X9843261Y8004810D01*
X9806940Y8004810D01*
X9779508Y7995665D01*
X9761474Y7977378D01*
X9761474Y7959344D01*
X9770363Y7941055D01*
X9779508Y7931912D01*
X9797795Y7923021D01*
X9852406Y7904734D01*
X9870440Y7895589D01*
X9879584Y7886445D01*
X9888727Y7868412D01*
X9888727Y7840979D01*
X9870440Y7822945D01*
X9843261Y7813802D01*
X9806940Y7813802D01*
X9779508Y7822945D01*
X9761474Y7840979D01*
X10012425Y8004810D02*
G01*
X10012425Y7813802D01*
X9948672Y8004810D02*
G01*
X10075925Y8004810D01*
X10208768Y8004810D02*
G01*
X10135870Y7813802D01*
X10208768Y8004810D02*
G01*
X10281411Y7813802D01*
X10163302Y7877555D02*
G01*
X10254234Y7877555D01*
X10341356Y8004810D02*
G01*
X10341356Y7813802D01*
X10341356Y8004810D02*
G01*
X10414000Y7813802D01*
X10486897Y8004810D02*
G01*
X10414000Y7813802D01*
X10486897Y8004810D02*
G01*
X10486897Y7813802D01*
X10546841Y8004810D02*
G01*
X10546841Y7813802D01*
X10546841Y8004810D02*
G01*
X10628629Y8004810D01*
X10656061Y7995665D01*
X10664952Y7986521D01*
X10674095Y7968234D01*
X10674095Y7941055D01*
X10664952Y7923021D01*
X10656061Y7913878D01*
X10628629Y7904734D01*
X10546841Y7904734D01*
X10874247Y8004810D02*
G01*
X10874247Y7813802D01*
X10874247Y8004810D02*
G01*
X10956036Y8004810D01*
X10983213Y7995665D01*
X10992358Y7986521D01*
X11001502Y7968234D01*
X11001502Y7950200D01*
X10992358Y7931912D01*
X10983213Y7923021D01*
X10956036Y7913878D01*
X10874247Y7913878D02*
G01*
X10956036Y7913878D01*
X10983213Y7904734D01*
X10992358Y7895589D01*
X11001502Y7877555D01*
X11001502Y7850123D01*
X10992358Y7832089D01*
X10983213Y7822945D01*
X10956036Y7813802D01*
X10874247Y7813802D01*
X11079479Y8004810D02*
G01*
X11179556Y8004810D01*
X11124945Y7931912D01*
X11152377Y7931912D01*
X11170411Y7923021D01*
X11179556Y7913878D01*
X11188700Y7886445D01*
X11188700Y7868412D01*
X11179556Y7840979D01*
X11161268Y7822945D01*
X11134090Y7813802D01*
X11106911Y7813802D01*
X11079479Y7822945D01*
X11070590Y7832089D01*
X11061445Y7850123D01*
X16832864Y7977378D02*
G01*
X16814576Y7995665D01*
X16787398Y8004810D01*
X16751076Y8004810D01*
X16723644Y7995665D01*
X16705610Y7977378D01*
X16705610Y7959344D01*
X16714500Y7941055D01*
X16723644Y7931912D01*
X16741932Y7923021D01*
X16796542Y7904734D01*
X16814576Y7895589D01*
X16823720Y7886445D01*
X16832864Y7868412D01*
X16832864Y7840979D01*
X16814576Y7822945D01*
X16787398Y7813802D01*
X16751076Y7813802D01*
X16723644Y7822945D01*
X16705610Y7840979D01*
X16956308Y8004810D02*
G01*
X16956308Y7813802D01*
X16892808Y8004810D02*
G01*
X17020062Y8004810D01*
X17152904Y8004810D02*
G01*
X17080006Y7813802D01*
X17152904Y8004810D02*
G01*
X17225548Y7813802D01*
X17107438Y7877555D02*
G01*
X17198116Y7877555D01*
X17285492Y8004810D02*
G01*
X17285492Y7813802D01*
X17285492Y8004810D02*
G01*
X17358136Y7813802D01*
X17431034Y8004810D02*
G01*
X17358136Y7813802D01*
X17431034Y8004810D02*
G01*
X17431034Y7813802D01*
X17490978Y8004810D02*
G01*
X17490978Y7813802D01*
X17490978Y8004810D02*
G01*
X17572766Y8004810D01*
X17599944Y7995665D01*
X17609088Y7986521D01*
X17618232Y7968234D01*
X17618232Y7941055D01*
X17609088Y7923021D01*
X17599944Y7913878D01*
X17572766Y7904734D01*
X17490978Y7904734D01*
X17954528Y7959344D02*
G01*
X17945384Y7977378D01*
X17927350Y7995665D01*
X17909062Y8004810D01*
X17872740Y8004810D01*
X17854706Y7995665D01*
X17836418Y7977378D01*
X17827274Y7959344D01*
X17818130Y7931912D01*
X17818130Y7886445D01*
X17827274Y7859268D01*
X17836418Y7840979D01*
X17854706Y7822945D01*
X17872740Y7813802D01*
X17909062Y7813802D01*
X17927350Y7822945D01*
X17945384Y7840979D01*
X17954528Y7859268D01*
X18032760Y8004810D02*
G01*
X18132836Y8004810D01*
X18078226Y7931912D01*
X18105404Y7931912D01*
X18123692Y7923021D01*
X18132836Y7913878D01*
X18141980Y7886445D01*
X18141980Y7868412D01*
X18132836Y7840979D01*
X18114548Y7822945D01*
X18087370Y7813802D01*
X18059938Y7813802D01*
X18032760Y7822945D01*
X18023616Y7832089D01*
X18014472Y7850123D01*
X23774654Y7972297D02*
G01*
X23756366Y7990586D01*
X23729188Y7999729D01*
X23692866Y7999729D01*
X23665688Y7990586D01*
X23647400Y7972297D01*
X23647400Y7954263D01*
X23656543Y7935976D01*
X23665688Y7926831D01*
X23683722Y7917687D01*
X23738331Y7899654D01*
X23756366Y7890510D01*
X23765509Y7881365D01*
X23774654Y7863331D01*
X23774654Y7835900D01*
X23756366Y7817865D01*
X23729188Y7808721D01*
X23692866Y7808721D01*
X23665688Y7817865D01*
X23647400Y7835900D01*
X23898352Y7999729D02*
G01*
X23898352Y7808721D01*
X23834598Y7999729D02*
G01*
X23961852Y7999729D01*
X24094693Y7999729D02*
G01*
X24022050Y7808721D01*
X24094693Y7999729D02*
G01*
X24167338Y7808721D01*
X24049227Y7872221D02*
G01*
X24140159Y7872221D01*
X24227281Y7999729D02*
G01*
X24227281Y7808721D01*
X24227281Y7999729D02*
G01*
X24300179Y7808721D01*
X24372824Y7999729D02*
G01*
X24300179Y7808721D01*
X24372824Y7999729D02*
G01*
X24372824Y7808721D01*
X24432768Y7999729D02*
G01*
X24432768Y7808721D01*
X24432768Y7999729D02*
G01*
X24514556Y7999729D01*
X24541988Y7990586D01*
X24551131Y7981442D01*
X24560022Y7963154D01*
X24560022Y7935976D01*
X24551131Y7917687D01*
X24541988Y7908797D01*
X24514556Y7899654D01*
X24432768Y7899654D01*
X24760174Y7999729D02*
G01*
X24760174Y7808721D01*
X24760174Y7999729D02*
G01*
X24823674Y7999729D01*
X24851106Y7990586D01*
X24869140Y7972297D01*
X24878284Y7954263D01*
X24887427Y7926831D01*
X24887427Y7881365D01*
X24878284Y7854187D01*
X24869140Y7835900D01*
X24851106Y7817865D01*
X24823674Y7808721D01*
X24760174Y7808721D01*
X24965659Y7999729D02*
G01*
X25065481Y7999729D01*
X25011125Y7926831D01*
X25038304Y7926831D01*
X25056591Y7917687D01*
X25065481Y7908797D01*
X25074625Y7881365D01*
X25074625Y7863331D01*
X25065481Y7835900D01*
X25047448Y7817865D01*
X25020016Y7808721D01*
X24992838Y7808721D01*
X24965659Y7817865D01*
X24956516Y7827010D01*
X24947372Y7845044D01*
X23774654Y14322297D02*
G01*
X23756366Y14340586D01*
X23729188Y14349729D01*
X23692866Y14349729D01*
X23665688Y14340586D01*
X23647400Y14322297D01*
X23647400Y14304263D01*
X23656543Y14285976D01*
X23665688Y14276831D01*
X23683722Y14267687D01*
X23738331Y14249654D01*
X23756366Y14240510D01*
X23765509Y14231366D01*
X23774654Y14213331D01*
X23774654Y14185900D01*
X23756366Y14167866D01*
X23729188Y14158721D01*
X23692866Y14158721D01*
X23665688Y14167866D01*
X23647400Y14185900D01*
X23898352Y14349729D02*
G01*
X23898352Y14158721D01*
X23834598Y14349729D02*
G01*
X23961852Y14349729D01*
X24094693Y14349729D02*
G01*
X24022050Y14158721D01*
X24094693Y14349729D02*
G01*
X24167338Y14158721D01*
X24049227Y14222221D02*
G01*
X24140159Y14222221D01*
X24227281Y14349729D02*
G01*
X24227281Y14158721D01*
X24227281Y14349729D02*
G01*
X24300179Y14158721D01*
X24372824Y14349729D02*
G01*
X24300179Y14158721D01*
X24372824Y14349729D02*
G01*
X24372824Y14158721D01*
X24432768Y14349729D02*
G01*
X24432768Y14158721D01*
X24432768Y14349729D02*
G01*
X24514556Y14349729D01*
X24541988Y14340586D01*
X24551131Y14331442D01*
X24560022Y14313154D01*
X24560022Y14285976D01*
X24551131Y14267687D01*
X24541988Y14258797D01*
X24514556Y14249654D01*
X24432768Y14249654D01*
X24760174Y14349729D02*
G01*
X24760174Y14158721D01*
X24760174Y14349729D02*
G01*
X24823674Y14349729D01*
X24851106Y14340586D01*
X24869140Y14322297D01*
X24878284Y14304263D01*
X24887427Y14276831D01*
X24887427Y14231366D01*
X24878284Y14204187D01*
X24869140Y14185900D01*
X24851106Y14167866D01*
X24823674Y14158721D01*
X24760174Y14158721D01*
X24956516Y14304263D02*
G01*
X24956516Y14313154D01*
X24965659Y14331442D01*
X24974550Y14340586D01*
X24992838Y14349729D01*
X25029159Y14349729D01*
X25047448Y14340586D01*
X25056591Y14331442D01*
X25065481Y14313154D01*
X25065481Y14295120D01*
X25056591Y14276831D01*
X25038304Y14249654D01*
X24947372Y14158721D01*
X25074625Y14158721D01*
X23774654Y20672298D02*
G01*
X23756366Y20690586D01*
X23729188Y20699729D01*
X23692866Y20699729D01*
X23665688Y20690586D01*
X23647400Y20672298D01*
X23647400Y20654263D01*
X23656543Y20635976D01*
X23665688Y20626831D01*
X23683722Y20617687D01*
X23738331Y20599654D01*
X23756366Y20590510D01*
X23765509Y20581366D01*
X23774654Y20563331D01*
X23774654Y20535900D01*
X23756366Y20517866D01*
X23729188Y20508721D01*
X23692866Y20508721D01*
X23665688Y20517866D01*
X23647400Y20535900D01*
X23898352Y20699729D02*
G01*
X23898352Y20508721D01*
X23834598Y20699729D02*
G01*
X23961852Y20699729D01*
X24094693Y20699729D02*
G01*
X24022050Y20508721D01*
X24094693Y20699729D02*
G01*
X24167338Y20508721D01*
X24049227Y20572221D02*
G01*
X24140159Y20572221D01*
X24227281Y20699729D02*
G01*
X24227281Y20508721D01*
X24227281Y20699729D02*
G01*
X24300179Y20508721D01*
X24372824Y20699729D02*
G01*
X24300179Y20508721D01*
X24372824Y20699729D02*
G01*
X24372824Y20508721D01*
X24432768Y20699729D02*
G01*
X24432768Y20508721D01*
X24432768Y20699729D02*
G01*
X24514556Y20699729D01*
X24541988Y20690586D01*
X24551131Y20681442D01*
X24560022Y20663154D01*
X24560022Y20635976D01*
X24551131Y20617687D01*
X24541988Y20608798D01*
X24514556Y20599654D01*
X24432768Y20599654D01*
X24760174Y20699729D02*
G01*
X24760174Y20508721D01*
X24760174Y20699729D02*
G01*
X24823674Y20699729D01*
X24851106Y20690586D01*
X24869140Y20672298D01*
X24878284Y20654263D01*
X24887427Y20626831D01*
X24887427Y20581366D01*
X24878284Y20554187D01*
X24869140Y20535900D01*
X24851106Y20517866D01*
X24823674Y20508721D01*
X24760174Y20508721D01*
X24947372Y20663154D02*
G01*
X24965659Y20672298D01*
X24992838Y20699729D01*
X24992838Y20508721D01*
X9888727Y20677378D02*
G01*
X9870440Y20695666D01*
X9843261Y20704810D01*
X9806940Y20704810D01*
X9779508Y20695666D01*
X9761474Y20677378D01*
X9761474Y20659344D01*
X9770363Y20641055D01*
X9779508Y20631912D01*
X9797795Y20623021D01*
X9852406Y20604734D01*
X9870440Y20595589D01*
X9879584Y20586445D01*
X9888727Y20568412D01*
X9888727Y20540979D01*
X9870440Y20522945D01*
X9843261Y20513802D01*
X9806940Y20513802D01*
X9779508Y20522945D01*
X9761474Y20540979D01*
X10012425Y20704810D02*
G01*
X10012425Y20513802D01*
X9948672Y20704810D02*
G01*
X10075925Y20704810D01*
X10208768Y20704810D02*
G01*
X10135870Y20513802D01*
X10208768Y20704810D02*
G01*
X10281411Y20513802D01*
X10163302Y20577555D02*
G01*
X10254234Y20577555D01*
X10341356Y20704810D02*
G01*
X10341356Y20513802D01*
X10341356Y20704810D02*
G01*
X10414000Y20513802D01*
X10486897Y20704810D02*
G01*
X10414000Y20513802D01*
X10486897Y20704810D02*
G01*
X10486897Y20513802D01*
X10546841Y20704810D02*
G01*
X10546841Y20513802D01*
X10546841Y20704810D02*
G01*
X10628629Y20704810D01*
X10656061Y20695666D01*
X10664952Y20686521D01*
X10674095Y20668234D01*
X10674095Y20641055D01*
X10664952Y20623021D01*
X10656061Y20613878D01*
X10628629Y20604734D01*
X10546841Y20604734D01*
X10874247Y20704810D02*
G01*
X10874247Y20513802D01*
X10874247Y20704810D02*
G01*
X10956036Y20704810D01*
X10983213Y20695666D01*
X10992358Y20686521D01*
X11001502Y20668234D01*
X11001502Y20650200D01*
X10992358Y20631912D01*
X10983213Y20623021D01*
X10956036Y20613878D01*
X10874247Y20613878D02*
G01*
X10956036Y20613878D01*
X10983213Y20604734D01*
X10992358Y20595589D01*
X11001502Y20577555D01*
X11001502Y20550124D01*
X10992358Y20532089D01*
X10983213Y20522945D01*
X10956036Y20513802D01*
X10874247Y20513802D01*
X11061445Y20668234D02*
G01*
X11079479Y20677378D01*
X11106911Y20704810D01*
X11106911Y20513802D01*
X16832834Y20677378D02*
G01*
X16814545Y20695666D01*
X16787368Y20704810D01*
X16751045Y20704810D01*
X16723613Y20695666D01*
X16705579Y20677378D01*
X16705579Y20659344D01*
X16714470Y20641055D01*
X16723613Y20631912D01*
X16741902Y20623021D01*
X16796511Y20604734D01*
X16814545Y20595589D01*
X16823690Y20586445D01*
X16832834Y20568412D01*
X16832834Y20540979D01*
X16814545Y20522945D01*
X16787368Y20513802D01*
X16751045Y20513802D01*
X16723613Y20522945D01*
X16705579Y20540979D01*
X16956531Y20704810D02*
G01*
X16956531Y20513802D01*
X16892777Y20704810D02*
G01*
X17020031Y20704810D01*
X17152874Y20704810D02*
G01*
X17079975Y20513802D01*
X17152874Y20704810D02*
G01*
X17225518Y20513802D01*
X17107408Y20577555D02*
G01*
X17198340Y20577555D01*
X17285461Y20704810D02*
G01*
X17285461Y20513802D01*
X17285461Y20704810D02*
G01*
X17358106Y20513802D01*
X17431004Y20704810D02*
G01*
X17358106Y20513802D01*
X17431004Y20704810D02*
G01*
X17431004Y20513802D01*
X17490948Y20704810D02*
G01*
X17490948Y20513802D01*
X17490948Y20704810D02*
G01*
X17572736Y20704810D01*
X17600168Y20695666D01*
X17609058Y20686521D01*
X17618202Y20668234D01*
X17618202Y20641055D01*
X17609058Y20623021D01*
X17600168Y20613878D01*
X17572736Y20604734D01*
X17490948Y20604734D01*
X17954498Y20659344D02*
G01*
X17945608Y20677378D01*
X17927320Y20695666D01*
X17909031Y20704810D01*
X17872709Y20704810D01*
X17854675Y20695666D01*
X17836388Y20677378D01*
X17827243Y20659344D01*
X17818354Y20631912D01*
X17818354Y20586445D01*
X17827243Y20559268D01*
X17836388Y20540979D01*
X17854675Y20522945D01*
X17872709Y20513802D01*
X17909031Y20513802D01*
X17927320Y20522945D01*
X17945608Y20540979D01*
X17954498Y20559268D01*
X18014695Y20668234D02*
G01*
X18032729Y20677378D01*
X18060161Y20704810D01*
X18060161Y20513802D01*
X9888763Y14327378D02*
G01*
X9870475Y14345666D01*
X9843297Y14354810D01*
X9806975Y14354810D01*
X9779543Y14345666D01*
X9761509Y14327378D01*
X9761509Y14309344D01*
X9770399Y14291055D01*
X9779543Y14281912D01*
X9797831Y14273021D01*
X9852441Y14254734D01*
X9870475Y14245589D01*
X9879619Y14236445D01*
X9888763Y14218412D01*
X9888763Y14190979D01*
X9870475Y14172945D01*
X9843297Y14163802D01*
X9806975Y14163802D01*
X9779543Y14172945D01*
X9761509Y14190979D01*
X10012207Y14354810D02*
G01*
X10012207Y14163802D01*
X9948707Y14354810D02*
G01*
X10075961Y14354810D01*
X10208803Y14354810D02*
G01*
X10135905Y14163802D01*
X10208803Y14354810D02*
G01*
X10281447Y14163802D01*
X10163337Y14227555D02*
G01*
X10254015Y14227555D01*
X10341391Y14354810D02*
G01*
X10341391Y14163802D01*
X10341391Y14354810D02*
G01*
X10414035Y14163802D01*
X10486933Y14354810D02*
G01*
X10414035Y14163802D01*
X10486933Y14354810D02*
G01*
X10486933Y14163802D01*
X10546877Y14354810D02*
G01*
X10546877Y14163802D01*
X10546877Y14354810D02*
G01*
X10628665Y14354810D01*
X10655843Y14345666D01*
X10664987Y14336521D01*
X10674131Y14318234D01*
X10674131Y14291055D01*
X10664987Y14273021D01*
X10655843Y14263878D01*
X10628665Y14254734D01*
X10546877Y14254734D01*
X10874029Y14354810D02*
G01*
X10874029Y14163802D01*
X10874029Y14354810D02*
G01*
X10956071Y14354810D01*
X10983249Y14345666D01*
X10992393Y14336521D01*
X11001283Y14318234D01*
X11001283Y14300200D01*
X10992393Y14281912D01*
X10983249Y14273021D01*
X10956071Y14263878D01*
X10874029Y14263878D02*
G01*
X10956071Y14263878D01*
X10983249Y14254734D01*
X10992393Y14245589D01*
X11001283Y14227555D01*
X11001283Y14200124D01*
X10992393Y14182089D01*
X10983249Y14172945D01*
X10956071Y14163802D01*
X10874029Y14163802D01*
X11070371Y14309344D02*
G01*
X11070371Y14318234D01*
X11079515Y14336521D01*
X11088659Y14345666D01*
X11106947Y14354810D01*
X11143269Y14354810D01*
X11161303Y14345666D01*
X11170447Y14336521D01*
X11179591Y14318234D01*
X11179591Y14300200D01*
X11170447Y14281912D01*
X11152413Y14254734D01*
X11061481Y14163802D01*
X11188735Y14163802D01*
X16832834Y14327378D02*
G01*
X16814545Y14345666D01*
X16787368Y14354810D01*
X16751045Y14354810D01*
X16723613Y14345666D01*
X16705579Y14327378D01*
X16705579Y14309344D01*
X16714470Y14291055D01*
X16723613Y14281912D01*
X16741902Y14273021D01*
X16796511Y14254734D01*
X16814545Y14245589D01*
X16823690Y14236445D01*
X16832834Y14218412D01*
X16832834Y14190979D01*
X16814545Y14172945D01*
X16787368Y14163802D01*
X16751045Y14163802D01*
X16723613Y14172945D01*
X16705579Y14190979D01*
X16956531Y14354810D02*
G01*
X16956531Y14163802D01*
X16892777Y14354810D02*
G01*
X17020031Y14354810D01*
X17152874Y14354810D02*
G01*
X17079975Y14163802D01*
X17152874Y14354810D02*
G01*
X17225518Y14163802D01*
X17107408Y14227555D02*
G01*
X17198340Y14227555D01*
X17285461Y14354810D02*
G01*
X17285461Y14163802D01*
X17285461Y14354810D02*
G01*
X17358106Y14163802D01*
X17431004Y14354810D02*
G01*
X17358106Y14163802D01*
X17431004Y14354810D02*
G01*
X17431004Y14163802D01*
X17490948Y14354810D02*
G01*
X17490948Y14163802D01*
X17490948Y14354810D02*
G01*
X17572736Y14354810D01*
X17600168Y14345666D01*
X17609058Y14336521D01*
X17618202Y14318234D01*
X17618202Y14291055D01*
X17609058Y14273021D01*
X17600168Y14263878D01*
X17572736Y14254734D01*
X17490948Y14254734D01*
X17954498Y14309344D02*
G01*
X17945608Y14327378D01*
X17927320Y14345666D01*
X17909031Y14354810D01*
X17872709Y14354810D01*
X17854675Y14345666D01*
X17836388Y14327378D01*
X17827243Y14309344D01*
X17818354Y14281912D01*
X17818354Y14236445D01*
X17827243Y14209268D01*
X17836388Y14190979D01*
X17854675Y14172945D01*
X17872709Y14163802D01*
X17909031Y14163802D01*
X17927320Y14172945D01*
X17945608Y14190979D01*
X17954498Y14209268D01*
X18023586Y14309344D02*
G01*
X18023586Y14318234D01*
X18032729Y14336521D01*
X18041874Y14345666D01*
X18060161Y14354810D01*
X18096484Y14354810D01*
X18114518Y14345666D01*
X18123661Y14336521D01*
X18132806Y14318234D01*
X18132806Y14300200D01*
X18123661Y14281912D01*
X18105627Y14254734D01*
X18014695Y14163802D01*
X18141950Y14163802D01*
X11341100Y354329D02*
G01*
X11341100Y163321D01*
X11341100Y354329D02*
G01*
X11422888Y354329D01*
X11450065Y345186D01*
X11459209Y336042D01*
X11468354Y317754D01*
X11468354Y290576D01*
X11459209Y272287D01*
X11450065Y263397D01*
X11422888Y254254D01*
X11341100Y254254D01*
X11528297Y354329D02*
G01*
X11528297Y163321D01*
X11528297Y354329D02*
G01*
X11610086Y354329D01*
X11637518Y345186D01*
X11646661Y336042D01*
X11655552Y317754D01*
X11655552Y299720D01*
X11646661Y281431D01*
X11637518Y272287D01*
X11610086Y263397D01*
X11528297Y263397D01*
X11592052Y263397D02*
G01*
X11655552Y163321D01*
X11770106Y354329D02*
G01*
X11752072Y345186D01*
X11733784Y326897D01*
X11724640Y308863D01*
X11715750Y281431D01*
X11715750Y235965D01*
X11724640Y208787D01*
X11733784Y190500D01*
X11752072Y172465D01*
X11770106Y163321D01*
X11806427Y163321D01*
X11824715Y172465D01*
X11843004Y190500D01*
X11851893Y208787D01*
X11861038Y235965D01*
X11861038Y281431D01*
X11851893Y308863D01*
X11843004Y326897D01*
X11824715Y345186D01*
X11806427Y354329D01*
X11770106Y354329D01*
X11984736Y354329D02*
G01*
X11984736Y163321D01*
X11920981Y354329D02*
G01*
X12048490Y354329D01*
X12162790Y354329D02*
G01*
X12144756Y345186D01*
X12126468Y326897D01*
X12117577Y308863D01*
X12108434Y281431D01*
X12108434Y235965D01*
X12117577Y208787D01*
X12126468Y190500D01*
X12144756Y172465D01*
X12162790Y163321D01*
X12199365Y163321D01*
X12217400Y172465D01*
X12235688Y190500D01*
X12244831Y208787D01*
X12253722Y235965D01*
X12253722Y281431D01*
X12244831Y308863D01*
X12235688Y326897D01*
X12217400Y345186D01*
X12199365Y354329D01*
X12162790Y354329D01*
X12313920Y354329D02*
G01*
X12313920Y163321D01*
X12313920Y354329D02*
G01*
X12441174Y163321D01*
X12441174Y354329D02*
G01*
X12441174Y163321D01*
X12501118Y354329D02*
G01*
X12501118Y163321D01*
X12501118Y354329D02*
G01*
X12619227Y354329D01*
X12501118Y263397D02*
G01*
X12573761Y263397D01*
X12501118Y163321D02*
G01*
X12619227Y163321D01*
X12679172Y354329D02*
G01*
X12679172Y163321D01*
X12679172Y354329D02*
G01*
X12752070Y163321D01*
X12824713Y354329D02*
G01*
X12752070Y163321D01*
X12824713Y354329D02*
G01*
X12824713Y163321D01*
X12957556Y354329D02*
G01*
X12884658Y163321D01*
X12957556Y354329D02*
G01*
X13030200Y163321D01*
X12912090Y226821D02*
G01*
X13003022Y226821D01*
X13230097Y354329D02*
G01*
X13230097Y163321D01*
X13357352Y354329D02*
G01*
X13357352Y163321D01*
X13230097Y263397D02*
G01*
X13357352Y263397D01*
X13417550Y245110D02*
G01*
X13581125Y245110D01*
X13750290Y354329D02*
G01*
X13659358Y354329D01*
X13650213Y272287D01*
X13659358Y281431D01*
X13686536Y290576D01*
X13713713Y290576D01*
X13741145Y281431D01*
X13759179Y263397D01*
X13768324Y235965D01*
X13768324Y217931D01*
X13759179Y190500D01*
X13741145Y172465D01*
X13713713Y163321D01*
X13686536Y163321D01*
X13659358Y172465D01*
X13650213Y181610D01*
X13641070Y199644D01*
X13882877Y354329D02*
G01*
X13855700Y345186D01*
X13837411Y317754D01*
X13828268Y272287D01*
X13828268Y245110D01*
X13837411Y199644D01*
X13855700Y172465D01*
X13882877Y163321D01*
X13901166Y163321D01*
X13928343Y172465D01*
X13946631Y199644D01*
X13955522Y245110D01*
X13955522Y272287D01*
X13946631Y317754D01*
X13928343Y345186D01*
X13901166Y354329D01*
X13882877Y354329D01*
X14070075Y354329D02*
G01*
X14042897Y345186D01*
X14024609Y317754D01*
X14015720Y272287D01*
X14015720Y245110D01*
X14024609Y199644D01*
X14042897Y172465D01*
X14070075Y163321D01*
X14088363Y163321D01*
X14115541Y172465D01*
X14133829Y199644D01*
X14142974Y245110D01*
X14142974Y272287D01*
X14133829Y317754D01*
X14115541Y345186D01*
X14088363Y354329D01*
X14070075Y354329D01*
X14479270Y308863D02*
G01*
X14470125Y326897D01*
X14452091Y345186D01*
X14433804Y354329D01*
X14397481Y354329D01*
X14379193Y345186D01*
X14361159Y326897D01*
X14352016Y308863D01*
X14342872Y281431D01*
X14342872Y235965D01*
X14352016Y208787D01*
X14361159Y190500D01*
X14379193Y172465D01*
X14397481Y163321D01*
X14433804Y163321D01*
X14452091Y172465D01*
X14470125Y190500D01*
X14479270Y208787D01*
X14593824Y354329D02*
G01*
X14575536Y345186D01*
X14557502Y326897D01*
X14548358Y308863D01*
X14539213Y281431D01*
X14539213Y235965D01*
X14548358Y208787D01*
X14557502Y190500D01*
X14575536Y172465D01*
X14593824Y163321D01*
X14630145Y163321D01*
X14648434Y172465D01*
X14666468Y190500D01*
X14675611Y208787D01*
X14684756Y235965D01*
X14684756Y281431D01*
X14675611Y308863D01*
X14666468Y326897D01*
X14648434Y345186D01*
X14630145Y354329D01*
X14593824Y354329D01*
X14744700Y354329D02*
G01*
X14744700Y163321D01*
X14744700Y354329D02*
G01*
X14817343Y163321D01*
X14890241Y354329D02*
G01*
X14817343Y163321D01*
X14890241Y354329D02*
G01*
X14890241Y163321D01*
X14950186Y354329D02*
G01*
X14950186Y163321D01*
X14950186Y354329D02*
G01*
X15031974Y354329D01*
X15059152Y345186D01*
X15068295Y336042D01*
X15077440Y317754D01*
X15077440Y290576D01*
X15068295Y272287D01*
X15059152Y263397D01*
X15031974Y254254D01*
X14950186Y254254D01*
X15137384Y354329D02*
G01*
X15137384Y217931D01*
X15146527Y190500D01*
X15164816Y172465D01*
X15191993Y163321D01*
X15210281Y163321D01*
X15237459Y172465D01*
X15255747Y190500D01*
X15264638Y217931D01*
X15264638Y354329D01*
X15388336Y354329D02*
G01*
X15388336Y163321D01*
X15324836Y354329D02*
G01*
X15452090Y354329D01*
X15512034Y354329D02*
G01*
X15512034Y163321D01*
X15512034Y354329D02*
G01*
X15630143Y354329D01*
X15512034Y263397D02*
G01*
X15584677Y263397D01*
X15512034Y163321D02*
G01*
X15630143Y163321D01*
X15690088Y354329D02*
G01*
X15690088Y163321D01*
X15690088Y354329D02*
G01*
X15771875Y354329D01*
X15799308Y345186D01*
X15808452Y336042D01*
X15817341Y317754D01*
X15817341Y299720D01*
X15808452Y281431D01*
X15799308Y272287D01*
X15771875Y263397D01*
X15690088Y263397D01*
X15753841Y263397D02*
G01*
X15817341Y163321D01*
X16017493Y354329D02*
G01*
X16017493Y163321D01*
X16017493Y163321D02*
G01*
X16126459Y163321D01*
X16259302Y354329D02*
G01*
X16186658Y163321D01*
X16259302Y354329D02*
G01*
X16331945Y163321D01*
X16213836Y226821D02*
G01*
X16304768Y226821D01*
X16391890Y354329D02*
G01*
X16391890Y163321D01*
X16391890Y354329D02*
G01*
X16473931Y354329D01*
X16501109Y345186D01*
X16510254Y336042D01*
X16519397Y317754D01*
X16519397Y299720D01*
X16510254Y281431D01*
X16501109Y272287D01*
X16473931Y263397D01*
X16391890Y263397D02*
G01*
X16473931Y263397D01*
X16501109Y254254D01*
X16510254Y245110D01*
X16519397Y226821D01*
X16519397Y199644D01*
X16510254Y181610D01*
X16501109Y172465D01*
X16473931Y163321D01*
X16391890Y163321D01*
D13*
X19259550Y21474937D02*
G01*
X19259550Y21379434D01*
X19227800Y21474937D02*
G01*
X19291554Y21474937D01*
X19321525Y21474937D02*
G01*
X19321525Y21379434D01*
X19321525Y21474937D02*
G01*
X19362420Y21474937D01*
X19375881Y21470366D01*
X19380454Y21465794D01*
X19385025Y21456904D01*
X19385025Y21443187D01*
X19380454Y21434044D01*
X19375881Y21429471D01*
X19362420Y21424900D01*
X19321525Y21424900D01*
X19414998Y21456904D02*
G01*
X19424141Y21461476D01*
X19437858Y21474937D01*
X19437858Y21379434D01*
X19610831Y21266658D02*
G01*
X19556222Y21266658D01*
X19550634Y21217381D01*
X19556222Y21222970D01*
X19572477Y21228304D01*
X19588988Y21228304D01*
X19605243Y21222970D01*
X19616166Y21212048D01*
X19621754Y21195792D01*
X19621754Y21184870D01*
X19616166Y21168360D01*
X19605243Y21157437D01*
X19588988Y21152104D01*
X19572477Y21152104D01*
X19556222Y21157437D01*
X19550634Y21163026D01*
X19545300Y21173948D01*
X19657568Y21266658D02*
G01*
X19701256Y21152104D01*
X19744943Y21266658D02*
G01*
X19701256Y21152104D01*
X20541622Y21239226D02*
G01*
X20536034Y21250148D01*
X20525112Y21261070D01*
X20514190Y21266658D01*
X20492346Y21266658D01*
X20481424Y21261070D01*
X20470502Y21250148D01*
X20465168Y21239226D01*
X20459580Y21222970D01*
X20459580Y21195792D01*
X20465168Y21179281D01*
X20470502Y21168360D01*
X20481424Y21157437D01*
X20492346Y21152104D01*
X20514190Y21152104D01*
X20525112Y21157437D01*
X20536034Y21168360D01*
X20541622Y21179281D01*
X20541622Y21195792D01*
X20514190Y21195792D02*
G01*
X20541622Y21195792D01*
X20577436Y21266658D02*
G01*
X20577436Y21152104D01*
X20577436Y21266658D02*
G01*
X20653890Y21152104D01*
X20653890Y21266658D02*
G01*
X20653890Y21152104D01*
X20689958Y21266658D02*
G01*
X20689958Y21152104D01*
X20689958Y21266658D02*
G01*
X20728058Y21266658D01*
X20744314Y21261070D01*
X20755236Y21250148D01*
X20760824Y21239226D01*
X20766158Y21222970D01*
X20766158Y21195792D01*
X20760824Y21179281D01*
X20755236Y21168360D01*
X20744314Y21157437D01*
X20728058Y21152104D01*
X20689958Y21152104D01*
X20199484Y21474937D02*
G01*
X20199484Y21379434D01*
X20167480Y21474937D02*
G01*
X20231234Y21474937D01*
X20261206Y21474937D02*
G01*
X20261206Y21379434D01*
X20261206Y21474937D02*
G01*
X20302100Y21474937D01*
X20315816Y21470366D01*
X20320388Y21465794D01*
X20324960Y21456904D01*
X20324960Y21443187D01*
X20320388Y21434044D01*
X20315816Y21429471D01*
X20302100Y21424900D01*
X20261206Y21424900D01*
X20359504Y21452331D02*
G01*
X20359504Y21456904D01*
X20364076Y21465794D01*
X20368394Y21470366D01*
X20377538Y21474937D01*
X20395826Y21474937D01*
X20404970Y21470366D01*
X20409542Y21465794D01*
X20413860Y21456904D01*
X20413860Y21447760D01*
X20409542Y21438616D01*
X20400398Y21424900D01*
X20354932Y21379434D01*
X20418432Y21379434D01*
D14*
X25984174Y1334262D02*
G01*
X26020496Y1352295D01*
X26075106Y1406905D01*
X26075106Y1025144D01*
X26413180Y1406905D02*
G01*
X26231570Y1406905D01*
X26213282Y1243329D01*
X26231570Y1261363D01*
X26285926Y1279652D01*
X26340536Y1279652D01*
X26395146Y1261363D01*
X26431468Y1225042D01*
X26449756Y1170686D01*
X26449756Y1134110D01*
X26431468Y1079754D01*
X26395146Y1043178D01*
X26340536Y1025144D01*
X26285926Y1025144D01*
X26231570Y1043178D01*
X26213282Y1061465D01*
X26194994Y1097787D01*
X26605966Y1406905D02*
G01*
X26806118Y1406905D01*
X26696898Y1261363D01*
X26751508Y1261363D01*
X26787830Y1243329D01*
X26806118Y1225042D01*
X26824152Y1170686D01*
X26824152Y1134110D01*
X26806118Y1079754D01*
X26769542Y1043178D01*
X26715186Y1025144D01*
X26660576Y1025144D01*
X26605966Y1043178D01*
X26587932Y1061465D01*
X26569644Y1097787D01*
X27125904Y1406905D02*
G01*
X26944294Y1152397D01*
X27216836Y1152397D01*
X27125904Y1406905D02*
G01*
X27125904Y1025144D01*
X27336978Y1406905D02*
G01*
X27336978Y1025144D01*
X27336978Y1406905D02*
G01*
X27500554Y1406905D01*
X27555164Y1388871D01*
X27573198Y1370584D01*
X27591486Y1334262D01*
X27591486Y1297939D01*
X27573198Y1261363D01*
X27555164Y1243329D01*
X27500554Y1225042D01*
X27336978Y1225042D02*
G01*
X27500554Y1225042D01*
X27555164Y1207007D01*
X27573198Y1188720D01*
X27591486Y1152397D01*
X27591486Y1097787D01*
X27573198Y1061465D01*
X27555164Y1043178D01*
X27500554Y1025144D01*
X27336978Y1025144D01*
D13*
X88874Y2312421D02*
G01*
X88874Y2234443D01*
X94208Y2218949D01*
X104368Y2208535D01*
X120116Y2203455D01*
X130530Y2203455D01*
X146024Y2208535D01*
X156438Y2218949D01*
X161518Y2234443D01*
X161518Y2312421D01*
X268706Y2296927D02*
G01*
X258292Y2307341D01*
X242798Y2312421D01*
X221970Y2312421D01*
X206222Y2307341D01*
X195808Y2296927D01*
X195808Y2286513D01*
X201142Y2276099D01*
X206222Y2270765D01*
X216636Y2265685D01*
X247878Y2255271D01*
X258292Y2250191D01*
X263372Y2244857D01*
X268706Y2234443D01*
X268706Y2218949D01*
X258292Y2208535D01*
X242798Y2203455D01*
X221970Y2203455D01*
X206222Y2208535D01*
X195808Y2218949D01*
X302996Y2312421D02*
G01*
X302996Y2203455D01*
X302996Y2312421D02*
G01*
X349732Y2312421D01*
X365226Y2307341D01*
X370560Y2302007D01*
X375640Y2291593D01*
X375640Y2281179D01*
X370560Y2270765D01*
X365226Y2265685D01*
X349732Y2260605D01*
X302996Y2260605D02*
G01*
X349732Y2260605D01*
X365226Y2255271D01*
X370560Y2250191D01*
X375640Y2239777D01*
X375640Y2224029D01*
X370560Y2213615D01*
X365226Y2208535D01*
X349732Y2203455D01*
X302996Y2203455D01*
X489940Y2312421D02*
G01*
X489940Y2203455D01*
X489940Y2312421D02*
G01*
X536676Y2312421D01*
X552424Y2307341D01*
X557504Y2302007D01*
X562838Y2291593D01*
X562838Y2276099D01*
X557504Y2265685D01*
X552424Y2260605D01*
X536676Y2255271D01*
X489940Y2255271D01*
X628116Y2312421D02*
G01*
X617702Y2307341D01*
X607288Y2296927D01*
X602208Y2286513D01*
X597128Y2270765D01*
X597128Y2244857D01*
X602208Y2229363D01*
X607288Y2218949D01*
X617702Y2208535D01*
X628116Y2203455D01*
X648944Y2203455D01*
X659358Y2208535D01*
X669772Y2218949D01*
X674852Y2229363D01*
X680186Y2244857D01*
X680186Y2270765D01*
X674852Y2286513D01*
X669772Y2296927D01*
X659358Y2307341D01*
X648944Y2312421D01*
X628116Y2312421D01*
X714476Y2312421D02*
G01*
X740384Y2203455D01*
X766292Y2312421D02*
G01*
X740384Y2203455D01*
X766292Y2312421D02*
G01*
X792454Y2203455D01*
X818362Y2312421D02*
G01*
X792454Y2203455D01*
X852652Y2312421D02*
G01*
X852652Y2203455D01*
X852652Y2312421D02*
G01*
X920216Y2312421D01*
X852652Y2260605D02*
G01*
X894308Y2260605D01*
X852652Y2203455D02*
G01*
X920216Y2203455D01*
X954506Y2312421D02*
G01*
X954506Y2203455D01*
X954506Y2312421D02*
G01*
X1001242Y2312421D01*
X1016736Y2307341D01*
X1022070Y2302007D01*
X1027150Y2291593D01*
X1027150Y2281179D01*
X1022070Y2270765D01*
X1016736Y2265685D01*
X1001242Y2260605D01*
X954506Y2260605D01*
X990828Y2260605D02*
G01*
X1027150Y2203455D01*
X1190243Y2296921D02*
G01*
X1179829Y2307336D01*
X1164336Y2312415D01*
X1143508Y2312415D01*
X1128013Y2307336D01*
X1117600Y2296921D01*
X1117600Y2286507D01*
X1122679Y2276094D01*
X1128013Y2270760D01*
X1138427Y2265679D01*
X1169670Y2255265D01*
X1179829Y2250186D01*
X1185163Y2244852D01*
X1190243Y2234437D01*
X1190243Y2218944D01*
X1179829Y2208529D01*
X1164336Y2203450D01*
X1143508Y2203450D01*
X1128013Y2208529D01*
X1117600Y2218944D01*
X1224534Y2312415D02*
G01*
X1224534Y2203450D01*
X1297431Y2312415D02*
G01*
X1297431Y2203450D01*
X1224534Y2260600D02*
G01*
X1297431Y2260600D01*
X1362709Y2312415D02*
G01*
X1352550Y2307336D01*
X1342136Y2296921D01*
X1336802Y2286507D01*
X1331722Y2270760D01*
X1331722Y2244852D01*
X1336802Y2229357D01*
X1342136Y2218944D01*
X1352550Y2208529D01*
X1362709Y2203450D01*
X1383538Y2203450D01*
X1393952Y2208529D01*
X1404365Y2218944D01*
X1409700Y2229357D01*
X1414779Y2244852D01*
X1414779Y2270760D01*
X1409700Y2286507D01*
X1404365Y2296921D01*
X1393952Y2307336D01*
X1383538Y2312415D01*
X1362709Y2312415D01*
X1449070Y2312415D02*
G01*
X1449070Y2203450D01*
X1449070Y2312415D02*
G01*
X1495806Y2312415D01*
X1511300Y2307336D01*
X1516634Y2302002D01*
X1521713Y2291587D01*
X1521713Y2281173D01*
X1516634Y2270760D01*
X1511300Y2265679D01*
X1495806Y2260600D01*
X1449070Y2260600D01*
X1485391Y2260600D02*
G01*
X1521713Y2203450D01*
X1592579Y2312415D02*
G01*
X1592579Y2203450D01*
X1556004Y2312415D02*
G01*
X1628902Y2312415D01*
X1743202Y2312415D02*
G01*
X1743202Y2203450D01*
X1743202Y2312415D02*
G01*
X1789938Y2312415D01*
X1805431Y2307336D01*
X1810765Y2302002D01*
X1815845Y2291587D01*
X1815845Y2276094D01*
X1810765Y2265679D01*
X1805431Y2260600D01*
X1789938Y2255265D01*
X1743202Y2255265D01*
X1850136Y2312415D02*
G01*
X1850136Y2203450D01*
X1850136Y2312415D02*
G01*
X1896872Y2312415D01*
X1912620Y2307336D01*
X1917700Y2302002D01*
X1922779Y2291587D01*
X1922779Y2281173D01*
X1917700Y2270760D01*
X1912620Y2265679D01*
X1896872Y2260600D01*
X1850136Y2260600D01*
X1886458Y2260600D02*
G01*
X1922779Y2203450D01*
X1988311Y2312415D02*
G01*
X1977897Y2307336D01*
X1967484Y2296921D01*
X1962404Y2286507D01*
X1957070Y2270760D01*
X1957070Y2244852D01*
X1962404Y2229357D01*
X1967484Y2218944D01*
X1977897Y2208529D01*
X1988311Y2203450D01*
X2009140Y2203450D01*
X2019554Y2208529D01*
X2029968Y2218944D01*
X2035047Y2229357D01*
X2040381Y2244852D01*
X2040381Y2270760D01*
X2035047Y2286507D01*
X2029968Y2296921D01*
X2019554Y2307336D01*
X2009140Y2312415D01*
X1988311Y2312415D01*
X2110993Y2312415D02*
G01*
X2110993Y2203450D01*
X2074672Y2312415D02*
G01*
X2147315Y2312415D01*
X2181606Y2312415D02*
G01*
X2181606Y2203450D01*
X2181606Y2312415D02*
G01*
X2249170Y2312415D01*
X2181606Y2260600D02*
G01*
X2223261Y2260600D01*
X2181606Y2203450D02*
G01*
X2249170Y2203450D01*
X2361438Y2286507D02*
G01*
X2356104Y2296921D01*
X2345690Y2307336D01*
X2335529Y2312415D01*
X2314702Y2312415D01*
X2304288Y2307336D01*
X2293874Y2296921D01*
X2288540Y2286507D01*
X2283459Y2270760D01*
X2283459Y2244852D01*
X2288540Y2229357D01*
X2293874Y2218944D01*
X2304288Y2208529D01*
X2314702Y2203450D01*
X2335529Y2203450D01*
X2345690Y2208529D01*
X2356104Y2218944D01*
X2361438Y2229357D01*
X2432050Y2312415D02*
G01*
X2432050Y2203450D01*
X2395727Y2312415D02*
G01*
X2468372Y2312415D01*
X2502661Y2312415D02*
G01*
X2502661Y2203450D01*
X2568193Y2312415D02*
G01*
X2557779Y2307336D01*
X2547365Y2296921D01*
X2542286Y2286507D01*
X2536952Y2270760D01*
X2536952Y2244852D01*
X2542286Y2229357D01*
X2547365Y2218944D01*
X2557779Y2208529D01*
X2568193Y2203450D01*
X2589022Y2203450D01*
X2599436Y2208529D01*
X2609850Y2218944D01*
X2614929Y2229357D01*
X2620009Y2244852D01*
X2620009Y2270760D01*
X2614929Y2286507D01*
X2609850Y2296921D01*
X2599436Y2307336D01*
X2589022Y2312415D01*
X2568193Y2312415D01*
X2654300Y2312415D02*
G01*
X2654300Y2203450D01*
X2654300Y2312415D02*
G01*
X2727197Y2203450D01*
X2727197Y2312415D02*
G01*
X2727197Y2203450D01*
X1409705Y712200D02*
G01*
X1409705Y603234D01*
X1409705Y712200D02*
G01*
X1456441Y712200D01*
X1471935Y707120D01*
X1477269Y701786D01*
X1482349Y691372D01*
X1482349Y680958D01*
X1477269Y670544D01*
X1471935Y665464D01*
X1456441Y660384D01*
X1409705Y660384D01*
X1446027Y660384D02*
G01*
X1482349Y603234D01*
X1516639Y712200D02*
G01*
X1516639Y603234D01*
X1516639Y712200D02*
G01*
X1584203Y712200D01*
X1516639Y660384D02*
G01*
X1558295Y660384D01*
X1516639Y603234D02*
G01*
X1584203Y603234D01*
X1618493Y712200D02*
G01*
X1618493Y603234D01*
X1618493Y712200D02*
G01*
X1654815Y712200D01*
X1670563Y707120D01*
X1680977Y696706D01*
X1686057Y686292D01*
X1691391Y670544D01*
X1691391Y644636D01*
X1686057Y629142D01*
X1680977Y618728D01*
X1670563Y608314D01*
X1654815Y603234D01*
X1618493Y603234D01*
X1805691Y665464D02*
G01*
X1899163Y665464D01*
X1805691Y634222D02*
G01*
X1899163Y634222D01*
X2013463Y712200D02*
G01*
X2013463Y603234D01*
X2013463Y712200D02*
G01*
X2081027Y712200D01*
X2013463Y660384D02*
G01*
X2054865Y660384D01*
X2115317Y712200D02*
G01*
X2115317Y634222D01*
X2120397Y618728D01*
X2130811Y608314D01*
X2146305Y603234D01*
X2156719Y603234D01*
X2172467Y608314D01*
X2182881Y618728D01*
X2187961Y634222D01*
X2187961Y712200D01*
X2294895Y696706D02*
G01*
X2284735Y707120D01*
X2268987Y712200D01*
X2248159Y712200D01*
X2232665Y707120D01*
X2222251Y696706D01*
X2222251Y686292D01*
X2227585Y675878D01*
X2232665Y670544D01*
X2243079Y665464D01*
X2274321Y655050D01*
X2284735Y649970D01*
X2289815Y644636D01*
X2294895Y634222D01*
X2294895Y618728D01*
X2284735Y608314D01*
X2268987Y603234D01*
X2248159Y603234D01*
X2232665Y608314D01*
X2222251Y618728D01*
X2329185Y712200D02*
G01*
X2329185Y603234D01*
X2329185Y712200D02*
G01*
X2396749Y712200D01*
X2329185Y660384D02*
G01*
X2370841Y660384D01*
X2329185Y603234D02*
G01*
X2396749Y603234D01*
X1623827Y521700D02*
G01*
X1623827Y412734D01*
X1587505Y521700D02*
G01*
X1660149Y521700D01*
X1694439Y521700D02*
G01*
X1694439Y412734D01*
X1694439Y521700D02*
G01*
X1741175Y521700D01*
X1756923Y516620D01*
X1762003Y511286D01*
X1767337Y500872D01*
X1767337Y490458D01*
X1762003Y480044D01*
X1756923Y474964D01*
X1741175Y469884D01*
X1694439Y469884D01*
X1731015Y469884D02*
G01*
X1767337Y412734D01*
X1801627Y521700D02*
G01*
X1801627Y412734D01*
X1835917Y521700D02*
G01*
X1835917Y412734D01*
X1835917Y521700D02*
G01*
X1882653Y521700D01*
X1898147Y516620D01*
X1903481Y511286D01*
X1908561Y500872D01*
X1908561Y485378D01*
X1903481Y474964D01*
X1898147Y469884D01*
X1882653Y464550D01*
X1835917Y464550D01*
X1942851Y521700D02*
G01*
X1942851Y412734D01*
X1942851Y521700D02*
G01*
X1989587Y521700D01*
X2005335Y516620D01*
X2010415Y511286D01*
X2015495Y500872D01*
X2015495Y485378D01*
X2010415Y474964D01*
X2005335Y469884D01*
X1989587Y464550D01*
X1942851Y464550D01*
X2049785Y521700D02*
G01*
X2049785Y412734D01*
X2049785Y521700D02*
G01*
X2117349Y521700D01*
X2049785Y469884D02*
G01*
X2091441Y469884D01*
X2049785Y412734D02*
G01*
X2117349Y412734D01*
X2151639Y521700D02*
G01*
X2151639Y412734D01*
X2151639Y521700D02*
G01*
X2188215Y521700D01*
X2203709Y516620D01*
X2214123Y506206D01*
X2219203Y495792D01*
X2224537Y480044D01*
X2224537Y454136D01*
X2219203Y438642D01*
X2214123Y428228D01*
X2203709Y417814D01*
X2188215Y412734D01*
X2151639Y412734D01*
D15*
X1604009Y15907257D02*
G01*
X1604009Y15819881D01*
X1598422Y15803626D01*
X1593088Y15798037D01*
X1582165Y15792704D01*
X1571243Y15792704D01*
X1560322Y15798037D01*
X1554734Y15803626D01*
X1549400Y15819881D01*
X1549400Y15830804D01*
X1694434Y15907257D02*
G01*
X1639824Y15830804D01*
X1721865Y15830804D01*
X1694434Y15907257D02*
G01*
X1694434Y15792704D01*
X5922009Y16681957D02*
G01*
X5922009Y16594581D01*
X5916422Y16578326D01*
X5911088Y16572737D01*
X5900165Y16567404D01*
X5889243Y16567404D01*
X5878322Y16572737D01*
X5872734Y16578326D01*
X5867400Y16594581D01*
X5867400Y16605504D01*
X5968745Y16681957D02*
G01*
X6028943Y16681957D01*
X5996177Y16638270D01*
X6012434Y16638270D01*
X6023356Y16632681D01*
X6028943Y16627347D01*
X6034277Y16611092D01*
X6034277Y16600170D01*
X6028943Y16583660D01*
X6018022Y16572737D01*
X6001511Y16567404D01*
X5985256Y16567404D01*
X5968745Y16572737D01*
X5963411Y16578326D01*
X5957824Y16589247D01*
X4906009Y14421357D02*
G01*
X4906009Y14333981D01*
X4900422Y14317726D01*
X4895088Y14312137D01*
X4884165Y14306804D01*
X4873243Y14306804D01*
X4862322Y14312137D01*
X4856734Y14317726D01*
X4851400Y14333981D01*
X4851400Y14344904D01*
X5007356Y14421357D02*
G01*
X4952745Y14421357D01*
X4947411Y14372081D01*
X4952745Y14377670D01*
X4969256Y14383004D01*
X4985511Y14383004D01*
X5002022Y14377670D01*
X5012943Y14366747D01*
X5018277Y14350492D01*
X5018277Y14339570D01*
X5012943Y14323060D01*
X5002022Y14312137D01*
X4985511Y14306804D01*
X4969256Y14306804D01*
X4952745Y14312137D01*
X4947411Y14317726D01*
X4941824Y14328647D01*
X4906009Y8071358D02*
G01*
X4906009Y7983981D01*
X4900422Y7967726D01*
X4895088Y7962137D01*
X4884165Y7956804D01*
X4873243Y7956804D01*
X4862322Y7962137D01*
X4856734Y7967726D01*
X4851400Y7983981D01*
X4851400Y7994904D01*
X5012943Y8033004D02*
G01*
X5007356Y8016747D01*
X4996434Y8005826D01*
X4980177Y8000492D01*
X4974590Y8000492D01*
X4958334Y8005826D01*
X4947411Y8016747D01*
X4941824Y8033004D01*
X4941824Y8038592D01*
X4947411Y8054847D01*
X4958334Y8065770D01*
X4974590Y8071358D01*
X4980177Y8071358D01*
X4996434Y8065770D01*
X5007356Y8054847D01*
X5012943Y8033004D01*
X5012943Y8005826D01*
X5007356Y7978647D01*
X4996434Y7962137D01*
X4980177Y7956804D01*
X4969256Y7956804D01*
X4952745Y7962137D01*
X4947411Y7973060D01*
X11763832Y20771332D02*
G01*
X11763832Y20683956D01*
X11758498Y20667700D01*
X11752910Y20662112D01*
X11742242Y20656778D01*
X11731320Y20656778D01*
X11720398Y20662112D01*
X11714810Y20667700D01*
X11709476Y20683956D01*
X11709476Y20694878D01*
X11799900Y20749488D02*
G01*
X11810822Y20754822D01*
X11827332Y20771332D01*
X11827332Y20656778D01*
X11874068Y20771332D02*
G01*
X11934012Y20771332D01*
X11901500Y20727644D01*
X11917756Y20727644D01*
X11928678Y20722310D01*
X11934012Y20716722D01*
X11939600Y20700466D01*
X11939600Y20689544D01*
X11934012Y20673034D01*
X11923344Y20662112D01*
X11906834Y20656778D01*
X11890578Y20656778D01*
X11874068Y20662112D01*
X11868734Y20667700D01*
X11863146Y20678622D01*
X11763832Y14421332D02*
G01*
X11763832Y14333956D01*
X11758498Y14317700D01*
X11752910Y14312112D01*
X11742242Y14306778D01*
X11731320Y14306778D01*
X11720398Y14312112D01*
X11714810Y14317700D01*
X11709476Y14333956D01*
X11709476Y14344878D01*
X11799900Y14399488D02*
G01*
X11810822Y14404822D01*
X11827332Y14421332D01*
X11827332Y14306778D01*
X11939600Y14421332D02*
G01*
X11884990Y14306778D01*
X11863146Y14421332D02*
G01*
X11939600Y14421332D01*
X11751132Y8071332D02*
G01*
X11751132Y7983956D01*
X11745798Y7967700D01*
X11740210Y7962112D01*
X11729542Y7956778D01*
X11718620Y7956778D01*
X11707698Y7962112D01*
X11702110Y7967700D01*
X11696776Y7983956D01*
X11696776Y7994878D01*
X11792788Y8043900D02*
G01*
X11792788Y8049488D01*
X11798122Y8060410D01*
X11803710Y8065744D01*
X11814632Y8071332D01*
X11836222Y8071332D01*
X11847144Y8065744D01*
X11852732Y8060410D01*
X11858066Y8049488D01*
X11858066Y8038566D01*
X11852732Y8027644D01*
X11841810Y8011388D01*
X11787200Y7956778D01*
X11863654Y7956778D01*
X11899722Y8049488D02*
G01*
X11910644Y8054822D01*
X11926900Y8071332D01*
X11926900Y7956778D01*
X18647409Y20771358D02*
G01*
X18647409Y20683981D01*
X18641822Y20667726D01*
X18636488Y20662137D01*
X18625566Y20656804D01*
X18614643Y20656804D01*
X18603722Y20662137D01*
X18598134Y20667726D01*
X18592800Y20683981D01*
X18592800Y20694904D01*
X18688811Y20743926D02*
G01*
X18688811Y20749513D01*
X18694145Y20760436D01*
X18699734Y20765770D01*
X18710656Y20771358D01*
X18732500Y20771358D01*
X18743422Y20765770D01*
X18748756Y20760436D01*
X18754343Y20749513D01*
X18754343Y20738592D01*
X18748756Y20727670D01*
X18737834Y20711413D01*
X18683224Y20656804D01*
X18759677Y20656804D01*
X18861277Y20771358D02*
G01*
X18806668Y20771358D01*
X18801079Y20722081D01*
X18806668Y20727670D01*
X18822924Y20733004D01*
X18839434Y20733004D01*
X18855690Y20727670D01*
X18866611Y20716748D01*
X18871945Y20700492D01*
X18871945Y20689570D01*
X18866611Y20673060D01*
X18855690Y20662137D01*
X18839434Y20656804D01*
X18822924Y20656804D01*
X18806668Y20662137D01*
X18801079Y20667726D01*
X18795745Y20678648D01*
X18647232Y14421332D02*
G01*
X18647232Y14333956D01*
X18641898Y14317700D01*
X18636310Y14312112D01*
X18625642Y14306778D01*
X18614720Y14306778D01*
X18603798Y14312112D01*
X18598210Y14317700D01*
X18592876Y14333956D01*
X18592876Y14344878D01*
X18688888Y14393900D02*
G01*
X18688888Y14399488D01*
X18694222Y14410410D01*
X18699810Y14415744D01*
X18710732Y14421332D01*
X18732322Y14421332D01*
X18743244Y14415744D01*
X18748832Y14410410D01*
X18754166Y14399488D01*
X18754166Y14388566D01*
X18748832Y14377644D01*
X18737910Y14361388D01*
X18683300Y14306778D01*
X18759754Y14306778D01*
X18866688Y14383232D02*
G01*
X18861100Y14366722D01*
X18850178Y14355800D01*
X18833922Y14350466D01*
X18828334Y14350466D01*
X18812078Y14355800D01*
X18801156Y14366722D01*
X18795822Y14383232D01*
X18795822Y14388566D01*
X18801156Y14404822D01*
X18812078Y14415744D01*
X18828334Y14421332D01*
X18833922Y14421332D01*
X18850178Y14415744D01*
X18861100Y14404822D01*
X18866688Y14383232D01*
X18866688Y14355800D01*
X18861100Y14328622D01*
X18850178Y14312112D01*
X18833922Y14306778D01*
X18823000Y14306778D01*
X18806744Y14312112D01*
X18801156Y14323034D01*
X18647232Y8071332D02*
G01*
X18647232Y7983956D01*
X18641898Y7967700D01*
X18636310Y7962112D01*
X18625642Y7956778D01*
X18614720Y7956778D01*
X18603798Y7962112D01*
X18598210Y7967700D01*
X18592876Y7983956D01*
X18592876Y7994878D01*
X18694222Y8071332D02*
G01*
X18754166Y8071332D01*
X18721400Y8027644D01*
X18737910Y8027644D01*
X18748832Y8022310D01*
X18754166Y8016722D01*
X18759754Y8000466D01*
X18759754Y7989544D01*
X18754166Y7973034D01*
X18743244Y7962112D01*
X18726988Y7956778D01*
X18710732Y7956778D01*
X18694222Y7962112D01*
X18688888Y7967700D01*
X18683300Y7978622D01*
X18806744Y8071332D02*
G01*
X18866688Y8071332D01*
X18833922Y8027644D01*
X18850178Y8027644D01*
X18861100Y8022310D01*
X18866688Y8016722D01*
X18872022Y8000466D01*
X18872022Y7989544D01*
X18866688Y7973034D01*
X18855766Y7962112D01*
X18839256Y7956778D01*
X18823000Y7956778D01*
X18806744Y7962112D01*
X18801156Y7967700D01*
X18795822Y7978622D01*
X26191209Y20250658D02*
G01*
X26191209Y20163281D01*
X26185622Y20147026D01*
X26180288Y20141437D01*
X26169366Y20136104D01*
X26158443Y20136104D01*
X26147522Y20141437D01*
X26141934Y20147026D01*
X26136600Y20163281D01*
X26136600Y20174204D01*
X26237945Y20250658D02*
G01*
X26298143Y20250658D01*
X26265377Y20206970D01*
X26281634Y20206970D01*
X26292556Y20201381D01*
X26298143Y20196048D01*
X26303477Y20179792D01*
X26303477Y20168870D01*
X26298143Y20152360D01*
X26287222Y20141437D01*
X26270711Y20136104D01*
X26254456Y20136104D01*
X26237945Y20141437D01*
X26232611Y20147026D01*
X26227024Y20157948D01*
X26415745Y20250658D02*
G01*
X26361390Y20136104D01*
X26339545Y20250658D02*
G01*
X26415745Y20250658D01*
X25619709Y14421357D02*
G01*
X25619709Y14333981D01*
X25614122Y14317726D01*
X25608788Y14312137D01*
X25597866Y14306804D01*
X25586943Y14306804D01*
X25576022Y14312137D01*
X25570434Y14317726D01*
X25565100Y14333981D01*
X25565100Y14344904D01*
X25710134Y14421357D02*
G01*
X25655524Y14344904D01*
X25737566Y14344904D01*
X25710134Y14421357D02*
G01*
X25710134Y14306804D01*
X25773379Y14399513D02*
G01*
X25784302Y14404847D01*
X25800811Y14421357D01*
X25800811Y14306804D01*
X25607009Y8071358D02*
G01*
X25607009Y7983981D01*
X25601422Y7967726D01*
X25596088Y7962137D01*
X25585166Y7956804D01*
X25574243Y7956804D01*
X25563322Y7962137D01*
X25557734Y7967726D01*
X25552400Y7983981D01*
X25552400Y7994904D01*
X25697434Y8071358D02*
G01*
X25642824Y7994904D01*
X25724866Y7994904D01*
X25697434Y8071358D02*
G01*
X25697434Y7956804D01*
X25826211Y8071358D02*
G01*
X25771602Y8071358D01*
X25766268Y8022081D01*
X25771602Y8027670D01*
X25788111Y8033004D01*
X25804368Y8033004D01*
X25820877Y8027670D01*
X25831545Y8016747D01*
X25837134Y8000492D01*
X25837134Y7989570D01*
X25831545Y7973060D01*
X25820877Y7962137D01*
X25804368Y7956804D01*
X25788111Y7956804D01*
X25771602Y7962137D01*
X25766268Y7967726D01*
X25760679Y7978647D01*
X842009Y13887957D02*
G01*
X842009Y13800581D01*
X836422Y13784326D01*
X831088Y13778737D01*
X820165Y13773404D01*
X809243Y13773404D01*
X798322Y13778737D01*
X792734Y13784326D01*
X787400Y13800581D01*
X787400Y13811504D01*
X943356Y13871447D02*
G01*
X938022Y13882370D01*
X921511Y13887957D01*
X910590Y13887957D01*
X894334Y13882370D01*
X883411Y13866113D01*
X877824Y13838681D01*
X877824Y13811504D01*
X883411Y13789660D01*
X894334Y13778737D01*
X910590Y13773404D01*
X916177Y13773404D01*
X932434Y13778737D01*
X943356Y13789660D01*
X948943Y13806170D01*
X948943Y13811504D01*
X943356Y13828013D01*
X932434Y13838681D01*
X916177Y13844270D01*
X910590Y13844270D01*
X894334Y13838681D01*
X883411Y13828013D01*
X877824Y13811504D01*
X842009Y7537958D02*
G01*
X842009Y7450581D01*
X836422Y7434326D01*
X831088Y7428737D01*
X820165Y7423404D01*
X809243Y7423404D01*
X798322Y7428737D01*
X792734Y7434326D01*
X787400Y7450581D01*
X787400Y7461504D01*
X877824Y7516113D02*
G01*
X888745Y7521447D01*
X905256Y7537958D01*
X905256Y7423404D01*
X973836Y7537958D02*
G01*
X957579Y7532370D01*
X946658Y7516113D01*
X941324Y7488681D01*
X941324Y7472426D01*
X946658Y7445247D01*
X957579Y7428737D01*
X973836Y7423404D01*
X984758Y7423404D01*
X1001268Y7428737D01*
X1012190Y7445247D01*
X1017524Y7472426D01*
X1017524Y7488681D01*
X1012190Y7516113D01*
X1001268Y7532370D01*
X984758Y7537958D01*
X973836Y7537958D01*
X7783829Y20243037D02*
G01*
X7783829Y20155662D01*
X7778495Y20139405D01*
X7772908Y20133818D01*
X7762240Y20128484D01*
X7751318Y20128484D01*
X7740395Y20133818D01*
X7734808Y20139405D01*
X7729474Y20155662D01*
X7729474Y20166584D01*
X7819897Y20221194D02*
G01*
X7830820Y20226528D01*
X7847329Y20243037D01*
X7847329Y20128484D01*
X7937754Y20243037D02*
G01*
X7883143Y20166584D01*
X7964931Y20166584D01*
X7937754Y20243037D02*
G01*
X7937754Y20128484D01*
X7783829Y13893037D02*
G01*
X7783829Y13805662D01*
X7778495Y13789405D01*
X7772908Y13783818D01*
X7762240Y13778484D01*
X7751318Y13778484D01*
X7740395Y13783818D01*
X7734808Y13789405D01*
X7729474Y13805662D01*
X7729474Y13816584D01*
X7819897Y13871194D02*
G01*
X7830820Y13876528D01*
X7847329Y13893037D01*
X7847329Y13778484D01*
X7910575Y13893037D02*
G01*
X7894065Y13887450D01*
X7888731Y13876528D01*
X7888731Y13865605D01*
X7894065Y13854937D01*
X7904988Y13849350D01*
X7926831Y13844016D01*
X7943341Y13838428D01*
X7954009Y13827505D01*
X7959597Y13816584D01*
X7959597Y13800328D01*
X7954009Y13789405D01*
X7948675Y13783818D01*
X7932420Y13778484D01*
X7910575Y13778484D01*
X7894065Y13783818D01*
X7888731Y13789405D01*
X7883143Y13800328D01*
X7883143Y13816584D01*
X7888731Y13827505D01*
X7899654Y13838428D01*
X7915909Y13844016D01*
X7937754Y13849350D01*
X7948675Y13854937D01*
X7954009Y13865605D01*
X7954009Y13876528D01*
X7948675Y13887450D01*
X7932420Y13893037D01*
X7910575Y13893037D01*
X7783829Y7543037D02*
G01*
X7783829Y7455662D01*
X7778495Y7439405D01*
X7772908Y7433818D01*
X7762240Y7428484D01*
X7751318Y7428484D01*
X7740395Y7433818D01*
X7734808Y7439405D01*
X7729474Y7455662D01*
X7729474Y7466584D01*
X7825486Y7515605D02*
G01*
X7825486Y7521194D01*
X7830820Y7532115D01*
X7836408Y7537450D01*
X7847329Y7543037D01*
X7868920Y7543037D01*
X7879841Y7537450D01*
X7885429Y7532115D01*
X7890763Y7521194D01*
X7890763Y7510271D01*
X7885429Y7499350D01*
X7874508Y7483094D01*
X7819897Y7428484D01*
X7896352Y7428484D01*
X7937754Y7515605D02*
G01*
X7937754Y7521194D01*
X7943341Y7532115D01*
X7948675Y7537450D01*
X7959597Y7543037D01*
X7981441Y7543037D01*
X7992363Y7537450D01*
X7997697Y7532115D01*
X8003286Y7521194D01*
X8003286Y7510271D01*
X7997697Y7499350D01*
X7986775Y7483094D01*
X7932420Y7428484D01*
X8008620Y7428484D01*
X14727936Y20243037D02*
G01*
X14727936Y20155662D01*
X14722602Y20139405D01*
X14717013Y20133818D01*
X14706345Y20128484D01*
X14695424Y20128484D01*
X14684502Y20133818D01*
X14678913Y20139405D01*
X14673579Y20155662D01*
X14673579Y20166584D01*
X14769591Y20215605D02*
G01*
X14769591Y20221194D01*
X14774925Y20232116D01*
X14780513Y20237450D01*
X14791436Y20243037D01*
X14813025Y20243037D01*
X14823947Y20237450D01*
X14829536Y20232116D01*
X14834870Y20221194D01*
X14834870Y20210271D01*
X14829536Y20199350D01*
X14818613Y20183094D01*
X14764004Y20128484D01*
X14840458Y20128484D01*
X14941804Y20226528D02*
G01*
X14936470Y20237450D01*
X14919959Y20243037D01*
X14909038Y20243037D01*
X14892781Y20237450D01*
X14881859Y20221194D01*
X14876525Y20194016D01*
X14876525Y20166584D01*
X14881859Y20144739D01*
X14892781Y20133818D01*
X14909038Y20128484D01*
X14914625Y20128484D01*
X14930881Y20133818D01*
X14941804Y20144739D01*
X14947391Y20161250D01*
X14947391Y20166584D01*
X14941804Y20183094D01*
X14930881Y20194016D01*
X14914625Y20199350D01*
X14909038Y20199350D01*
X14892781Y20194016D01*
X14881859Y20183094D01*
X14876525Y20166584D01*
X14727936Y13893037D02*
G01*
X14727936Y13805662D01*
X14722602Y13789405D01*
X14717013Y13783818D01*
X14706345Y13778484D01*
X14695424Y13778484D01*
X14684502Y13783818D01*
X14678913Y13789405D01*
X14673579Y13805662D01*
X14673579Y13816584D01*
X14774925Y13893037D02*
G01*
X14834870Y13893037D01*
X14802104Y13849350D01*
X14818613Y13849350D01*
X14829536Y13844016D01*
X14834870Y13838428D01*
X14840458Y13822171D01*
X14840458Y13811250D01*
X14834870Y13794739D01*
X14823947Y13783818D01*
X14807691Y13778484D01*
X14791436Y13778484D01*
X14774925Y13783818D01*
X14769591Y13789405D01*
X14764004Y13800328D01*
X14909038Y13893037D02*
G01*
X14892781Y13887450D01*
X14881859Y13871194D01*
X14876525Y13844016D01*
X14876525Y13827505D01*
X14881859Y13800328D01*
X14892781Y13783818D01*
X14909038Y13778484D01*
X14919959Y13778484D01*
X14936470Y13783818D01*
X14947391Y13800328D01*
X14952725Y13827505D01*
X14952725Y13844016D01*
X14947391Y13871194D01*
X14936470Y13887450D01*
X14919959Y13893037D01*
X14909038Y13893037D01*
X14727936Y7543037D02*
G01*
X14727936Y7455662D01*
X14722602Y7439405D01*
X14717013Y7433818D01*
X14706345Y7428484D01*
X14695424Y7428484D01*
X14684502Y7433818D01*
X14678913Y7439405D01*
X14673579Y7455662D01*
X14673579Y7466584D01*
X14774925Y7543037D02*
G01*
X14834870Y7543037D01*
X14802104Y7499350D01*
X14818613Y7499350D01*
X14829536Y7494015D01*
X14834870Y7488428D01*
X14840458Y7472171D01*
X14840458Y7461250D01*
X14834870Y7444739D01*
X14823947Y7433818D01*
X14807691Y7428484D01*
X14791436Y7428484D01*
X14774925Y7433818D01*
X14769591Y7439405D01*
X14764004Y7450328D01*
X14930881Y7543037D02*
G01*
X14876525Y7466584D01*
X14958313Y7466584D01*
X14930881Y7543037D02*
G01*
X14930881Y7428484D01*
X21670009Y20237958D02*
G01*
X21670009Y20150581D01*
X21664422Y20134326D01*
X21659088Y20128737D01*
X21648166Y20123404D01*
X21637243Y20123404D01*
X21626322Y20128737D01*
X21620734Y20134326D01*
X21615400Y20150581D01*
X21615400Y20161504D01*
X21716745Y20237958D02*
G01*
X21776943Y20237958D01*
X21744177Y20194270D01*
X21760434Y20194270D01*
X21771356Y20188681D01*
X21776943Y20183348D01*
X21782277Y20167092D01*
X21782277Y20156170D01*
X21776943Y20139660D01*
X21766022Y20128737D01*
X21749511Y20123404D01*
X21733256Y20123404D01*
X21716745Y20128737D01*
X21711411Y20134326D01*
X21705824Y20145248D01*
X21845524Y20237958D02*
G01*
X21829268Y20232370D01*
X21823679Y20221448D01*
X21823679Y20210526D01*
X21829268Y20199604D01*
X21840190Y20194270D01*
X21862034Y20188681D01*
X21878290Y20183348D01*
X21889211Y20172426D01*
X21894545Y20161504D01*
X21894545Y20145248D01*
X21889211Y20134326D01*
X21883877Y20128737D01*
X21867368Y20123404D01*
X21845524Y20123404D01*
X21829268Y20128737D01*
X21823679Y20134326D01*
X21818345Y20145248D01*
X21818345Y20161504D01*
X21823679Y20172426D01*
X21834602Y20183348D01*
X21851111Y20188681D01*
X21872956Y20194270D01*
X21883877Y20199604D01*
X21889211Y20210526D01*
X21889211Y20221448D01*
X21883877Y20232370D01*
X21867368Y20237958D01*
X21845524Y20237958D01*
X21670009Y13887957D02*
G01*
X21670009Y13800581D01*
X21664422Y13784326D01*
X21659088Y13778737D01*
X21648166Y13773404D01*
X21637243Y13773404D01*
X21626322Y13778737D01*
X21620734Y13784326D01*
X21615400Y13800581D01*
X21615400Y13811504D01*
X21760434Y13887957D02*
G01*
X21705824Y13811504D01*
X21787866Y13811504D01*
X21760434Y13887957D02*
G01*
X21760434Y13773404D01*
X21829268Y13860526D02*
G01*
X21829268Y13866113D01*
X21834602Y13877036D01*
X21840190Y13882370D01*
X21851111Y13887957D01*
X21872956Y13887957D01*
X21883877Y13882370D01*
X21889211Y13877036D01*
X21894545Y13866113D01*
X21894545Y13855192D01*
X21889211Y13844270D01*
X21878290Y13828013D01*
X21823679Y13773404D01*
X21900134Y13773404D01*
X21670009Y7537958D02*
G01*
X21670009Y7450581D01*
X21664422Y7434326D01*
X21659088Y7428737D01*
X21648166Y7423404D01*
X21637243Y7423404D01*
X21626322Y7428737D01*
X21620734Y7434326D01*
X21615400Y7450581D01*
X21615400Y7461504D01*
X21760434Y7537958D02*
G01*
X21705824Y7461504D01*
X21787866Y7461504D01*
X21760434Y7537958D02*
G01*
X21760434Y7423404D01*
X21889211Y7521447D02*
G01*
X21883877Y7532370D01*
X21867368Y7537958D01*
X21856445Y7537958D01*
X21840190Y7532370D01*
X21829268Y7516113D01*
X21823679Y7488681D01*
X21823679Y7461504D01*
X21829268Y7439660D01*
X21840190Y7428737D01*
X21856445Y7423404D01*
X21862034Y7423404D01*
X21878290Y7428737D01*
X21889211Y7439660D01*
X21894545Y7456170D01*
X21894545Y7461504D01*
X21889211Y7478013D01*
X21878290Y7488681D01*
X21862034Y7494270D01*
X21856445Y7494270D01*
X21840190Y7488681D01*
X21829268Y7478013D01*
X21823679Y7461504D01*
X1604009Y9557258D02*
G01*
X1604009Y9469881D01*
X1598422Y9453626D01*
X1593088Y9448037D01*
X1582165Y9442704D01*
X1571243Y9442704D01*
X1560322Y9448037D01*
X1554734Y9453626D01*
X1549400Y9469881D01*
X1549400Y9480804D01*
X1667256Y9557258D02*
G01*
X1650745Y9551670D01*
X1645411Y9540747D01*
X1645411Y9529826D01*
X1650745Y9518904D01*
X1661668Y9513570D01*
X1683511Y9507981D01*
X1700022Y9502647D01*
X1710943Y9491726D01*
X1716277Y9480804D01*
X1716277Y9464547D01*
X1710943Y9453626D01*
X1705356Y9448037D01*
X1689100Y9442704D01*
X1667256Y9442704D01*
X1650745Y9448037D01*
X1645411Y9453626D01*
X1639824Y9464547D01*
X1639824Y9480804D01*
X1645411Y9491726D01*
X1656334Y9502647D01*
X1672590Y9507981D01*
X1694434Y9513570D01*
X1705356Y9518904D01*
X1710943Y9529826D01*
X1710943Y9540747D01*
X1705356Y9551670D01*
X1689100Y9557258D01*
X1667256Y9557258D01*
X1604009Y3207257D02*
G01*
X1604009Y3119881D01*
X1598422Y3103626D01*
X1593088Y3098037D01*
X1582165Y3092704D01*
X1571243Y3092704D01*
X1560322Y3098037D01*
X1554734Y3103626D01*
X1549400Y3119881D01*
X1549400Y3130804D01*
X1639824Y3185413D02*
G01*
X1650745Y3190747D01*
X1667256Y3207257D01*
X1667256Y3092704D01*
X1708658Y3179826D02*
G01*
X1708658Y3185413D01*
X1714245Y3196336D01*
X1719579Y3201670D01*
X1730502Y3207257D01*
X1752345Y3207257D01*
X1763268Y3201670D01*
X1768602Y3196336D01*
X1774190Y3185413D01*
X1774190Y3174492D01*
X1768602Y3163570D01*
X1757679Y3147313D01*
X1703324Y3092704D01*
X1779524Y3092704D01*
X8545829Y15912337D02*
G01*
X8545829Y15824962D01*
X8540495Y15808705D01*
X8534908Y15803118D01*
X8524240Y15797784D01*
X8513318Y15797784D01*
X8502395Y15803118D01*
X8496808Y15808705D01*
X8491474Y15824962D01*
X8491474Y15835884D01*
X8581897Y15890494D02*
G01*
X8592820Y15895828D01*
X8609329Y15912337D01*
X8609329Y15797784D01*
X8710675Y15895828D02*
G01*
X8705341Y15906750D01*
X8688831Y15912337D01*
X8677909Y15912337D01*
X8661654Y15906750D01*
X8650731Y15890494D01*
X8645143Y15863316D01*
X8645143Y15835884D01*
X8650731Y15814039D01*
X8661654Y15803118D01*
X8677909Y15797784D01*
X8683497Y15797784D01*
X8699754Y15803118D01*
X8710675Y15814039D01*
X8716009Y15830550D01*
X8716009Y15835884D01*
X8710675Y15852394D01*
X8699754Y15863316D01*
X8683497Y15868650D01*
X8677909Y15868650D01*
X8661654Y15863316D01*
X8650731Y15852394D01*
X8645143Y15835884D01*
X8545829Y9562337D02*
G01*
X8545829Y9474962D01*
X8540495Y9458705D01*
X8534908Y9453118D01*
X8524240Y9447784D01*
X8513318Y9447784D01*
X8502395Y9453118D01*
X8496808Y9458705D01*
X8491474Y9474962D01*
X8491474Y9485884D01*
X8587486Y9534905D02*
G01*
X8587486Y9540494D01*
X8592820Y9551415D01*
X8598408Y9556750D01*
X8609329Y9562337D01*
X8630920Y9562337D01*
X8641841Y9556750D01*
X8647429Y9551415D01*
X8652763Y9540494D01*
X8652763Y9529571D01*
X8647429Y9518650D01*
X8636508Y9502394D01*
X8581897Y9447784D01*
X8658352Y9447784D01*
X8726931Y9562337D02*
G01*
X8710675Y9556750D01*
X8699754Y9540494D01*
X8694420Y9513315D01*
X8694420Y9496805D01*
X8699754Y9469628D01*
X8710675Y9453118D01*
X8726931Y9447784D01*
X8737854Y9447784D01*
X8754363Y9453118D01*
X8765286Y9469628D01*
X8770620Y9496805D01*
X8770620Y9513315D01*
X8765286Y9540494D01*
X8754363Y9556750D01*
X8737854Y9562337D01*
X8726931Y9562337D01*
X8545829Y3212337D02*
G01*
X8545829Y3124962D01*
X8540495Y3108705D01*
X8534908Y3103118D01*
X8524240Y3097784D01*
X8513318Y3097784D01*
X8502395Y3103118D01*
X8496808Y3108705D01*
X8491474Y3124962D01*
X8491474Y3135884D01*
X8587486Y3184905D02*
G01*
X8587486Y3190494D01*
X8592820Y3201415D01*
X8598408Y3206750D01*
X8609329Y3212337D01*
X8630920Y3212337D01*
X8641841Y3206750D01*
X8647429Y3201415D01*
X8652763Y3190494D01*
X8652763Y3179571D01*
X8647429Y3168650D01*
X8636508Y3152394D01*
X8581897Y3097784D01*
X8658352Y3097784D01*
X8748775Y3212337D02*
G01*
X8694420Y3135884D01*
X8776208Y3135884D01*
X8748775Y3212337D02*
G01*
X8748775Y3097784D01*
X15489936Y15912337D02*
G01*
X15489936Y15824962D01*
X15484602Y15808705D01*
X15479013Y15803118D01*
X15468345Y15797784D01*
X15457424Y15797784D01*
X15446502Y15803118D01*
X15440913Y15808705D01*
X15435579Y15824962D01*
X15435579Y15835884D01*
X15531591Y15884905D02*
G01*
X15531591Y15890494D01*
X15536925Y15901416D01*
X15542513Y15906750D01*
X15553436Y15912337D01*
X15575025Y15912337D01*
X15585947Y15906750D01*
X15591536Y15901416D01*
X15596870Y15890494D01*
X15596870Y15879571D01*
X15591536Y15868650D01*
X15580613Y15852394D01*
X15526004Y15797784D01*
X15602458Y15797784D01*
X15665704Y15912337D02*
G01*
X15649447Y15906750D01*
X15643859Y15895828D01*
X15643859Y15884905D01*
X15649447Y15874237D01*
X15660116Y15868650D01*
X15681959Y15863316D01*
X15698470Y15857728D01*
X15709391Y15846805D01*
X15714725Y15835884D01*
X15714725Y15819628D01*
X15709391Y15808705D01*
X15703804Y15803118D01*
X15687547Y15797784D01*
X15665704Y15797784D01*
X15649447Y15803118D01*
X15643859Y15808705D01*
X15638525Y15819628D01*
X15638525Y15835884D01*
X15643859Y15846805D01*
X15654781Y15857728D01*
X15671038Y15863316D01*
X15692881Y15868650D01*
X15703804Y15874237D01*
X15709391Y15884905D01*
X15709391Y15895828D01*
X15703804Y15906750D01*
X15687547Y15912337D01*
X15665704Y15912337D01*
X15489936Y9562337D02*
G01*
X15489936Y9474962D01*
X15484602Y9458705D01*
X15479013Y9453118D01*
X15468345Y9447784D01*
X15457424Y9447784D01*
X15446502Y9453118D01*
X15440913Y9458705D01*
X15435579Y9474962D01*
X15435579Y9485884D01*
X15536925Y9562337D02*
G01*
X15596870Y9562337D01*
X15564104Y9518650D01*
X15580613Y9518650D01*
X15591536Y9513315D01*
X15596870Y9507728D01*
X15602458Y9491471D01*
X15602458Y9480550D01*
X15596870Y9464039D01*
X15585947Y9453118D01*
X15569691Y9447784D01*
X15553436Y9447784D01*
X15536925Y9453118D01*
X15531591Y9458705D01*
X15526004Y9469628D01*
X15643859Y9534905D02*
G01*
X15643859Y9540494D01*
X15649447Y9551415D01*
X15654781Y9556750D01*
X15665704Y9562337D01*
X15687547Y9562337D01*
X15698470Y9556750D01*
X15703804Y9551415D01*
X15709391Y9540494D01*
X15709391Y9529571D01*
X15703804Y9518650D01*
X15692881Y9502394D01*
X15638525Y9447784D01*
X15714725Y9447784D01*
X15489936Y3212337D02*
G01*
X15489936Y3124962D01*
X15484602Y3108705D01*
X15479013Y3103118D01*
X15468345Y3097784D01*
X15457424Y3097784D01*
X15446502Y3103118D01*
X15440913Y3108705D01*
X15435579Y3124962D01*
X15435579Y3135884D01*
X15536925Y3212337D02*
G01*
X15596870Y3212337D01*
X15564104Y3168650D01*
X15580613Y3168650D01*
X15591536Y3163315D01*
X15596870Y3157728D01*
X15602458Y3141471D01*
X15602458Y3130550D01*
X15596870Y3114039D01*
X15585947Y3103118D01*
X15569691Y3097784D01*
X15553436Y3097784D01*
X15536925Y3103118D01*
X15531591Y3108705D01*
X15526004Y3119628D01*
X15703804Y3195828D02*
G01*
X15698470Y3206750D01*
X15681959Y3212337D01*
X15671038Y3212337D01*
X15654781Y3206750D01*
X15643859Y3190494D01*
X15638525Y3163315D01*
X15638525Y3135884D01*
X15643859Y3114039D01*
X15654781Y3103118D01*
X15671038Y3097784D01*
X15676625Y3097784D01*
X15692881Y3103118D01*
X15703804Y3114039D01*
X15709391Y3130550D01*
X15709391Y3135884D01*
X15703804Y3152394D01*
X15692881Y3163315D01*
X15676625Y3168650D01*
X15671038Y3168650D01*
X15654781Y3163315D01*
X15643859Y3152394D01*
X15638525Y3135884D01*
X22432009Y15907257D02*
G01*
X22432009Y15819881D01*
X22426422Y15803626D01*
X22421088Y15798037D01*
X22410166Y15792704D01*
X22399243Y15792704D01*
X22388322Y15798037D01*
X22382734Y15803626D01*
X22377400Y15819881D01*
X22377400Y15830804D01*
X22522434Y15907257D02*
G01*
X22467824Y15830804D01*
X22549866Y15830804D01*
X22522434Y15907257D02*
G01*
X22522434Y15792704D01*
X22618445Y15907257D02*
G01*
X22602190Y15901670D01*
X22591268Y15885413D01*
X22585679Y15857981D01*
X22585679Y15841726D01*
X22591268Y15814547D01*
X22602190Y15798037D01*
X22618445Y15792704D01*
X22629368Y15792704D01*
X22645877Y15798037D01*
X22656545Y15814547D01*
X22662134Y15841726D01*
X22662134Y15857981D01*
X22656545Y15885413D01*
X22645877Y15901670D01*
X22629368Y15907257D01*
X22618445Y15907257D01*
X22432009Y9557258D02*
G01*
X22432009Y9469881D01*
X22426422Y9453626D01*
X22421088Y9448037D01*
X22410166Y9442704D01*
X22399243Y9442704D01*
X22388322Y9448037D01*
X22382734Y9453626D01*
X22377400Y9469881D01*
X22377400Y9480804D01*
X22522434Y9557258D02*
G01*
X22467824Y9480804D01*
X22549866Y9480804D01*
X22522434Y9557258D02*
G01*
X22522434Y9442704D01*
X22640290Y9557258D02*
G01*
X22585679Y9480804D01*
X22667468Y9480804D01*
X22640290Y9557258D02*
G01*
X22640290Y9442704D01*
X22432009Y3207257D02*
G01*
X22432009Y3119881D01*
X22426422Y3103626D01*
X22421088Y3098037D01*
X22410166Y3092704D01*
X22399243Y3092704D01*
X22388322Y3098037D01*
X22382734Y3103626D01*
X22377400Y3119881D01*
X22377400Y3130804D01*
X22522434Y3207257D02*
G01*
X22467824Y3130804D01*
X22549866Y3130804D01*
X22522434Y3207257D02*
G01*
X22522434Y3092704D01*
X22613111Y3207257D02*
G01*
X22596602Y3201670D01*
X22591268Y3190747D01*
X22591268Y3179826D01*
X22596602Y3168904D01*
X22607524Y3163570D01*
X22629368Y3157981D01*
X22645877Y3152647D01*
X22656545Y3141726D01*
X22662134Y3130804D01*
X22662134Y3114547D01*
X22656545Y3103626D01*
X22651211Y3098037D01*
X22634956Y3092704D01*
X22613111Y3092704D01*
X22596602Y3098037D01*
X22591268Y3103626D01*
X22585679Y3114547D01*
X22585679Y3130804D01*
X22591268Y3141726D01*
X22602190Y3152647D01*
X22618445Y3157981D01*
X22640290Y3163570D01*
X22651211Y3168904D01*
X22656545Y3179826D01*
X22656545Y3190747D01*
X22651211Y3201670D01*
X22634956Y3207257D01*
X22613111Y3207257D01*
X5922009Y10331958D02*
G01*
X5922009Y10244581D01*
X5916422Y10228326D01*
X5911088Y10222737D01*
X5900165Y10217404D01*
X5889243Y10217404D01*
X5878322Y10222737D01*
X5872734Y10228326D01*
X5867400Y10244581D01*
X5867400Y10255504D01*
X6034277Y10331958D02*
G01*
X5979668Y10217404D01*
X5957824Y10331958D02*
G01*
X6034277Y10331958D01*
X5922009Y3981957D02*
G01*
X5922009Y3894581D01*
X5916422Y3878326D01*
X5911088Y3872737D01*
X5900165Y3867404D01*
X5889243Y3867404D01*
X5878322Y3872737D01*
X5872734Y3878326D01*
X5867400Y3894581D01*
X5867400Y3905504D01*
X5957824Y3960113D02*
G01*
X5968745Y3965447D01*
X5985256Y3981957D01*
X5985256Y3867404D01*
X6021324Y3960113D02*
G01*
X6032245Y3965447D01*
X6048502Y3981957D01*
X6048502Y3867404D01*
X12863829Y3987037D02*
G01*
X12863829Y3899662D01*
X12858495Y3883405D01*
X12852908Y3877818D01*
X12842240Y3872484D01*
X12831318Y3872484D01*
X12820395Y3877818D01*
X12814808Y3883405D01*
X12809474Y3899662D01*
X12809474Y3910584D01*
X12905486Y3959605D02*
G01*
X12905486Y3965194D01*
X12910820Y3976115D01*
X12916408Y3981450D01*
X12927329Y3987037D01*
X12948920Y3987037D01*
X12959841Y3981450D01*
X12965429Y3976115D01*
X12970763Y3965194D01*
X12970763Y3954271D01*
X12965429Y3943350D01*
X12954508Y3927094D01*
X12899897Y3872484D01*
X12976352Y3872484D01*
X13023341Y3987037D02*
G01*
X13083286Y3987037D01*
X13050520Y3943350D01*
X13066775Y3943350D01*
X13077697Y3938015D01*
X13083286Y3932428D01*
X13088620Y3916171D01*
X13088620Y3905250D01*
X13083286Y3888739D01*
X13072363Y3877818D01*
X13055854Y3872484D01*
X13039597Y3872484D01*
X13023341Y3877818D01*
X13017754Y3883405D01*
X13012420Y3894328D01*
X12863829Y10337037D02*
G01*
X12863829Y10249662D01*
X12858495Y10233405D01*
X12852908Y10227818D01*
X12842240Y10222484D01*
X12831318Y10222484D01*
X12820395Y10227818D01*
X12814808Y10233405D01*
X12809474Y10249662D01*
X12809474Y10260584D01*
X12899897Y10315194D02*
G01*
X12910820Y10320528D01*
X12927329Y10337037D01*
X12927329Y10222484D01*
X13034009Y10298937D02*
G01*
X13028675Y10282428D01*
X13017754Y10271505D01*
X13001497Y10266171D01*
X12995909Y10266171D01*
X12979654Y10271505D01*
X12968731Y10282428D01*
X12963143Y10298937D01*
X12963143Y10304271D01*
X12968731Y10320528D01*
X12979654Y10331450D01*
X12995909Y10337037D01*
X13001497Y10337037D01*
X13017754Y10331450D01*
X13028675Y10320528D01*
X13034009Y10298937D01*
X13034009Y10271505D01*
X13028675Y10244328D01*
X13017754Y10227818D01*
X13001497Y10222484D01*
X12990575Y10222484D01*
X12974065Y10227818D01*
X12968731Y10238739D01*
X12863829Y16687037D02*
G01*
X12863829Y16599662D01*
X12858495Y16583405D01*
X12852908Y16577818D01*
X12842240Y16572484D01*
X12831318Y16572484D01*
X12820395Y16577818D01*
X12814808Y16583405D01*
X12809474Y16599662D01*
X12809474Y16610584D01*
X12899897Y16665194D02*
G01*
X12910820Y16670528D01*
X12927329Y16687037D01*
X12927329Y16572484D01*
X13028675Y16687037D02*
G01*
X12974065Y16687037D01*
X12968731Y16638016D01*
X12974065Y16643350D01*
X12990575Y16648937D01*
X13006831Y16648937D01*
X13023341Y16643350D01*
X13034009Y16632428D01*
X13039597Y16616171D01*
X13039597Y16605250D01*
X13034009Y16588739D01*
X13023341Y16577818D01*
X13006831Y16572484D01*
X12990575Y16572484D01*
X12974065Y16577818D01*
X12968731Y16583405D01*
X12963143Y16594328D01*
X19807936Y16687037D02*
G01*
X19807936Y16599662D01*
X19802602Y16583405D01*
X19797013Y16577818D01*
X19786345Y16572484D01*
X19775424Y16572484D01*
X19764502Y16577818D01*
X19758913Y16583405D01*
X19753579Y16599662D01*
X19753579Y16610584D01*
X19849591Y16659605D02*
G01*
X19849591Y16665194D01*
X19854925Y16676116D01*
X19860513Y16681450D01*
X19871436Y16687037D01*
X19893025Y16687037D01*
X19903948Y16681450D01*
X19909536Y16676116D01*
X19914870Y16665194D01*
X19914870Y16654271D01*
X19909536Y16643350D01*
X19898613Y16627094D01*
X19844004Y16572484D01*
X19920458Y16572484D01*
X20032725Y16687037D02*
G01*
X19978116Y16572484D01*
X19956525Y16687037D02*
G01*
X20032725Y16687037D01*
X19807936Y10337037D02*
G01*
X19807936Y10249662D01*
X19802602Y10233405D01*
X19797013Y10227818D01*
X19786345Y10222484D01*
X19775424Y10222484D01*
X19764502Y10227818D01*
X19758913Y10233405D01*
X19753579Y10249662D01*
X19753579Y10260584D01*
X19854925Y10337037D02*
G01*
X19914870Y10337037D01*
X19882104Y10293350D01*
X19898613Y10293350D01*
X19909536Y10288015D01*
X19914870Y10282428D01*
X19920458Y10266171D01*
X19920458Y10255250D01*
X19914870Y10238739D01*
X19903948Y10227818D01*
X19887691Y10222484D01*
X19871436Y10222484D01*
X19854925Y10227818D01*
X19849591Y10233405D01*
X19844004Y10244328D01*
X19956525Y10315194D02*
G01*
X19967448Y10320528D01*
X19983704Y10337037D01*
X19983704Y10222484D01*
X19807936Y3987037D02*
G01*
X19807936Y3899662D01*
X19802602Y3883405D01*
X19797013Y3877818D01*
X19786345Y3872484D01*
X19775424Y3872484D01*
X19764502Y3877818D01*
X19758913Y3883405D01*
X19753579Y3899662D01*
X19753579Y3910584D01*
X19854925Y3987037D02*
G01*
X19914870Y3987037D01*
X19882104Y3943350D01*
X19898613Y3943350D01*
X19909536Y3938015D01*
X19914870Y3932428D01*
X19920458Y3916171D01*
X19920458Y3905250D01*
X19914870Y3888739D01*
X19903948Y3877818D01*
X19887691Y3872484D01*
X19871436Y3872484D01*
X19854925Y3877818D01*
X19849591Y3883405D01*
X19844004Y3894328D01*
X20021804Y3987037D02*
G01*
X19967448Y3987037D01*
X19961859Y3938015D01*
X19967448Y3943350D01*
X19983704Y3948937D01*
X19999959Y3948937D01*
X20016470Y3943350D01*
X20027391Y3932428D01*
X20032725Y3916171D01*
X20032725Y3905250D01*
X20027391Y3888739D01*
X20016470Y3877818D01*
X19999959Y3872484D01*
X19983704Y3872484D01*
X19967448Y3877818D01*
X19961859Y3883405D01*
X19956525Y3894328D01*
X26750009Y3981957D02*
G01*
X26750009Y3894581D01*
X26744422Y3878326D01*
X26739088Y3872737D01*
X26728165Y3867404D01*
X26717243Y3867404D01*
X26706322Y3872737D01*
X26700734Y3878326D01*
X26695400Y3894581D01*
X26695400Y3905504D01*
X26840434Y3981957D02*
G01*
X26785824Y3905504D01*
X26867865Y3905504D01*
X26840434Y3981957D02*
G01*
X26840434Y3867404D01*
X26980134Y3981957D02*
G01*
X26925524Y3867404D01*
X26903679Y3981957D02*
G01*
X26980134Y3981957D01*
X26750009Y10331958D02*
G01*
X26750009Y10244581D01*
X26744422Y10228326D01*
X26739088Y10222737D01*
X26728165Y10217404D01*
X26717243Y10217404D01*
X26706322Y10222737D01*
X26700734Y10228326D01*
X26695400Y10244581D01*
X26695400Y10255504D01*
X26840434Y10331958D02*
G01*
X26785824Y10255504D01*
X26867865Y10255504D01*
X26840434Y10331958D02*
G01*
X26840434Y10217404D01*
X26914602Y10331958D02*
G01*
X26974545Y10331958D01*
X26942034Y10288270D01*
X26958290Y10288270D01*
X26969211Y10282681D01*
X26974545Y10277347D01*
X26980134Y10261092D01*
X26980134Y10250170D01*
X26974545Y10233660D01*
X26963877Y10222737D01*
X26947368Y10217404D01*
X26931111Y10217404D01*
X26914602Y10222737D01*
X26909268Y10228326D01*
X26903679Y10239247D01*
X26750009Y16681957D02*
G01*
X26750009Y16594581D01*
X26744422Y16578326D01*
X26739088Y16572737D01*
X26728165Y16567404D01*
X26717243Y16567404D01*
X26706322Y16572737D01*
X26700734Y16578326D01*
X26695400Y16594581D01*
X26695400Y16605504D01*
X26796745Y16681957D02*
G01*
X26856943Y16681957D01*
X26824177Y16638270D01*
X26840434Y16638270D01*
X26851356Y16632681D01*
X26856943Y16627347D01*
X26862277Y16611092D01*
X26862277Y16600170D01*
X26856943Y16583660D01*
X26846022Y16572737D01*
X26829511Y16567404D01*
X26813256Y16567404D01*
X26796745Y16572737D01*
X26791411Y16578326D01*
X26785824Y16589247D01*
X26969211Y16643604D02*
G01*
X26963877Y16627347D01*
X26952956Y16616426D01*
X26936445Y16611092D01*
X26931111Y16611092D01*
X26914602Y16616426D01*
X26903679Y16627347D01*
X26898345Y16643604D01*
X26898345Y16649192D01*
X26903679Y16665447D01*
X26914602Y16676370D01*
X26931111Y16681957D01*
X26936445Y16681957D01*
X26952956Y16676370D01*
X26963877Y16665447D01*
X26969211Y16643604D01*
X26969211Y16616426D01*
X26963877Y16589247D01*
X26952956Y16572737D01*
X26936445Y16567404D01*
X26925524Y16567404D01*
X26909268Y16572737D01*
X26903679Y16583660D01*
X4931409Y20771358D02*
G01*
X4931409Y20683981D01*
X4925822Y20667726D01*
X4920488Y20662137D01*
X4909565Y20656804D01*
X4898643Y20656804D01*
X4887722Y20662137D01*
X4882134Y20667726D01*
X4876800Y20683981D01*
X4876800Y20694904D01*
X4967224Y20749513D02*
G01*
X4978145Y20754848D01*
X4994656Y20771358D01*
X4994656Y20656804D01*
X842009Y20237958D02*
G01*
X842009Y20150581D01*
X836422Y20134326D01*
X831088Y20128737D01*
X820165Y20123404D01*
X809243Y20123404D01*
X798322Y20128737D01*
X792734Y20134326D01*
X787400Y20150581D01*
X787400Y20161504D01*
X883411Y20210526D02*
G01*
X883411Y20216113D01*
X888745Y20227036D01*
X894334Y20232370D01*
X905256Y20237958D01*
X927100Y20237958D01*
X938022Y20232370D01*
X943356Y20227036D01*
X948943Y20216113D01*
X948943Y20205192D01*
X943356Y20194270D01*
X932434Y20178013D01*
X877824Y20123404D01*
X954277Y20123404D01*
D13*
X1071638Y1447040D02*
G01*
X1071638Y1351536D01*
X1071638Y1447040D02*
G01*
X1112532Y1447040D01*
X1126248Y1442468D01*
X1130820Y1437896D01*
X1135392Y1429006D01*
X1135392Y1419862D01*
X1130820Y1410718D01*
X1126248Y1406146D01*
X1112532Y1401574D01*
X1071638Y1401574D01*
X1103388Y1401574D02*
G01*
X1135392Y1351536D01*
X1174254Y1447040D02*
G01*
X1224292Y1447040D01*
X1197114Y1410718D01*
X1210830Y1410718D01*
X1219720Y1406146D01*
X1224292Y1401574D01*
X1228864Y1388112D01*
X1228864Y1378968D01*
X1224292Y1365252D01*
X1215148Y1356108D01*
X1201686Y1351536D01*
X1187970Y1351536D01*
X1174254Y1356108D01*
X1169936Y1360680D01*
X1165364Y1369824D01*
X1071638Y1599440D02*
G01*
X1071638Y1503936D01*
X1071638Y1599440D02*
G01*
X1112532Y1599440D01*
X1126248Y1594868D01*
X1130820Y1590296D01*
X1135392Y1581406D01*
X1135392Y1572262D01*
X1130820Y1563118D01*
X1126248Y1558546D01*
X1112532Y1553974D01*
X1071638Y1553974D01*
X1103388Y1553974D02*
G01*
X1135392Y1503936D01*
X1169936Y1576834D02*
G01*
X1169936Y1581406D01*
X1174254Y1590296D01*
X1178826Y1594868D01*
X1187970Y1599440D01*
X1206258Y1599440D01*
X1215402Y1594868D01*
X1219720Y1590296D01*
X1224292Y1581406D01*
X1224292Y1572262D01*
X1219720Y1563118D01*
X1210830Y1549402D01*
X1165364Y1503936D01*
X1228864Y1503936D01*
X2159012Y1993140D02*
G01*
X2159012Y1897636D01*
X2159012Y1993140D02*
G01*
X2199906Y1993140D01*
X2213622Y1988568D01*
X2218194Y1983996D01*
X2222766Y1975106D01*
X2222766Y1965962D01*
X2218194Y1956818D01*
X2213622Y1952246D01*
X2199906Y1947674D01*
X2159012Y1947674D01*
X2190762Y1947674D02*
G01*
X2222766Y1897636D01*
X2307094Y1993140D02*
G01*
X2261628Y1993140D01*
X2257310Y1952246D01*
X2261628Y1956818D01*
X2275344Y1961390D01*
X2289060Y1961390D01*
X2302522Y1956818D01*
X2311666Y1947674D01*
X2316238Y1934212D01*
X2316238Y1925068D01*
X2311666Y1911352D01*
X2302522Y1902208D01*
X2289060Y1897636D01*
X2275344Y1897636D01*
X2261628Y1902208D01*
X2257310Y1906780D01*
X2252738Y1915924D01*
X1427238Y1510540D02*
G01*
X1427238Y1415036D01*
X1427238Y1510540D02*
G01*
X1458988Y1510540D01*
X1472704Y1505968D01*
X1481848Y1497078D01*
X1486420Y1487934D01*
X1490992Y1474218D01*
X1490992Y1451612D01*
X1486420Y1437896D01*
X1481848Y1428752D01*
X1472704Y1419608D01*
X1458988Y1415036D01*
X1427238Y1415036D01*
X1525536Y1487934D02*
G01*
X1525536Y1492506D01*
X1529854Y1501396D01*
X1534426Y1505968D01*
X1543570Y1510540D01*
X1561858Y1510540D01*
X1571002Y1505968D01*
X1575320Y1501396D01*
X1579892Y1492506D01*
X1579892Y1483362D01*
X1575320Y1474218D01*
X1566430Y1460502D01*
X1520964Y1415036D01*
X1584464Y1415036D01*
X1485912Y1993140D02*
G01*
X1485912Y1897636D01*
X1485912Y1993140D02*
G01*
X1526806Y1993140D01*
X1540522Y1988568D01*
X1545094Y1983996D01*
X1549666Y1975106D01*
X1549666Y1965962D01*
X1545094Y1956818D01*
X1540522Y1952246D01*
X1526806Y1947674D01*
X1485912Y1947674D01*
X1517662Y1947674D02*
G01*
X1549666Y1897636D01*
X1625104Y1993140D02*
G01*
X1579638Y1929640D01*
X1647710Y1929640D01*
X1625104Y1993140D02*
G01*
X1625104Y1897636D01*
X1312933Y1296405D02*
G01*
X1312933Y1187439D01*
X1312933Y1296405D02*
G01*
X1380497Y1296405D01*
X1312933Y1244589D02*
G01*
X1354589Y1244589D01*
X1414787Y1275577D02*
G01*
X1425201Y1280911D01*
X1440695Y1296405D01*
X1440695Y1187439D01*
X1614688Y1688332D02*
G01*
X1605798Y1683760D01*
X1596654Y1674870D01*
X1592082Y1665726D01*
X1587510Y1652010D01*
X1587510Y1629404D01*
X1592082Y1615688D01*
X1596654Y1606544D01*
X1605798Y1597400D01*
X1614688Y1592828D01*
X1632976Y1592828D01*
X1642120Y1597400D01*
X1651264Y1606544D01*
X1655582Y1615688D01*
X1660154Y1629404D01*
X1660154Y1652010D01*
X1655582Y1665726D01*
X1651264Y1674870D01*
X1642120Y1683760D01*
X1632976Y1688332D01*
X1614688Y1688332D01*
X1628404Y1611116D02*
G01*
X1655582Y1583938D01*
X1690126Y1670298D02*
G01*
X1699270Y1674870D01*
X1712986Y1688332D01*
X1712986Y1592828D01*
X337565Y2132837D02*
G01*
X337565Y2060194D01*
X332994Y2046478D01*
X328421Y2041905D01*
X319278Y2037334D01*
X310387Y2037334D01*
X301244Y2041905D01*
X296671Y2046478D01*
X292100Y2060194D01*
X292100Y2069337D01*
X413004Y2132837D02*
G01*
X367537Y2069337D01*
X435610Y2069337D01*
X413004Y2132837D02*
G01*
X413004Y2037334D01*
X524763Y2101087D02*
G01*
X520192Y2087371D01*
X511302Y2078481D01*
X497586Y2073910D01*
X493013Y2073910D01*
X479297Y2078481D01*
X470407Y2087371D01*
X465836Y2101087D01*
X465836Y2105660D01*
X470407Y2119376D01*
X479297Y2128265D01*
X493013Y2132837D01*
X497586Y2132837D01*
X511302Y2128265D01*
X520192Y2119376D01*
X524763Y2101087D01*
X524763Y2078481D01*
X520192Y2055621D01*
X511302Y2041905D01*
X497586Y2037334D01*
X488442Y2037334D01*
X474726Y2041905D01*
X470407Y2051050D01*
X1071638Y1751840D02*
G01*
X1071638Y1656336D01*
X1071638Y1751840D02*
G01*
X1112532Y1751840D01*
X1126248Y1747268D01*
X1130820Y1742696D01*
X1135392Y1733806D01*
X1135392Y1724662D01*
X1130820Y1715518D01*
X1126248Y1710946D01*
X1112532Y1706374D01*
X1071638Y1706374D01*
X1103388Y1706374D02*
G01*
X1135392Y1656336D01*
X1165364Y1733806D02*
G01*
X1174254Y1738378D01*
X1187970Y1751840D01*
X1187970Y1656336D01*
X868438Y2132840D02*
G01*
X868438Y2037336D01*
X868438Y2132840D02*
G01*
X900188Y2132840D01*
X913904Y2128268D01*
X923048Y2119378D01*
X927620Y2110234D01*
X932192Y2096518D01*
X932192Y2073912D01*
X927620Y2060196D01*
X923048Y2051052D01*
X913904Y2041908D01*
X900188Y2037336D01*
X868438Y2037336D01*
X962164Y2114806D02*
G01*
X971054Y2119378D01*
X984770Y2132840D01*
X984770Y2037336D01*
X2285238Y1485137D02*
G01*
X2285238Y1389634D01*
X2285238Y1485137D02*
G01*
X2316988Y1485137D01*
X2330704Y1480565D01*
X2339593Y1471676D01*
X2344165Y1462531D01*
X2348738Y1448815D01*
X2348738Y1426210D01*
X2344165Y1412494D01*
X2339593Y1403350D01*
X2330704Y1394205D01*
X2316988Y1389634D01*
X2285238Y1389634D01*
X2387854Y1485137D02*
G01*
X2437891Y1485137D01*
X2410713Y1448815D01*
X2424175Y1448815D01*
X2433320Y1444244D01*
X2437891Y1439671D01*
X2442463Y1426210D01*
X2442463Y1417065D01*
X2437891Y1403350D01*
X2428747Y1394205D01*
X2415031Y1389634D01*
X2401570Y1389634D01*
X2387854Y1394205D01*
X2383281Y1398778D01*
X2378709Y1407921D01*
G36*
X635000Y20955000D02*
G01*
X635000Y20701000D01*
X889000Y20955000D01*
G37*
G36*
X7577023Y20960080D02*
G01*
X7577023Y20706080D01*
X7831023Y20960080D01*
G37*
G36*
X14521129Y20960080D02*
G01*
X14521129Y20706080D01*
X14775129Y20960080D01*
G37*
G36*
X21463000Y20955000D02*
G01*
X21463000Y20701000D01*
X21717000Y20955000D01*
G37*
G36*
X635000Y14605000D02*
G01*
X635000Y14351000D01*
X889000Y14605000D01*
G37*
G36*
X7577023Y14610080D02*
G01*
X7577023Y14356080D01*
X7831023Y14610080D01*
G37*
G36*
X14521129Y14610080D02*
G01*
X14521129Y14356080D01*
X14775129Y14610080D01*
G37*
G36*
X21463000Y14605000D02*
G01*
X21463000Y14351000D01*
X21717000Y14605000D01*
G37*
G36*
X635000Y8255000D02*
G01*
X635000Y8001000D01*
X889000Y8255000D01*
G37*
G36*
X7577023Y8260080D02*
G01*
X7577023Y8006080D01*
X7831023Y8260080D01*
G37*
G36*
X14521129Y8260080D02*
G01*
X14521129Y8006080D01*
X14775129Y8260080D01*
G37*
G36*
X21463000Y8255000D02*
G01*
X21463000Y8001000D01*
X21717000Y8255000D01*
G37*
G36*
X2158136Y1452880D02*
G01*
X2117496Y1394460D01*
X2198776Y1394460D01*
G37*
G36*
X2218842Y1615744D02*
G01*
X2218842Y1585264D01*
X2255875Y1585264D01*
X2255875Y1615744D01*
G37*
G36*
X2060448Y1615744D02*
G01*
X2060448Y1585264D01*
X2097430Y1585264D01*
X2097430Y1615744D01*
G37*
D16*
X635000Y20955000D02*
G01*
X6477000Y20955000D01*
X6477000Y15113000D01*
X635000Y15113502D01*
X635000Y20955000D01*
X21463000Y20955000D02*
G01*
X27305000Y20955000D01*
X27305000Y15113000D01*
X21463000Y15113502D01*
X21463000Y20955000D01*
X7576995Y14610097D02*
G01*
X13418995Y14610097D01*
X13418995Y8768097D01*
X7576995Y8768605D01*
X7576995Y14610097D01*
X14521096Y20960097D02*
G01*
X20363096Y20960097D01*
X20363096Y15118097D01*
X14521096Y15118605D01*
X14521096Y20960097D01*
X14521096Y14610097D02*
G01*
X20363096Y14610097D01*
X20363096Y8768097D01*
X14521096Y8768605D01*
X14521096Y14610097D01*
X14521096Y8260097D02*
G01*
X20363096Y8260097D01*
X20363096Y2418097D01*
X14521096Y2418605D01*
X14521096Y8260097D01*
D17*
X7952897Y20574000D02*
G01*
X7958007Y20579102D01*
X7952897Y20574000D02*
G01*
X7958007Y20579102D01*
D16*
X7576995Y20960097D02*
G01*
X13418995Y20960097D01*
X13418995Y15118097D01*
X7576995Y15118605D01*
X7576995Y20960097D01*
X7576995Y8260097D02*
G01*
X13418995Y8260097D01*
X13418995Y2418097D01*
X7576995Y2418605D01*
X7576995Y8260097D01*
X635000Y14605000D02*
G01*
X6477000Y14605000D01*
X6477000Y8763000D01*
X635000Y8763502D01*
X635000Y14605000D01*
X635000Y8255000D02*
G01*
X6477000Y8255000D01*
X6477000Y2413000D01*
X635000Y2413502D01*
X635000Y8255000D01*
X21463000Y14605000D02*
G01*
X27305000Y14605000D01*
X27305000Y8763000D01*
X21463000Y8763502D01*
X21463000Y14605000D01*
X21463000Y8255000D02*
G01*
X27305000Y8255000D01*
X27305000Y2413000D01*
X21463000Y2413502D01*
X21463000Y8255000D01*
X1511300Y15494000D02*
G01*
X1778000Y15494000D01*
X1778000Y15252700D01*
X1504010Y15743986D02*
G01*
X2052015Y15743986D01*
X2052015Y15243987D01*
X1504010Y15243987D01*
X1504010Y15743986D01*
X6096000Y15989300D02*
G01*
X6096000Y16256000D01*
X6337300Y16256000D01*
X5846013Y15982010D02*
G01*
X5846013Y16530015D01*
X6346012Y16530015D01*
X6346012Y15982010D01*
X5846013Y15982010D01*
X5600700Y14224000D02*
G01*
X5334000Y14224000D01*
X5334000Y14465300D01*
X5607989Y13974013D02*
G01*
X5059984Y13974013D01*
X5059984Y14474012D01*
X5607989Y14474012D01*
X5607989Y13974013D01*
X5600700Y7874000D02*
G01*
X5334000Y7874000D01*
X5334000Y8115300D01*
X5607989Y7624013D02*
G01*
X5059984Y7624013D01*
X5059984Y8124012D01*
X5607989Y8124012D01*
X5607989Y7624013D01*
X12542697Y20579105D02*
G01*
X12275997Y20579105D01*
X12275997Y20820405D01*
X12549987Y20329118D02*
G01*
X12001982Y20329118D01*
X12001982Y20829117D01*
X12549987Y20829117D01*
X12549987Y20329118D01*
X12542697Y14229105D02*
G01*
X12275997Y14229105D01*
X12275997Y14470405D01*
X12549987Y13979118D02*
G01*
X12001982Y13979118D01*
X12001982Y14479117D01*
X12549987Y14479117D01*
X12549987Y13979118D01*
X12542697Y7879105D02*
G01*
X12275997Y7879105D01*
X12275997Y8120405D01*
X12549987Y7629118D02*
G01*
X12001982Y7629118D01*
X12001982Y8129117D01*
X12549987Y8129117D01*
X12549987Y7629118D01*
X19486803Y20579105D02*
G01*
X19220103Y20579105D01*
X19220103Y20820405D01*
X19494093Y20329118D02*
G01*
X18946088Y20329118D01*
X18946088Y20829117D01*
X19494093Y20829117D01*
X19494093Y20329118D01*
X19486803Y14229105D02*
G01*
X19220103Y14229105D01*
X19220103Y14470405D01*
X19494093Y13979118D02*
G01*
X18946088Y13979118D01*
X18946088Y14479117D01*
X19494093Y14479117D01*
X19494093Y13979118D01*
X19486803Y7879105D02*
G01*
X19220103Y7879105D01*
X19220103Y8120405D01*
X19494093Y7629118D02*
G01*
X18946088Y7629118D01*
X18946088Y8129117D01*
X19494093Y8129117D01*
X19494093Y7629118D01*
X26428700Y20574000D02*
G01*
X26162000Y20574000D01*
X26162000Y20815300D01*
X26435989Y20324013D02*
G01*
X25887984Y20324013D01*
X25887984Y20824012D01*
X26435989Y20824012D01*
X26435989Y20324013D01*
X26428700Y14224000D02*
G01*
X26162000Y14224000D01*
X26162000Y14465300D01*
X26435989Y13974013D02*
G01*
X25887984Y13974013D01*
X25887984Y14474012D01*
X26435989Y14474012D01*
X26435989Y13974013D01*
X26428700Y7874000D02*
G01*
X26162000Y7874000D01*
X26162000Y8115300D01*
X26435989Y7624013D02*
G01*
X25887984Y7624013D01*
X25887984Y8124012D01*
X26435989Y8124012D01*
X26435989Y7624013D01*
X1016000Y13728700D02*
G01*
X1016000Y13462000D01*
X774700Y13462000D01*
X1265986Y13735989D02*
G01*
X1265986Y13187984D01*
X765987Y13187984D01*
X765987Y13735989D01*
X1265986Y13735989D01*
X1016000Y7378700D02*
G01*
X1016000Y7112000D01*
X774700Y7112000D01*
X1265986Y7385989D02*
G01*
X1265986Y6837984D01*
X765987Y6837984D01*
X765987Y7385989D01*
X1265986Y7385989D01*
X7957997Y20083805D02*
G01*
X7957997Y19817105D01*
X7716697Y19817105D01*
X8207984Y20091095D02*
G01*
X8207984Y19543090D01*
X7707985Y19543090D01*
X7707985Y20091095D01*
X8207984Y20091095D01*
X7957997Y13733805D02*
G01*
X7957997Y13467105D01*
X7716697Y13467105D01*
X8207984Y13741095D02*
G01*
X8207984Y13193090D01*
X7707985Y13193090D01*
X7707985Y13741095D01*
X8207984Y13741095D01*
X7957997Y7383805D02*
G01*
X7957997Y7117105D01*
X7716697Y7117105D01*
X8207984Y7391095D02*
G01*
X8207984Y6843090D01*
X7707985Y6843090D01*
X7707985Y7391095D01*
X8207984Y7391095D01*
X14902103Y20083805D02*
G01*
X14902103Y19817105D01*
X14660803Y19817105D01*
X15152090Y20091095D02*
G01*
X15152090Y19543090D01*
X14652091Y19543090D01*
X14652091Y20091095D01*
X15152090Y20091095D01*
X14902103Y13733805D02*
G01*
X14902103Y13467105D01*
X14660803Y13467105D01*
X15152090Y13741095D02*
G01*
X15152090Y13193090D01*
X14652091Y13193090D01*
X14652091Y13741095D01*
X15152090Y13741095D01*
X14902103Y7383805D02*
G01*
X14902103Y7117105D01*
X14660803Y7117105D01*
X15152090Y7391095D02*
G01*
X15152090Y6843090D01*
X14652091Y6843090D01*
X14652091Y7391095D01*
X15152090Y7391095D01*
X21844000Y20078700D02*
G01*
X21844000Y19812000D01*
X21602700Y19812000D01*
X22093986Y20085989D02*
G01*
X22093986Y19537984D01*
X21593987Y19537984D01*
X21593987Y20085989D01*
X22093986Y20085989D01*
X21844000Y13728700D02*
G01*
X21844000Y13462000D01*
X21602700Y13462000D01*
X22093986Y13735989D02*
G01*
X22093986Y13187984D01*
X21593987Y13187984D01*
X21593987Y13735989D01*
X22093986Y13735989D01*
X21844000Y7378700D02*
G01*
X21844000Y7112000D01*
X21602700Y7112000D01*
X22093986Y7385989D02*
G01*
X22093986Y6837984D01*
X21593987Y6837984D01*
X21593987Y7385989D01*
X22093986Y7385989D01*
X1511300Y9144000D02*
G01*
X1778000Y9144000D01*
X1778000Y8902700D01*
X1504010Y9393986D02*
G01*
X2052015Y9393986D01*
X2052015Y8893987D01*
X1504010Y8893987D01*
X1504010Y9393986D01*
X1511300Y2794000D02*
G01*
X1778000Y2794000D01*
X1778000Y2552700D01*
X1504010Y3043986D02*
G01*
X2052015Y3043986D01*
X2052015Y2543987D01*
X1504010Y2543987D01*
X1504010Y3043986D01*
X8453297Y15499105D02*
G01*
X8719997Y15499105D01*
X8719997Y15257805D01*
X8446008Y15749092D02*
G01*
X8994013Y15749092D01*
X8994013Y15249093D01*
X8446008Y15249093D01*
X8446008Y15749092D01*
X8453297Y9149105D02*
G01*
X8719997Y9149105D01*
X8719997Y8907805D01*
X8446008Y9399092D02*
G01*
X8994013Y9399092D01*
X8994013Y8899093D01*
X8446008Y8899093D01*
X8446008Y9399092D01*
X8453297Y2799105D02*
G01*
X8719997Y2799105D01*
X8719997Y2557805D01*
X8446008Y3049092D02*
G01*
X8994013Y3049092D01*
X8994013Y2549093D01*
X8446008Y2549093D01*
X8446008Y3049092D01*
X15397403Y15499105D02*
G01*
X15664103Y15499105D01*
X15664103Y15257805D01*
X15390113Y15749092D02*
G01*
X15938118Y15749092D01*
X15938118Y15249093D01*
X15390113Y15249093D01*
X15390113Y15749092D01*
X15397403Y9149105D02*
G01*
X15664103Y9149105D01*
X15664103Y8907805D01*
X15390113Y9399092D02*
G01*
X15938118Y9399092D01*
X15938118Y8899093D01*
X15390113Y8899093D01*
X15390113Y9399092D01*
X15397403Y2799105D02*
G01*
X15664103Y2799105D01*
X15664103Y2557805D01*
X15390113Y3049092D02*
G01*
X15938118Y3049092D01*
X15938118Y2549093D01*
X15390113Y2549093D01*
X15390113Y3049092D01*
X22339300Y15494000D02*
G01*
X22606000Y15494000D01*
X22606000Y15252700D01*
X22332010Y15743986D02*
G01*
X22880015Y15743986D01*
X22880015Y15243987D01*
X22332010Y15243987D01*
X22332010Y15743986D01*
X22339300Y9144000D02*
G01*
X22606000Y9144000D01*
X22606000Y8902700D01*
X22332010Y9393986D02*
G01*
X22880015Y9393986D01*
X22880015Y8893987D01*
X22332010Y8893987D01*
X22332010Y9393986D01*
X22339300Y2794000D02*
G01*
X22606000Y2794000D01*
X22606000Y2552700D01*
X22332010Y3043986D02*
G01*
X22880015Y3043986D01*
X22880015Y2543987D01*
X22332010Y2543987D01*
X22332010Y3043986D01*
X6096000Y9639300D02*
G01*
X6096000Y9906000D01*
X6337300Y9906000D01*
X5846013Y9632010D02*
G01*
X5846013Y10180015D01*
X6346012Y10180015D01*
X6346012Y9632010D01*
X5846013Y9632010D01*
X6096000Y3289300D02*
G01*
X6096000Y3556000D01*
X6337300Y3556000D01*
X5846013Y3282010D02*
G01*
X5846013Y3830015D01*
X6346012Y3830015D01*
X6346012Y3282010D01*
X5846013Y3282010D01*
X13037997Y3294405D02*
G01*
X13037997Y3561105D01*
X13279297Y3561105D01*
X12788011Y3287115D02*
G01*
X12788011Y3835120D01*
X13288009Y3835120D01*
X13288009Y3287115D01*
X12788011Y3287115D01*
X13037997Y9644405D02*
G01*
X13037997Y9911105D01*
X13279297Y9911105D01*
X12788011Y9637115D02*
G01*
X12788011Y10185120D01*
X13288009Y10185120D01*
X13288009Y9637115D01*
X12788011Y9637115D01*
X13037997Y15994405D02*
G01*
X13037997Y16261105D01*
X13279297Y16261105D01*
X12788011Y15987115D02*
G01*
X12788011Y16535120D01*
X13288009Y16535120D01*
X13288009Y15987115D01*
X12788011Y15987115D01*
X19982103Y15994405D02*
G01*
X19982103Y16261105D01*
X20223403Y16261105D01*
X19732116Y15987115D02*
G01*
X19732116Y16535120D01*
X20232116Y16535120D01*
X20232116Y15987115D01*
X19732116Y15987115D01*
X19982103Y9644405D02*
G01*
X19982103Y9911105D01*
X20223403Y9911105D01*
X19732116Y9637115D02*
G01*
X19732116Y10185120D01*
X20232116Y10185120D01*
X20232116Y9637115D01*
X19732116Y9637115D01*
X19982103Y3294405D02*
G01*
X19982103Y3561105D01*
X20223403Y3561105D01*
X19732116Y3287115D02*
G01*
X19732116Y3835120D01*
X20232116Y3835120D01*
X20232116Y3287115D01*
X19732116Y3287115D01*
X26924000Y3289300D02*
G01*
X26924000Y3556000D01*
X27165300Y3556000D01*
X26674013Y3282010D02*
G01*
X26674013Y3830015D01*
X27174012Y3830015D01*
X27174012Y3282010D01*
X26674013Y3282010D01*
X26924000Y9639300D02*
G01*
X26924000Y9906000D01*
X27165300Y9906000D01*
X26674013Y9632010D02*
G01*
X26674013Y10180015D01*
X27174012Y10180015D01*
X27174012Y9632010D01*
X26674013Y9632010D01*
X26924000Y15989300D02*
G01*
X26924000Y16256000D01*
X27165300Y16256000D01*
X26674013Y15982010D02*
G01*
X26674013Y16530015D01*
X27174012Y16530015D01*
X27174012Y15982010D01*
X26674013Y15982010D01*
X5600700Y20574000D02*
G01*
X5334000Y20574000D01*
X5334000Y20815300D01*
X5607989Y20324013D02*
G01*
X5059984Y20324013D01*
X5059984Y20824012D01*
X5607989Y20824012D01*
X5607989Y20324013D01*
X1016000Y20078700D02*
G01*
X1016000Y19812000D01*
X774700Y19812000D01*
X1265986Y20085989D02*
G01*
X1265986Y19537984D01*
X765987Y19537984D01*
X765987Y20085989D01*
X1265986Y20085989D01*
D13*
X851227Y1463067D02*
G01*
X755340Y1463067D01*
X755340Y1330947D01*
X851227Y1330947D01*
X936470Y1463067D02*
G01*
X1032357Y1463067D01*
X1032357Y1330947D01*
X936470Y1330947D01*
X851227Y1615467D02*
G01*
X755340Y1615467D01*
X755340Y1483347D01*
X851227Y1483347D01*
X936470Y1615467D02*
G01*
X1032357Y1615467D01*
X1032357Y1483347D01*
X936470Y1483347D01*
X2192601Y1856773D02*
G01*
X2096714Y1856773D01*
X2096714Y1724652D01*
X2192601Y1724652D01*
X2277844Y1856773D02*
G01*
X2373731Y1856773D01*
X2373731Y1724652D01*
X2277844Y1724652D01*
D18*
X1730583Y1492864D02*
G01*
X1731578Y1492864D01*
X1764583Y1459859D01*
X1730583Y1424861D02*
G01*
X1730583Y1425859D01*
X1764583Y1459859D01*
X1730583Y1424861D02*
G01*
X1730583Y1492864D01*
X1728579Y1384853D02*
G01*
X1613578Y1384853D01*
X1728579Y1534866D02*
G01*
X1613578Y1534866D01*
X1613578Y1384863D02*
G01*
X1613578Y1532856D01*
X1766580Y1535097D02*
G01*
X1871591Y1535097D01*
X1901586Y1495089D02*
G01*
X1901586Y1505092D01*
X1871591Y1535097D01*
X1901586Y1425094D02*
G01*
X1901586Y1495089D01*
X1901586Y1425094D02*
G01*
X1901586Y1415079D01*
X1871591Y1385084D01*
X1766580Y1385084D02*
G01*
X1871591Y1385084D01*
X1730583Y1459859D02*
G01*
X1764583Y1459859D01*
D13*
X1506801Y1856773D02*
G01*
X1410914Y1856773D01*
X1410914Y1724652D01*
X1506801Y1724652D01*
X1592044Y1856773D02*
G01*
X1687931Y1856773D01*
X1687931Y1724652D01*
X1592044Y1724652D01*
D19*
X1473222Y1310088D02*
G01*
X1473222Y954488D01*
X2032022Y1308112D02*
G01*
X2032022Y952512D01*
D13*
X1625622Y927112D02*
G01*
X1498622Y927112D01*
X1879622Y927112D02*
G01*
X2006622Y927112D01*
X1498622Y1333512D02*
G01*
X1629128Y1333512D01*
X2006622Y1333512D02*
G01*
X1879622Y1333512D01*
X1752404Y1825782D02*
G01*
X1752404Y1654042D01*
X1855566Y1654042D01*
X2057646Y1825782D02*
G01*
X2057646Y1654042D01*
X1954484Y1654042D01*
X1859485Y1825782D02*
G01*
X1950565Y1825782D01*
D16*
X-38849Y1026208D02*
G01*
X-38849Y1920206D01*
X641250Y1130094D02*
G01*
X641250Y1119327D01*
X342818Y1026208D02*
G01*
X479506Y1026208D01*
X-38849Y1026208D02*
G01*
X99504Y1026208D01*
X342818Y1920206D02*
G01*
X479503Y1920206D01*
X-38849Y1920206D02*
G01*
X99504Y1920206D01*
X641250Y1827095D02*
G01*
X641250Y1816320D01*
D13*
X936472Y1635744D02*
G01*
X1032360Y1635744D01*
X1032360Y1767865D01*
X936472Y1767865D01*
X851230Y1635744D02*
G01*
X755342Y1635744D01*
X755342Y1767865D01*
X851230Y1767865D01*
D16*
X1095781Y1818645D02*
G01*
X1095781Y1991365D01*
X1095781Y1991365D02*
G01*
X948461Y1991365D01*
X1095781Y1818645D02*
G01*
X948461Y1818645D01*
X890041Y1991365D02*
G01*
X773201Y1991365D01*
X887501Y1818645D02*
G01*
X773201Y1818645D01*
X773201Y1818645D02*
G01*
X737641Y1854205D01*
X737641Y1955805D01*
X773201Y1991365D01*
D12*
X926871Y1864365D02*
G01*
X926871Y1943105D01*
X926871Y1904210D02*
G01*
X909335Y1904210D01*
D16*
X2087534Y1300482D02*
G01*
X2073147Y1300482D01*
X2243150Y1300482D02*
G01*
X2228763Y1300482D01*
X2073147Y1569722D02*
G01*
X2073147Y1598899D01*
X2073249Y1599001D01*
X2243150Y1569722D02*
G01*
X2243150Y1599399D01*
X2243048Y1599501D01*
X2243150Y1569722D02*
G01*
X2243150Y1300482D01*
X2198789Y1394462D02*
G01*
X2117509Y1394462D01*
X2158174Y1394462D02*
G01*
X2158174Y1363093D01*
X2158149Y1463103D02*
G01*
X2158149Y1496103D01*
X2208949Y1460502D02*
G01*
X2107349Y1460502D01*
X2158149Y1452882D02*
G01*
X2198789Y1394462D01*
X2117509Y1394462D02*
G01*
X2158149Y1452882D01*
X2073147Y1300482D02*
G01*
X2073147Y1569722D01*
D19*
G75*
G01*
X1752623Y1130313D02*
G02*
X1752623Y1066813I0J-31750D01*
G75*
G01*
X1752623Y1130313D02*
G02*
X1752623Y1193813I0J31750D01*
D16*
X4267200Y1739900D02*
G01*
X8775700Y1739900D01*
X8775700Y539902D01*
X4267200Y539902D01*
X4267200Y1739900D01*
X19200012Y1714500D02*
G01*
X23708512Y1714500D01*
X23708512Y514502D01*
X19200012Y514502D01*
X19200012Y1714500D01*
X1270025Y2082800D02*
G01*
X2565425Y2082800D01*
X2565425Y800100D01*
X1270025Y800100D01*
X1270025Y2082800D01*
M02*
