G04 Layer: TopPasteMaskLayer*
G04 EasyEDA v6.5.34, 2023-09-12 02:39:20*
G04 e94bc10b37974a2b8ebe6637de124c00,5a6b42c53f6a479593ecc07194224c93,10*
G04 Gerber Generator version 0.2*
G04 Scale: 100 percent, Rotated: No, Reflected: No *
G04 Dimensions in millimeters *
G04 leading zeros omitted , absolute positions ,4 integer and 5 decimal *
%FSLAX45Y45*%
%MOMM*%

%ADD10R,0.8000X0.8000*%
%ADD11R,0.5320X1.0375*%
%ADD12R,0.9500X1.2000*%

%LPD*%
G36*
X774344Y1442008D02*
G01*
X769366Y1437030D01*
X769366Y1357020D01*
X774344Y1351991D01*
X854354Y1351991D01*
X859332Y1357020D01*
X859332Y1379829D01*
X822350Y1379829D01*
X822350Y1412798D01*
X859332Y1412798D01*
X859332Y1437030D01*
X854354Y1442008D01*
G37*
G36*
X934364Y1442008D02*
G01*
X929335Y1437030D01*
X929335Y1412798D01*
X967333Y1412798D01*
X967333Y1379829D01*
X929335Y1379829D01*
X929335Y1357020D01*
X934364Y1351991D01*
X1013358Y1351991D01*
X1018336Y1357020D01*
X1018336Y1437030D01*
X1013358Y1442008D01*
G37*
G36*
X774344Y1594408D02*
G01*
X769366Y1589430D01*
X769366Y1509420D01*
X774344Y1504391D01*
X854354Y1504391D01*
X859332Y1509420D01*
X859332Y1532229D01*
X822350Y1532229D01*
X822350Y1565198D01*
X859332Y1565198D01*
X859332Y1589430D01*
X854354Y1594408D01*
G37*
G36*
X934364Y1594408D02*
G01*
X929335Y1589430D01*
X929335Y1565198D01*
X967333Y1565198D01*
X967333Y1532229D01*
X929335Y1532229D01*
X929335Y1509420D01*
X934364Y1504391D01*
X1013358Y1504391D01*
X1018336Y1509420D01*
X1018336Y1589430D01*
X1013358Y1594408D01*
G37*
G36*
X2115718Y1835708D02*
G01*
X2110740Y1830730D01*
X2110740Y1750720D01*
X2115718Y1745691D01*
X2195728Y1745691D01*
X2200706Y1750720D01*
X2200706Y1773529D01*
X2163724Y1773529D01*
X2163724Y1806498D01*
X2200706Y1806498D01*
X2200706Y1830730D01*
X2195728Y1835708D01*
G37*
G36*
X2275738Y1835708D02*
G01*
X2270709Y1830730D01*
X2270709Y1806498D01*
X2308707Y1806498D01*
X2308707Y1773529D01*
X2270709Y1773529D01*
X2270709Y1750720D01*
X2275738Y1745691D01*
X2354732Y1745691D01*
X2359710Y1750720D01*
X2359710Y1830730D01*
X2354732Y1835708D01*
G37*
G36*
X1429918Y1835708D02*
G01*
X1424940Y1830730D01*
X1424940Y1750720D01*
X1429918Y1745691D01*
X1509928Y1745691D01*
X1514906Y1750720D01*
X1514906Y1773529D01*
X1477924Y1773529D01*
X1477924Y1806498D01*
X1514906Y1806498D01*
X1514906Y1830730D01*
X1509928Y1835708D01*
G37*
G36*
X1589938Y1835708D02*
G01*
X1584909Y1830730D01*
X1584909Y1806498D01*
X1622907Y1806498D01*
X1622907Y1773529D01*
X1584909Y1773529D01*
X1584909Y1750720D01*
X1589938Y1745691D01*
X1668932Y1745691D01*
X1673910Y1750720D01*
X1673910Y1830730D01*
X1668932Y1835708D01*
G37*
G36*
X1877618Y1305255D02*
G01*
X1867611Y1295247D01*
X1867611Y1199794D01*
X1877618Y1189786D01*
X1905457Y1189786D01*
X1915464Y1179779D01*
X1915464Y1080820D01*
X1905457Y1070813D01*
X1877618Y1070813D01*
X1867611Y1060805D01*
X1867611Y965352D01*
X1877618Y955344D01*
X1998268Y955344D01*
X2008276Y965352D01*
X2008276Y1295247D01*
X1998268Y1305255D01*
G37*
G36*
X1506931Y1305255D02*
G01*
X1496974Y1295247D01*
X1496974Y965352D01*
X1506931Y955344D01*
X1627632Y955344D01*
X1637639Y965352D01*
X1637639Y1060805D01*
X1627632Y1070813D01*
X1599793Y1070813D01*
X1589786Y1080820D01*
X1589786Y1179779D01*
X1599793Y1189786D01*
X1627632Y1189786D01*
X1637639Y1199794D01*
X1637639Y1295247D01*
X1627632Y1305255D01*
G37*
G36*
X556158Y1096213D02*
G01*
X549402Y1095806D01*
X542747Y1094536D01*
X536295Y1092504D01*
X530148Y1089660D01*
X524408Y1086104D01*
X521665Y1084072D01*
X516686Y1079500D01*
X512267Y1074369D01*
X508508Y1068679D01*
X505510Y1062634D01*
X503275Y1056233D01*
X502412Y1052982D01*
X501396Y1046276D01*
X501192Y1039520D01*
X501802Y1032764D01*
X503275Y1026160D01*
X505510Y1019759D01*
X508508Y1013714D01*
X512267Y1008075D01*
X516686Y1002893D01*
X521665Y998372D01*
X527202Y994460D01*
X530148Y992733D01*
X536295Y989939D01*
X539496Y988771D01*
X546049Y987145D01*
X552754Y986332D01*
X556158Y986180D01*
X646176Y986180D01*
X652932Y986637D01*
X659587Y987856D01*
X662838Y988771D01*
X669137Y991260D01*
X672185Y992733D01*
X677926Y996289D01*
X683209Y1000556D01*
X687933Y1005433D01*
X691997Y1010818D01*
X695401Y1016711D01*
X698042Y1022908D01*
X699871Y1029462D01*
X700532Y1032764D01*
X701141Y1039520D01*
X700938Y1046276D01*
X699871Y1052982D01*
X698042Y1059484D01*
X695401Y1065733D01*
X691997Y1071575D01*
X687933Y1077010D01*
X683209Y1081836D01*
X680669Y1084072D01*
X675132Y1087983D01*
X669137Y1091184D01*
X662838Y1093622D01*
X656285Y1095248D01*
X652932Y1095806D01*
X646176Y1096213D01*
G37*
G36*
X556158Y1960219D02*
G01*
X549402Y1959813D01*
X542747Y1958543D01*
X536295Y1956511D01*
X530148Y1953666D01*
X524408Y1950110D01*
X521665Y1948078D01*
X516686Y1943506D01*
X512267Y1938375D01*
X508508Y1932686D01*
X505510Y1926640D01*
X503275Y1920239D01*
X502412Y1916988D01*
X501396Y1910283D01*
X501192Y1903526D01*
X501802Y1896770D01*
X503275Y1890166D01*
X505510Y1883765D01*
X508508Y1877720D01*
X512267Y1872081D01*
X516686Y1866900D01*
X521665Y1862378D01*
X527202Y1858467D01*
X530148Y1856739D01*
X536295Y1853946D01*
X539496Y1852777D01*
X546049Y1851152D01*
X552754Y1850339D01*
X556158Y1850186D01*
X646176Y1850186D01*
X652932Y1850643D01*
X659587Y1851863D01*
X662838Y1852777D01*
X669137Y1855266D01*
X672185Y1856739D01*
X677926Y1860296D01*
X683209Y1864563D01*
X687933Y1869439D01*
X691997Y1874824D01*
X695401Y1880717D01*
X698042Y1886915D01*
X699871Y1893468D01*
X700532Y1896770D01*
X701141Y1903526D01*
X700938Y1910283D01*
X699871Y1916988D01*
X698042Y1923491D01*
X695401Y1929739D01*
X691997Y1935581D01*
X687933Y1941017D01*
X683209Y1945843D01*
X680669Y1948078D01*
X675132Y1951989D01*
X669137Y1955190D01*
X662838Y1957628D01*
X656285Y1959254D01*
X652932Y1959813D01*
X646176Y1960219D01*
G37*
G36*
X176174Y1960219D02*
G01*
X169418Y1959813D01*
X162763Y1958543D01*
X156260Y1956511D01*
X150114Y1953666D01*
X144373Y1950110D01*
X139090Y1945843D01*
X134366Y1941017D01*
X130302Y1935581D01*
X126898Y1929739D01*
X124256Y1923491D01*
X122428Y1916988D01*
X121412Y1910283D01*
X121158Y1903526D01*
X121818Y1896770D01*
X123240Y1890166D01*
X124256Y1886915D01*
X126898Y1880717D01*
X130302Y1874824D01*
X134366Y1869439D01*
X139090Y1864563D01*
X144373Y1860296D01*
X150114Y1856739D01*
X156260Y1853946D01*
X159461Y1852777D01*
X166065Y1851152D01*
X172770Y1850339D01*
X176174Y1850186D01*
X266141Y1850186D01*
X272897Y1850643D01*
X279552Y1851863D01*
X282803Y1852777D01*
X289153Y1855266D01*
X295097Y1858467D01*
X297942Y1860296D01*
X303225Y1864563D01*
X305663Y1866900D01*
X310032Y1872081D01*
X313791Y1877720D01*
X316788Y1883765D01*
X319074Y1890166D01*
X320497Y1896770D01*
X321106Y1903526D01*
X320903Y1910283D01*
X319887Y1916988D01*
X318008Y1923491D01*
X315366Y1929739D01*
X312013Y1935581D01*
X307898Y1941017D01*
X303225Y1945843D01*
X297942Y1950110D01*
X292150Y1953666D01*
X286004Y1956511D01*
X279552Y1958543D01*
X272897Y1959813D01*
X266141Y1960219D01*
G37*
G36*
X176174Y1096213D02*
G01*
X169418Y1095806D01*
X162763Y1094536D01*
X156260Y1092504D01*
X150114Y1089660D01*
X144373Y1086104D01*
X139090Y1081836D01*
X134366Y1077010D01*
X130302Y1071575D01*
X126898Y1065733D01*
X124256Y1059484D01*
X122428Y1052982D01*
X121412Y1046276D01*
X121158Y1039520D01*
X121818Y1032764D01*
X123240Y1026160D01*
X124256Y1022908D01*
X126898Y1016711D01*
X130302Y1010818D01*
X134366Y1005433D01*
X139090Y1000556D01*
X144373Y996289D01*
X150114Y992733D01*
X156260Y989939D01*
X159461Y988771D01*
X166065Y987145D01*
X172770Y986332D01*
X176174Y986180D01*
X266141Y986180D01*
X272897Y986637D01*
X279552Y987856D01*
X282803Y988771D01*
X289153Y991260D01*
X295097Y994460D01*
X297942Y996289D01*
X303225Y1000556D01*
X305663Y1002893D01*
X310032Y1008075D01*
X313791Y1013714D01*
X316788Y1019759D01*
X319074Y1026160D01*
X320497Y1032764D01*
X321106Y1039520D01*
X320903Y1046276D01*
X319887Y1052982D01*
X318008Y1059484D01*
X315366Y1065733D01*
X312013Y1071575D01*
X307898Y1077010D01*
X303225Y1081836D01*
X297942Y1086104D01*
X292150Y1089660D01*
X286004Y1092504D01*
X279552Y1094536D01*
X272897Y1095806D01*
X266141Y1096213D01*
G37*
G36*
X530910Y1563217D02*
G01*
X530910Y1483207D01*
X670915Y1483207D01*
X670915Y1563217D01*
G37*
G36*
X530910Y1463243D02*
G01*
X530910Y1383233D01*
X670915Y1383233D01*
X670915Y1463243D01*
G37*
G36*
X531114Y1361236D02*
G01*
X531114Y1281226D01*
X671068Y1281226D01*
X671068Y1361236D01*
G37*
G36*
X531317Y1665224D02*
G01*
X531317Y1585214D01*
X671322Y1585214D01*
X671322Y1665224D01*
G37*
G36*
X531164Y1238199D02*
G01*
X531164Y1158189D01*
X671169Y1158189D01*
X671169Y1238199D01*
G37*
G36*
X531164Y1788210D02*
G01*
X531164Y1708200D01*
X671169Y1708200D01*
X671169Y1788210D01*
G37*
G36*
X933348Y1746808D02*
G01*
X928369Y1741779D01*
X928369Y1719021D01*
X965352Y1719021D01*
X965352Y1686001D01*
X928369Y1686001D01*
X928369Y1661820D01*
X933348Y1656791D01*
X1013358Y1656791D01*
X1018336Y1661820D01*
X1018336Y1741779D01*
X1013358Y1746808D01*
G37*
G36*
X774344Y1746808D02*
G01*
X769366Y1741779D01*
X769366Y1661820D01*
X774344Y1656791D01*
X853338Y1656791D01*
X858367Y1661820D01*
X858367Y1686001D01*
X820369Y1686001D01*
X820369Y1719021D01*
X858367Y1719021D01*
X858367Y1741779D01*
X853338Y1746808D01*
G37*
D10*
G01*
X1672691Y1460169D03*
G01*
X1832584Y1460855D03*
D11*
G01*
X2000021Y1850034D03*
G01*
X1810029Y1850034D03*
G01*
X1905025Y1629790D03*
D10*
G01*
X1004341Y1905000D03*
G01*
X834161Y1905000D03*
D12*
G01*
X2158161Y1265097D03*
G01*
X2158161Y1605102D03*
M02*
