G04 Layer: TopSolderMaskLayer*
G04 EasyEDA v6.5.34, 2023-09-12 02:39:20*
G04 e94bc10b37974a2b8ebe6637de124c00,5a6b42c53f6a479593ecc07194224c93,10*
G04 Gerber Generator version 0.2*
G04 Scale: 100 percent, Rotated: No, Reflected: No *
G04 Dimensions in millimeters *
G04 leading zeros omitted , absolute positions ,4 integer and 5 decimal *
%FSLAX45Y45*%
%MOMM*%

%AMMACRO1*1,1,$1,$2,$3*1,1,$1,$4,$5*1,1,$1,0-$2,0-$3*1,1,$1,0-$4,0-$5*20,1,$1,$2,$3,$4,$5,0*20,1,$1,$4,$5,0-$2,0-$3,0*20,1,$1,0-$2,0-$3,0-$4,0-$5,0*20,1,$1,0-$4,0-$5,$2,$3,0*4,1,4,$2,$3,$4,$5,0-$2,0-$3,0-$4,0-$5,$2,$3,0*%
%ADD10C,1.9016*%
%ADD11MACRO1,0.1016X0.4032X0.432X0.4032X-0.432*%
%ADD12MACRO1,0.1016X-0.4032X0.432X-0.4032X-0.432*%
%ADD13MACRO1,0.1016X0.4X0.4X0.4X-0.4*%
%ADD14MACRO1,0.1016X-0.7033X-1.7496X-0.7033X1.7496*%
%ADD15MACRO1,0.1016X0.7033X-1.7496X0.7033X1.7496*%
%ADD16MACRO1,0.1016X0.266X0.5188X-0.266X0.5188*%
%ADD17MACRO1,0.1016X0.7X0.4X0.7X-0.4*%
%ADD18O,2.1015960000000002X1.2015978000000003*%
%ADD19MACRO1,0.1016X-0.4032X-0.432X-0.4032X0.432*%
%ADD20MACRO1,0.1016X0.4032X-0.432X0.4032X0.432*%
%ADD21MACRO1,0.1016X-0.4X-0.4X-0.4X0.4*%
%ADD22MACRO1,0.1016X0.475X0.6X0.475X-0.6*%
%ADD23C,5.2032*%
%ADD24C,2.6016*%
%ADD25C,0.0159*%

%LPD*%
D10*
G01*
X1905000Y15621000D03*
G01*
X1905000Y15367000D03*
G01*
X1651000Y15621000D03*
G01*
X1651000Y15367000D03*
G01*
X5969000Y16383000D03*
G01*
X6223000Y16383000D03*
G01*
X5969000Y16129000D03*
G01*
X6223000Y16129000D03*
G01*
X5207000Y14097000D03*
G01*
X5207000Y14351000D03*
G01*
X5461000Y14097000D03*
G01*
X5461000Y14351000D03*
G01*
X5207000Y7747000D03*
G01*
X5207000Y8001000D03*
G01*
X5461000Y7747000D03*
G01*
X5461000Y8001000D03*
G01*
X12148997Y20452105D03*
G01*
X12148997Y20706105D03*
G01*
X12402997Y20452105D03*
G01*
X12402997Y20706105D03*
G01*
X12148997Y14102105D03*
G01*
X12148997Y14356105D03*
G01*
X12402997Y14102105D03*
G01*
X12402997Y14356105D03*
G01*
X12148997Y7752105D03*
G01*
X12148997Y8006105D03*
G01*
X12402997Y7752105D03*
G01*
X12402997Y8006105D03*
G01*
X19093103Y20452105D03*
G01*
X19093103Y20706105D03*
G01*
X19347103Y20452105D03*
G01*
X19347103Y20706105D03*
G01*
X19093103Y14102105D03*
G01*
X19093103Y14356105D03*
G01*
X19347103Y14102105D03*
G01*
X19347103Y14356105D03*
G01*
X19093103Y7752105D03*
G01*
X19093103Y8006105D03*
G01*
X19347103Y7752105D03*
G01*
X19347103Y8006105D03*
G01*
X26035000Y20447000D03*
G01*
X26035000Y20701000D03*
G01*
X26289000Y20447000D03*
G01*
X26289000Y20701000D03*
G01*
X26035000Y14097000D03*
G01*
X26035000Y14351000D03*
G01*
X26289000Y14097000D03*
G01*
X26289000Y14351000D03*
G01*
X26035000Y7747000D03*
G01*
X26035000Y8001000D03*
G01*
X26289000Y7747000D03*
G01*
X26289000Y8001000D03*
G01*
X1143000Y13335000D03*
G01*
X889000Y13335000D03*
G01*
X1143000Y13589000D03*
G01*
X889000Y13589000D03*
G01*
X1143000Y6985000D03*
G01*
X889000Y6985000D03*
G01*
X1143000Y7239000D03*
G01*
X889000Y7239000D03*
G01*
X8084997Y19690105D03*
G01*
X7830997Y19690105D03*
G01*
X8084997Y19944105D03*
G01*
X7830997Y19944105D03*
G01*
X8084997Y13340105D03*
G01*
X7830997Y13340105D03*
G01*
X8084997Y13594105D03*
G01*
X7830997Y13594105D03*
G01*
X8084997Y6990105D03*
G01*
X7830997Y6990105D03*
G01*
X8084997Y7244105D03*
G01*
X7830997Y7244105D03*
G01*
X15029103Y19690105D03*
G01*
X14775103Y19690105D03*
G01*
X15029103Y19944105D03*
G01*
X14775103Y19944105D03*
G01*
X15029103Y13340105D03*
G01*
X14775103Y13340105D03*
G01*
X15029103Y13594105D03*
G01*
X14775103Y13594105D03*
G01*
X15029103Y6990105D03*
G01*
X14775103Y6990105D03*
G01*
X15029103Y7244105D03*
G01*
X14775103Y7244105D03*
G01*
X21971000Y19685000D03*
G01*
X21717000Y19685000D03*
G01*
X21971000Y19939000D03*
G01*
X21717000Y19939000D03*
G01*
X21971000Y13335000D03*
G01*
X21717000Y13335000D03*
G01*
X21971000Y13589000D03*
G01*
X21717000Y13589000D03*
G01*
X21971000Y6985000D03*
G01*
X21717000Y6985000D03*
G01*
X21971000Y7239000D03*
G01*
X21717000Y7239000D03*
G01*
X1905000Y9271000D03*
G01*
X1905000Y9017000D03*
G01*
X1651000Y9271000D03*
G01*
X1651000Y9017000D03*
G01*
X1905000Y2921000D03*
G01*
X1905000Y2667000D03*
G01*
X1651000Y2921000D03*
G01*
X1651000Y2667000D03*
G01*
X8846997Y15626105D03*
G01*
X8846997Y15372105D03*
G01*
X8592997Y15626105D03*
G01*
X8592997Y15372105D03*
G01*
X8846997Y9276105D03*
G01*
X8846997Y9022105D03*
G01*
X8592997Y9276105D03*
G01*
X8592997Y9022105D03*
G01*
X8846997Y2926105D03*
G01*
X8846997Y2672105D03*
G01*
X8592997Y2926105D03*
G01*
X8592997Y2672105D03*
G01*
X15791103Y15626105D03*
G01*
X15791103Y15372105D03*
G01*
X15537103Y15626105D03*
G01*
X15537103Y15372105D03*
G01*
X15791103Y9276105D03*
G01*
X15791103Y9022105D03*
G01*
X15537103Y9276105D03*
G01*
X15537103Y9022105D03*
G01*
X15791103Y2926105D03*
G01*
X15791103Y2672105D03*
G01*
X15537103Y2926105D03*
G01*
X15537103Y2672105D03*
G01*
X22733000Y15621000D03*
G01*
X22733000Y15367000D03*
G01*
X22479000Y15621000D03*
G01*
X22479000Y15367000D03*
G01*
X22733000Y9271000D03*
G01*
X22733000Y9017000D03*
G01*
X22479000Y9271000D03*
G01*
X22479000Y9017000D03*
G01*
X22733000Y2921000D03*
G01*
X22733000Y2667000D03*
G01*
X22479000Y2921000D03*
G01*
X22479000Y2667000D03*
G01*
X5969000Y10033000D03*
G01*
X6223000Y10033000D03*
G01*
X5969000Y9779000D03*
G01*
X6223000Y9779000D03*
G01*
X5969000Y3683000D03*
G01*
X6223000Y3683000D03*
G01*
X5969000Y3429000D03*
G01*
X6223000Y3429000D03*
G01*
X12910997Y3688105D03*
G01*
X13164997Y3688105D03*
G01*
X12910997Y3434105D03*
G01*
X13164997Y3434105D03*
G01*
X12910997Y10038105D03*
G01*
X13164997Y10038105D03*
G01*
X12910997Y9784105D03*
G01*
X13164997Y9784105D03*
G01*
X12910997Y16388105D03*
G01*
X13164997Y16388105D03*
G01*
X12910997Y16134105D03*
G01*
X13164997Y16134105D03*
G01*
X19855103Y16388105D03*
G01*
X20109103Y16388105D03*
G01*
X19855103Y16134105D03*
G01*
X20109103Y16134105D03*
G01*
X19855103Y10038105D03*
G01*
X20109103Y10038105D03*
G01*
X19855103Y9784105D03*
G01*
X20109103Y9784105D03*
G01*
X19855103Y3688105D03*
G01*
X20109103Y3688105D03*
G01*
X19855103Y3434105D03*
G01*
X20109103Y3434105D03*
G01*
X26797000Y3683000D03*
G01*
X27051000Y3683000D03*
G01*
X26797000Y3429000D03*
G01*
X27051000Y3429000D03*
G01*
X26797000Y10033000D03*
G01*
X27051000Y10033000D03*
G01*
X26797000Y9779000D03*
G01*
X27051000Y9779000D03*
G01*
X26797000Y16383000D03*
G01*
X27051000Y16383000D03*
G01*
X26797000Y16129000D03*
G01*
X27051000Y16129000D03*
G01*
X5207000Y20447000D03*
G01*
X5207000Y20701000D03*
G01*
X5461000Y20447000D03*
G01*
X5461000Y20701000D03*
G01*
X1143000Y19685000D03*
G01*
X889000Y19685000D03*
G01*
X1143000Y19939000D03*
G01*
X889000Y19939000D03*
D11*
G01*
X818523Y1397007D03*
D12*
G01*
X969173Y1397007D03*
D11*
G01*
X818523Y1549407D03*
D12*
G01*
X969173Y1549407D03*
D11*
G01*
X2159897Y1790712D03*
D12*
G01*
X2310547Y1790712D03*
D13*
G01*
X1672681Y1460159D03*
G01*
X1832582Y1460860D03*
D11*
G01*
X1474097Y1790712D03*
D12*
G01*
X1624747Y1790712D03*
D14*
G01*
X1937956Y1130312D03*
D15*
G01*
X1567289Y1130312D03*
D16*
G01*
X2000025Y1850038D03*
G01*
X1810025Y1850038D03*
G01*
X1905025Y1629787D03*
D17*
G01*
X600936Y1523220D03*
G01*
X600936Y1423220D03*
G01*
X601088Y1321214D03*
G01*
X601342Y1625201D03*
G01*
X601164Y1198201D03*
G01*
X601164Y1748213D03*
D18*
G01*
X601167Y1041196D03*
G01*
X601167Y1905203D03*
G01*
X221157Y1905203D03*
G01*
X221157Y1041196D03*
D19*
G01*
X969176Y1701805D03*
D20*
G01*
X818526Y1701805D03*
D21*
G01*
X1004341Y1905005D03*
G01*
X834161Y1905005D03*
D22*
G01*
X2158149Y1265100D03*
G01*
X2158149Y1605104D03*
D23*
G01*
X1016000Y15494000D03*
G01*
X6096000Y15494000D03*
G01*
X6096000Y20574000D03*
G01*
X1016000Y7874000D03*
G01*
X6096000Y7874000D03*
G01*
X6096000Y2794000D03*
G01*
X1016000Y2794000D03*
G01*
X6096000Y14224000D03*
G01*
X6096000Y9144000D03*
G01*
X1016000Y9144000D03*
G01*
X21844000Y15494000D03*
G01*
X26924000Y15494000D03*
G01*
X21844000Y20574000D03*
G01*
X21844000Y9144000D03*
G01*
X26924000Y9144000D03*
G01*
X21844000Y14224000D03*
G01*
X21844000Y2794000D03*
G01*
X26924000Y2794000D03*
G01*
X26924000Y7874000D03*
G01*
X21844000Y7874000D03*
G01*
X7957997Y9149105D03*
G01*
X13037997Y9149105D03*
G01*
X14902103Y9149105D03*
G01*
X19982103Y9149105D03*
G01*
X13037997Y15499105D03*
G01*
X14902103Y15499105D03*
G01*
X7957997Y2799105D03*
G01*
X13037997Y2799105D03*
G01*
X13037997Y7879105D03*
G01*
X14902103Y2799105D03*
G01*
X19982103Y2799105D03*
G01*
X14902103Y7879105D03*
G01*
X19982103Y7879105D03*
G01*
X7957997Y7879105D03*
G01*
X7957997Y15499105D03*
G01*
X19982103Y15499105D03*
G01*
X1016000Y20574000D03*
G01*
X1016000Y14224000D03*
G01*
X7957997Y14229105D03*
G01*
X13037997Y14229105D03*
G01*
X14902103Y14229105D03*
G01*
X19982103Y14229105D03*
G01*
X19982103Y20579105D03*
G01*
X14902103Y20579105D03*
G01*
X13037997Y20579105D03*
G01*
X7957997Y20579105D03*
G01*
X26924000Y20574000D03*
G01*
X26924000Y14224000D03*
D24*
G01*
X19347052Y21209000D03*
D10*
G01*
X20294600Y21209000D03*
G36*
X26619225Y330200D02*
G01*
X27025625Y330200D01*
X27025625Y203200D01*
X26619225Y203200D01*
G37*
M02*
