G04 Layer: BottomSolderMaskLayer*
G04 Panelize: Stamp Hole, Column: 2, Row: 2, Board Size: 58.42mm x 58.42mm, Panelized Board Size: 122.84mm x 122.84mm*
G04 EasyEDA v6.5.34, 2023-09-13 23:46:03*
G04 50f54edec40846078001aba480b7569d,5a6b42c53f6a479593ecc07194224c93,10*
G04 Gerber Generator version 0.2*
G04 Scale: 100 percent, Rotated: No, Reflected: No *
G04 Dimensions in millimeters *
G04 leading zeros omitted , absolute positions ,4 integer and 5 decimal *
%FSLAX45Y45*%
%MOMM*%

%AMMACRO1*1,1,$1,$2,$3*1,1,$1,$4,$5*1,1,$1,0-$2,0-$3*1,1,$1,0-$4,0-$5*20,1,$1,$2,$3,$4,$5,0*20,1,$1,$4,$5,0-$2,0-$3,0*20,1,$1,0-$2,0-$3,0-$4,0-$5,0*20,1,$1,0-$4,0-$5,$2,$3,0*4,1,4,$2,$3,$4,$5,0-$2,0-$3,0-$4,0-$5,$2,$3,0*%
%ADD10MACRO1,0.2032X-0.55X0.5X-0.55X-0.5*%
%ADD11O,0.8031988000000001X2.0031963999999998*%
%ADD12MACRO1,0.1016X0.45X-0.4X0.45X0.4*%
%ADD13C,5.2032*%
%ADD14C,1.4016*%
%ADD15C,1.6256*%
%ADD16C,2.1016*%
%ADD17C,1.9016*%
%ADD18C,3.0000*%

%LPD*%
D10*
G01*
X2031992Y3945884D03*
G01*
X2031992Y4105884D03*
D11*
G01*
X2082800Y2737967D03*
G01*
X1955800Y2737967D03*
G01*
X1828800Y2737967D03*
G01*
X1701800Y2737967D03*
G01*
X1574800Y2737967D03*
G01*
X1447800Y2737967D03*
G01*
X1320800Y2737967D03*
G01*
X2082800Y3357981D03*
G01*
X1955800Y3357981D03*
G01*
X1828800Y3357981D03*
G01*
X1701800Y3357981D03*
G01*
X1574800Y3357981D03*
G01*
X1447800Y3357981D03*
G01*
X1320800Y3357981D03*
G01*
X4482795Y2737967D03*
G01*
X4355795Y2737967D03*
G01*
X4228795Y2737967D03*
G01*
X4101795Y2737967D03*
G01*
X3974795Y2737967D03*
G01*
X3847795Y2737967D03*
G01*
X3720795Y2737967D03*
G01*
X4482795Y3357981D03*
G01*
X4355795Y3357981D03*
G01*
X4228795Y3357981D03*
G01*
X4101795Y3357981D03*
G01*
X3974795Y3357981D03*
G01*
X3847795Y3357981D03*
G01*
X3720795Y3357981D03*
D10*
G01*
X2031989Y4912098D03*
G01*
X2031989Y5072098D03*
G01*
X3809992Y3945884D03*
G01*
X3809992Y4105884D03*
G01*
X3555992Y3945884D03*
G01*
X3555992Y4105884D03*
G01*
X3301992Y3945884D03*
G01*
X3301992Y4105884D03*
G01*
X3047992Y3945884D03*
G01*
X3047992Y4105884D03*
G01*
X2793992Y3945884D03*
G01*
X2793992Y4105884D03*
G01*
X2539992Y3945884D03*
G01*
X2539992Y4105884D03*
G01*
X2285992Y3945884D03*
G01*
X2285992Y4105884D03*
G01*
X3809989Y4912098D03*
G01*
X3809989Y5072098D03*
G01*
X3553188Y4915695D03*
G01*
X3553188Y5075694D03*
G01*
X3301989Y4912098D03*
G01*
X3301989Y5072098D03*
G01*
X3047989Y4912098D03*
G01*
X3047989Y5072098D03*
G01*
X2793989Y4912098D03*
G01*
X2793989Y5072098D03*
G01*
X2539989Y4912098D03*
G01*
X2539989Y5072098D03*
G01*
X2285989Y4912098D03*
G01*
X2285989Y5072098D03*
G01*
X1269994Y999489D03*
G01*
X1269994Y1159489D03*
G01*
X1066794Y999489D03*
G01*
X1066794Y1159489D03*
G01*
X4762487Y999489D03*
G01*
X4762487Y1159489D03*
G01*
X4559287Y999489D03*
G01*
X4559287Y1159489D03*
G01*
X4267189Y999489D03*
G01*
X4267189Y1159489D03*
G01*
X4063989Y999489D03*
G01*
X4063989Y1159489D03*
G01*
X3759189Y999489D03*
G01*
X3759189Y1159489D03*
G01*
X3555989Y999489D03*
G01*
X3555989Y1159489D03*
G01*
X3263889Y999489D03*
G01*
X3263889Y1159489D03*
G01*
X3060692Y999489D03*
G01*
X3060692Y1159489D03*
G01*
X2768592Y999489D03*
G01*
X2768592Y1159489D03*
G01*
X2565392Y999489D03*
G01*
X2565392Y1159489D03*
G01*
X2260592Y999489D03*
G01*
X2260592Y1159489D03*
G01*
X2057392Y999489D03*
G01*
X2057392Y1159489D03*
G01*
X1562094Y999489D03*
G01*
X1562094Y1159489D03*
G01*
X1765294Y999489D03*
G01*
X1765294Y1159489D03*
D12*
G01*
X1155710Y2876704D03*
G01*
X1155710Y2736705D03*
G01*
X3556005Y2876704D03*
G01*
X3556005Y2736705D03*
D13*
G01*
X381000Y5461000D03*
G01*
X5461000Y5461000D03*
G01*
X5461000Y381000D03*
G01*
X381000Y381000D03*
D14*
G01*
X4660900Y2146300D03*
G01*
X4660900Y1396288D03*
G01*
X4660900Y1646301D03*
G01*
X4660900Y1896287D03*
G01*
X4160900Y2146300D03*
G01*
X4160900Y1396288D03*
G01*
X4160900Y1646301D03*
G01*
X4160900Y1896287D03*
G01*
X3660902Y2146300D03*
G01*
X3660902Y1396288D03*
G01*
X3660902Y1646301D03*
G01*
X3660902Y1896287D03*
G01*
X3160902Y2146300D03*
G01*
X3160902Y1396288D03*
G01*
X3160902Y1646301D03*
G01*
X3160902Y1896287D03*
G01*
X2660904Y2146300D03*
G01*
X2660904Y1396288D03*
G01*
X2660904Y1646301D03*
G01*
X2660904Y1896287D03*
G01*
X2160904Y2146300D03*
G01*
X2160904Y1396288D03*
G01*
X2160904Y1646301D03*
G01*
X2160904Y1896287D03*
G01*
X1660905Y1896287D03*
G01*
X1660905Y1646301D03*
G01*
X1660905Y1396288D03*
G01*
X1660905Y2146300D03*
G01*
X1160906Y1396288D03*
G01*
X1160906Y1646301D03*
G01*
X1160906Y1896287D03*
G01*
X1160906Y2146300D03*
D15*
G01*
X2794000Y4572000D03*
G01*
X2794000Y4318000D03*
G01*
X2540000Y4572000D03*
G01*
X2540000Y4318000D03*
G01*
X2032000Y4318000D03*
G01*
X2032000Y4572000D03*
G01*
X3302000Y4572000D03*
G01*
X3302000Y4318000D03*
G01*
X3048000Y4572000D03*
G01*
X3048000Y4318000D03*
G01*
X3810000Y4318000D03*
G01*
X3810000Y4559300D03*
D16*
G01*
X3812793Y5406593D03*
G01*
X3558793Y5406593D03*
G01*
X3304793Y5406593D03*
G01*
X3050793Y5406593D03*
G01*
X2796793Y5406593D03*
G01*
X2542793Y5406593D03*
G01*
X2288793Y5406593D03*
G01*
X2034793Y5406593D03*
D15*
G01*
X3556000Y4318000D03*
G01*
X3556000Y4572000D03*
G01*
X2286000Y4318000D03*
G01*
X2286000Y4572000D03*
D17*
G01*
X1270000Y254000D03*
G01*
X1270000Y508000D03*
G01*
X1016000Y508000D03*
G01*
X1016000Y254000D03*
D18*
G01*
X999997Y6641998D03*
G01*
X11284000Y6641998D03*
G01*
X1499996Y-7241997D03*
G01*
X10784001Y-7241997D03*
G36*
X4749800Y635000D02*
G01*
X5156200Y635000D01*
X5156200Y508000D01*
X4749800Y508000D01*
G37*
M02*
