G04 Layer: TopSilkscreenLayer*
G04 Panelize: Stamp Hole, Column: 2, Row: 2, Board Size: 58.42mm x 58.42mm, Panelized Board Size: 122.84mm x 122.84mm*
G04 EasyEDA v6.5.34, 2023-09-13 23:46:03*
G04 50f54edec40846078001aba480b7569d,5a6b42c53f6a479593ecc07194224c93,10*
G04 Gerber Generator version 0.2*
G04 Scale: 100 percent, Rotated: No, Reflected: No *
G04 Dimensions in millimeters *
G04 leading zeros omitted , absolute positions ,4 integer and 5 decimal *
%FSLAX45Y45*%
%MOMM*%

%ADD10C,0.1524*%
%ADD11C,0.2540*%
%ADD12C,0.2030*%

%LPD*%
D10*
X965200Y1129537D02*
G01*
X965200Y1034034D01*
X965200Y1034034D02*
G01*
X1019810Y1034034D01*
X1049781Y1129537D02*
G01*
X1049781Y1034034D01*
X1049781Y1129537D02*
G01*
X1108710Y1129537D01*
X1049781Y1084071D02*
G01*
X1086104Y1084071D01*
X1049781Y1034034D02*
G01*
X1108710Y1034034D01*
X1138936Y1129537D02*
G01*
X1138936Y1034034D01*
X1138936Y1129537D02*
G01*
X1170686Y1129537D01*
X1184402Y1124965D01*
X1193292Y1116076D01*
X1197863Y1106931D01*
X1202436Y1093215D01*
X1202436Y1070610D01*
X1197863Y1056894D01*
X1193292Y1047750D01*
X1184402Y1038605D01*
X1170686Y1034034D01*
X1138936Y1034034D01*
X1366012Y1129537D02*
G01*
X1320545Y1034034D01*
X1302512Y1129537D02*
G01*
X1366012Y1129537D01*
X1473200Y1129537D02*
G01*
X1473200Y1034034D01*
X1473200Y1034034D02*
G01*
X1527810Y1034034D01*
X1557781Y1129537D02*
G01*
X1557781Y1034034D01*
X1557781Y1129537D02*
G01*
X1616710Y1129537D01*
X1557781Y1084071D02*
G01*
X1594104Y1084071D01*
X1557781Y1034034D02*
G01*
X1616710Y1034034D01*
X1646936Y1129537D02*
G01*
X1646936Y1034034D01*
X1646936Y1129537D02*
G01*
X1678686Y1129537D01*
X1692402Y1124965D01*
X1701292Y1116076D01*
X1705863Y1106931D01*
X1710436Y1093215D01*
X1710436Y1070610D01*
X1705863Y1056894D01*
X1701292Y1047750D01*
X1692402Y1038605D01*
X1678686Y1034034D01*
X1646936Y1034034D01*
X1865121Y1116076D02*
G01*
X1860550Y1124965D01*
X1846834Y1129537D01*
X1837689Y1129537D01*
X1824228Y1124965D01*
X1815084Y1111504D01*
X1810512Y1088644D01*
X1810512Y1066037D01*
X1815084Y1047750D01*
X1824228Y1038605D01*
X1837689Y1034034D01*
X1842262Y1034034D01*
X1855978Y1038605D01*
X1865121Y1047750D01*
X1869439Y1061465D01*
X1869439Y1066037D01*
X1865121Y1079500D01*
X1855978Y1088644D01*
X1842262Y1093215D01*
X1837689Y1093215D01*
X1824228Y1088644D01*
X1815084Y1079500D01*
X1810512Y1066037D01*
X1968500Y1129537D02*
G01*
X1968500Y1034034D01*
X1968500Y1034034D02*
G01*
X2023109Y1034034D01*
X2053081Y1129537D02*
G01*
X2053081Y1034034D01*
X2053081Y1129537D02*
G01*
X2112009Y1129537D01*
X2053081Y1084071D02*
G01*
X2089404Y1084071D01*
X2053081Y1034034D02*
G01*
X2112009Y1034034D01*
X2142236Y1129537D02*
G01*
X2142236Y1034034D01*
X2142236Y1129537D02*
G01*
X2173986Y1129537D01*
X2187702Y1124965D01*
X2196591Y1116076D01*
X2201163Y1106931D01*
X2205736Y1093215D01*
X2205736Y1070610D01*
X2201163Y1056894D01*
X2196591Y1047750D01*
X2187702Y1038605D01*
X2173986Y1034034D01*
X2142236Y1034034D01*
X2360422Y1129537D02*
G01*
X2314956Y1129537D01*
X2310384Y1088644D01*
X2314956Y1093215D01*
X2328418Y1097787D01*
X2342134Y1097787D01*
X2355850Y1093215D01*
X2364740Y1084071D01*
X2369311Y1070610D01*
X2369311Y1061465D01*
X2364740Y1047750D01*
X2355850Y1038605D01*
X2342134Y1034034D01*
X2328418Y1034034D01*
X2314956Y1038605D01*
X2310384Y1043178D01*
X2305811Y1052321D01*
X2476500Y1129537D02*
G01*
X2476500Y1034034D01*
X2476500Y1034034D02*
G01*
X2531109Y1034034D01*
X2561081Y1129537D02*
G01*
X2561081Y1034034D01*
X2561081Y1129537D02*
G01*
X2620009Y1129537D01*
X2561081Y1084071D02*
G01*
X2597404Y1084071D01*
X2561081Y1034034D02*
G01*
X2620009Y1034034D01*
X2650236Y1129537D02*
G01*
X2650236Y1034034D01*
X2650236Y1129537D02*
G01*
X2681986Y1129537D01*
X2695702Y1124965D01*
X2704591Y1116076D01*
X2709163Y1106931D01*
X2713736Y1093215D01*
X2713736Y1070610D01*
X2709163Y1056894D01*
X2704591Y1047750D01*
X2695702Y1038605D01*
X2681986Y1034034D01*
X2650236Y1034034D01*
X2859277Y1129537D02*
G01*
X2813811Y1066037D01*
X2881884Y1066037D01*
X2859277Y1129537D02*
G01*
X2859277Y1034034D01*
X2971800Y1129537D02*
G01*
X2971800Y1034034D01*
X2971800Y1034034D02*
G01*
X3026409Y1034034D01*
X3056381Y1129537D02*
G01*
X3056381Y1034034D01*
X3056381Y1129537D02*
G01*
X3115309Y1129537D01*
X3056381Y1084071D02*
G01*
X3092704Y1084071D01*
X3056381Y1034034D02*
G01*
X3115309Y1034034D01*
X3145536Y1129537D02*
G01*
X3145536Y1034034D01*
X3145536Y1129537D02*
G01*
X3177286Y1129537D01*
X3191002Y1124965D01*
X3199891Y1116076D01*
X3204463Y1106931D01*
X3209036Y1093215D01*
X3209036Y1070610D01*
X3204463Y1056894D01*
X3199891Y1047750D01*
X3191002Y1038605D01*
X3177286Y1034034D01*
X3145536Y1034034D01*
X3318256Y1129537D02*
G01*
X3368040Y1129537D01*
X3340861Y1093215D01*
X3354577Y1093215D01*
X3363722Y1088644D01*
X3368040Y1084071D01*
X3372611Y1070610D01*
X3372611Y1061465D01*
X3368040Y1047750D01*
X3359150Y1038605D01*
X3345434Y1034034D01*
X3331718Y1034034D01*
X3318256Y1038605D01*
X3313684Y1043178D01*
X3309111Y1052321D01*
X3467100Y1129537D02*
G01*
X3467100Y1034034D01*
X3467100Y1034034D02*
G01*
X3521709Y1034034D01*
X3551681Y1129537D02*
G01*
X3551681Y1034034D01*
X3551681Y1129537D02*
G01*
X3610609Y1129537D01*
X3551681Y1084071D02*
G01*
X3588004Y1084071D01*
X3551681Y1034034D02*
G01*
X3610609Y1034034D01*
X3640836Y1129537D02*
G01*
X3640836Y1034034D01*
X3640836Y1129537D02*
G01*
X3672586Y1129537D01*
X3686302Y1124965D01*
X3695191Y1116076D01*
X3699763Y1106931D01*
X3704336Y1093215D01*
X3704336Y1070610D01*
X3699763Y1056894D01*
X3695191Y1047750D01*
X3686302Y1038605D01*
X3672586Y1034034D01*
X3640836Y1034034D01*
X3808984Y1106931D02*
G01*
X3808984Y1111504D01*
X3813556Y1120394D01*
X3817874Y1124965D01*
X3827018Y1129537D01*
X3845306Y1129537D01*
X3854450Y1124965D01*
X3859022Y1120394D01*
X3863340Y1111504D01*
X3863340Y1102360D01*
X3859022Y1093215D01*
X3849877Y1079500D01*
X3804411Y1034034D01*
X3867911Y1034034D01*
X3987800Y1129537D02*
G01*
X3987800Y1034034D01*
X3987800Y1034034D02*
G01*
X4042409Y1034034D01*
X4072381Y1129537D02*
G01*
X4072381Y1034034D01*
X4072381Y1129537D02*
G01*
X4131309Y1129537D01*
X4072381Y1084071D02*
G01*
X4108704Y1084071D01*
X4072381Y1034034D02*
G01*
X4131309Y1034034D01*
X4161536Y1129537D02*
G01*
X4161536Y1034034D01*
X4161536Y1129537D02*
G01*
X4193286Y1129537D01*
X4207002Y1124965D01*
X4215891Y1116076D01*
X4220463Y1106931D01*
X4225036Y1093215D01*
X4225036Y1070610D01*
X4220463Y1056894D01*
X4215891Y1047750D01*
X4207002Y1038605D01*
X4193286Y1034034D01*
X4161536Y1034034D01*
X4325111Y1111504D02*
G01*
X4334256Y1116076D01*
X4347718Y1129537D01*
X4347718Y1034034D01*
X1995424Y5762244D02*
G01*
X2036318Y5689600D01*
X2077465Y5762244D01*
X2249424Y5762244D02*
G01*
X2290318Y5689600D01*
X2331465Y5762244D01*
X2503424Y5762244D02*
G01*
X2544318Y5689600D01*
X2585465Y5762244D01*
X2757424Y5762244D02*
G01*
X2798318Y5689600D01*
X2839465Y5762244D01*
X3011424Y5762244D02*
G01*
X3052318Y5689600D01*
X3093465Y5762244D01*
X3265424Y5762244D02*
G01*
X3306318Y5689600D01*
X3347465Y5762244D01*
X3519424Y5762244D02*
G01*
X3560318Y5689600D01*
X3601465Y5762244D01*
X4470400Y1129537D02*
G01*
X4470400Y1034034D01*
X4470400Y1034034D02*
G01*
X4525009Y1034034D01*
X4554981Y1129537D02*
G01*
X4554981Y1034034D01*
X4554981Y1129537D02*
G01*
X4613909Y1129537D01*
X4554981Y1084071D02*
G01*
X4591304Y1084071D01*
X4554981Y1034034D02*
G01*
X4613909Y1034034D01*
X4644136Y1129537D02*
G01*
X4644136Y1034034D01*
X4644136Y1129537D02*
G01*
X4675886Y1129537D01*
X4689602Y1124965D01*
X4698491Y1116076D01*
X4703063Y1106931D01*
X4707636Y1093215D01*
X4707636Y1070610D01*
X4703063Y1056894D01*
X4698491Y1047750D01*
X4689602Y1038605D01*
X4675886Y1034034D01*
X4644136Y1034034D01*
X4834890Y1129537D02*
G01*
X4821174Y1124965D01*
X4812284Y1111504D01*
X4807711Y1088644D01*
X4807711Y1075181D01*
X4812284Y1052321D01*
X4821174Y1038605D01*
X4834890Y1034034D01*
X4844034Y1034034D01*
X4857750Y1038605D01*
X4866640Y1052321D01*
X4871211Y1075181D01*
X4871211Y1088644D01*
X4866640Y1111504D01*
X4857750Y1124965D01*
X4844034Y1129537D01*
X4834890Y1129537D01*
X1531355Y4672825D02*
G01*
X1531355Y4600181D01*
X1526783Y4586465D01*
X1522211Y4581893D01*
X1513067Y4577321D01*
X1504177Y4577321D01*
X1495033Y4581893D01*
X1490461Y4586465D01*
X1485889Y4600181D01*
X1485889Y4609325D01*
X1565899Y4650219D02*
G01*
X1565899Y4654791D01*
X1570471Y4663681D01*
X1575043Y4668253D01*
X1584187Y4672825D01*
X1602221Y4672825D01*
X1611365Y4668253D01*
X1615937Y4663681D01*
X1620509Y4654791D01*
X1620509Y4645647D01*
X1615937Y4636503D01*
X1606793Y4622787D01*
X1561327Y4577321D01*
X1625081Y4577321D01*
X3773424Y5762244D02*
G01*
X3814318Y5689600D01*
X3855465Y5762244D01*
X1689084Y4482345D02*
G01*
X1689084Y4386841D01*
X1689084Y4482345D02*
G01*
X1720834Y4482345D01*
X1734550Y4477773D01*
X1743694Y4468629D01*
X1748266Y4459739D01*
X1752838Y4446023D01*
X1752838Y4423417D01*
X1748266Y4409701D01*
X1743694Y4400557D01*
X1734550Y4391413D01*
X1720834Y4386841D01*
X1689084Y4386841D01*
X1846310Y4468629D02*
G01*
X1837166Y4477773D01*
X1823704Y4482345D01*
X1805416Y4482345D01*
X1791700Y4477773D01*
X1782810Y4468629D01*
X1782810Y4459739D01*
X1787382Y4450595D01*
X1791700Y4446023D01*
X1800844Y4441451D01*
X1828276Y4432307D01*
X1837166Y4427735D01*
X1841738Y4423417D01*
X1846310Y4414273D01*
X1846310Y4400557D01*
X1837166Y4391413D01*
X1823704Y4386841D01*
X1805416Y4386841D01*
X1791700Y4391413D01*
X1782810Y4400557D01*
X1876282Y4464311D02*
G01*
X1885426Y4468629D01*
X1899142Y4482345D01*
X1899142Y4386841D01*
X740407Y215137D02*
G01*
X694941Y215137D01*
X690369Y174244D01*
X694941Y178815D01*
X708403Y183387D01*
X722119Y183387D01*
X735835Y178815D01*
X744979Y169671D01*
X749551Y156210D01*
X749551Y147065D01*
X744979Y133350D01*
X735835Y124205D01*
X722119Y119634D01*
X708403Y119634D01*
X694941Y124205D01*
X690369Y128778D01*
X685797Y137921D01*
X779523Y215137D02*
G01*
X815845Y119634D01*
X852167Y215137D02*
G01*
X815845Y119634D01*
X794763Y431037D02*
G01*
X794763Y358394D01*
X790191Y344678D01*
X785619Y340105D01*
X776475Y335534D01*
X767585Y335534D01*
X758441Y340105D01*
X753869Y344678D01*
X749297Y358394D01*
X749297Y367537D01*
X824735Y413004D02*
G01*
X833879Y417576D01*
X847595Y431037D01*
X847595Y335534D01*
X2908300Y242315D02*
G01*
X2908300Y133350D01*
X2908300Y242315D02*
G01*
X2955036Y242315D01*
X2970529Y237236D01*
X2975863Y231902D01*
X2980943Y221487D01*
X2980943Y205994D01*
X2975863Y195579D01*
X2970529Y190500D01*
X2955036Y185165D01*
X2908300Y185165D01*
X3056890Y242315D02*
G01*
X3015234Y133350D01*
X3056890Y242315D02*
G01*
X3098545Y133350D01*
X3030981Y169671D02*
G01*
X3082797Y169671D01*
X3132836Y242315D02*
G01*
X3132836Y133350D01*
X3132836Y242315D02*
G01*
X3179572Y242315D01*
X3195065Y237236D01*
X3200400Y231902D01*
X3205479Y221487D01*
X3205479Y211073D01*
X3200400Y200660D01*
X3195065Y195579D01*
X3179572Y190500D01*
X3132836Y190500D01*
X3169158Y190500D02*
G01*
X3205479Y133350D01*
X3276091Y242315D02*
G01*
X3276091Y133350D01*
X3239770Y242315D02*
G01*
X3312413Y242315D01*
X3426713Y242315D02*
G01*
X3426713Y133350D01*
X3426713Y242315D02*
G01*
X3499611Y133350D01*
X3499611Y242315D02*
G01*
X3499611Y133350D01*
X3533902Y242315D02*
G01*
X3533902Y164337D01*
X3538981Y148844D01*
X3549395Y138429D01*
X3564890Y133350D01*
X3575304Y133350D01*
X3591052Y138429D01*
X3601465Y148844D01*
X3606545Y164337D01*
X3606545Y242315D01*
X3640836Y242315D02*
G01*
X3640836Y133350D01*
X3640836Y242315D02*
G01*
X3682491Y133350D01*
X3723893Y242315D02*
G01*
X3682491Y133350D01*
X3723893Y242315D02*
G01*
X3723893Y133350D01*
X3838193Y221487D02*
G01*
X3848608Y226821D01*
X3864356Y242315D01*
X3864356Y133350D01*
X3898645Y221487D02*
G01*
X3909059Y226821D01*
X3924554Y242315D01*
X3924554Y133350D01*
X3963924Y216407D02*
G01*
X3963924Y221487D01*
X3969258Y231902D01*
X3974338Y237236D01*
X3984752Y242315D01*
X4005579Y242315D01*
X4015993Y237236D01*
X4021074Y231902D01*
X4026408Y221487D01*
X4026408Y211073D01*
X4021074Y200660D01*
X4010659Y185165D01*
X3958843Y133350D01*
X4031488Y133350D01*
X4065777Y221487D02*
G01*
X4076191Y226821D01*
X4091940Y242315D01*
X4091940Y133350D01*
X4126229Y180086D02*
G01*
X4219702Y180086D01*
X4284979Y242315D02*
G01*
X4269486Y237236D01*
X4259072Y221487D01*
X4253991Y195579D01*
X4253991Y180086D01*
X4259072Y153923D01*
X4269486Y138429D01*
X4284979Y133350D01*
X4295393Y133350D01*
X4311141Y138429D01*
X4321556Y153923D01*
X4326636Y180086D01*
X4326636Y195579D01*
X4321556Y221487D01*
X4311141Y237236D01*
X4295393Y242315D01*
X4284979Y242315D01*
X4360925Y221487D02*
G01*
X4371340Y226821D01*
X4386834Y242315D01*
X4386834Y133350D01*
X4452365Y242315D02*
G01*
X4436872Y237236D01*
X4426458Y221487D01*
X4421124Y195579D01*
X4421124Y180086D01*
X4426458Y153923D01*
X4436872Y138429D01*
X4452365Y133350D01*
X4462779Y133350D01*
X4478274Y138429D01*
X4488688Y153923D01*
X4494022Y180086D01*
X4494022Y195579D01*
X4488688Y221487D01*
X4478274Y237236D01*
X4462779Y242315D01*
X4452365Y242315D01*
X4528311Y221487D02*
G01*
X4538725Y226821D01*
X4554220Y242315D01*
X4554220Y133350D01*
X4668520Y242315D02*
G01*
X4710175Y133350D01*
X4751577Y242315D02*
G01*
X4710175Y133350D01*
X4785868Y221487D02*
G01*
X4796281Y226821D01*
X4812029Y242315D01*
X4812029Y133350D01*
X4851400Y159257D02*
G01*
X4846320Y153923D01*
X4851400Y148844D01*
X4856479Y153923D01*
X4851400Y159257D01*
X4896104Y216407D02*
G01*
X4896104Y221487D01*
X4901184Y231902D01*
X4906518Y237236D01*
X4916931Y242315D01*
X4937759Y242315D01*
X4947920Y237236D01*
X4953254Y231902D01*
X4958334Y221487D01*
X4958334Y211073D01*
X4953254Y200660D01*
X4942840Y185165D01*
X4890770Y133350D01*
X4963668Y133350D01*
X2908300Y432815D02*
G01*
X2908300Y323850D01*
X2980943Y432815D02*
G01*
X2980943Y323850D01*
X2908300Y381000D02*
G01*
X2980943Y381000D01*
X3077718Y432815D02*
G01*
X3025647Y432815D01*
X3020568Y386079D01*
X3025647Y391160D01*
X3041395Y396494D01*
X3056890Y396494D01*
X3072384Y391160D01*
X3082797Y381000D01*
X3088131Y365252D01*
X3088131Y354837D01*
X3082797Y339344D01*
X3072384Y328929D01*
X3056890Y323850D01*
X3041395Y323850D01*
X3025647Y328929D01*
X3020568Y334010D01*
X3015234Y344423D01*
X3153409Y432815D02*
G01*
X3137915Y427736D01*
X3127502Y411987D01*
X3122422Y386079D01*
X3122422Y370586D01*
X3127502Y344423D01*
X3137915Y328929D01*
X3153409Y323850D01*
X3163824Y323850D01*
X3179572Y328929D01*
X3189986Y344423D01*
X3195065Y370586D01*
X3195065Y386079D01*
X3189986Y411987D01*
X3179572Y427736D01*
X3163824Y432815D01*
X3153409Y432815D01*
X3260597Y432815D02*
G01*
X3244850Y427736D01*
X3234690Y411987D01*
X3229356Y386079D01*
X3229356Y370586D01*
X3234690Y344423D01*
X3244850Y328929D01*
X3260597Y323850D01*
X3271011Y323850D01*
X3286506Y328929D01*
X3296920Y344423D01*
X3302000Y370586D01*
X3302000Y386079D01*
X3296920Y411987D01*
X3286506Y427736D01*
X3271011Y432815D01*
X3260597Y432815D01*
X3416300Y432815D02*
G01*
X3416300Y323850D01*
X3416300Y323850D02*
G01*
X3478784Y323850D01*
X3554729Y432815D02*
G01*
X3513074Y323850D01*
X3554729Y432815D02*
G01*
X3596131Y323850D01*
X3528568Y360171D02*
G01*
X3580638Y360171D01*
X3630422Y432815D02*
G01*
X3630422Y323850D01*
X3630422Y432815D02*
G01*
X3677158Y432815D01*
X3692906Y427736D01*
X3697986Y422402D01*
X3703320Y411987D01*
X3703320Y401573D01*
X3697986Y391160D01*
X3692906Y386079D01*
X3677158Y381000D01*
X3630422Y381000D02*
G01*
X3677158Y381000D01*
X3692906Y375665D01*
X3697986Y370586D01*
X3703320Y360171D01*
X3703320Y344423D01*
X3697986Y334010D01*
X3692906Y328929D01*
X3677158Y323850D01*
X3630422Y323850D01*
X3817620Y432815D02*
G01*
X3817620Y323850D01*
X3851909Y432815D02*
G01*
X3851909Y323850D01*
X3851909Y432815D02*
G01*
X3924554Y323850D01*
X3924554Y432815D02*
G01*
X3924554Y323850D01*
X3958843Y432815D02*
G01*
X3958843Y323850D01*
X3958843Y432815D02*
G01*
X3995165Y432815D01*
X4010659Y427736D01*
X4021074Y417321D01*
X4026408Y406907D01*
X4031488Y391160D01*
X4031488Y365252D01*
X4026408Y349757D01*
X4021074Y339344D01*
X4010659Y328929D01*
X3995165Y323850D01*
X3958843Y323850D01*
X4065777Y432815D02*
G01*
X4065777Y323850D01*
X4178045Y406907D02*
G01*
X4172965Y417321D01*
X4162552Y427736D01*
X4152138Y432815D01*
X4131309Y432815D01*
X4120895Y427736D01*
X4110481Y417321D01*
X4105402Y406907D01*
X4100068Y391160D01*
X4100068Y365252D01*
X4105402Y349757D01*
X4110481Y339344D01*
X4120895Y328929D01*
X4131309Y323850D01*
X4152138Y323850D01*
X4162552Y328929D01*
X4172965Y339344D01*
X4178045Y349757D01*
X4253991Y432815D02*
G01*
X4212336Y323850D01*
X4253991Y432815D02*
G01*
X4295393Y323850D01*
X4227829Y360171D02*
G01*
X4279900Y360171D01*
X4366259Y432815D02*
G01*
X4366259Y323850D01*
X4329684Y432815D02*
G01*
X4402581Y432815D01*
X4467859Y432815D02*
G01*
X4457700Y427736D01*
X4447286Y417321D01*
X4441952Y406907D01*
X4436872Y391160D01*
X4436872Y365252D01*
X4441952Y349757D01*
X4447286Y339344D01*
X4457700Y328929D01*
X4467859Y323850D01*
X4488688Y323850D01*
X4499102Y328929D01*
X4509515Y339344D01*
X4514850Y349757D01*
X4519929Y365252D01*
X4519929Y391160D01*
X4514850Y406907D01*
X4509515Y417321D01*
X4499102Y427736D01*
X4488688Y432815D01*
X4467859Y432815D01*
X4554220Y432815D02*
G01*
X4554220Y323850D01*
X4554220Y432815D02*
G01*
X4600956Y432815D01*
X4616450Y427736D01*
X4621784Y422402D01*
X4626863Y411987D01*
X4626863Y401573D01*
X4621784Y391160D01*
X4616450Y386079D01*
X4600956Y381000D01*
X4554220Y381000D01*
X4590541Y381000D02*
G01*
X4626863Y323850D01*
X4734052Y417321D02*
G01*
X4723638Y427736D01*
X4707890Y432815D01*
X4687315Y432815D01*
X4671568Y427736D01*
X4661154Y417321D01*
X4661154Y406907D01*
X4666488Y396494D01*
X4671568Y391160D01*
X4681981Y386079D01*
X4713224Y375665D01*
X4723638Y370586D01*
X4728718Y365252D01*
X4734052Y354837D01*
X4734052Y339344D01*
X4723638Y328929D01*
X4707890Y323850D01*
X4687315Y323850D01*
X4671568Y328929D01*
X4661154Y339344D01*
X2908294Y623315D02*
G01*
X2908294Y514350D01*
X2908294Y623315D02*
G01*
X2955030Y623315D01*
X2970524Y618236D01*
X2975858Y612902D01*
X2980938Y602487D01*
X2980938Y586994D01*
X2975858Y576579D01*
X2970524Y571500D01*
X2955030Y566165D01*
X2908294Y566165D01*
X3015228Y623315D02*
G01*
X3015228Y514350D01*
X3015228Y623315D02*
G01*
X3061964Y623315D01*
X3077712Y618236D01*
X3082792Y612902D01*
X3088126Y602487D01*
X3088126Y592073D01*
X3082792Y581660D01*
X3077712Y576579D01*
X3061964Y571500D01*
X3015228Y571500D01*
X3051804Y571500D02*
G01*
X3088126Y514350D01*
X3153404Y623315D02*
G01*
X3143244Y618236D01*
X3132830Y607821D01*
X3127496Y597407D01*
X3122416Y581660D01*
X3122416Y555752D01*
X3127496Y540257D01*
X3132830Y529844D01*
X3143244Y519429D01*
X3153404Y514350D01*
X3174232Y514350D01*
X3184646Y519429D01*
X3195060Y529844D01*
X3200394Y540257D01*
X3205474Y555752D01*
X3205474Y581660D01*
X3200394Y597407D01*
X3195060Y607821D01*
X3184646Y618236D01*
X3174232Y623315D01*
X3153404Y623315D01*
X3276086Y623315D02*
G01*
X3276086Y514350D01*
X3239764Y623315D02*
G01*
X3312408Y623315D01*
X3377940Y623315D02*
G01*
X3367526Y618236D01*
X3357112Y607821D01*
X3352032Y597407D01*
X3346698Y581660D01*
X3346698Y555752D01*
X3352032Y540257D01*
X3357112Y529844D01*
X3367526Y519429D01*
X3377940Y514350D01*
X3398768Y514350D01*
X3409182Y519429D01*
X3419596Y529844D01*
X3424676Y540257D01*
X3430010Y555752D01*
X3430010Y581660D01*
X3424676Y597407D01*
X3419596Y607821D01*
X3409182Y618236D01*
X3398768Y623315D01*
X3377940Y623315D01*
X3464300Y623315D02*
G01*
X3464300Y514350D01*
X3464300Y623315D02*
G01*
X3536944Y514350D01*
X3536944Y623315D02*
G01*
X3536944Y514350D01*
X3571234Y623315D02*
G01*
X3571234Y514350D01*
X3571234Y623315D02*
G01*
X3638798Y623315D01*
X3571234Y571500D02*
G01*
X3612890Y571500D01*
X3571234Y514350D02*
G01*
X3638798Y514350D01*
X3673088Y623315D02*
G01*
X3673088Y514350D01*
X3673088Y623315D02*
G01*
X3714744Y514350D01*
X3756146Y623315D02*
G01*
X3714744Y514350D01*
X3756146Y623315D02*
G01*
X3756146Y514350D01*
X3832092Y623315D02*
G01*
X3790436Y514350D01*
X3832092Y623315D02*
G01*
X3873494Y514350D01*
X3806184Y550671D02*
G01*
X3858000Y550671D01*
X4060692Y607821D02*
G01*
X4050278Y618236D01*
X4034784Y623315D01*
X4013956Y623315D01*
X3998208Y618236D01*
X3987794Y607821D01*
X3987794Y597407D01*
X3993128Y586994D01*
X3998208Y581660D01*
X4008622Y576579D01*
X4039864Y566165D01*
X4050278Y561086D01*
X4055358Y555752D01*
X4060692Y545337D01*
X4060692Y529844D01*
X4050278Y519429D01*
X4034784Y514350D01*
X4013956Y514350D01*
X3998208Y519429D01*
X3987794Y529844D01*
X4131304Y623315D02*
G01*
X4131304Y514350D01*
X4094982Y623315D02*
G01*
X4167626Y623315D01*
X4243572Y623315D02*
G01*
X4201916Y514350D01*
X4243572Y623315D02*
G01*
X4284974Y514350D01*
X4217664Y550671D02*
G01*
X4269480Y550671D01*
X4319264Y623315D02*
G01*
X4319264Y514350D01*
X4319264Y623315D02*
G01*
X4360920Y514350D01*
X4402576Y623315D02*
G01*
X4360920Y514350D01*
X4402576Y623315D02*
G01*
X4402576Y514350D01*
X4436866Y623315D02*
G01*
X4436866Y514350D01*
X4436866Y623315D02*
G01*
X4483602Y623315D01*
X4499096Y618236D01*
X4504430Y612902D01*
X4509510Y602487D01*
X4509510Y586994D01*
X4504430Y576579D01*
X4499096Y571500D01*
X4483602Y566165D01*
X4436866Y566165D01*
X2031992Y405637D02*
G01*
X2031992Y310134D01*
X2031992Y405637D02*
G01*
X2063742Y405637D01*
X2077458Y401065D01*
X2086602Y392176D01*
X2091174Y383031D01*
X2095746Y369315D01*
X2095746Y346710D01*
X2091174Y332994D01*
X2086602Y323850D01*
X2077458Y314705D01*
X2063742Y310134D01*
X2031992Y310134D01*
X2125718Y387604D02*
G01*
X2134608Y392176D01*
X2148324Y405637D01*
X2148324Y310134D01*
X1650994Y405637D02*
G01*
X1650994Y310134D01*
X1650994Y405637D02*
G01*
X1691888Y405637D01*
X1705604Y401065D01*
X1710176Y396494D01*
X1714748Y387604D01*
X1714748Y378460D01*
X1710176Y369315D01*
X1705604Y364744D01*
X1691888Y360171D01*
X1650994Y360171D01*
X1682744Y360171D02*
G01*
X1714748Y310134D01*
X1744720Y387604D02*
G01*
X1753610Y392176D01*
X1767326Y405637D01*
X1767326Y310134D01*
G36*
X0Y5842000D02*
G01*
X0Y5588000D01*
X254000Y5842000D01*
G37*
G36*
X0Y254000D02*
G01*
X0Y0D01*
X254000Y0D01*
G37*
G36*
X5842000Y254000D02*
G01*
X5588000Y0D01*
X5842000Y0D01*
G37*
G36*
X5588000Y5842000D02*
G01*
X5842000Y5588000D01*
X5842000Y5842000D01*
G37*
D11*
X2032000Y4254500D02*
G01*
X2032000Y4025900D01*
X1155700Y3149600D01*
X1155700Y2286000D01*
X3810000Y4241800D02*
G01*
X3810000Y4013200D01*
X4660900Y3162300D01*
X4660887Y2273294D01*
X3556000Y4254500D02*
G01*
X3556000Y3670300D01*
X4165600Y3060700D01*
X4165587Y2273294D01*
X3302000Y4254500D02*
G01*
X3302000Y3327400D01*
X3670300Y2959100D01*
X3670287Y2273294D01*
X3175000Y2273300D02*
G01*
X3175000Y2857500D01*
X3048000Y2984500D01*
X3048000Y4318000D01*
X2667000Y2285745D02*
G01*
X2667248Y2857754D01*
X2794000Y2984500D01*
X2794000Y4318000D01*
X2540000Y4254500D02*
G01*
X2540000Y3327400D01*
X2146300Y2933700D01*
X2146300Y2285994D01*
X2286000Y4254500D02*
G01*
X2286000Y3670300D01*
X1651000Y3035300D01*
X1651000Y2273294D01*
X1791972Y276860D02*
G01*
X1791972Y104139D01*
X1791972Y104139D02*
G01*
X1939292Y104139D01*
X1791972Y276860D02*
G01*
X1939292Y276860D01*
X1997712Y104139D02*
G01*
X2114552Y104139D01*
X2000252Y276860D02*
G01*
X2114552Y276860D01*
X2114552Y276860D02*
G01*
X2150112Y241300D01*
X2150112Y139700D01*
X2114552Y104139D01*
D12*
X1960882Y231139D02*
G01*
X1960882Y152400D01*
X1960882Y191295D02*
G01*
X1978418Y191295D01*
D10*
X1570281Y256560D02*
G01*
X1474393Y256560D01*
X1474393Y124439D01*
X1570281Y124439D01*
X1655523Y256560D02*
G01*
X1751411Y256560D01*
X1751411Y124439D01*
X1655523Y124439D01*
D11*
G75*
G01
X4479392Y2209800D02*
G03X4479392Y2209800I-12700J0D01*
G75*
G01
X3979393Y2209800D02*
G03X3979393Y2209800I-12700J0D01*
G75*
G01
X3479394Y2209800D02*
G03X3479394Y2209800I-12700J0D01*
G75*
G01
X2979395Y2209800D02*
G03X2979395Y2209800I-12700J0D01*
G75*
G01
X2479396Y2209800D02*
G03X2479396Y2209800I-12700J0D01*
G75*
G01
X1979397Y2209800D02*
G03X1979397Y2209800I-12700J0D01*
G75*
G01
X1479398Y2209800D02*
G03X1479398Y2209800I-12700J0D01*
G75*
G01
X979399Y2209800D02*
G03X979399Y2209800I-12700J0D01*
X4410887Y2271293D02*
G01*
X4910886Y2271293D01*
X4910886Y1271295D01*
X4410887Y1271295D01*
X4410887Y2271293D01*
X3910888Y2271293D02*
G01*
X4410887Y2271293D01*
X4410887Y1271295D01*
X3910888Y1271295D01*
X3910888Y2271293D01*
X3410889Y2271293D02*
G01*
X3910888Y2271293D01*
X3910888Y1271295D01*
X3410889Y1271295D01*
X3410889Y2271293D01*
X2910890Y2271293D02*
G01*
X3410889Y2271293D01*
X3410889Y1271295D01*
X2910890Y1271295D01*
X2910890Y2271293D01*
X2410891Y2271293D02*
G01*
X2910890Y2271293D01*
X2910890Y1271295D01*
X2410891Y1271295D01*
X2410891Y2271293D01*
X1910892Y2271293D02*
G01*
X2410891Y2271293D01*
X2410891Y1271295D01*
X1910892Y1271295D01*
X1910892Y2271293D01*
X1410893Y2271293D02*
G01*
X1910892Y2271293D01*
X1910892Y1271295D01*
X1410893Y1271295D01*
X1410893Y2271293D01*
X910894Y2271293D02*
G01*
X1410893Y2271293D01*
X1410893Y1271295D01*
X910894Y1271295D01*
X910894Y2271293D01*
X1496187Y5606592D02*
G01*
X4346194Y5606592D01*
X4346194Y4756581D01*
X1496187Y4756581D01*
X1496187Y5606592D01*
X889000Y635000D02*
G01*
X1397000Y635000D01*
X1397000Y127000D01*
X889000Y127000D01*
X889000Y635000D01*
M02*
