M48
METRIC,LZ,000.000
;FILE_FORMAT=3:3
;TYPE=PLATED
;Layer: PTH_Through
;EasyEDA v6.5.34, 2023-09-13 23:46:03
;50f54edec40846078001aba480b7569d,5a6b42c53f6a479593ecc07194224c93,10
;Gerber Generator version 0.2
;Holesize 1 = 0.305 mm
T01C0.305
;Holesize 2 = 0.310 mm
T02C0.310
;Holesize 3 = 0.701 mm
T03C0.701
;Holesize 4 = 0.915 mm
T04C0.915
;Holesize 5 = 1.101 mm
T05C1.101
;Holesize 6 = 1.301 mm
T06C1.301
;Holesize 7 = 3.000 mm
T07C3.000
%
G05
G90
T01
X009398Y018923
X009398Y013970
X033020Y038100
X025400Y038100
X034290Y047625
X034290Y027432
X036830Y047625
X036832Y035179
X039748Y035179
X039751Y047625
X015748Y035179
X015875Y047625
X013208Y047625
X013208Y035179
X010160Y001143
X007620Y002540
T02
X038100Y016510
X048133Y016510
X018161Y016510
T03
X046609Y021463
X046609Y013963
X046609Y016463
X046609Y018963
X041609Y021463
X041609Y013963
X041609Y016463
X041609Y018963
X036609Y021463
X036609Y013963
X036609Y016463
X036609Y018963
X031609Y021463
X031609Y013963
X031609Y016463
X031609Y018963
X026609Y021463
X026609Y013963
X026609Y016463
X026609Y018963
X021609Y021463
X021609Y013963
X021609Y016463
X021609Y018963
X016609Y018963
X016609Y016463
X016609Y013963
X016609Y021463
X011609Y013963
X011609Y016463
X011609Y018963
X011609Y021463
T04
X027940Y045720
X027940Y043180
X025400Y045720
X025400Y043180
X020320Y043180
X020320Y045720
X033020Y045720
X033020Y043180
X030480Y045720
X030480Y043180
X038100Y043180
X038100Y045593
X035560Y043180
X035560Y045720
X022860Y043180
X022860Y045720
T05
X012700Y002540
X012700Y005080
X010160Y005080
X010160Y002540
T06
X038128Y054066
X035588Y054066
X033048Y054066
X030508Y054066
X027968Y054066
X025428Y054066
X022888Y054066
X020348Y054066
T07
X003810Y054610
X054610Y054610
X054610Y003810
X003810Y003810
M30
