G04 Layer: BottomLayer*
G04 Panelize: Stamp Hole, Column: 2, Row: 2, Board Size: 58.42mm x 58.42mm, Panelized Board Size: 122.84mm x 122.84mm*
G04 EasyEDA v6.5.34, 2023-09-13 23:46:03*
G04 50f54edec40846078001aba480b7569d,5a6b42c53f6a479593ecc07194224c93,10*
G04 Gerber Generator version 0.2*
G04 Scale: 100 percent, Rotated: No, Reflected: No *
G04 Dimensions in millimeters *
G04 leading zeros omitted , absolute positions ,4 integer and 5 decimal *
%FSLAX45Y45*%
%MOMM*%

%AMMACRO1*21,1,$1,$2,0,0,$3*%
%ADD10C,0.1524*%
%ADD11C,0.5000*%
%ADD12C,0.2540*%
%ADD13MACRO1,1X1.1X-90.0000*%
%ADD14O,0.5999988X1.7999964*%
%ADD15MACRO1,0.8X0.9X90.0000*%
%ADD16C,1.0000*%
%ADD17C,5.0000*%
%ADD18C,1.3000*%
%ADD19C,1.5240*%
%ADD20C,2.0000*%
%ADD21C,1.8000*%
%ADD22C,0.6096*%
%ADD23C,0.6200*%
%ADD24C,0.0174*%

%LPD*%
G36*
X5805932Y25908D02*
G01*
X5166360Y25958D01*
X5162448Y26720D01*
X5159146Y28956D01*
X5156962Y32258D01*
X5156200Y36118D01*
X5155438Y32258D01*
X5153202Y28956D01*
X5149900Y26720D01*
X5146040Y25958D01*
X36068Y26416D01*
X32156Y27178D01*
X28905Y29362D01*
X26670Y32664D01*
X25908Y36576D01*
X25908Y5805932D01*
X26670Y5809843D01*
X28905Y5813094D01*
X32156Y5815330D01*
X36068Y5816092D01*
X5805932Y5816092D01*
X5809843Y5815330D01*
X5813094Y5813094D01*
X5815330Y5809843D01*
X5816092Y5805932D01*
X5816092Y36068D01*
X5815330Y32207D01*
X5813094Y28905D01*
X5809843Y26670D01*
G37*

%LPC*%
G36*
X105410Y5473700D02*
G01*
X368300Y5473700D01*
X368300Y5736386D01*
X352145Y5735370D01*
X329285Y5732018D01*
X306781Y5726734D01*
X284835Y5719572D01*
X263499Y5710631D01*
X243027Y5699912D01*
X223520Y5687568D01*
X205130Y5673598D01*
X187960Y5658104D01*
X172161Y5641289D01*
X157784Y5623153D01*
X144983Y5603900D01*
X133858Y5583682D01*
X124460Y5562549D01*
X116890Y5540756D01*
X111150Y5518353D01*
X107289Y5495594D01*
G37*
G36*
X1016000Y57962D02*
G01*
X1025804Y58826D01*
X1035253Y61366D01*
X1044194Y65481D01*
X1052220Y71120D01*
X1059180Y78079D01*
X1064818Y86106D01*
X1068933Y95046D01*
X1071473Y104495D01*
X1072337Y114300D01*
X1071473Y124104D01*
X1068933Y133553D01*
X1067866Y135890D01*
X1066901Y140208D01*
X1066901Y144018D01*
X1067562Y147523D01*
X1069390Y150622D01*
X1072184Y152908D01*
X1078077Y156159D01*
X1089863Y164693D01*
X1100480Y174650D01*
X1109776Y185877D01*
X1117549Y198170D01*
X1123746Y211328D01*
X1128268Y225196D01*
X1130960Y239471D01*
X1131874Y254000D01*
X1130960Y268528D01*
X1128268Y282803D01*
X1123746Y296672D01*
X1117549Y309829D01*
X1109776Y322122D01*
X1100480Y333349D01*
X1089863Y343306D01*
X1078077Y351840D01*
X1065326Y358851D01*
X1051814Y364236D01*
X1037691Y367842D01*
X1023264Y369671D01*
X1008735Y369671D01*
X994308Y367842D01*
X980186Y364236D01*
X966673Y358851D01*
X953922Y351840D01*
X942136Y343306D01*
X931519Y333349D01*
X922223Y322122D01*
X914450Y309829D01*
X908253Y296672D01*
X903732Y282803D01*
X901039Y268528D01*
X900125Y254000D01*
X901039Y239471D01*
X903732Y225196D01*
X908253Y211328D01*
X914450Y198170D01*
X922223Y185877D01*
X931519Y174650D01*
X942136Y164693D01*
X953922Y156159D01*
X959815Y152908D01*
X962609Y150622D01*
X964437Y147523D01*
X965098Y144018D01*
X965098Y140208D01*
X964133Y135890D01*
X963066Y133553D01*
X960526Y124104D01*
X959662Y114300D01*
X960526Y104495D01*
X963066Y95046D01*
X967181Y86106D01*
X972819Y78079D01*
X979779Y71120D01*
X987806Y65481D01*
X996746Y61366D01*
X1006195Y58826D01*
G37*
G36*
X5473700Y105562D02*
G01*
X5478322Y105664D01*
X5501284Y108051D01*
X5523992Y112369D01*
X5546242Y118618D01*
X5567934Y126644D01*
X5588812Y136499D01*
X5608828Y148031D01*
X5627827Y161239D01*
X5645607Y175971D01*
X5662117Y192125D01*
X5677204Y209600D01*
X5690819Y228295D01*
X5702757Y248107D01*
X5713018Y268782D01*
X5721553Y290271D01*
X5728208Y312369D01*
X5733034Y334975D01*
X5735929Y357936D01*
X5736336Y368300D01*
X5473700Y368300D01*
G37*
G36*
X393700Y105562D02*
G01*
X398322Y105664D01*
X421284Y108051D01*
X443992Y112369D01*
X466242Y118618D01*
X487934Y126644D01*
X508812Y136499D01*
X528828Y148031D01*
X547827Y161239D01*
X565607Y175971D01*
X582117Y192125D01*
X597204Y209600D01*
X610819Y228295D01*
X622757Y248107D01*
X633018Y268782D01*
X641553Y290271D01*
X648208Y312369D01*
X653034Y334975D01*
X655929Y357936D01*
X656336Y368300D01*
X393700Y368300D01*
G37*
G36*
X5448300Y105613D02*
G01*
X5448300Y368300D01*
X5185410Y368300D01*
X5187289Y346405D01*
X5191150Y323646D01*
X5196890Y301244D01*
X5204460Y279450D01*
X5213858Y258317D01*
X5224983Y238099D01*
X5237784Y218846D01*
X5252161Y200710D01*
X5267960Y183896D01*
X5285130Y168402D01*
X5303520Y154432D01*
X5323027Y142087D01*
X5343499Y131368D01*
X5364835Y122428D01*
X5386781Y115265D01*
X5409285Y109982D01*
X5432145Y106629D01*
G37*
G36*
X368300Y105613D02*
G01*
X368300Y368300D01*
X105410Y368300D01*
X107289Y346405D01*
X111150Y323646D01*
X116890Y301244D01*
X124460Y279450D01*
X133858Y258317D01*
X144983Y238099D01*
X157784Y218846D01*
X172161Y200710D01*
X187960Y183896D01*
X205130Y168402D01*
X223520Y154432D01*
X243027Y142087D01*
X263499Y131368D01*
X284835Y122428D01*
X306781Y115265D01*
X329285Y109982D01*
X352145Y106629D01*
G37*
G36*
X1257300Y139039D02*
G01*
X1257300Y241300D01*
X1154887Y241300D01*
X1155039Y239471D01*
X1157732Y225196D01*
X1162253Y211328D01*
X1168450Y198170D01*
X1176223Y185877D01*
X1185519Y174650D01*
X1196136Y164693D01*
X1207922Y156159D01*
X1220673Y149148D01*
X1234186Y143764D01*
X1248308Y140157D01*
G37*
G36*
X1282700Y139039D02*
G01*
X1291691Y140157D01*
X1305814Y143764D01*
X1319326Y149148D01*
X1332077Y156159D01*
X1343863Y164693D01*
X1354480Y174650D01*
X1363776Y185877D01*
X1371549Y198170D01*
X1377746Y211328D01*
X1382268Y225196D01*
X1384960Y239471D01*
X1385112Y241300D01*
X1282700Y241300D01*
G37*
G36*
X762000Y197662D02*
G01*
X771804Y198526D01*
X781253Y201066D01*
X790194Y205181D01*
X798220Y210820D01*
X805180Y217779D01*
X810818Y225806D01*
X814933Y234746D01*
X817473Y244195D01*
X818337Y254000D01*
X817473Y263804D01*
X814933Y273253D01*
X813866Y275590D01*
X812901Y279908D01*
X812901Y1335938D01*
X813663Y1339799D01*
X815898Y1343101D01*
X819200Y1345336D01*
X823061Y1346098D01*
X913892Y1346098D01*
X918210Y1345133D01*
X920546Y1344066D01*
X929995Y1341526D01*
X939800Y1340662D01*
X949604Y1341526D01*
X959053Y1344066D01*
X967994Y1348181D01*
X976020Y1353820D01*
X982980Y1360779D01*
X988618Y1368806D01*
X992733Y1377746D01*
X995273Y1387195D01*
X996137Y1397000D01*
X995273Y1406804D01*
X992733Y1416253D01*
X988618Y1425194D01*
X982980Y1433220D01*
X976020Y1440180D01*
X967994Y1445818D01*
X959053Y1449933D01*
X949604Y1452473D01*
X939800Y1453337D01*
X929995Y1452473D01*
X920546Y1449933D01*
X918210Y1448866D01*
X913892Y1447901D01*
X823061Y1447901D01*
X819200Y1448663D01*
X815898Y1450898D01*
X813663Y1454200D01*
X812901Y1458061D01*
X812901Y1831238D01*
X813663Y1835099D01*
X815898Y1838401D01*
X819200Y1840636D01*
X823061Y1841398D01*
X913892Y1841398D01*
X918210Y1840433D01*
X920546Y1839366D01*
X929995Y1836826D01*
X939800Y1835962D01*
X949604Y1836826D01*
X959053Y1839366D01*
X967994Y1843481D01*
X976020Y1849120D01*
X982980Y1856079D01*
X988618Y1864106D01*
X992733Y1873046D01*
X995273Y1882495D01*
X996137Y1892300D01*
X995273Y1902104D01*
X992733Y1911553D01*
X988618Y1920493D01*
X982980Y1928520D01*
X976020Y1935480D01*
X967994Y1941118D01*
X959053Y1945233D01*
X949604Y1947773D01*
X939800Y1948637D01*
X929995Y1947773D01*
X920546Y1945233D01*
X918210Y1944166D01*
X913892Y1943201D01*
X823061Y1943201D01*
X819200Y1943963D01*
X815898Y1946198D01*
X813663Y1949500D01*
X812901Y1953361D01*
X812901Y2687828D01*
X813663Y2691739D01*
X815898Y2694990D01*
X819200Y2697226D01*
X823061Y2697988D01*
X1075842Y2697988D01*
X1079906Y2697124D01*
X1083310Y2694736D01*
X1085443Y2691180D01*
X1087424Y2685491D01*
X1090523Y2680614D01*
X1094587Y2676499D01*
X1099515Y2673451D01*
X1104950Y2671521D01*
X1111300Y2670810D01*
X1200150Y2670810D01*
X1206449Y2671521D01*
X1211935Y2673451D01*
X1216812Y2676499D01*
X1220927Y2680614D01*
X1223975Y2685491D01*
X1226210Y2691790D01*
X1228344Y2695346D01*
X1231696Y2697734D01*
X1235710Y2698597D01*
X1254658Y2698750D01*
X1258570Y2697988D01*
X1261872Y2695803D01*
X1264107Y2692501D01*
X1264869Y2688590D01*
X1264869Y2678430D01*
X1265783Y2668270D01*
X1268272Y2658872D01*
X1272387Y2650083D01*
X1277975Y2642108D01*
X1284884Y2635199D01*
X1292860Y2629611D01*
X1301699Y2625496D01*
X1311097Y2622956D01*
X1320800Y2622143D01*
X1330502Y2622956D01*
X1339900Y2625496D01*
X1348740Y2629611D01*
X1356715Y2635199D01*
X1363573Y2642108D01*
X1369161Y2650083D01*
X1373276Y2658872D01*
X1374495Y2663291D01*
X1376527Y2667203D01*
X1379982Y2669895D01*
X1384300Y2670860D01*
X1388567Y2669895D01*
X1392072Y2667203D01*
X1394104Y2663291D01*
X1395272Y2658872D01*
X1399387Y2650083D01*
X1404975Y2642108D01*
X1411884Y2635199D01*
X1419860Y2629611D01*
X1428699Y2625496D01*
X1438097Y2622956D01*
X1447800Y2622143D01*
X1457502Y2622956D01*
X1466900Y2625496D01*
X1475740Y2629611D01*
X1483715Y2635199D01*
X1490573Y2642108D01*
X1496161Y2650083D01*
X1500276Y2658872D01*
X1501495Y2663291D01*
X1503527Y2667203D01*
X1506982Y2669895D01*
X1511300Y2670860D01*
X1515567Y2669895D01*
X1519072Y2667203D01*
X1521104Y2663291D01*
X1522272Y2658872D01*
X1526387Y2650083D01*
X1531975Y2642108D01*
X1533194Y2640888D01*
X1535430Y2637586D01*
X1536192Y2633675D01*
X1536192Y2496718D01*
X1535430Y2492806D01*
X1533194Y2489504D01*
X1357376Y2313635D01*
X1352245Y2307437D01*
X1348689Y2300732D01*
X1346504Y2293518D01*
X1345692Y2285492D01*
X1345692Y1243787D01*
X1344980Y1239977D01*
X1342898Y1236776D01*
X1339748Y1234541D01*
X1335989Y1233627D01*
X1330756Y1234694D01*
X1324406Y1235405D01*
X1318768Y1235405D01*
X1314856Y1236167D01*
X1311605Y1238351D01*
X1309370Y1241653D01*
X1308608Y1245565D01*
X1308608Y1536700D01*
X1307795Y1544726D01*
X1305610Y1551940D01*
X1302054Y1558645D01*
X1296924Y1564843D01*
X1250645Y1611172D01*
X1248613Y1614017D01*
X1247698Y1617370D01*
X1247952Y1620824D01*
X1250391Y1630578D01*
X1251712Y1643176D01*
X1251254Y1655825D01*
X1249070Y1668322D01*
X1245158Y1680362D01*
X1239570Y1691792D01*
X1232509Y1702307D01*
X1224026Y1711706D01*
X1214323Y1719884D01*
X1203553Y1726590D01*
X1191971Y1731721D01*
X1179779Y1735226D01*
X1167231Y1737004D01*
X1154531Y1737004D01*
X1141984Y1735226D01*
X1129792Y1731721D01*
X1119682Y1727250D01*
X1115771Y1726387D01*
X1111808Y1727098D01*
X1108456Y1729282D01*
X1106220Y1732584D01*
X1105408Y1736547D01*
X1105408Y1806244D01*
X1106271Y1810308D01*
X1108659Y1813712D01*
X1112215Y1815846D01*
X1116330Y1816404D01*
X1120343Y1815236D01*
X1123899Y1813306D01*
X1135837Y1808988D01*
X1148232Y1806346D01*
X1160881Y1805482D01*
X1173530Y1806346D01*
X1185926Y1808988D01*
X1197864Y1813306D01*
X1209040Y1819249D01*
X1219301Y1826717D01*
X1228445Y1835505D01*
X1236218Y1845513D01*
X1242568Y1856486D01*
X1247343Y1868271D01*
X1250391Y1880565D01*
X1251712Y1893163D01*
X1251254Y1905863D01*
X1249070Y1918309D01*
X1245158Y1930400D01*
X1239570Y1941779D01*
X1232509Y1952294D01*
X1224026Y1961692D01*
X1214323Y1969871D01*
X1203553Y1976577D01*
X1191971Y1981758D01*
X1179779Y1985213D01*
X1167231Y1986991D01*
X1154531Y1986991D01*
X1141984Y1985213D01*
X1129792Y1981758D01*
X1119682Y1977237D01*
X1115771Y1976374D01*
X1111808Y1977085D01*
X1108456Y1979269D01*
X1106220Y1982571D01*
X1105408Y1986534D01*
X1105408Y2032000D01*
X1106170Y2035860D01*
X1108405Y2039162D01*
X1125626Y2056434D01*
X1128369Y2058365D01*
X1131620Y2059330D01*
X1134973Y2059178D01*
X1148232Y2056333D01*
X1160881Y2055469D01*
X1173530Y2056333D01*
X1185926Y2058974D01*
X1197864Y2063292D01*
X1209040Y2069287D01*
X1219301Y2076704D01*
X1228394Y2085543D01*
X1236218Y2095500D01*
X1242568Y2106472D01*
X1247292Y2118258D01*
X1250391Y2130552D01*
X1251712Y2143150D01*
X1251254Y2155850D01*
X1249070Y2168347D01*
X1245158Y2180386D01*
X1239570Y2191766D01*
X1232509Y2202281D01*
X1224026Y2211730D01*
X1214272Y2219858D01*
X1203553Y2226564D01*
X1191971Y2231745D01*
X1179779Y2235250D01*
X1167231Y2236978D01*
X1154531Y2236978D01*
X1141984Y2235250D01*
X1129792Y2231745D01*
X1118209Y2226564D01*
X1107440Y2219858D01*
X1097737Y2211730D01*
X1089253Y2202281D01*
X1082192Y2191766D01*
X1076604Y2180386D01*
X1072692Y2168347D01*
X1070508Y2155850D01*
X1070051Y2143150D01*
X1071372Y2130552D01*
X1073810Y2120798D01*
X1074064Y2117293D01*
X1073150Y2113991D01*
X1071118Y2111146D01*
X1039876Y2079853D01*
X1034745Y2073605D01*
X1031189Y2066950D01*
X1029004Y2059736D01*
X1028192Y2051710D01*
X1028192Y1245565D01*
X1027430Y1241653D01*
X1025194Y1238351D01*
X1021943Y1236167D01*
X1018032Y1235405D01*
X1012342Y1235405D01*
X1006043Y1234694D01*
X1000556Y1232763D01*
X995680Y1229715D01*
X991565Y1225600D01*
X988517Y1220724D01*
X986586Y1215237D01*
X985875Y1208938D01*
X985875Y1110081D01*
X986586Y1103731D01*
X988517Y1098296D01*
X991565Y1093368D01*
X995680Y1089304D01*
X997559Y1088085D01*
X1000506Y1085291D01*
X1002131Y1081532D01*
X1002131Y1077468D01*
X1000506Y1073708D01*
X997559Y1070914D01*
X995680Y1069695D01*
X991565Y1065631D01*
X988517Y1060704D01*
X986586Y1055268D01*
X985875Y1048918D01*
X985875Y950061D01*
X986586Y943762D01*
X988517Y938276D01*
X991565Y933399D01*
X995680Y929284D01*
X1000556Y926236D01*
X1006043Y924306D01*
X1012342Y923594D01*
X1121206Y923594D01*
X1127556Y924306D01*
X1132992Y926236D01*
X1137920Y929284D01*
X1141984Y933399D01*
X1145082Y938276D01*
X1146962Y943660D01*
X1147775Y951737D01*
X1148791Y955294D01*
X1151026Y958240D01*
X1154226Y960221D01*
X1157884Y960882D01*
X1178915Y960882D01*
X1182573Y960221D01*
X1185773Y958240D01*
X1188008Y955294D01*
X1189024Y951737D01*
X1189837Y943660D01*
X1191717Y938276D01*
X1194765Y933399D01*
X1198880Y929284D01*
X1203756Y926236D01*
X1209243Y924306D01*
X1215542Y923594D01*
X1324406Y923594D01*
X1330756Y924306D01*
X1336192Y926236D01*
X1341120Y929284D01*
X1345184Y933399D01*
X1348282Y938276D01*
X1350213Y943762D01*
X1350924Y951331D01*
X1351584Y954989D01*
X1353515Y958138D01*
X1356512Y960374D01*
X1360068Y961440D01*
X1362608Y961694D01*
X1369872Y963879D01*
X1376527Y967435D01*
X1382725Y972566D01*
X1408887Y998677D01*
X1412138Y1000861D01*
X1416050Y1001623D01*
X1419961Y1000861D01*
X1423212Y998677D01*
X1449374Y972566D01*
X1455572Y967435D01*
X1462227Y963879D01*
X1469491Y961694D01*
X1472031Y961440D01*
X1475587Y960374D01*
X1478534Y958138D01*
X1480515Y954989D01*
X1481886Y943762D01*
X1483817Y938276D01*
X1486865Y933399D01*
X1490980Y929284D01*
X1495856Y926236D01*
X1501343Y924306D01*
X1507642Y923594D01*
X1616506Y923594D01*
X1622856Y924306D01*
X1628292Y926236D01*
X1633220Y929284D01*
X1637283Y933399D01*
X1640382Y938276D01*
X1642262Y943660D01*
X1643075Y951737D01*
X1644091Y955294D01*
X1646326Y958240D01*
X1649526Y960221D01*
X1653184Y960882D01*
X1674215Y960882D01*
X1677873Y960221D01*
X1681073Y958240D01*
X1683308Y955294D01*
X1684324Y951737D01*
X1685137Y943660D01*
X1687017Y938276D01*
X1690065Y933399D01*
X1694180Y929284D01*
X1699056Y926236D01*
X1704543Y924306D01*
X1710842Y923594D01*
X1819706Y923594D01*
X1826056Y924306D01*
X1831492Y926236D01*
X1836420Y929284D01*
X1840484Y933399D01*
X1843582Y938276D01*
X1845513Y943762D01*
X1846224Y950061D01*
X1846224Y995984D01*
X1847037Y999998D01*
X1849424Y1003401D01*
X1852930Y1005535D01*
X1857044Y1006094D01*
X1861007Y1005027D01*
X1864207Y1002436D01*
X1865375Y1001064D01*
X1893874Y972515D01*
X1900072Y967435D01*
X1906727Y963879D01*
X1913991Y961644D01*
X1922018Y960882D01*
X1966315Y960882D01*
X1969973Y960221D01*
X1973173Y958240D01*
X1975408Y955294D01*
X1976424Y951687D01*
X1977237Y943660D01*
X1979117Y938276D01*
X1982165Y933399D01*
X1986280Y929284D01*
X1991156Y926236D01*
X1996643Y924306D01*
X2002942Y923594D01*
X2111806Y923594D01*
X2118156Y924306D01*
X2123592Y926236D01*
X2128520Y929284D01*
X2132584Y933399D01*
X2135682Y938276D01*
X2137562Y943660D01*
X2138324Y951737D01*
X2139391Y955294D01*
X2141626Y958240D01*
X2144826Y960221D01*
X2148484Y960882D01*
X2169515Y960882D01*
X2173173Y960221D01*
X2176373Y958240D01*
X2178608Y955294D01*
X2179624Y951737D01*
X2180437Y943660D01*
X2182317Y938276D01*
X2185365Y933399D01*
X2189480Y929284D01*
X2194356Y926236D01*
X2199843Y924306D01*
X2206142Y923594D01*
X2315006Y923594D01*
X2321356Y924306D01*
X2326792Y926236D01*
X2331720Y929284D01*
X2335784Y933399D01*
X2338882Y938276D01*
X2340813Y943762D01*
X2341524Y950061D01*
X2341524Y1048918D01*
X2340813Y1055268D01*
X2338882Y1060704D01*
X2335784Y1065631D01*
X2331720Y1069695D01*
X2329840Y1070914D01*
X2326894Y1073708D01*
X2325268Y1077468D01*
X2325268Y1081532D01*
X2326894Y1085291D01*
X2329840Y1088085D01*
X2331720Y1089304D01*
X2335784Y1093368D01*
X2338882Y1098296D01*
X2340813Y1103731D01*
X2341524Y1110081D01*
X2341524Y1208938D01*
X2340813Y1215237D01*
X2338882Y1220724D01*
X2335784Y1225600D01*
X2331720Y1229715D01*
X2326792Y1232763D01*
X2321356Y1234694D01*
X2315006Y1235405D01*
X2309368Y1235405D01*
X2305456Y1236167D01*
X2302205Y1238351D01*
X2299970Y1241653D01*
X2299208Y1245565D01*
X2299208Y1546098D01*
X2298395Y1554124D01*
X2296210Y1561388D01*
X2292654Y1568043D01*
X2287524Y1574241D01*
X2250643Y1611172D01*
X2248611Y1614017D01*
X2247696Y1617370D01*
X2247950Y1620824D01*
X2250389Y1630578D01*
X2251710Y1643176D01*
X2251252Y1655825D01*
X2249068Y1668322D01*
X2245156Y1680362D01*
X2239568Y1691792D01*
X2232507Y1702307D01*
X2224024Y1711706D01*
X2214321Y1719884D01*
X2203551Y1726590D01*
X2191969Y1731721D01*
X2179777Y1735226D01*
X2167229Y1737004D01*
X2154529Y1737004D01*
X2141982Y1735226D01*
X2129790Y1731721D01*
X2118207Y1726590D01*
X2111552Y1722424D01*
X2107488Y1720951D01*
X2103221Y1721307D01*
X2099462Y1723389D01*
X2096922Y1726844D01*
X2096007Y1731060D01*
X2096007Y1811477D01*
X2096973Y1815795D01*
X2099716Y1819300D01*
X2103628Y1821332D01*
X2108047Y1821434D01*
X2112721Y1819249D01*
X2123897Y1813306D01*
X2135835Y1808988D01*
X2148230Y1806346D01*
X2160879Y1805482D01*
X2173528Y1806346D01*
X2185924Y1808988D01*
X2197862Y1813306D01*
X2209038Y1819249D01*
X2219299Y1826717D01*
X2228443Y1835505D01*
X2236216Y1845513D01*
X2242566Y1856486D01*
X2247341Y1868271D01*
X2250389Y1880565D01*
X2251710Y1893163D01*
X2251252Y1905863D01*
X2249068Y1918309D01*
X2245156Y1930400D01*
X2239568Y1941779D01*
X2232507Y1952294D01*
X2224024Y1961692D01*
X2214321Y1969871D01*
X2203551Y1976577D01*
X2191969Y1981758D01*
X2179777Y1985213D01*
X2167229Y1986991D01*
X2154529Y1986991D01*
X2141982Y1985213D01*
X2129790Y1981758D01*
X2118207Y1976577D01*
X2111552Y1972411D01*
X2107488Y1970989D01*
X2103221Y1971293D01*
X2099462Y1973376D01*
X2096922Y1976831D01*
X2096007Y1981047D01*
X2096007Y2022602D01*
X2096770Y2026462D01*
X2099005Y2029764D01*
X2125624Y2056434D01*
X2128367Y2058365D01*
X2131618Y2059330D01*
X2134971Y2059178D01*
X2148230Y2056333D01*
X2160879Y2055469D01*
X2173528Y2056333D01*
X2185924Y2058974D01*
X2197862Y2063292D01*
X2209038Y2069287D01*
X2219299Y2076704D01*
X2228392Y2085543D01*
X2236216Y2095500D01*
X2242566Y2106472D01*
X2247290Y2118258D01*
X2250389Y2130552D01*
X2251710Y2143150D01*
X2251252Y2155850D01*
X2249068Y2168347D01*
X2245156Y2180386D01*
X2239568Y2191766D01*
X2232507Y2202281D01*
X2224024Y2211730D01*
X2214270Y2219858D01*
X2203551Y2226564D01*
X2191969Y2231745D01*
X2179777Y2235250D01*
X2167229Y2236978D01*
X2154529Y2236978D01*
X2141982Y2235250D01*
X2129790Y2231745D01*
X2118207Y2226564D01*
X2107438Y2219858D01*
X2097735Y2211730D01*
X2089251Y2202281D01*
X2082190Y2191766D01*
X2076602Y2180386D01*
X2072690Y2168347D01*
X2070506Y2155850D01*
X2070049Y2143150D01*
X2071370Y2130552D01*
X2073808Y2120798D01*
X2074062Y2117293D01*
X2073148Y2113991D01*
X2071116Y2111146D01*
X2030475Y2070455D01*
X2025345Y2064207D01*
X2021789Y2057552D01*
X2019604Y2050338D01*
X2018792Y2042312D01*
X2018792Y1245565D01*
X2018030Y1241653D01*
X2015794Y1238351D01*
X2012543Y1236167D01*
X2008632Y1235405D01*
X2002942Y1235405D01*
X1996643Y1234694D01*
X1991156Y1232763D01*
X1986280Y1229715D01*
X1982165Y1225600D01*
X1979117Y1220724D01*
X1977186Y1215237D01*
X1976475Y1208938D01*
X1976475Y1110081D01*
X1977186Y1103731D01*
X1979117Y1098296D01*
X1982165Y1093368D01*
X1986280Y1089304D01*
X1988159Y1088085D01*
X1991106Y1085291D01*
X1992731Y1081532D01*
X1992731Y1077468D01*
X1991106Y1073708D01*
X1988159Y1070914D01*
X1986280Y1069695D01*
X1982165Y1065631D01*
X1979117Y1060704D01*
X1977237Y1055319D01*
X1976424Y1047292D01*
X1975408Y1043686D01*
X1973173Y1040739D01*
X1969973Y1038758D01*
X1966315Y1038098D01*
X1941728Y1038098D01*
X1937816Y1038860D01*
X1933905Y1041704D01*
X1931670Y1045006D01*
X1930907Y1048918D01*
X1930907Y2613812D01*
X1931568Y2617419D01*
X1933498Y2620619D01*
X1936445Y2622854D01*
X1940001Y2623921D01*
X1943709Y2623616D01*
X1946097Y2622956D01*
X1955800Y2622143D01*
X1965502Y2622956D01*
X1974900Y2625496D01*
X1983739Y2629611D01*
X1991715Y2635199D01*
X1998573Y2642108D01*
X2004161Y2650083D01*
X2008276Y2658872D01*
X2009495Y2663291D01*
X2011527Y2667203D01*
X2014982Y2669895D01*
X2019300Y2670860D01*
X2023567Y2669895D01*
X2027072Y2667203D01*
X2029104Y2663291D01*
X2030272Y2658872D01*
X2034387Y2650083D01*
X2039975Y2642108D01*
X2041194Y2640888D01*
X2043430Y2637586D01*
X2044192Y2633675D01*
X2044192Y2477008D01*
X2045004Y2468981D01*
X2047189Y2461768D01*
X2050745Y2455062D01*
X2055875Y2448864D01*
X2371394Y2133295D01*
X2373630Y2129993D01*
X2374392Y2126081D01*
X2374392Y1029208D01*
X2375204Y1021181D01*
X2377389Y1013917D01*
X2380945Y1007262D01*
X2386076Y1001014D01*
X2414524Y972566D01*
X2420772Y967435D01*
X2427427Y963879D01*
X2434691Y961694D01*
X2442718Y960882D01*
X2474315Y960882D01*
X2477973Y960221D01*
X2481173Y958240D01*
X2483408Y955294D01*
X2484424Y951737D01*
X2485237Y943660D01*
X2487117Y938276D01*
X2490165Y933399D01*
X2494280Y929284D01*
X2499156Y926236D01*
X2504643Y924306D01*
X2510942Y923594D01*
X2619806Y923594D01*
X2626156Y924306D01*
X2631592Y926236D01*
X2636520Y929284D01*
X2640584Y933399D01*
X2643682Y938276D01*
X2645562Y943660D01*
X2646324Y951737D01*
X2647391Y955294D01*
X2649626Y958240D01*
X2652826Y960221D01*
X2656484Y960882D01*
X2677515Y960882D01*
X2681173Y960221D01*
X2684373Y958240D01*
X2686608Y955294D01*
X2687624Y951737D01*
X2688437Y943660D01*
X2690317Y938276D01*
X2693365Y933399D01*
X2697480Y929284D01*
X2702356Y926236D01*
X2707843Y924306D01*
X2714142Y923594D01*
X2823006Y923594D01*
X2829356Y924306D01*
X2834792Y926236D01*
X2839720Y929284D01*
X2843784Y933399D01*
X2846882Y938276D01*
X2848813Y943762D01*
X2849524Y950061D01*
X2849524Y1048918D01*
X2848813Y1055268D01*
X2846882Y1060704D01*
X2843784Y1065631D01*
X2839720Y1069695D01*
X2837840Y1070914D01*
X2834894Y1073708D01*
X2833268Y1077468D01*
X2833268Y1081532D01*
X2834894Y1085291D01*
X2837840Y1088085D01*
X2839720Y1089304D01*
X2843784Y1093368D01*
X2846882Y1098296D01*
X2848813Y1103731D01*
X2849524Y1110081D01*
X2849524Y1208938D01*
X2848813Y1215237D01*
X2846882Y1220724D01*
X2843784Y1225600D01*
X2839720Y1229715D01*
X2834792Y1232763D01*
X2829356Y1234694D01*
X2823006Y1235405D01*
X2817368Y1235405D01*
X2813456Y1236167D01*
X2810205Y1238351D01*
X2807970Y1241653D01*
X2807208Y1245565D01*
X2807208Y1538122D01*
X2806395Y1546098D01*
X2804210Y1553362D01*
X2800654Y1560017D01*
X2795524Y1566265D01*
X2750616Y1611172D01*
X2748635Y1614017D01*
X2747721Y1617370D01*
X2747975Y1620824D01*
X2750362Y1630578D01*
X2751734Y1643176D01*
X2751277Y1655825D01*
X2749042Y1668322D01*
X2745130Y1680362D01*
X2739593Y1691792D01*
X2732481Y1702307D01*
X2723997Y1711706D01*
X2714294Y1719884D01*
X2703576Y1726590D01*
X2691942Y1731721D01*
X2679801Y1735226D01*
X2667203Y1737004D01*
X2654554Y1737004D01*
X2642006Y1735226D01*
X2629814Y1731721D01*
X2618282Y1726641D01*
X2614371Y1725726D01*
X2610408Y1726438D01*
X2607056Y1728622D01*
X2604820Y1731975D01*
X2604008Y1735886D01*
X2604008Y1807006D01*
X2604871Y1811070D01*
X2607259Y1814423D01*
X2610815Y1816607D01*
X2614930Y1817116D01*
X2618943Y1815947D01*
X2623921Y1813306D01*
X2635808Y1808988D01*
X2648254Y1806346D01*
X2660904Y1805482D01*
X2673553Y1806346D01*
X2685948Y1808988D01*
X2697835Y1813306D01*
X2709062Y1819249D01*
X2719324Y1826717D01*
X2728417Y1835505D01*
X2736240Y1845513D01*
X2742590Y1856486D01*
X2747314Y1868271D01*
X2750362Y1880565D01*
X2751734Y1893163D01*
X2751277Y1905863D01*
X2749042Y1918309D01*
X2745130Y1930400D01*
X2739593Y1941779D01*
X2732481Y1952294D01*
X2723997Y1961692D01*
X2714294Y1969871D01*
X2703576Y1976577D01*
X2691942Y1981758D01*
X2679801Y1985213D01*
X2667203Y1986991D01*
X2654554Y1986991D01*
X2642006Y1985213D01*
X2629814Y1981758D01*
X2618282Y1976628D01*
X2614371Y1975764D01*
X2610408Y1976475D01*
X2607056Y1978660D01*
X2604820Y1981962D01*
X2604008Y1985924D01*
X2604008Y2030577D01*
X2604770Y2034489D01*
X2607005Y2037791D01*
X2625648Y2056434D01*
X2628392Y2058365D01*
X2631592Y2059330D01*
X2634945Y2059178D01*
X2648254Y2056333D01*
X2660853Y2055469D01*
X2673502Y2056333D01*
X2685948Y2058974D01*
X2697835Y2063292D01*
X2709011Y2069287D01*
X2719273Y2076704D01*
X2728417Y2085543D01*
X2736240Y2095500D01*
X2742539Y2106472D01*
X2747314Y2118258D01*
X2750362Y2130552D01*
X2751683Y2143150D01*
X2751277Y2155850D01*
X2749042Y2168347D01*
X2745130Y2180386D01*
X2739593Y2191766D01*
X2732481Y2202281D01*
X2723997Y2211730D01*
X2714294Y2219858D01*
X2703525Y2226564D01*
X2691942Y2231745D01*
X2679750Y2235250D01*
X2667203Y2236978D01*
X2654554Y2236978D01*
X2641955Y2235250D01*
X2629814Y2231745D01*
X2618181Y2226564D01*
X2607462Y2219858D01*
X2597759Y2211730D01*
X2589276Y2202281D01*
X2582164Y2191766D01*
X2576626Y2180386D01*
X2572715Y2168347D01*
X2570480Y2155850D01*
X2570022Y2143150D01*
X2571394Y2130552D01*
X2573832Y2120798D01*
X2574086Y2117293D01*
X2573121Y2113991D01*
X2571140Y2111146D01*
X2538476Y2078431D01*
X2533345Y2072233D01*
X2529789Y2065528D01*
X2527604Y2058314D01*
X2526792Y2050288D01*
X2526792Y1245565D01*
X2526030Y1241653D01*
X2523794Y1238351D01*
X2520543Y1236167D01*
X2516632Y1235405D01*
X2510942Y1235405D01*
X2504643Y1234694D01*
X2499156Y1232763D01*
X2494280Y1229715D01*
X2490165Y1225600D01*
X2487117Y1220724D01*
X2485186Y1215237D01*
X2484475Y1208938D01*
X2484475Y1110081D01*
X2485186Y1103731D01*
X2487117Y1098296D01*
X2490165Y1093368D01*
X2494280Y1089304D01*
X2496159Y1088085D01*
X2499106Y1085291D01*
X2500731Y1081532D01*
X2500731Y1077468D01*
X2499106Y1073708D01*
X2496159Y1070914D01*
X2494280Y1069695D01*
X2490165Y1065631D01*
X2487117Y1060704D01*
X2485237Y1055319D01*
X2484424Y1047292D01*
X2483408Y1043686D01*
X2481173Y1040739D01*
X2477973Y1038758D01*
X2474315Y1038098D01*
X2462377Y1038098D01*
X2458516Y1038860D01*
X2454605Y1041704D01*
X2452370Y1045006D01*
X2451608Y1048867D01*
X2451608Y2145792D01*
X2450795Y2153818D01*
X2448610Y2161032D01*
X2445054Y2167737D01*
X2439924Y2173935D01*
X2124405Y2489504D01*
X2122170Y2492806D01*
X2121408Y2496718D01*
X2121408Y2633675D01*
X2122170Y2637586D01*
X2124405Y2640888D01*
X2125573Y2642108D01*
X2131161Y2650083D01*
X2135276Y2658872D01*
X2137816Y2668270D01*
X2138680Y2678430D01*
X2138680Y2797556D01*
X2137816Y2807716D01*
X2135276Y2817114D01*
X2131161Y2825953D01*
X2125573Y2833928D01*
X2118715Y2840786D01*
X2110740Y2846374D01*
X2101900Y2850489D01*
X2092502Y2853029D01*
X2082800Y2853842D01*
X2073097Y2853029D01*
X2063699Y2850489D01*
X2054860Y2846374D01*
X2046884Y2840786D01*
X2039975Y2833928D01*
X2034387Y2825953D01*
X2030272Y2817114D01*
X2029104Y2812694D01*
X2027072Y2808782D01*
X2023567Y2806090D01*
X2019300Y2805125D01*
X2014982Y2806090D01*
X2011527Y2808782D01*
X2009495Y2812694D01*
X2008276Y2817114D01*
X2004161Y2825953D01*
X1998573Y2833928D01*
X1997405Y2835097D01*
X1995170Y2838399D01*
X1994407Y2842310D01*
X1994407Y2951581D01*
X1995170Y2955493D01*
X1997405Y2958795D01*
X2693924Y3655364D01*
X2699054Y3661562D01*
X2702610Y3668217D01*
X2704795Y3675481D01*
X2705608Y3683508D01*
X2705608Y3868420D01*
X2706370Y3872280D01*
X2708554Y3875582D01*
X2711856Y3877818D01*
X2715717Y3878579D01*
X2719578Y3877868D01*
X2727756Y3872585D01*
X2733243Y3870706D01*
X2739542Y3869994D01*
X2781300Y3869994D01*
X2781300Y3933190D01*
X2715768Y3933190D01*
X2711856Y3933951D01*
X2708605Y3936187D01*
X2706370Y3939489D01*
X2705608Y3943350D01*
X2705608Y3948429D01*
X2706370Y3952341D01*
X2708605Y3955643D01*
X2711856Y3957828D01*
X2715768Y3958590D01*
X2781300Y3958590D01*
X2781300Y4019804D01*
X2782062Y4023715D01*
X2784246Y4027017D01*
X2787548Y4029201D01*
X2791460Y4029964D01*
X2796540Y4029964D01*
X2800400Y4029201D01*
X2803702Y4027017D01*
X2805938Y4023715D01*
X2806700Y4019804D01*
X2806700Y3958590D01*
X2874924Y3958590D01*
X2874924Y3995318D01*
X2874213Y4001668D01*
X2872282Y4007104D01*
X2869184Y4012031D01*
X2865120Y4016095D01*
X2863240Y4017264D01*
X2860294Y4020108D01*
X2858668Y4023868D01*
X2858668Y4027932D01*
X2860294Y4031691D01*
X2863240Y4034485D01*
X2865120Y4035704D01*
X2869184Y4039768D01*
X2872282Y4044696D01*
X2874213Y4050131D01*
X2874924Y4056430D01*
X2874924Y4155338D01*
X2874213Y4161637D01*
X2872282Y4167073D01*
X2869184Y4172000D01*
X2865120Y4176064D01*
X2860192Y4179163D01*
X2854756Y4181094D01*
X2848406Y4181805D01*
X2842768Y4181805D01*
X2838856Y4182567D01*
X2835605Y4184751D01*
X2833370Y4188053D01*
X2832608Y4191965D01*
X2832608Y4217162D01*
X2833268Y4220819D01*
X2835249Y4223969D01*
X2838196Y4226204D01*
X2846019Y4230166D01*
X2857246Y4237888D01*
X2867355Y4247032D01*
X2876194Y4257446D01*
X2883509Y4268927D01*
X2889250Y4281322D01*
X2893314Y4294327D01*
X2895549Y4307789D01*
X2896006Y4321403D01*
X2894634Y4334967D01*
X2891485Y4348226D01*
X2886608Y4360976D01*
X2880055Y4372914D01*
X2871927Y4383938D01*
X2862478Y4393692D01*
X2851759Y4402175D01*
X2840024Y4409135D01*
X2827477Y4414418D01*
X2814320Y4418025D01*
X2800807Y4419854D01*
X2787192Y4419854D01*
X2773680Y4418025D01*
X2760522Y4414418D01*
X2747975Y4409135D01*
X2736240Y4402175D01*
X2725521Y4393692D01*
X2723083Y4391202D01*
X2719781Y4388916D01*
X2715869Y4388104D01*
X2711958Y4388815D01*
X2708605Y4391050D01*
X2706370Y4394352D01*
X2705608Y4398264D01*
X2705608Y4424781D01*
X2706370Y4428693D01*
X2708605Y4431995D01*
X2750007Y4473397D01*
X2753106Y4475530D01*
X2756763Y4476343D01*
X2760522Y4475784D01*
X2767025Y4473549D01*
X2780385Y4470806D01*
X2794000Y4469942D01*
X2807614Y4470806D01*
X2820974Y4473549D01*
X2833827Y4478020D01*
X2846019Y4484166D01*
X2857246Y4491888D01*
X2867355Y4501032D01*
X2876194Y4511446D01*
X2883509Y4522927D01*
X2889250Y4535322D01*
X2893314Y4548327D01*
X2895549Y4561789D01*
X2896006Y4575403D01*
X2894634Y4588967D01*
X2891485Y4602226D01*
X2886608Y4614976D01*
X2880055Y4626914D01*
X2871927Y4637938D01*
X2862478Y4647692D01*
X2851759Y4656175D01*
X2840024Y4663135D01*
X2827477Y4668418D01*
X2814320Y4672025D01*
X2800807Y4673854D01*
X2787192Y4673854D01*
X2773680Y4672025D01*
X2760522Y4668418D01*
X2747975Y4663135D01*
X2736240Y4656175D01*
X2725521Y4647692D01*
X2716022Y4637938D01*
X2707944Y4626914D01*
X2701391Y4614976D01*
X2696514Y4602226D01*
X2693314Y4588967D01*
X2691942Y4575403D01*
X2692400Y4561789D01*
X2694686Y4548327D01*
X2697835Y4538116D01*
X2698292Y4534509D01*
X2697429Y4530953D01*
X2695346Y4527956D01*
X2640076Y4472635D01*
X2634945Y4466437D01*
X2631389Y4459732D01*
X2629204Y4452518D01*
X2628392Y4444492D01*
X2628392Y4398213D01*
X2627630Y4394301D01*
X2625394Y4390999D01*
X2622042Y4388815D01*
X2618130Y4388053D01*
X2614218Y4388916D01*
X2610916Y4391152D01*
X2608478Y4393692D01*
X2597759Y4402175D01*
X2586024Y4409135D01*
X2573477Y4414418D01*
X2560320Y4418025D01*
X2546807Y4419854D01*
X2533192Y4419854D01*
X2519680Y4418025D01*
X2506522Y4414418D01*
X2493975Y4409135D01*
X2482240Y4402175D01*
X2471521Y4393692D01*
X2469083Y4391202D01*
X2465781Y4388916D01*
X2461869Y4388104D01*
X2457958Y4388815D01*
X2454605Y4391050D01*
X2452370Y4394352D01*
X2451608Y4398264D01*
X2451608Y4424781D01*
X2452370Y4428693D01*
X2454605Y4431995D01*
X2496007Y4473397D01*
X2499106Y4475530D01*
X2502763Y4476343D01*
X2506522Y4475784D01*
X2513025Y4473549D01*
X2526385Y4470806D01*
X2540000Y4469942D01*
X2553614Y4470806D01*
X2566974Y4473549D01*
X2579827Y4478020D01*
X2592019Y4484166D01*
X2603246Y4491888D01*
X2613355Y4501032D01*
X2622194Y4511446D01*
X2629509Y4522927D01*
X2635250Y4535322D01*
X2639314Y4548327D01*
X2641549Y4561789D01*
X2642006Y4575403D01*
X2640634Y4588967D01*
X2637485Y4602226D01*
X2632608Y4614976D01*
X2626055Y4626914D01*
X2617927Y4637938D01*
X2608478Y4647692D01*
X2597759Y4656175D01*
X2586024Y4663135D01*
X2573477Y4668418D01*
X2560320Y4672025D01*
X2546807Y4673854D01*
X2533192Y4673854D01*
X2519680Y4672025D01*
X2506522Y4668418D01*
X2493975Y4663135D01*
X2482240Y4656175D01*
X2471521Y4647692D01*
X2462022Y4637938D01*
X2453944Y4626914D01*
X2447391Y4614976D01*
X2442514Y4602226D01*
X2439314Y4588967D01*
X2437942Y4575403D01*
X2438400Y4561789D01*
X2440686Y4548327D01*
X2443835Y4538116D01*
X2444292Y4534509D01*
X2443429Y4530953D01*
X2441346Y4527956D01*
X2386076Y4472635D01*
X2380945Y4466437D01*
X2377389Y4459732D01*
X2375204Y4452518D01*
X2374392Y4444492D01*
X2374392Y4398213D01*
X2373630Y4394301D01*
X2371394Y4390999D01*
X2368042Y4388815D01*
X2364130Y4388053D01*
X2360218Y4388916D01*
X2356916Y4391152D01*
X2354478Y4393692D01*
X2343759Y4402175D01*
X2332024Y4409135D01*
X2319477Y4414418D01*
X2306320Y4418025D01*
X2292807Y4419854D01*
X2279192Y4419854D01*
X2265680Y4418025D01*
X2252522Y4414418D01*
X2239975Y4409135D01*
X2228240Y4402175D01*
X2217521Y4393692D01*
X2208022Y4383938D01*
X2199944Y4372914D01*
X2193391Y4360976D01*
X2188514Y4348226D01*
X2185314Y4334967D01*
X2183942Y4321403D01*
X2184400Y4307789D01*
X2186686Y4294327D01*
X2190750Y4281322D01*
X2196490Y4268927D01*
X2203805Y4257446D01*
X2212594Y4247032D01*
X2222703Y4237888D01*
X2233980Y4230166D01*
X2241804Y4226204D01*
X2244750Y4223969D01*
X2246731Y4220768D01*
X2247392Y4217162D01*
X2247392Y4191965D01*
X2246630Y4188053D01*
X2244394Y4184751D01*
X2241143Y4182567D01*
X2237232Y4181805D01*
X2231542Y4181805D01*
X2225243Y4181094D01*
X2219756Y4179163D01*
X2214880Y4176064D01*
X2210765Y4172000D01*
X2207717Y4167073D01*
X2205786Y4161637D01*
X2205075Y4155338D01*
X2205075Y4056430D01*
X2205786Y4050131D01*
X2207717Y4044696D01*
X2210765Y4039768D01*
X2214880Y4035704D01*
X2216759Y4034485D01*
X2219706Y4031691D01*
X2221331Y4027932D01*
X2221331Y4023868D01*
X2219706Y4020108D01*
X2216759Y4017264D01*
X2214880Y4016095D01*
X2210765Y4012031D01*
X2207717Y4007104D01*
X2205786Y4001668D01*
X2205075Y3995318D01*
X2205075Y3958590D01*
X2273300Y3958590D01*
X2273300Y4019804D01*
X2274062Y4023715D01*
X2276246Y4027017D01*
X2279548Y4029201D01*
X2283460Y4029964D01*
X2288540Y4029964D01*
X2292400Y4029201D01*
X2295702Y4027017D01*
X2297938Y4023715D01*
X2298700Y4019804D01*
X2298700Y3958590D01*
X2364232Y3958590D01*
X2368143Y3957828D01*
X2371394Y3955643D01*
X2373630Y3952341D01*
X2374392Y3948429D01*
X2374392Y3943350D01*
X2373630Y3939489D01*
X2371394Y3936187D01*
X2368143Y3933951D01*
X2364232Y3933190D01*
X2298700Y3933190D01*
X2298700Y3869994D01*
X2340406Y3869994D01*
X2346756Y3870706D01*
X2352192Y3872585D01*
X2360422Y3877868D01*
X2364282Y3878630D01*
X2368143Y3877818D01*
X2371445Y3875633D01*
X2373630Y3872331D01*
X2374392Y3868470D01*
X2374392Y3792118D01*
X2373630Y3788206D01*
X2371394Y3784904D01*
X2349195Y3762654D01*
X2345893Y3760470D01*
X2341981Y3759708D01*
X1880107Y3759708D01*
X1872081Y3758895D01*
X1864868Y3756710D01*
X1858162Y3753154D01*
X1851964Y3748024D01*
X1821230Y3717340D01*
X1817979Y3715156D01*
X1814068Y3714394D01*
X1810156Y3715156D01*
X1806905Y3717340D01*
X1804670Y3720642D01*
X1803907Y3724554D01*
X1803907Y4373981D01*
X1804670Y4377893D01*
X1806905Y4381195D01*
X1829104Y4403394D01*
X1832406Y4405630D01*
X1836318Y4406392D01*
X1951786Y4406392D01*
X1955647Y4405630D01*
X1958949Y4403445D01*
X1961134Y4400194D01*
X1961946Y4396333D01*
X1961235Y4392472D01*
X1959102Y4389170D01*
X1954022Y4383938D01*
X1945944Y4372914D01*
X1939391Y4360976D01*
X1934514Y4348226D01*
X1931314Y4334967D01*
X1929942Y4321403D01*
X1930400Y4307789D01*
X1932686Y4294327D01*
X1936750Y4281322D01*
X1942490Y4268927D01*
X1949805Y4257446D01*
X1958593Y4247032D01*
X1968703Y4237888D01*
X1979980Y4230166D01*
X1987804Y4226204D01*
X1990750Y4223969D01*
X1992731Y4220768D01*
X1993392Y4217162D01*
X1993392Y4191965D01*
X1992630Y4188053D01*
X1990394Y4184751D01*
X1987143Y4182567D01*
X1983232Y4181805D01*
X1977542Y4181805D01*
X1971243Y4181094D01*
X1965756Y4179163D01*
X1960880Y4176064D01*
X1956765Y4172000D01*
X1953717Y4167073D01*
X1951786Y4161637D01*
X1951075Y4155338D01*
X1951075Y4056430D01*
X1951786Y4050131D01*
X1953717Y4044696D01*
X1956765Y4039768D01*
X1960880Y4035704D01*
X1962759Y4034485D01*
X1965706Y4031691D01*
X1967331Y4027932D01*
X1967331Y4023868D01*
X1965706Y4020108D01*
X1962759Y4017264D01*
X1960880Y4016095D01*
X1956765Y4012031D01*
X1953717Y4007104D01*
X1951786Y4001668D01*
X1951075Y3995318D01*
X1951075Y3958590D01*
X2019300Y3958590D01*
X2019300Y4019804D01*
X2020062Y4023715D01*
X2022246Y4027017D01*
X2025548Y4029201D01*
X2029460Y4029964D01*
X2034539Y4029964D01*
X2038400Y4029201D01*
X2041702Y4027017D01*
X2043938Y4023715D01*
X2044700Y4019804D01*
X2044700Y3958590D01*
X2112924Y3958590D01*
X2112924Y3995318D01*
X2112213Y4001668D01*
X2110282Y4007104D01*
X2107184Y4012031D01*
X2103120Y4016095D01*
X2101240Y4017264D01*
X2098294Y4020108D01*
X2096668Y4023868D01*
X2096668Y4027932D01*
X2098294Y4031691D01*
X2101240Y4034485D01*
X2103120Y4035704D01*
X2107184Y4039768D01*
X2110282Y4044696D01*
X2112213Y4050131D01*
X2112924Y4056430D01*
X2112924Y4155338D01*
X2112213Y4161637D01*
X2110282Y4167073D01*
X2107184Y4172000D01*
X2103120Y4176064D01*
X2098192Y4179163D01*
X2092756Y4181094D01*
X2086406Y4181805D01*
X2080768Y4181805D01*
X2076856Y4182567D01*
X2073605Y4184751D01*
X2071370Y4188053D01*
X2070607Y4191965D01*
X2070607Y4217162D01*
X2071268Y4220819D01*
X2073249Y4223969D01*
X2076196Y4226204D01*
X2084019Y4230166D01*
X2095246Y4237888D01*
X2105355Y4247032D01*
X2114194Y4257446D01*
X2121509Y4268927D01*
X2127250Y4281322D01*
X2131314Y4294327D01*
X2133549Y4307789D01*
X2134006Y4321403D01*
X2132634Y4334967D01*
X2129485Y4348226D01*
X2124608Y4360976D01*
X2118055Y4372914D01*
X2109927Y4383938D01*
X2104898Y4389170D01*
X2102764Y4392472D01*
X2102002Y4396333D01*
X2102815Y4400194D01*
X2105050Y4403445D01*
X2108301Y4405630D01*
X2112162Y4406392D01*
X2158492Y4406392D01*
X2166518Y4407154D01*
X2173732Y4409338D01*
X2180386Y4412945D01*
X2186635Y4418025D01*
X2242007Y4473397D01*
X2245106Y4475530D01*
X2248763Y4476343D01*
X2252522Y4475784D01*
X2259025Y4473549D01*
X2272385Y4470806D01*
X2286000Y4469942D01*
X2299614Y4470806D01*
X2312974Y4473549D01*
X2325827Y4478020D01*
X2338019Y4484166D01*
X2349246Y4491888D01*
X2359355Y4501032D01*
X2368194Y4511446D01*
X2375509Y4522927D01*
X2381250Y4535322D01*
X2385314Y4548327D01*
X2387549Y4561789D01*
X2388006Y4575403D01*
X2386634Y4588967D01*
X2383485Y4602226D01*
X2378608Y4614976D01*
X2372055Y4626914D01*
X2363927Y4637938D01*
X2354478Y4647692D01*
X2343759Y4656175D01*
X2332024Y4663135D01*
X2319477Y4668418D01*
X2306320Y4672025D01*
X2292807Y4673854D01*
X2279192Y4673854D01*
X2265680Y4672025D01*
X2252522Y4668418D01*
X2239975Y4663135D01*
X2228240Y4656175D01*
X2217521Y4647692D01*
X2208022Y4637938D01*
X2199944Y4626914D01*
X2193391Y4614976D01*
X2188514Y4602226D01*
X2185314Y4588967D01*
X2183942Y4575403D01*
X2184400Y4561789D01*
X2186686Y4548327D01*
X2189835Y4538116D01*
X2190292Y4534509D01*
X2189429Y4530953D01*
X2187346Y4527956D01*
X2145995Y4486554D01*
X2142693Y4484370D01*
X2138781Y4483608D01*
X2112467Y4483608D01*
X2108708Y4484319D01*
X2105507Y4486402D01*
X2103272Y4489500D01*
X2102307Y4493209D01*
X2102866Y4497019D01*
X2104745Y4500321D01*
X2114194Y4511446D01*
X2121509Y4522927D01*
X2127250Y4535322D01*
X2131314Y4548327D01*
X2133549Y4561789D01*
X2134006Y4575403D01*
X2132634Y4588967D01*
X2129485Y4602226D01*
X2124608Y4614976D01*
X2118055Y4626914D01*
X2109927Y4637938D01*
X2100478Y4647692D01*
X2089759Y4656175D01*
X2078024Y4663135D01*
X2065477Y4668418D01*
X2052320Y4672025D01*
X2038807Y4673854D01*
X2025192Y4673854D01*
X2011680Y4672025D01*
X1998522Y4668418D01*
X1985975Y4663135D01*
X1974240Y4656175D01*
X1963521Y4647692D01*
X1954022Y4637938D01*
X1945944Y4626914D01*
X1939899Y4615891D01*
X1937613Y4613097D01*
X1934514Y4611268D01*
X1930958Y4610608D01*
X1676907Y4610608D01*
X1668881Y4609795D01*
X1661668Y4607610D01*
X1654962Y4604054D01*
X1648764Y4598924D01*
X1611376Y4561535D01*
X1606245Y4555337D01*
X1602689Y4548632D01*
X1600504Y4541418D01*
X1599692Y4533392D01*
X1599692Y3582568D01*
X1599031Y3578961D01*
X1597101Y3575812D01*
X1594154Y3573526D01*
X1590598Y3572459D01*
X1586890Y3572764D01*
X1584604Y3573373D01*
X1574800Y3574237D01*
X1564995Y3573373D01*
X1555546Y3570833D01*
X1546606Y3566718D01*
X1538579Y3561079D01*
X1531620Y3554120D01*
X1525981Y3546094D01*
X1521866Y3537153D01*
X1519326Y3527704D01*
X1518462Y3517900D01*
X1519326Y3508095D01*
X1521866Y3498646D01*
X1525981Y3489706D01*
X1531620Y3481679D01*
X1533194Y3480104D01*
X1535430Y3476802D01*
X1536192Y3472891D01*
X1536192Y3462324D01*
X1535430Y3458413D01*
X1533194Y3455111D01*
X1531975Y3453892D01*
X1526387Y3445916D01*
X1522272Y3437077D01*
X1521104Y3432657D01*
X1519072Y3428796D01*
X1515567Y3426104D01*
X1511300Y3425139D01*
X1506982Y3426104D01*
X1503527Y3428796D01*
X1501495Y3432657D01*
X1500276Y3437077D01*
X1496161Y3445916D01*
X1490573Y3453892D01*
X1483715Y3460800D01*
X1475740Y3466388D01*
X1466900Y3470503D01*
X1457502Y3472992D01*
X1447800Y3473856D01*
X1438097Y3472992D01*
X1428699Y3470503D01*
X1419860Y3466388D01*
X1411884Y3460800D01*
X1404975Y3453892D01*
X1399387Y3445916D01*
X1395272Y3437077D01*
X1394104Y3432657D01*
X1392072Y3428796D01*
X1388567Y3426104D01*
X1384300Y3425139D01*
X1379982Y3426104D01*
X1376527Y3428796D01*
X1374495Y3432657D01*
X1373276Y3437077D01*
X1369161Y3445916D01*
X1363573Y3453892D01*
X1362405Y3455111D01*
X1360170Y3458413D01*
X1359408Y3462324D01*
X1359408Y3472891D01*
X1360170Y3476802D01*
X1362405Y3480104D01*
X1363980Y3481679D01*
X1369618Y3489706D01*
X1373733Y3498646D01*
X1376273Y3508095D01*
X1377137Y3517900D01*
X1376273Y3527704D01*
X1373733Y3537153D01*
X1369618Y3546094D01*
X1363980Y3554120D01*
X1357020Y3561079D01*
X1348994Y3566718D01*
X1340053Y3570833D01*
X1330604Y3573373D01*
X1320800Y3574237D01*
X1310995Y3573373D01*
X1301546Y3570833D01*
X1292606Y3566718D01*
X1284579Y3561079D01*
X1277620Y3554120D01*
X1271981Y3546094D01*
X1267866Y3537153D01*
X1265326Y3527704D01*
X1264462Y3517900D01*
X1265326Y3508095D01*
X1267866Y3498646D01*
X1271981Y3489706D01*
X1277620Y3481679D01*
X1279194Y3480104D01*
X1281430Y3476802D01*
X1282192Y3472891D01*
X1282192Y3462324D01*
X1281430Y3458413D01*
X1279194Y3455111D01*
X1277975Y3453892D01*
X1272387Y3445916D01*
X1268272Y3437077D01*
X1265783Y3427679D01*
X1264869Y3417570D01*
X1264869Y3298444D01*
X1265783Y3288284D01*
X1268272Y3278886D01*
X1272387Y3270046D01*
X1277975Y3262071D01*
X1284884Y3255213D01*
X1292860Y3249625D01*
X1301699Y3245510D01*
X1311097Y3242970D01*
X1320800Y3242106D01*
X1330502Y3242970D01*
X1339900Y3245510D01*
X1348740Y3249625D01*
X1356715Y3255213D01*
X1363573Y3262071D01*
X1369161Y3270046D01*
X1373276Y3278886D01*
X1374495Y3283305D01*
X1376527Y3287217D01*
X1379982Y3289909D01*
X1384300Y3290824D01*
X1388567Y3289909D01*
X1392072Y3287217D01*
X1394104Y3283305D01*
X1395272Y3278886D01*
X1399387Y3270046D01*
X1404975Y3262071D01*
X1411884Y3255213D01*
X1419860Y3249625D01*
X1428699Y3245510D01*
X1438097Y3242970D01*
X1447800Y3242106D01*
X1457502Y3242970D01*
X1466900Y3245510D01*
X1475740Y3249625D01*
X1483715Y3255213D01*
X1490573Y3262071D01*
X1496161Y3270046D01*
X1500276Y3278886D01*
X1501495Y3283305D01*
X1503527Y3287217D01*
X1506982Y3289909D01*
X1511300Y3290824D01*
X1515567Y3289909D01*
X1519072Y3287217D01*
X1521104Y3283305D01*
X1522272Y3278886D01*
X1526387Y3270046D01*
X1531975Y3262071D01*
X1538884Y3255213D01*
X1546860Y3249625D01*
X1555699Y3245510D01*
X1565097Y3242970D01*
X1574800Y3242106D01*
X1584502Y3242970D01*
X1586890Y3243630D01*
X1590598Y3243884D01*
X1594154Y3242868D01*
X1597101Y3240582D01*
X1599031Y3237433D01*
X1599692Y3233826D01*
X1599692Y3195218D01*
X1598930Y3191306D01*
X1596694Y3188004D01*
X1420876Y3012135D01*
X1415745Y3005937D01*
X1412189Y2999232D01*
X1410004Y2992018D01*
X1409192Y2983992D01*
X1409192Y2842310D01*
X1408430Y2838399D01*
X1406194Y2835148D01*
X1404975Y2833928D01*
X1399387Y2825953D01*
X1395272Y2817114D01*
X1394104Y2812694D01*
X1392072Y2808782D01*
X1388567Y2806090D01*
X1384300Y2805125D01*
X1379982Y2806090D01*
X1376527Y2808782D01*
X1374495Y2812694D01*
X1373276Y2817114D01*
X1369161Y2825953D01*
X1363573Y2833928D01*
X1356715Y2840786D01*
X1348740Y2846374D01*
X1339900Y2850489D01*
X1330502Y2853029D01*
X1320800Y2853842D01*
X1311097Y2853029D01*
X1301699Y2850489D01*
X1292860Y2846374D01*
X1284884Y2840786D01*
X1277975Y2833928D01*
X1272387Y2825953D01*
X1268272Y2817114D01*
X1265783Y2807716D01*
X1264869Y2797556D01*
X1264869Y2786126D01*
X1264107Y2782265D01*
X1261922Y2778963D01*
X1258671Y2776778D01*
X1254810Y2775966D01*
X1235506Y2775813D01*
X1231442Y2776626D01*
X1227988Y2779064D01*
X1225854Y2782620D01*
X1223975Y2787904D01*
X1220927Y2792831D01*
X1216812Y2796895D01*
X1214932Y2798114D01*
X1211986Y2800908D01*
X1210411Y2804668D01*
X1210411Y2808732D01*
X1211986Y2812491D01*
X1214932Y2815285D01*
X1216812Y2816504D01*
X1220927Y2820568D01*
X1223975Y2825496D01*
X1225905Y2830931D01*
X1226616Y2837281D01*
X1226616Y2864002D01*
X1168400Y2864002D01*
X1168400Y2812796D01*
X1167638Y2808884D01*
X1165453Y2805582D01*
X1162151Y2803398D01*
X1158240Y2802636D01*
X1153160Y2802636D01*
X1149299Y2803398D01*
X1145997Y2805582D01*
X1143762Y2808884D01*
X1143000Y2812796D01*
X1143000Y2864002D01*
X1084783Y2864002D01*
X1084783Y2837281D01*
X1085494Y2830931D01*
X1087424Y2825496D01*
X1090523Y2820568D01*
X1094587Y2816504D01*
X1096467Y2815285D01*
X1099413Y2812491D01*
X1101039Y2808732D01*
X1101039Y2804668D01*
X1099413Y2800908D01*
X1096467Y2798114D01*
X1094587Y2796895D01*
X1090523Y2792831D01*
X1087424Y2787904D01*
X1085342Y2782011D01*
X1083208Y2778455D01*
X1079804Y2776067D01*
X1075740Y2775204D01*
X823061Y2775204D01*
X819200Y2775966D01*
X815898Y2778201D01*
X813663Y2781452D01*
X812901Y2785364D01*
X812901Y4686401D01*
X813663Y4690313D01*
X815898Y4693564D01*
X830935Y4708601D01*
X834186Y4710836D01*
X838098Y4711598D01*
X1294892Y4711598D01*
X1299210Y4710633D01*
X1301546Y4709566D01*
X1310995Y4707026D01*
X1320800Y4706162D01*
X1330604Y4707026D01*
X1340053Y4709566D01*
X1342390Y4710633D01*
X1346657Y4711598D01*
X1561642Y4711598D01*
X1565910Y4710633D01*
X1568246Y4709566D01*
X1577695Y4707026D01*
X1587500Y4706162D01*
X1597304Y4707026D01*
X1606753Y4709566D01*
X1609090Y4710633D01*
X1613408Y4711598D01*
X3403092Y4711598D01*
X3407410Y4710633D01*
X3409746Y4709566D01*
X3419195Y4707026D01*
X3429000Y4706162D01*
X3438804Y4707026D01*
X3448253Y4709566D01*
X3450590Y4710633D01*
X3454908Y4711598D01*
X3657092Y4711598D01*
X3661410Y4710633D01*
X3663746Y4709566D01*
X3673195Y4707026D01*
X3683000Y4706162D01*
X3692804Y4707026D01*
X3702253Y4709566D01*
X3704590Y4710633D01*
X3708908Y4711598D01*
X3949192Y4711598D01*
X3953510Y4710633D01*
X3955846Y4709566D01*
X3965295Y4707026D01*
X3975100Y4706162D01*
X3984904Y4707026D01*
X3994353Y4709566D01*
X4003294Y4713681D01*
X4011320Y4719320D01*
X4018279Y4726279D01*
X4023918Y4734306D01*
X4028033Y4743246D01*
X4030573Y4752695D01*
X4031437Y4762500D01*
X4030573Y4772304D01*
X4028033Y4781753D01*
X4023918Y4790694D01*
X4018279Y4798720D01*
X4011320Y4805680D01*
X4003294Y4811318D01*
X3994353Y4815433D01*
X3984904Y4817973D01*
X3975100Y4818837D01*
X3965295Y4817973D01*
X3955846Y4815433D01*
X3953510Y4814366D01*
X3949192Y4813401D01*
X3708908Y4813401D01*
X3704590Y4814366D01*
X3702253Y4815433D01*
X3692804Y4817973D01*
X3683000Y4818837D01*
X3673195Y4817973D01*
X3663746Y4815433D01*
X3661410Y4814366D01*
X3657092Y4813401D01*
X3454908Y4813401D01*
X3450590Y4814366D01*
X3448253Y4815433D01*
X3438804Y4817973D01*
X3429000Y4818837D01*
X3419195Y4817973D01*
X3409746Y4815433D01*
X3407410Y4814366D01*
X3403092Y4813401D01*
X1613408Y4813401D01*
X1609090Y4814366D01*
X1606753Y4815433D01*
X1597304Y4817973D01*
X1587500Y4818837D01*
X1577695Y4817973D01*
X1568246Y4815433D01*
X1565859Y4814366D01*
X1561592Y4813401D01*
X1346758Y4813401D01*
X1342440Y4814366D01*
X1340053Y4815433D01*
X1330604Y4817973D01*
X1320800Y4818837D01*
X1310995Y4817973D01*
X1301546Y4815433D01*
X1299210Y4814366D01*
X1294892Y4813401D01*
X813003Y4813401D01*
X808380Y4813198D01*
X803960Y4812639D01*
X799642Y4811674D01*
X795375Y4810353D01*
X791311Y4808626D01*
X787349Y4806594D01*
X783590Y4804206D01*
X780084Y4801514D01*
X776630Y4798364D01*
X726135Y4747869D01*
X722985Y4744415D01*
X720293Y4740910D01*
X717905Y4737150D01*
X715873Y4733188D01*
X714146Y4729124D01*
X712825Y4724857D01*
X711860Y4720539D01*
X711301Y4716119D01*
X711098Y4711496D01*
X711098Y1397457D01*
X711606Y1389786D01*
X711098Y1383842D01*
X711098Y279908D01*
X710133Y275590D01*
X709066Y273253D01*
X706526Y263804D01*
X705662Y254000D01*
X706526Y244195D01*
X709066Y234746D01*
X713181Y225806D01*
X718820Y217779D01*
X725779Y210820D01*
X733806Y205181D01*
X742746Y201066D01*
X752195Y198526D01*
G37*
G36*
X1154887Y266700D02*
G01*
X1257300Y266700D01*
X1257300Y368960D01*
X1248308Y367842D01*
X1234186Y364236D01*
X1220673Y358851D01*
X1207922Y351840D01*
X1196136Y343306D01*
X1185519Y333349D01*
X1176223Y322122D01*
X1168450Y309829D01*
X1162253Y296672D01*
X1157732Y282803D01*
X1155039Y268528D01*
G37*
G36*
X1282700Y266700D02*
G01*
X1385112Y266700D01*
X1384960Y268528D01*
X1382268Y282803D01*
X1377746Y296672D01*
X1371549Y309829D01*
X1363776Y322122D01*
X1354480Y333349D01*
X1343863Y343306D01*
X1332077Y351840D01*
X1319326Y358851D01*
X1305814Y364236D01*
X1291691Y367842D01*
X1282700Y368960D01*
G37*
G36*
X1008735Y392328D02*
G01*
X1023264Y392328D01*
X1037691Y394157D01*
X1051814Y397764D01*
X1065326Y403148D01*
X1078077Y410159D01*
X1089863Y418693D01*
X1100480Y428650D01*
X1109776Y439877D01*
X1117549Y452170D01*
X1123746Y465328D01*
X1128268Y479196D01*
X1130960Y493471D01*
X1131874Y508000D01*
X1130960Y522528D01*
X1128268Y536803D01*
X1123746Y550672D01*
X1117549Y563829D01*
X1109776Y576122D01*
X1100480Y587349D01*
X1089863Y597306D01*
X1078077Y605840D01*
X1065326Y612851D01*
X1051814Y618236D01*
X1037691Y621842D01*
X1023264Y623671D01*
X1008735Y623671D01*
X994308Y621842D01*
X980186Y618236D01*
X966673Y612851D01*
X953922Y605840D01*
X942136Y597306D01*
X931519Y587349D01*
X922223Y576122D01*
X914450Y563829D01*
X908253Y550672D01*
X903732Y536803D01*
X901039Y522528D01*
X900125Y508000D01*
X901039Y493471D01*
X903732Y479196D01*
X908253Y465328D01*
X914450Y452170D01*
X922223Y439877D01*
X931519Y428650D01*
X942136Y418693D01*
X953922Y410159D01*
X966673Y403148D01*
X980186Y397764D01*
X994308Y394157D01*
G37*
G36*
X1257300Y393039D02*
G01*
X1257300Y495300D01*
X1154887Y495300D01*
X1155039Y493471D01*
X1157732Y479196D01*
X1162253Y465328D01*
X1168450Y452170D01*
X1176223Y439877D01*
X1185519Y428650D01*
X1196136Y418693D01*
X1207922Y410159D01*
X1220673Y403148D01*
X1234186Y397764D01*
X1248308Y394157D01*
G37*
G36*
X1282700Y393039D02*
G01*
X1291691Y394157D01*
X1305814Y397764D01*
X1319326Y403148D01*
X1332077Y410159D01*
X1343863Y418693D01*
X1354480Y428650D01*
X1363776Y439877D01*
X1371549Y452170D01*
X1377746Y465328D01*
X1382268Y479196D01*
X1384960Y493471D01*
X1385112Y495300D01*
X1282700Y495300D01*
G37*
G36*
X393700Y393700D02*
G01*
X656336Y393700D01*
X655929Y404063D01*
X653034Y427024D01*
X648208Y449630D01*
X641553Y471728D01*
X633018Y493217D01*
X622757Y513892D01*
X610819Y533704D01*
X597204Y552348D01*
X582117Y569874D01*
X565607Y586028D01*
X547827Y600760D01*
X528828Y613968D01*
X508812Y625500D01*
X487934Y635355D01*
X466242Y643382D01*
X443992Y649630D01*
X421284Y653948D01*
X398322Y656336D01*
X393700Y656437D01*
G37*
G36*
X5473700Y393700D02*
G01*
X5736336Y393700D01*
X5735929Y404063D01*
X5733034Y427024D01*
X5728208Y449630D01*
X5721553Y471728D01*
X5713018Y493217D01*
X5702757Y513892D01*
X5690819Y533704D01*
X5677204Y552348D01*
X5662117Y569874D01*
X5645607Y586028D01*
X5627827Y600760D01*
X5608828Y613968D01*
X5588812Y625500D01*
X5567934Y635355D01*
X5546242Y643382D01*
X5523992Y649630D01*
X5501284Y653948D01*
X5478322Y656336D01*
X5473700Y656437D01*
G37*
G36*
X5185410Y393700D02*
G01*
X5448300Y393700D01*
X5448300Y656386D01*
X5432145Y655370D01*
X5409285Y652018D01*
X5386781Y646734D01*
X5364835Y639572D01*
X5343499Y630631D01*
X5323027Y619912D01*
X5303520Y607568D01*
X5285130Y593598D01*
X5267960Y578104D01*
X5252161Y561289D01*
X5237784Y543153D01*
X5224983Y523900D01*
X5213858Y503682D01*
X5204460Y482549D01*
X5196890Y460756D01*
X5191150Y438353D01*
X5187289Y415594D01*
G37*
G36*
X105410Y393700D02*
G01*
X368300Y393700D01*
X368300Y656386D01*
X352145Y655370D01*
X329285Y652018D01*
X306781Y646734D01*
X284835Y639572D01*
X263499Y630631D01*
X243027Y619912D01*
X223520Y607568D01*
X205130Y593598D01*
X187960Y578104D01*
X172161Y561289D01*
X157784Y543153D01*
X144983Y523900D01*
X133858Y503682D01*
X124460Y482549D01*
X116890Y460756D01*
X111150Y438353D01*
X107289Y415594D01*
G37*
G36*
X5156200Y497840D02*
G01*
X5156200Y633984D01*
X5155184Y635000D01*
X4947970Y635000D01*
X4944618Y635558D01*
X4940960Y636828D01*
X4934661Y637540D01*
X4876088Y637540D01*
X4869789Y636828D01*
X4866132Y635558D01*
X4862779Y635000D01*
X4750816Y635000D01*
X4749800Y633984D01*
X4749800Y509016D01*
X4750816Y508000D01*
X4858715Y508000D01*
X4861509Y507593D01*
X4864303Y506323D01*
X4869789Y504393D01*
X4876088Y503682D01*
X4934661Y503682D01*
X4940960Y504393D01*
X4949240Y507593D01*
X4952034Y508000D01*
X5146040Y508000D01*
X5149900Y507238D01*
X5153202Y505002D01*
X5155438Y501751D01*
G37*
G36*
X5185410Y5473700D02*
G01*
X5448300Y5473700D01*
X5448300Y5736386D01*
X5432145Y5735370D01*
X5409285Y5732018D01*
X5386781Y5726734D01*
X5364835Y5719572D01*
X5343499Y5710631D01*
X5323027Y5699912D01*
X5303520Y5687568D01*
X5285130Y5673598D01*
X5267960Y5658104D01*
X5252161Y5641289D01*
X5237784Y5623153D01*
X5224983Y5603900D01*
X5213858Y5583682D01*
X5204460Y5562549D01*
X5196890Y5540756D01*
X5191150Y5518353D01*
X5187289Y5495594D01*
G37*
G36*
X1154887Y520700D02*
G01*
X1257300Y520700D01*
X1257300Y622960D01*
X1248308Y621842D01*
X1234186Y618236D01*
X1220673Y612851D01*
X1207922Y605840D01*
X1196136Y597306D01*
X1185519Y587349D01*
X1176223Y576122D01*
X1168450Y563829D01*
X1162253Y550672D01*
X1157732Y536803D01*
X1155039Y522528D01*
G37*
G36*
X1282700Y520700D02*
G01*
X1385112Y520700D01*
X1384960Y522528D01*
X1382268Y536803D01*
X1377746Y550672D01*
X1371549Y563829D01*
X1363776Y576122D01*
X1354480Y587349D01*
X1343863Y597306D01*
X1332077Y605840D01*
X1319326Y612851D01*
X1305814Y618236D01*
X1291691Y621842D01*
X1282700Y622960D01*
G37*
G36*
X3006242Y923594D02*
G01*
X3115106Y923594D01*
X3121456Y924306D01*
X3126892Y926236D01*
X3131820Y929284D01*
X3135884Y933399D01*
X3138982Y938276D01*
X3140862Y943660D01*
X3141624Y951737D01*
X3142691Y955294D01*
X3144926Y958240D01*
X3148126Y960221D01*
X3151784Y960882D01*
X3172815Y960882D01*
X3176473Y960221D01*
X3179622Y958240D01*
X3181908Y955294D01*
X3182924Y951737D01*
X3183737Y943660D01*
X3185617Y938276D01*
X3188665Y933399D01*
X3192780Y929284D01*
X3197656Y926236D01*
X3203143Y924306D01*
X3209442Y923594D01*
X3318306Y923594D01*
X3324656Y924306D01*
X3330092Y926236D01*
X3335020Y929284D01*
X3339084Y933399D01*
X3342182Y938276D01*
X3344062Y943660D01*
X3344824Y951737D01*
X3345891Y955294D01*
X3348126Y958240D01*
X3351276Y960221D01*
X3354933Y960882D01*
X3386582Y960882D01*
X3394608Y961694D01*
X3401872Y963879D01*
X3408527Y967435D01*
X3414725Y972566D01*
X3443224Y1001064D01*
X3448354Y1007262D01*
X3451910Y1013968D01*
X3454095Y1021181D01*
X3454806Y1028192D01*
X3456178Y1032357D01*
X3459175Y1035608D01*
X3463239Y1037234D01*
X3467608Y1037031D01*
X3471468Y1034999D01*
X3474161Y1031494D01*
X3475075Y1027226D01*
X3475075Y950061D01*
X3475786Y943762D01*
X3477717Y938276D01*
X3480765Y933399D01*
X3484879Y929284D01*
X3489756Y926236D01*
X3495243Y924306D01*
X3501542Y923594D01*
X3610406Y923594D01*
X3616756Y924306D01*
X3622192Y926236D01*
X3627120Y929284D01*
X3631184Y933399D01*
X3634282Y938276D01*
X3636162Y943660D01*
X3636924Y951737D01*
X3637991Y955294D01*
X3640226Y958240D01*
X3643376Y960221D01*
X3647033Y960882D01*
X3668115Y960882D01*
X3671773Y960221D01*
X3674922Y958240D01*
X3677208Y955294D01*
X3678224Y951737D01*
X3679037Y943660D01*
X3680917Y938276D01*
X3683965Y933399D01*
X3688079Y929284D01*
X3692956Y926236D01*
X3698443Y924306D01*
X3704742Y923594D01*
X3813606Y923594D01*
X3819956Y924306D01*
X3825392Y926236D01*
X3830320Y929284D01*
X3834384Y933399D01*
X3837482Y938276D01*
X3839362Y943660D01*
X3840124Y951737D01*
X3841191Y955294D01*
X3843426Y958240D01*
X3846576Y960221D01*
X3850233Y960882D01*
X3881882Y960882D01*
X3889908Y961694D01*
X3897172Y963879D01*
X3903827Y967435D01*
X3910025Y972566D01*
X3938524Y1001064D01*
X3943654Y1007262D01*
X3947210Y1013968D01*
X3949395Y1021181D01*
X3950208Y1029208D01*
X3950208Y2265781D01*
X3950970Y2269693D01*
X3953205Y2272995D01*
X3962704Y2282494D01*
X3966006Y2284730D01*
X3969918Y2285492D01*
X4190492Y2285492D01*
X4198518Y2286304D01*
X4205732Y2288489D01*
X4212437Y2292045D01*
X4218635Y2297176D01*
X4255820Y2334310D01*
X4260900Y2340508D01*
X4264456Y2347163D01*
X4266692Y2354427D01*
X4267454Y2362454D01*
X4267454Y2633726D01*
X4268216Y2637637D01*
X4277156Y2650083D01*
X4281271Y2658872D01*
X4282490Y2663291D01*
X4284522Y2667203D01*
X4287977Y2669895D01*
X4292295Y2670860D01*
X4296562Y2669895D01*
X4300067Y2667203D01*
X4302099Y2663291D01*
X4303268Y2658872D01*
X4307382Y2650083D01*
X4312970Y2642108D01*
X4319879Y2635199D01*
X4327855Y2629611D01*
X4336694Y2625496D01*
X4346092Y2622956D01*
X4355795Y2622143D01*
X4365498Y2622956D01*
X4374896Y2625496D01*
X4383735Y2629611D01*
X4391710Y2635199D01*
X4398568Y2642108D01*
X4404156Y2650083D01*
X4408271Y2658872D01*
X4409490Y2663291D01*
X4411522Y2667203D01*
X4414977Y2669895D01*
X4419295Y2670860D01*
X4423562Y2669895D01*
X4427067Y2667203D01*
X4429099Y2663291D01*
X4430268Y2658872D01*
X4434382Y2650083D01*
X4439970Y2642108D01*
X4441291Y2640787D01*
X4443476Y2637536D01*
X4444238Y2633624D01*
X4444238Y2496972D01*
X4443476Y2493060D01*
X4441291Y2489758D01*
X4392676Y2441143D01*
X4387545Y2434945D01*
X4383989Y2428240D01*
X4381804Y2421026D01*
X4380992Y2413000D01*
X4380992Y1048918D01*
X4380230Y1045006D01*
X4377385Y1041095D01*
X4374083Y1038860D01*
X4370171Y1038098D01*
X4358233Y1038098D01*
X4354576Y1038758D01*
X4351426Y1040739D01*
X4349191Y1043686D01*
X4348124Y1047292D01*
X4347362Y1055319D01*
X4345482Y1060704D01*
X4342384Y1065631D01*
X4338320Y1069695D01*
X4336389Y1070914D01*
X4333443Y1073708D01*
X4331868Y1077468D01*
X4331868Y1081532D01*
X4333443Y1085291D01*
X4336389Y1088085D01*
X4338320Y1089304D01*
X4342384Y1093368D01*
X4345482Y1098296D01*
X4347362Y1103731D01*
X4348073Y1110081D01*
X4348073Y1208938D01*
X4347362Y1215237D01*
X4345482Y1220724D01*
X4342384Y1225600D01*
X4338320Y1229715D01*
X4333392Y1232763D01*
X4327956Y1234694D01*
X4321606Y1235405D01*
X4315968Y1235405D01*
X4312056Y1236167D01*
X4308805Y1238351D01*
X4306570Y1241653D01*
X4305808Y1245565D01*
X4305808Y1539494D01*
X4304995Y1547520D01*
X4302810Y1554734D01*
X4299254Y1561439D01*
X4294124Y1567637D01*
X4250639Y1611172D01*
X4248607Y1614017D01*
X4247692Y1617370D01*
X4247946Y1620824D01*
X4250385Y1630578D01*
X4251706Y1643176D01*
X4251248Y1655825D01*
X4249064Y1668322D01*
X4245152Y1680362D01*
X4239564Y1691792D01*
X4232503Y1702307D01*
X4224020Y1711706D01*
X4214317Y1719884D01*
X4203547Y1726590D01*
X4191965Y1731721D01*
X4179773Y1735226D01*
X4167225Y1737004D01*
X4154525Y1737004D01*
X4141978Y1735226D01*
X4129786Y1731721D01*
X4118152Y1726539D01*
X4114088Y1725117D01*
X4109821Y1725422D01*
X4106062Y1727504D01*
X4103522Y1730959D01*
X4102608Y1735175D01*
X4102608Y1807718D01*
X4103471Y1811782D01*
X4105859Y1815185D01*
X4109415Y1817319D01*
X4113529Y1817878D01*
X4117543Y1816709D01*
X4123893Y1813306D01*
X4135831Y1808988D01*
X4148226Y1806346D01*
X4160875Y1805482D01*
X4173524Y1806346D01*
X4185920Y1808988D01*
X4197858Y1813306D01*
X4209034Y1819249D01*
X4219295Y1826717D01*
X4228439Y1835505D01*
X4236212Y1845513D01*
X4242562Y1856486D01*
X4247337Y1868271D01*
X4250385Y1880565D01*
X4251706Y1893163D01*
X4251248Y1905863D01*
X4249064Y1918309D01*
X4245152Y1930400D01*
X4239564Y1941779D01*
X4232503Y1952294D01*
X4224020Y1961692D01*
X4214317Y1969871D01*
X4203547Y1976577D01*
X4191965Y1981758D01*
X4179773Y1985213D01*
X4167225Y1986991D01*
X4154525Y1986991D01*
X4141978Y1985213D01*
X4129786Y1981758D01*
X4118152Y1976526D01*
X4114088Y1975104D01*
X4109821Y1975459D01*
X4106062Y1977542D01*
X4103522Y1980946D01*
X4102608Y1985162D01*
X4102608Y2029206D01*
X4103370Y2033117D01*
X4105605Y2036368D01*
X4125620Y2056434D01*
X4128363Y2058365D01*
X4131614Y2059330D01*
X4134967Y2059178D01*
X4148226Y2056333D01*
X4160875Y2055469D01*
X4173524Y2056333D01*
X4185920Y2058974D01*
X4197858Y2063292D01*
X4209034Y2069287D01*
X4219295Y2076704D01*
X4228388Y2085543D01*
X4236212Y2095500D01*
X4242562Y2106472D01*
X4247286Y2118258D01*
X4250385Y2130552D01*
X4251706Y2143150D01*
X4251248Y2155850D01*
X4249064Y2168347D01*
X4245152Y2180386D01*
X4239564Y2191766D01*
X4232503Y2202281D01*
X4224020Y2211730D01*
X4214266Y2219858D01*
X4203547Y2226564D01*
X4191965Y2231745D01*
X4179773Y2235250D01*
X4167225Y2236978D01*
X4154525Y2236978D01*
X4141978Y2235250D01*
X4129786Y2231745D01*
X4118203Y2226564D01*
X4107434Y2219858D01*
X4097731Y2211730D01*
X4089247Y2202281D01*
X4082186Y2191766D01*
X4076598Y2180386D01*
X4072686Y2168347D01*
X4070502Y2155850D01*
X4070045Y2143150D01*
X4071365Y2130552D01*
X4073804Y2120798D01*
X4074058Y2117293D01*
X4073144Y2113991D01*
X4071112Y2111146D01*
X4037076Y2077059D01*
X4031945Y2070811D01*
X4028389Y2064156D01*
X4026204Y2056942D01*
X4025392Y2048916D01*
X4025392Y1245565D01*
X4024629Y1241653D01*
X4022394Y1238351D01*
X4019143Y1236167D01*
X4015232Y1235405D01*
X4009542Y1235405D01*
X4003243Y1234694D01*
X3997756Y1232763D01*
X3992879Y1229715D01*
X3988765Y1225600D01*
X3985717Y1220724D01*
X3983786Y1215237D01*
X3983075Y1208938D01*
X3983075Y1110081D01*
X3983786Y1103731D01*
X3985717Y1098296D01*
X3988765Y1093368D01*
X3992879Y1089304D01*
X3994759Y1088085D01*
X3997706Y1085291D01*
X3999331Y1081532D01*
X3999331Y1077468D01*
X3997706Y1073708D01*
X3994759Y1070914D01*
X3992879Y1069695D01*
X3988765Y1065631D01*
X3985717Y1060704D01*
X3983786Y1055268D01*
X3983075Y1048918D01*
X3983075Y950061D01*
X3983786Y943762D01*
X3985717Y938276D01*
X3988765Y933399D01*
X3992879Y929284D01*
X3997756Y926236D01*
X4003243Y924306D01*
X4009542Y923594D01*
X4118406Y923594D01*
X4124756Y924306D01*
X4130192Y926236D01*
X4135120Y929284D01*
X4139184Y933399D01*
X4142282Y938276D01*
X4144162Y943660D01*
X4144924Y951737D01*
X4145991Y955294D01*
X4148226Y958240D01*
X4151376Y960221D01*
X4155033Y960882D01*
X4176115Y960882D01*
X4179773Y960221D01*
X4182922Y958240D01*
X4185208Y955294D01*
X4186224Y951737D01*
X4187037Y943660D01*
X4188917Y938276D01*
X4191965Y933399D01*
X4196080Y929284D01*
X4200956Y926236D01*
X4206443Y924306D01*
X4212742Y923594D01*
X4321606Y923594D01*
X4327956Y924306D01*
X4333392Y926236D01*
X4338320Y929284D01*
X4342384Y933399D01*
X4345482Y938276D01*
X4347362Y943660D01*
X4348124Y951737D01*
X4349191Y955294D01*
X4351426Y958240D01*
X4354576Y960221D01*
X4358233Y960882D01*
X4389882Y960882D01*
X4397908Y961694D01*
X4405172Y963879D01*
X4411827Y967435D01*
X4418025Y972566D01*
X4446524Y1001064D01*
X4451654Y1007262D01*
X4455210Y1013968D01*
X4457395Y1021181D01*
X4458106Y1028192D01*
X4459478Y1032357D01*
X4462475Y1035558D01*
X4466539Y1037183D01*
X4470908Y1036980D01*
X4474768Y1034948D01*
X4477410Y1031494D01*
X4478375Y1027176D01*
X4478375Y950061D01*
X4479086Y943762D01*
X4481017Y938276D01*
X4484065Y933399D01*
X4488180Y929284D01*
X4493056Y926236D01*
X4498543Y924306D01*
X4504842Y923594D01*
X4613706Y923594D01*
X4620056Y924306D01*
X4625492Y926236D01*
X4630420Y929284D01*
X4634484Y933399D01*
X4637582Y938276D01*
X4639462Y943660D01*
X4640224Y951737D01*
X4641291Y955294D01*
X4643526Y958240D01*
X4646676Y960221D01*
X4650333Y960882D01*
X4671415Y960882D01*
X4675073Y960221D01*
X4678222Y958240D01*
X4680508Y955294D01*
X4681524Y951737D01*
X4682337Y943660D01*
X4684217Y938276D01*
X4687265Y933399D01*
X4691380Y929284D01*
X4696256Y926236D01*
X4701743Y924306D01*
X4708042Y923594D01*
X4816906Y923594D01*
X4823256Y924306D01*
X4828692Y926236D01*
X4833620Y929284D01*
X4837684Y933399D01*
X4840782Y938276D01*
X4842662Y943660D01*
X4843424Y951737D01*
X4844491Y955294D01*
X4846726Y958240D01*
X4849876Y960221D01*
X4853533Y960882D01*
X4948428Y960882D01*
X4956454Y961694D01*
X4963668Y963879D01*
X4970322Y967435D01*
X4976571Y972566D01*
X5018024Y1014018D01*
X5023154Y1020267D01*
X5026710Y1026921D01*
X5028895Y1034135D01*
X5029708Y1042162D01*
X5029708Y2475992D01*
X5028895Y2484018D01*
X5026710Y2491232D01*
X5023154Y2497937D01*
X5018024Y2504135D01*
X4397349Y3124809D01*
X4395165Y3128111D01*
X4394403Y3131972D01*
X4394403Y3253689D01*
X4395165Y3257550D01*
X4397349Y3260852D01*
X4398568Y3262071D01*
X4404156Y3270046D01*
X4408271Y3278886D01*
X4409490Y3283305D01*
X4411522Y3287217D01*
X4414977Y3289909D01*
X4419295Y3290824D01*
X4423562Y3289909D01*
X4427067Y3287217D01*
X4429099Y3283305D01*
X4430268Y3278886D01*
X4434382Y3270046D01*
X4439970Y3262071D01*
X4446879Y3255213D01*
X4454855Y3249625D01*
X4463694Y3245510D01*
X4470095Y3243783D01*
X4470095Y3345281D01*
X4421835Y3345281D01*
X4417974Y3346043D01*
X4414672Y3348278D01*
X4412488Y3351580D01*
X4411675Y3355441D01*
X4411675Y3360521D01*
X4412488Y3364433D01*
X4414672Y3367735D01*
X4417974Y3369919D01*
X4421835Y3370681D01*
X4470095Y3370681D01*
X4470095Y3472230D01*
X4463694Y3470503D01*
X4454855Y3466388D01*
X4446879Y3460800D01*
X4439970Y3453892D01*
X4434382Y3445916D01*
X4430268Y3437077D01*
X4429099Y3432657D01*
X4427067Y3428796D01*
X4423562Y3426104D01*
X4419295Y3425139D01*
X4414977Y3426104D01*
X4411522Y3428796D01*
X4409490Y3432657D01*
X4408271Y3437077D01*
X4404156Y3445916D01*
X4398568Y3453892D01*
X4391710Y3460800D01*
X4383735Y3466388D01*
X4374896Y3470503D01*
X4365498Y3472992D01*
X4355795Y3473856D01*
X4346092Y3472992D01*
X4336694Y3470503D01*
X4327855Y3466388D01*
X4319879Y3460800D01*
X4312970Y3453892D01*
X4307382Y3445916D01*
X4303268Y3437077D01*
X4302099Y3432657D01*
X4300067Y3428796D01*
X4296562Y3426104D01*
X4292295Y3425139D01*
X4287977Y3426104D01*
X4284522Y3428796D01*
X4282490Y3432657D01*
X4281271Y3437077D01*
X4277156Y3445916D01*
X4271568Y3453892D01*
X4270349Y3455111D01*
X4268165Y3458413D01*
X4267403Y3462324D01*
X4267403Y4533696D01*
X4266590Y4541723D01*
X4264406Y4548936D01*
X4260850Y4555591D01*
X4255719Y4561840D01*
X4231335Y4586224D01*
X4225086Y4591354D01*
X4218432Y4594910D01*
X4211218Y4597095D01*
X4203192Y4597908D01*
X3910990Y4597908D01*
X3907485Y4598517D01*
X3904386Y4600346D01*
X3902100Y4603191D01*
X3896055Y4614214D01*
X3887927Y4625238D01*
X3878478Y4634992D01*
X3867759Y4643475D01*
X3856024Y4650435D01*
X3843477Y4655718D01*
X3830320Y4659325D01*
X3816807Y4661154D01*
X3803192Y4661154D01*
X3789679Y4659325D01*
X3776522Y4655718D01*
X3763975Y4650435D01*
X3752240Y4643475D01*
X3741521Y4634992D01*
X3732022Y4625238D01*
X3723944Y4614214D01*
X3717391Y4602276D01*
X3712514Y4589526D01*
X3709314Y4576267D01*
X3707942Y4562703D01*
X3708400Y4549089D01*
X3710686Y4535627D01*
X3714750Y4522622D01*
X3720490Y4510227D01*
X3727500Y4499203D01*
X3729024Y4495190D01*
X3728669Y4490872D01*
X3726586Y4487113D01*
X3723132Y4484522D01*
X3718966Y4483608D01*
X3703218Y4483608D01*
X3699306Y4484370D01*
X3696004Y4486554D01*
X3654653Y4527956D01*
X3652570Y4530953D01*
X3651707Y4534509D01*
X3652113Y4538116D01*
X3655314Y4548327D01*
X3657549Y4561789D01*
X3658006Y4575403D01*
X3656634Y4588967D01*
X3653485Y4602226D01*
X3648608Y4614976D01*
X3642055Y4626914D01*
X3633927Y4637938D01*
X3624478Y4647692D01*
X3613759Y4656175D01*
X3602024Y4663135D01*
X3589477Y4668418D01*
X3576320Y4672025D01*
X3562807Y4673854D01*
X3549192Y4673854D01*
X3535679Y4672025D01*
X3522522Y4668418D01*
X3509975Y4663135D01*
X3498240Y4656175D01*
X3487521Y4647692D01*
X3478022Y4637938D01*
X3469944Y4626914D01*
X3463391Y4614976D01*
X3458514Y4602226D01*
X3455314Y4588967D01*
X3453942Y4575403D01*
X3454400Y4561789D01*
X3456686Y4548327D01*
X3460750Y4535322D01*
X3466490Y4522927D01*
X3473805Y4511446D01*
X3482594Y4501032D01*
X3492703Y4491888D01*
X3503980Y4484166D01*
X3516122Y4478020D01*
X3529025Y4473549D01*
X3542385Y4470806D01*
X3556000Y4469942D01*
X3569614Y4470806D01*
X3582974Y4473549D01*
X3589477Y4475835D01*
X3593236Y4476343D01*
X3596894Y4475530D01*
X3599992Y4473397D01*
X3655364Y4418025D01*
X3661613Y4412945D01*
X3668268Y4409338D01*
X3675481Y4407154D01*
X3683508Y4406392D01*
X3729786Y4406392D01*
X3733647Y4405630D01*
X3736949Y4403445D01*
X3739134Y4400194D01*
X3739946Y4396333D01*
X3739235Y4392472D01*
X3737101Y4389170D01*
X3732022Y4383938D01*
X3723944Y4372914D01*
X3717391Y4360976D01*
X3712514Y4348226D01*
X3709314Y4334967D01*
X3707942Y4321403D01*
X3708400Y4307789D01*
X3710686Y4294327D01*
X3714750Y4281322D01*
X3720490Y4268927D01*
X3727805Y4257446D01*
X3736594Y4247032D01*
X3746703Y4237888D01*
X3757980Y4230166D01*
X3765804Y4226204D01*
X3768750Y4223969D01*
X3770731Y4220768D01*
X3771392Y4217162D01*
X3771392Y4191965D01*
X3770629Y4188053D01*
X3768394Y4184751D01*
X3765143Y4182567D01*
X3761232Y4181805D01*
X3755542Y4181805D01*
X3749243Y4181094D01*
X3743756Y4179163D01*
X3738879Y4176064D01*
X3734765Y4172000D01*
X3731717Y4167073D01*
X3729786Y4161637D01*
X3729075Y4155338D01*
X3729075Y4056430D01*
X3729786Y4050131D01*
X3731717Y4044696D01*
X3734765Y4039768D01*
X3738879Y4035704D01*
X3740759Y4034485D01*
X3743706Y4031691D01*
X3745331Y4027932D01*
X3745331Y4023868D01*
X3743706Y4020108D01*
X3740759Y4017264D01*
X3738879Y4016095D01*
X3734765Y4012031D01*
X3731717Y4007104D01*
X3729786Y4001668D01*
X3729075Y3995318D01*
X3729075Y3958590D01*
X3797300Y3958590D01*
X3797300Y4019804D01*
X3798062Y4023715D01*
X3800246Y4027017D01*
X3803548Y4029201D01*
X3807460Y4029964D01*
X3812540Y4029964D01*
X3816400Y4029201D01*
X3819702Y4027017D01*
X3821937Y4023715D01*
X3822700Y4019804D01*
X3822700Y3958590D01*
X3890924Y3958590D01*
X3890924Y3995318D01*
X3890213Y4001668D01*
X3888282Y4007104D01*
X3885184Y4012031D01*
X3881120Y4016095D01*
X3879240Y4017264D01*
X3876294Y4020108D01*
X3874668Y4023868D01*
X3874668Y4027932D01*
X3876294Y4031691D01*
X3879240Y4034485D01*
X3881120Y4035704D01*
X3885184Y4039768D01*
X3888282Y4044696D01*
X3890213Y4050131D01*
X3890924Y4056430D01*
X3890924Y4155338D01*
X3890213Y4161637D01*
X3888282Y4167073D01*
X3885184Y4172000D01*
X3881120Y4176064D01*
X3876192Y4179163D01*
X3870756Y4181094D01*
X3864406Y4181805D01*
X3858768Y4181805D01*
X3854856Y4182567D01*
X3851605Y4184751D01*
X3849370Y4188053D01*
X3848608Y4191965D01*
X3848608Y4217162D01*
X3849268Y4220819D01*
X3851249Y4223969D01*
X3854196Y4226204D01*
X3862019Y4230166D01*
X3873246Y4237888D01*
X3883355Y4247032D01*
X3892194Y4257446D01*
X3899509Y4268927D01*
X3905250Y4281322D01*
X3909314Y4294327D01*
X3911549Y4307789D01*
X3912006Y4321403D01*
X3910634Y4334967D01*
X3907485Y4348226D01*
X3902608Y4360976D01*
X3896055Y4372914D01*
X3887927Y4383938D01*
X3882898Y4389170D01*
X3880764Y4392472D01*
X3880002Y4396333D01*
X3880815Y4400194D01*
X3883050Y4403445D01*
X3886301Y4405630D01*
X3890162Y4406392D01*
X3980281Y4406392D01*
X3984193Y4405630D01*
X3987495Y4403394D01*
X3996994Y4393895D01*
X3999229Y4390593D01*
X3999992Y4386681D01*
X3999992Y3582517D01*
X3999280Y3578860D01*
X3997350Y3575710D01*
X3994454Y3573475D01*
X3990898Y3572408D01*
X3987190Y3572713D01*
X3984599Y3573373D01*
X3974795Y3574237D01*
X3964990Y3573373D01*
X3955542Y3570833D01*
X3946601Y3566718D01*
X3938574Y3561079D01*
X3931615Y3554120D01*
X3925976Y3546094D01*
X3921861Y3537153D01*
X3919321Y3527704D01*
X3918458Y3517900D01*
X3919321Y3508095D01*
X3921861Y3498646D01*
X3925976Y3489706D01*
X3931615Y3481679D01*
X3933190Y3480104D01*
X3935425Y3476802D01*
X3936187Y3472942D01*
X3936187Y3462324D01*
X3935425Y3458413D01*
X3933190Y3455111D01*
X3931970Y3453892D01*
X3926382Y3445916D01*
X3922268Y3437077D01*
X3921099Y3432657D01*
X3919067Y3428796D01*
X3915562Y3426104D01*
X3911295Y3425139D01*
X3906977Y3426104D01*
X3903522Y3428796D01*
X3901490Y3432657D01*
X3900271Y3437077D01*
X3896156Y3445916D01*
X3890568Y3453892D01*
X3883710Y3460800D01*
X3875735Y3466388D01*
X3866896Y3470503D01*
X3857498Y3472992D01*
X3847795Y3473856D01*
X3838092Y3472992D01*
X3836009Y3472434D01*
X3832301Y3472179D01*
X3828745Y3473196D01*
X3825798Y3475482D01*
X3823868Y3478631D01*
X3823208Y3482289D01*
X3823208Y3593592D01*
X3822395Y3601618D01*
X3820210Y3608832D01*
X3816654Y3615537D01*
X3811524Y3621735D01*
X3761435Y3671824D01*
X3755186Y3676954D01*
X3748532Y3680510D01*
X3741318Y3682695D01*
X3733292Y3683508D01*
X3477768Y3683508D01*
X3473856Y3684270D01*
X3470554Y3686454D01*
X3468370Y3689756D01*
X3467608Y3693668D01*
X3467608Y3868420D01*
X3468370Y3872331D01*
X3470554Y3875633D01*
X3473805Y3877818D01*
X3477717Y3878579D01*
X3481578Y3877868D01*
X3489756Y3872585D01*
X3495243Y3870706D01*
X3501542Y3869994D01*
X3543300Y3869994D01*
X3543300Y3933190D01*
X3477768Y3933190D01*
X3473856Y3933951D01*
X3470554Y3936187D01*
X3468370Y3939489D01*
X3467608Y3943350D01*
X3467608Y3948429D01*
X3468370Y3952341D01*
X3470554Y3955643D01*
X3473856Y3957828D01*
X3477768Y3958590D01*
X3543300Y3958590D01*
X3543300Y4019804D01*
X3544062Y4023715D01*
X3546246Y4027017D01*
X3549548Y4029201D01*
X3553460Y4029964D01*
X3558540Y4029964D01*
X3562400Y4029201D01*
X3565702Y4027017D01*
X3567937Y4023715D01*
X3568700Y4019804D01*
X3568700Y3958590D01*
X3636924Y3958590D01*
X3636924Y3995318D01*
X3636213Y4001668D01*
X3634282Y4007104D01*
X3631184Y4012031D01*
X3627120Y4016095D01*
X3625240Y4017264D01*
X3622294Y4020108D01*
X3620668Y4023868D01*
X3620668Y4027932D01*
X3622294Y4031691D01*
X3625240Y4034485D01*
X3627120Y4035704D01*
X3631184Y4039768D01*
X3634282Y4044696D01*
X3636213Y4050131D01*
X3636924Y4056430D01*
X3636924Y4155338D01*
X3636213Y4161637D01*
X3634282Y4167073D01*
X3631184Y4172000D01*
X3627120Y4176064D01*
X3622192Y4179163D01*
X3616756Y4181094D01*
X3610406Y4181805D01*
X3604768Y4181805D01*
X3600856Y4182567D01*
X3597605Y4184751D01*
X3595370Y4188053D01*
X3594608Y4191965D01*
X3594608Y4217162D01*
X3595268Y4220819D01*
X3597249Y4223969D01*
X3600196Y4226204D01*
X3608019Y4230166D01*
X3619246Y4237888D01*
X3629355Y4247032D01*
X3638194Y4257446D01*
X3645509Y4268927D01*
X3651250Y4281322D01*
X3655314Y4294327D01*
X3657549Y4307789D01*
X3658006Y4321403D01*
X3656634Y4334967D01*
X3653485Y4348226D01*
X3648608Y4360976D01*
X3642055Y4372914D01*
X3633927Y4383938D01*
X3624478Y4393692D01*
X3613759Y4402175D01*
X3602024Y4409135D01*
X3589477Y4414418D01*
X3576320Y4418025D01*
X3562807Y4419854D01*
X3549192Y4419854D01*
X3535679Y4418025D01*
X3522522Y4414418D01*
X3509975Y4409135D01*
X3498240Y4402175D01*
X3487521Y4393692D01*
X3485083Y4391152D01*
X3481781Y4388916D01*
X3477869Y4388104D01*
X3473958Y4388815D01*
X3470605Y4390999D01*
X3468370Y4394301D01*
X3467608Y4398264D01*
X3467608Y4444492D01*
X3466795Y4452518D01*
X3464610Y4459782D01*
X3461054Y4466437D01*
X3455924Y4472635D01*
X3400653Y4527956D01*
X3398570Y4530953D01*
X3397707Y4534509D01*
X3398113Y4538116D01*
X3401314Y4548327D01*
X3403549Y4561789D01*
X3404006Y4575403D01*
X3402634Y4588967D01*
X3399485Y4602226D01*
X3394608Y4614976D01*
X3388055Y4626914D01*
X3379927Y4637938D01*
X3370478Y4647692D01*
X3359759Y4656175D01*
X3348024Y4663135D01*
X3335477Y4668418D01*
X3322320Y4672025D01*
X3308807Y4673854D01*
X3295192Y4673854D01*
X3281679Y4672025D01*
X3268522Y4668418D01*
X3255975Y4663135D01*
X3244240Y4656175D01*
X3233521Y4647692D01*
X3224022Y4637938D01*
X3215944Y4626914D01*
X3209391Y4614976D01*
X3204514Y4602226D01*
X3201314Y4588967D01*
X3199942Y4575403D01*
X3200400Y4561789D01*
X3202686Y4548327D01*
X3206750Y4535322D01*
X3212490Y4522927D01*
X3219805Y4511446D01*
X3228594Y4501032D01*
X3238703Y4491888D01*
X3249980Y4484166D01*
X3262122Y4478020D01*
X3275025Y4473549D01*
X3288385Y4470806D01*
X3302000Y4469942D01*
X3315614Y4470806D01*
X3328974Y4473549D01*
X3335477Y4475835D01*
X3339185Y4476343D01*
X3342894Y4475530D01*
X3345992Y4473397D01*
X3387394Y4431995D01*
X3389629Y4428693D01*
X3390392Y4424781D01*
X3390392Y4398264D01*
X3389579Y4394352D01*
X3387344Y4391050D01*
X3384042Y4388815D01*
X3380130Y4388104D01*
X3376218Y4388916D01*
X3372916Y4391202D01*
X3370478Y4393692D01*
X3359759Y4402175D01*
X3348024Y4409135D01*
X3335477Y4414418D01*
X3322320Y4418025D01*
X3308807Y4419854D01*
X3295192Y4419854D01*
X3281679Y4418025D01*
X3268522Y4414418D01*
X3255975Y4409135D01*
X3244240Y4402175D01*
X3233521Y4393692D01*
X3231083Y4391202D01*
X3227781Y4388916D01*
X3223869Y4388104D01*
X3219958Y4388815D01*
X3216605Y4391050D01*
X3214370Y4394352D01*
X3213608Y4398264D01*
X3213608Y4444492D01*
X3212795Y4452518D01*
X3210610Y4459782D01*
X3207054Y4466437D01*
X3201924Y4472635D01*
X3146653Y4527956D01*
X3144570Y4530953D01*
X3143707Y4534509D01*
X3144113Y4538167D01*
X3147314Y4548327D01*
X3149549Y4561789D01*
X3150006Y4575403D01*
X3148634Y4588967D01*
X3145485Y4602226D01*
X3140608Y4614976D01*
X3134055Y4626914D01*
X3125927Y4637938D01*
X3116478Y4647692D01*
X3105759Y4656175D01*
X3094024Y4663135D01*
X3081477Y4668418D01*
X3068320Y4672025D01*
X3054807Y4673854D01*
X3041192Y4673854D01*
X3027680Y4672025D01*
X3014522Y4668418D01*
X3001975Y4663135D01*
X2990240Y4656175D01*
X2979521Y4647692D01*
X2970022Y4637938D01*
X2961944Y4626914D01*
X2955391Y4614976D01*
X2950514Y4602226D01*
X2947314Y4588967D01*
X2945942Y4575403D01*
X2946400Y4561789D01*
X2948686Y4548327D01*
X2952750Y4535322D01*
X2958490Y4522927D01*
X2965805Y4511446D01*
X2974594Y4501032D01*
X2984703Y4491888D01*
X2995980Y4484166D01*
X3008122Y4478020D01*
X3021025Y4473549D01*
X3034385Y4470806D01*
X3048000Y4469942D01*
X3061614Y4470806D01*
X3074974Y4473549D01*
X3081477Y4475835D01*
X3085236Y4476343D01*
X3088894Y4475530D01*
X3091992Y4473397D01*
X3133394Y4431995D01*
X3135630Y4428693D01*
X3136392Y4424781D01*
X3136392Y4398213D01*
X3135630Y4394301D01*
X3133394Y4390999D01*
X3130042Y4388815D01*
X3126130Y4388053D01*
X3122218Y4388916D01*
X3118916Y4391152D01*
X3116478Y4393692D01*
X3105759Y4402175D01*
X3094024Y4409135D01*
X3081477Y4414418D01*
X3068320Y4418025D01*
X3054807Y4419854D01*
X3041192Y4419854D01*
X3027680Y4418025D01*
X3014522Y4414418D01*
X3001975Y4409135D01*
X2990240Y4402175D01*
X2979521Y4393692D01*
X2970022Y4383938D01*
X2961944Y4372914D01*
X2955391Y4360976D01*
X2950514Y4348226D01*
X2947314Y4334967D01*
X2945942Y4321403D01*
X2946400Y4307789D01*
X2948686Y4294327D01*
X2952750Y4281322D01*
X2958490Y4268927D01*
X2965805Y4257446D01*
X2974594Y4247032D01*
X2984703Y4237888D01*
X2995980Y4230166D01*
X3003804Y4226204D01*
X3006750Y4223969D01*
X3008731Y4220768D01*
X3009392Y4217162D01*
X3009392Y4191965D01*
X3008630Y4188053D01*
X3006394Y4184751D01*
X3003143Y4182567D01*
X2999232Y4181805D01*
X2993542Y4181805D01*
X2987243Y4181094D01*
X2981756Y4179163D01*
X2976880Y4176064D01*
X2972765Y4172000D01*
X2969717Y4167073D01*
X2967786Y4161637D01*
X2967075Y4155338D01*
X2967075Y4056430D01*
X2967786Y4050131D01*
X2969717Y4044696D01*
X2972765Y4039768D01*
X2976880Y4035704D01*
X2978759Y4034485D01*
X2981706Y4031691D01*
X2983331Y4027932D01*
X2983331Y4023868D01*
X2981706Y4020108D01*
X2978759Y4017264D01*
X2976880Y4016095D01*
X2972765Y4012031D01*
X2969717Y4007104D01*
X2967786Y4001668D01*
X2967075Y3995318D01*
X2967075Y3958590D01*
X3035300Y3958590D01*
X3035300Y4019804D01*
X3036062Y4023715D01*
X3038246Y4027017D01*
X3041548Y4029201D01*
X3045460Y4029964D01*
X3050540Y4029964D01*
X3054400Y4029201D01*
X3057702Y4027017D01*
X3059938Y4023715D01*
X3060700Y4019804D01*
X3060700Y3958590D01*
X3126232Y3958590D01*
X3130143Y3957828D01*
X3133394Y3955643D01*
X3135630Y3952341D01*
X3136392Y3948429D01*
X3136392Y3943350D01*
X3135630Y3939489D01*
X3133394Y3936187D01*
X3130143Y3933951D01*
X3126232Y3933190D01*
X3060700Y3933190D01*
X3060700Y3869994D01*
X3102406Y3869994D01*
X3108756Y3870706D01*
X3114192Y3872585D01*
X3122422Y3877868D01*
X3126282Y3878630D01*
X3130143Y3877818D01*
X3133445Y3875633D01*
X3135630Y3872331D01*
X3136392Y3868470D01*
X3136392Y3683508D01*
X3137204Y3675481D01*
X3139389Y3668217D01*
X3142945Y3661562D01*
X3148076Y3655364D01*
X3806190Y2997200D01*
X3808425Y2993898D01*
X3809187Y2989986D01*
X3809187Y2842310D01*
X3808425Y2838399D01*
X3806190Y2835097D01*
X3804970Y2833928D01*
X3799382Y2825953D01*
X3795268Y2817114D01*
X3794099Y2812694D01*
X3792067Y2808782D01*
X3788562Y2806090D01*
X3784295Y2805125D01*
X3779977Y2806090D01*
X3776522Y2808782D01*
X3774490Y2812694D01*
X3773271Y2817114D01*
X3769156Y2825953D01*
X3763568Y2833928D01*
X3756710Y2840786D01*
X3748735Y2846374D01*
X3739896Y2850489D01*
X3730498Y2853029D01*
X3720795Y2853842D01*
X3711092Y2853029D01*
X3701694Y2850489D01*
X3692855Y2846374D01*
X3684879Y2840786D01*
X3677970Y2833928D01*
X3672382Y2825953D01*
X3668268Y2817114D01*
X3665778Y2807716D01*
X3664864Y2797556D01*
X3664864Y2786126D01*
X3664102Y2782265D01*
X3661918Y2778963D01*
X3658666Y2776778D01*
X3654806Y2775966D01*
X3635806Y2775813D01*
X3631742Y2776626D01*
X3628288Y2779064D01*
X3626154Y2782620D01*
X3624275Y2787904D01*
X3621227Y2792831D01*
X3617112Y2796895D01*
X3615232Y2798114D01*
X3612286Y2800908D01*
X3610711Y2804668D01*
X3610711Y2808732D01*
X3612286Y2812491D01*
X3615232Y2815285D01*
X3617112Y2816504D01*
X3621227Y2820568D01*
X3624275Y2825496D01*
X3626205Y2830931D01*
X3626916Y2837281D01*
X3626916Y2864002D01*
X3568700Y2864002D01*
X3568700Y2812796D01*
X3567937Y2808884D01*
X3565753Y2805582D01*
X3562451Y2803398D01*
X3558540Y2802636D01*
X3553460Y2802636D01*
X3549599Y2803398D01*
X3546297Y2805582D01*
X3544062Y2808884D01*
X3543300Y2812796D01*
X3543300Y2864002D01*
X3485083Y2864002D01*
X3485083Y2837281D01*
X3485794Y2830931D01*
X3487724Y2825496D01*
X3490823Y2820568D01*
X3494887Y2816504D01*
X3496767Y2815285D01*
X3499713Y2812491D01*
X3501339Y2808732D01*
X3501339Y2804668D01*
X3499713Y2800908D01*
X3496767Y2798114D01*
X3494887Y2796895D01*
X3490823Y2792831D01*
X3487724Y2787904D01*
X3486810Y2785364D01*
X3484727Y2781858D01*
X3481425Y2779471D01*
X3477463Y2778556D01*
X3473450Y2779268D01*
X3470046Y2781554D01*
X3465220Y2786380D01*
X3457194Y2792018D01*
X3448253Y2796133D01*
X3438804Y2798673D01*
X3429000Y2799537D01*
X3419195Y2798673D01*
X3409746Y2796133D01*
X3400806Y2792018D01*
X3392779Y2786380D01*
X3385820Y2779420D01*
X3380181Y2771394D01*
X3376066Y2762453D01*
X3373526Y2753004D01*
X3372662Y2743200D01*
X3373526Y2733395D01*
X3376066Y2723946D01*
X3380181Y2715006D01*
X3385820Y2706979D01*
X3392779Y2700020D01*
X3400806Y2694381D01*
X3409746Y2690266D01*
X3419195Y2687726D01*
X3429000Y2686862D01*
X3438804Y2687726D01*
X3448253Y2690266D01*
X3457194Y2694381D01*
X3459835Y2696260D01*
X3462578Y2697632D01*
X3465626Y2698089D01*
X3476091Y2698089D01*
X3480155Y2697226D01*
X3483559Y2694838D01*
X3485692Y2691282D01*
X3487724Y2685491D01*
X3490823Y2680614D01*
X3494887Y2676499D01*
X3499815Y2673451D01*
X3505250Y2671521D01*
X3511600Y2670810D01*
X3600450Y2670810D01*
X3606749Y2671521D01*
X3612235Y2673451D01*
X3617112Y2676499D01*
X3621227Y2680614D01*
X3624275Y2685491D01*
X3626510Y2691790D01*
X3628593Y2695346D01*
X3631996Y2697734D01*
X3636010Y2698597D01*
X3654653Y2698750D01*
X3658565Y2697988D01*
X3661867Y2695803D01*
X3664102Y2692501D01*
X3664864Y2688590D01*
X3664864Y2678430D01*
X3665778Y2668270D01*
X3668268Y2658872D01*
X3672382Y2650083D01*
X3677970Y2642108D01*
X3684879Y2635199D01*
X3692855Y2629611D01*
X3701694Y2625496D01*
X3711092Y2622956D01*
X3720795Y2622143D01*
X3730498Y2622956D01*
X3739896Y2625496D01*
X3748735Y2629611D01*
X3756710Y2635199D01*
X3763568Y2642108D01*
X3769156Y2650083D01*
X3773271Y2658872D01*
X3774490Y2663291D01*
X3776522Y2667203D01*
X3779977Y2669895D01*
X3784295Y2670860D01*
X3788562Y2669895D01*
X3792067Y2667203D01*
X3794099Y2663291D01*
X3795268Y2658872D01*
X3799382Y2650083D01*
X3804970Y2642108D01*
X3811879Y2635199D01*
X3819855Y2629611D01*
X3828694Y2625496D01*
X3838092Y2622956D01*
X3847795Y2622143D01*
X3857498Y2622956D01*
X3866896Y2625496D01*
X3875735Y2629611D01*
X3883710Y2635199D01*
X3890568Y2642108D01*
X3896156Y2650083D01*
X3900271Y2658872D01*
X3901490Y2663291D01*
X3903522Y2667203D01*
X3906977Y2669895D01*
X3911295Y2670860D01*
X3915562Y2669895D01*
X3919067Y2667203D01*
X3921099Y2663291D01*
X3922268Y2658872D01*
X3926382Y2650083D01*
X3931970Y2642108D01*
X3933291Y2640787D01*
X3935476Y2637536D01*
X3936237Y2633624D01*
X3936237Y2509164D01*
X3935476Y2505252D01*
X3933291Y2501950D01*
X3923995Y2492654D01*
X3920693Y2490470D01*
X3916781Y2489708D01*
X3454908Y2489708D01*
X3446881Y2488895D01*
X3439617Y2486710D01*
X3432962Y2483154D01*
X3426714Y2478024D01*
X3389325Y2440635D01*
X3384245Y2434437D01*
X3380689Y2427732D01*
X3378504Y2420518D01*
X3377692Y2412492D01*
X3377692Y1048918D01*
X3376929Y1045006D01*
X3374085Y1041095D01*
X3370783Y1038860D01*
X3366871Y1038098D01*
X3354933Y1038098D01*
X3351276Y1038758D01*
X3348126Y1040739D01*
X3345891Y1043686D01*
X3344824Y1047292D01*
X3344062Y1055319D01*
X3342182Y1060704D01*
X3339084Y1065631D01*
X3335020Y1069695D01*
X3333089Y1070914D01*
X3330143Y1073708D01*
X3328568Y1077468D01*
X3328568Y1081532D01*
X3330143Y1085291D01*
X3333089Y1088085D01*
X3335020Y1089304D01*
X3339084Y1093368D01*
X3342182Y1098296D01*
X3344062Y1103731D01*
X3344773Y1110081D01*
X3344773Y1208938D01*
X3344062Y1215237D01*
X3342182Y1220724D01*
X3339084Y1225600D01*
X3335020Y1229715D01*
X3330092Y1232763D01*
X3324656Y1234694D01*
X3318306Y1235405D01*
X3312668Y1235405D01*
X3308756Y1236167D01*
X3305505Y1238351D01*
X3303270Y1241653D01*
X3302508Y1245565D01*
X3302508Y1542796D01*
X3301695Y1550822D01*
X3299510Y1558036D01*
X3295954Y1564741D01*
X3290824Y1570939D01*
X3250641Y1611172D01*
X3248609Y1614017D01*
X3247694Y1617370D01*
X3247948Y1620824D01*
X3250387Y1630578D01*
X3251708Y1643176D01*
X3251250Y1655825D01*
X3249066Y1668322D01*
X3245154Y1680362D01*
X3239566Y1691792D01*
X3232505Y1702307D01*
X3224022Y1711706D01*
X3214319Y1719884D01*
X3203549Y1726590D01*
X3191967Y1731721D01*
X3179775Y1735226D01*
X3167227Y1737004D01*
X3154527Y1737004D01*
X3141980Y1735226D01*
X3129788Y1731721D01*
X3118205Y1726590D01*
X3114852Y1724507D01*
X3110788Y1723034D01*
X3106521Y1723389D01*
X3102762Y1725472D01*
X3100222Y1728927D01*
X3099308Y1733092D01*
X3099308Y1809496D01*
X3100171Y1813560D01*
X3102559Y1816963D01*
X3106115Y1819097D01*
X3110230Y1819605D01*
X3114243Y1818436D01*
X3123895Y1813306D01*
X3135833Y1808988D01*
X3148228Y1806346D01*
X3160877Y1805482D01*
X3173526Y1806346D01*
X3185922Y1808988D01*
X3197860Y1813306D01*
X3209036Y1819249D01*
X3219297Y1826717D01*
X3228441Y1835505D01*
X3236214Y1845513D01*
X3242564Y1856486D01*
X3247339Y1868271D01*
X3250387Y1880565D01*
X3251708Y1893163D01*
X3251250Y1905863D01*
X3249066Y1918309D01*
X3245154Y1930400D01*
X3239566Y1941779D01*
X3232505Y1952294D01*
X3224022Y1961692D01*
X3214319Y1969871D01*
X3203549Y1976577D01*
X3191967Y1981758D01*
X3179775Y1985213D01*
X3167227Y1986991D01*
X3154527Y1986991D01*
X3141980Y1985213D01*
X3129788Y1981758D01*
X3118205Y1976577D01*
X3114852Y1974494D01*
X3110788Y1973021D01*
X3106521Y1973376D01*
X3102762Y1975459D01*
X3100222Y1978914D01*
X3099308Y1983079D01*
X3099308Y2025904D01*
X3100070Y2029764D01*
X3102305Y2033066D01*
X3125622Y2056434D01*
X3128365Y2058365D01*
X3131616Y2059330D01*
X3134969Y2059178D01*
X3148228Y2056333D01*
X3160877Y2055469D01*
X3173526Y2056333D01*
X3185922Y2058974D01*
X3197860Y2063292D01*
X3209036Y2069287D01*
X3219297Y2076704D01*
X3228390Y2085543D01*
X3236214Y2095500D01*
X3242564Y2106472D01*
X3247288Y2118258D01*
X3250387Y2130552D01*
X3251708Y2143150D01*
X3251250Y2155850D01*
X3249066Y2168347D01*
X3245154Y2180386D01*
X3239566Y2191766D01*
X3232505Y2202281D01*
X3224022Y2211730D01*
X3214268Y2219858D01*
X3203549Y2226564D01*
X3191967Y2231745D01*
X3179775Y2235250D01*
X3167227Y2236978D01*
X3154527Y2236978D01*
X3141980Y2235250D01*
X3129788Y2231745D01*
X3118205Y2226564D01*
X3107436Y2219858D01*
X3097733Y2211730D01*
X3089249Y2202281D01*
X3082188Y2191766D01*
X3076600Y2180386D01*
X3072688Y2168347D01*
X3070504Y2155850D01*
X3070047Y2143150D01*
X3071368Y2130552D01*
X3073806Y2120747D01*
X3074060Y2117293D01*
X3073146Y2113991D01*
X3071114Y2111146D01*
X3033776Y2073757D01*
X3028645Y2067509D01*
X3025089Y2060854D01*
X3022904Y2053640D01*
X3022092Y2045614D01*
X3022092Y1245565D01*
X3021330Y1241653D01*
X3019094Y1238351D01*
X3015843Y1236167D01*
X3011932Y1235405D01*
X3006242Y1235405D01*
X2999943Y1234694D01*
X2994456Y1232763D01*
X2989580Y1229715D01*
X2985465Y1225600D01*
X2982417Y1220724D01*
X2980486Y1215237D01*
X2979775Y1208938D01*
X2979775Y1110081D01*
X2980486Y1103731D01*
X2982417Y1098296D01*
X2985465Y1093368D01*
X2989580Y1089304D01*
X2991459Y1088085D01*
X2994406Y1085291D01*
X2996031Y1081532D01*
X2996031Y1077468D01*
X2994406Y1073708D01*
X2991459Y1070914D01*
X2989580Y1069695D01*
X2985465Y1065631D01*
X2982417Y1060704D01*
X2980486Y1055268D01*
X2979775Y1048918D01*
X2979775Y950061D01*
X2980486Y943762D01*
X2982417Y938276D01*
X2985465Y933399D01*
X2989580Y929284D01*
X2994456Y926236D01*
X2999943Y924306D01*
G37*
G36*
X5473700Y5473700D02*
G01*
X5736336Y5473700D01*
X5735929Y5484063D01*
X5733034Y5507024D01*
X5728208Y5529630D01*
X5721553Y5551728D01*
X5713018Y5573217D01*
X5702757Y5593892D01*
X5690819Y5613704D01*
X5677204Y5632348D01*
X5662117Y5649874D01*
X5645607Y5666028D01*
X5627827Y5680760D01*
X5608828Y5693968D01*
X5588812Y5705500D01*
X5567934Y5715355D01*
X5546242Y5723382D01*
X5523992Y5729630D01*
X5501284Y5733948D01*
X5478322Y5736336D01*
X5473700Y5736437D01*
G37*
G36*
X393700Y5473700D02*
G01*
X656336Y5473700D01*
X655929Y5484063D01*
X653034Y5507024D01*
X648208Y5529630D01*
X641553Y5551728D01*
X633018Y5573217D01*
X622757Y5593892D01*
X610819Y5613704D01*
X597204Y5632348D01*
X582117Y5649874D01*
X565607Y5666028D01*
X547827Y5680760D01*
X528828Y5693968D01*
X508812Y5705500D01*
X487934Y5715355D01*
X466242Y5723382D01*
X443992Y5729630D01*
X421284Y5733948D01*
X398322Y5736336D01*
X393700Y5736437D01*
G37*
G36*
X368300Y5185613D02*
G01*
X368300Y5448300D01*
X105410Y5448300D01*
X107289Y5426405D01*
X111150Y5403646D01*
X116890Y5381244D01*
X124460Y5359450D01*
X133858Y5338318D01*
X144983Y5318099D01*
X157784Y5298846D01*
X172161Y5280710D01*
X187960Y5263896D01*
X205130Y5248402D01*
X223520Y5234432D01*
X243027Y5222087D01*
X263499Y5211368D01*
X284835Y5202428D01*
X306781Y5195265D01*
X329285Y5189982D01*
X352145Y5186629D01*
G37*
G36*
X5448300Y5185613D02*
G01*
X5448300Y5448300D01*
X5185410Y5448300D01*
X5187289Y5426405D01*
X5191150Y5403646D01*
X5196890Y5381244D01*
X5204460Y5359450D01*
X5213858Y5338318D01*
X5224983Y5318099D01*
X5237784Y5298846D01*
X5252161Y5280710D01*
X5267960Y5263896D01*
X5285130Y5248402D01*
X5303520Y5234432D01*
X5323027Y5222087D01*
X5343499Y5211368D01*
X5364835Y5202428D01*
X5386781Y5195265D01*
X5409285Y5189982D01*
X5432145Y5186629D01*
G37*
G36*
X393700Y5185562D02*
G01*
X398322Y5185664D01*
X421284Y5188051D01*
X443992Y5192369D01*
X466242Y5198618D01*
X487934Y5206644D01*
X508812Y5216499D01*
X528828Y5228031D01*
X547827Y5241239D01*
X565607Y5255971D01*
X582117Y5272125D01*
X597204Y5289600D01*
X610819Y5308295D01*
X622757Y5328107D01*
X633018Y5348782D01*
X641553Y5370271D01*
X648208Y5392369D01*
X653034Y5414975D01*
X655929Y5437936D01*
X656336Y5448300D01*
X393700Y5448300D01*
G37*
G36*
X5473700Y5185562D02*
G01*
X5478322Y5185664D01*
X5501284Y5188051D01*
X5523992Y5192369D01*
X5546242Y5198618D01*
X5567934Y5206644D01*
X5588812Y5216499D01*
X5608828Y5228031D01*
X5627827Y5241239D01*
X5645607Y5255971D01*
X5662117Y5272125D01*
X5677204Y5289600D01*
X5690819Y5308295D01*
X5702757Y5328107D01*
X5713018Y5348782D01*
X5721553Y5370271D01*
X5728208Y5392369D01*
X5733034Y5414975D01*
X5735929Y5437936D01*
X5736336Y5448300D01*
X5473700Y5448300D01*
G37*
G36*
X4184396Y5075732D02*
G01*
X4198213Y5076596D01*
X4211777Y5079339D01*
X4224934Y5083759D01*
X4237329Y5089906D01*
X4248861Y5097576D01*
X4259275Y5106720D01*
X4268419Y5117134D01*
X4276090Y5128666D01*
X4282236Y5141061D01*
X4286656Y5154218D01*
X4289399Y5167782D01*
X4290263Y5181600D01*
X4289399Y5195417D01*
X4286656Y5208981D01*
X4282236Y5222138D01*
X4276090Y5234533D01*
X4268419Y5246065D01*
X4259275Y5256479D01*
X4248861Y5265623D01*
X4237329Y5273294D01*
X4224934Y5279440D01*
X4211777Y5283860D01*
X4198213Y5286603D01*
X4184396Y5287467D01*
X4170578Y5286603D01*
X4157014Y5283860D01*
X4143857Y5279440D01*
X4131462Y5273294D01*
X4119930Y5265623D01*
X4109516Y5256479D01*
X4100372Y5246065D01*
X4092701Y5234533D01*
X4086555Y5222138D01*
X4082135Y5208981D01*
X4079392Y5195417D01*
X4078528Y5181600D01*
X4079392Y5167782D01*
X4082135Y5154218D01*
X4086555Y5141061D01*
X4092701Y5128666D01*
X4100372Y5117134D01*
X4109516Y5106720D01*
X4119930Y5097576D01*
X4131462Y5089906D01*
X4143857Y5083759D01*
X4157014Y5079339D01*
X4170578Y5076596D01*
G37*
G36*
X1663192Y5075732D02*
G01*
X1677009Y5076596D01*
X1690573Y5079339D01*
X1703730Y5083759D01*
X1716125Y5089906D01*
X1727657Y5097576D01*
X1738071Y5106720D01*
X1747215Y5117134D01*
X1754886Y5128666D01*
X1761032Y5141061D01*
X1765452Y5154218D01*
X1768195Y5167782D01*
X1769059Y5181600D01*
X1768195Y5195417D01*
X1765452Y5208981D01*
X1761032Y5222138D01*
X1754886Y5234533D01*
X1747215Y5246065D01*
X1738071Y5256479D01*
X1727657Y5265623D01*
X1716125Y5273294D01*
X1703730Y5279440D01*
X1690573Y5283860D01*
X1677009Y5286603D01*
X1663192Y5287467D01*
X1649374Y5286603D01*
X1635810Y5283860D01*
X1622653Y5279440D01*
X1610258Y5273294D01*
X1598726Y5265623D01*
X1588312Y5256479D01*
X1579168Y5246065D01*
X1571498Y5234533D01*
X1565351Y5222138D01*
X1560931Y5208981D01*
X1558188Y5195417D01*
X1557324Y5181600D01*
X1558188Y5167782D01*
X1560931Y5154218D01*
X1565351Y5141061D01*
X1571498Y5128666D01*
X1579168Y5117134D01*
X1588312Y5106720D01*
X1598726Y5097576D01*
X1610258Y5089906D01*
X1622653Y5083759D01*
X1635810Y5079339D01*
X1649374Y5076596D01*
G37*
G36*
X1951075Y4924806D02*
G01*
X2019300Y4924806D01*
X2019300Y4986020D01*
X2020062Y4989931D01*
X2022246Y4993233D01*
X2025548Y4995418D01*
X2029460Y4996180D01*
X2034539Y4996180D01*
X2038400Y4995418D01*
X2041702Y4993233D01*
X2043938Y4989931D01*
X2044700Y4986020D01*
X2044700Y4924806D01*
X2112873Y4924806D01*
X2112873Y4961534D01*
X2112162Y4967884D01*
X2110282Y4973320D01*
X2107184Y4978196D01*
X2103120Y4982311D01*
X2101189Y4983480D01*
X2098243Y4986324D01*
X2096668Y4990084D01*
X2096668Y4994148D01*
X2098243Y4997907D01*
X2101189Y5000701D01*
X2103120Y5001869D01*
X2107184Y5005984D01*
X2110282Y5010861D01*
X2112162Y5016347D01*
X2112873Y5022646D01*
X2112873Y5121503D01*
X2112162Y5127853D01*
X2110282Y5133289D01*
X2107184Y5138216D01*
X2103120Y5142280D01*
X2098192Y5145379D01*
X2092756Y5147310D01*
X2086406Y5148021D01*
X2080768Y5148021D01*
X2076856Y5148783D01*
X2073605Y5150967D01*
X2071370Y5154269D01*
X2070607Y5158181D01*
X2070607Y5278678D01*
X2071522Y5282844D01*
X2074011Y5286248D01*
X2077770Y5288381D01*
X2079447Y5288889D01*
X2093315Y5295138D01*
X2106320Y5303012D01*
X2118258Y5312359D01*
X2129028Y5323128D01*
X2138375Y5335066D01*
X2146249Y5348071D01*
X2152548Y5361990D01*
X2154732Y5365191D01*
X2157984Y5367274D01*
X2161794Y5367985D01*
X2165604Y5367274D01*
X2168855Y5365191D01*
X2171039Y5361990D01*
X2177338Y5348071D01*
X2185212Y5335066D01*
X2194560Y5323128D01*
X2205329Y5312359D01*
X2217267Y5303012D01*
X2230272Y5295138D01*
X2241397Y5290108D01*
X2244547Y5287873D01*
X2246680Y5284673D01*
X2247392Y5280863D01*
X2247392Y5158181D01*
X2246630Y5154269D01*
X2244394Y5150967D01*
X2241143Y5148783D01*
X2237232Y5148021D01*
X2231542Y5148021D01*
X2225243Y5147310D01*
X2219756Y5145379D01*
X2214880Y5142280D01*
X2210765Y5138216D01*
X2207717Y5133289D01*
X2205786Y5127853D01*
X2205075Y5121503D01*
X2205075Y5022646D01*
X2205786Y5016347D01*
X2207717Y5010861D01*
X2210765Y5005984D01*
X2214880Y5001869D01*
X2216759Y5000701D01*
X2219706Y4997907D01*
X2221331Y4994148D01*
X2221331Y4990084D01*
X2219706Y4986324D01*
X2216759Y4983480D01*
X2214880Y4982311D01*
X2210765Y4978196D01*
X2207717Y4973320D01*
X2205786Y4967884D01*
X2205075Y4961534D01*
X2205075Y4924806D01*
X2273300Y4924806D01*
X2273300Y4986020D01*
X2274062Y4989931D01*
X2276246Y4993233D01*
X2279548Y4995418D01*
X2283460Y4996180D01*
X2288540Y4996180D01*
X2292400Y4995418D01*
X2295702Y4993233D01*
X2297938Y4989931D01*
X2298700Y4986020D01*
X2298700Y4924806D01*
X2366873Y4924806D01*
X2366873Y4961534D01*
X2366162Y4967884D01*
X2364282Y4973320D01*
X2361184Y4978196D01*
X2357120Y4982311D01*
X2355189Y4983480D01*
X2352243Y4986324D01*
X2350668Y4990084D01*
X2350668Y4994148D01*
X2352243Y4997907D01*
X2355189Y5000701D01*
X2357120Y5001869D01*
X2361184Y5005984D01*
X2364282Y5010861D01*
X2366162Y5016347D01*
X2366873Y5022646D01*
X2366873Y5121503D01*
X2366162Y5127853D01*
X2364282Y5133289D01*
X2361184Y5138216D01*
X2357120Y5142280D01*
X2352192Y5145379D01*
X2346756Y5147310D01*
X2340406Y5148021D01*
X2334768Y5148021D01*
X2330856Y5148783D01*
X2327605Y5150967D01*
X2325370Y5154269D01*
X2324608Y5158181D01*
X2324608Y5278678D01*
X2325522Y5282844D01*
X2328011Y5286248D01*
X2331770Y5288381D01*
X2333447Y5288889D01*
X2347315Y5295138D01*
X2360320Y5303012D01*
X2372258Y5312359D01*
X2383028Y5323128D01*
X2392375Y5335066D01*
X2400249Y5348071D01*
X2406548Y5361990D01*
X2408732Y5365191D01*
X2411984Y5367274D01*
X2415794Y5367985D01*
X2419604Y5367274D01*
X2422855Y5365191D01*
X2425039Y5361990D01*
X2431338Y5348071D01*
X2439212Y5335066D01*
X2448560Y5323128D01*
X2459329Y5312359D01*
X2471267Y5303012D01*
X2484272Y5295138D01*
X2495397Y5290108D01*
X2498547Y5287873D01*
X2500680Y5284673D01*
X2501392Y5280863D01*
X2501392Y5158181D01*
X2500630Y5154269D01*
X2498394Y5150967D01*
X2495143Y5148783D01*
X2491232Y5148021D01*
X2485542Y5148021D01*
X2479243Y5147310D01*
X2473756Y5145379D01*
X2468880Y5142280D01*
X2464765Y5138216D01*
X2461717Y5133289D01*
X2459786Y5127853D01*
X2459075Y5121503D01*
X2459075Y5022646D01*
X2459786Y5016347D01*
X2461717Y5010861D01*
X2464765Y5005984D01*
X2468880Y5001869D01*
X2470759Y5000701D01*
X2473706Y4997907D01*
X2475331Y4994148D01*
X2475331Y4990084D01*
X2473706Y4986324D01*
X2470759Y4983480D01*
X2468880Y4982311D01*
X2464765Y4978196D01*
X2461717Y4973320D01*
X2459786Y4967884D01*
X2459075Y4961534D01*
X2459075Y4924806D01*
X2527300Y4924806D01*
X2527300Y4986020D01*
X2528062Y4989931D01*
X2530246Y4993233D01*
X2533548Y4995418D01*
X2537460Y4996180D01*
X2542540Y4996180D01*
X2546400Y4995418D01*
X2549702Y4993233D01*
X2551938Y4989931D01*
X2552700Y4986020D01*
X2552700Y4924806D01*
X2620873Y4924806D01*
X2620873Y4961534D01*
X2620162Y4967884D01*
X2618282Y4973320D01*
X2615184Y4978196D01*
X2611120Y4982311D01*
X2609189Y4983480D01*
X2606243Y4986324D01*
X2604668Y4990084D01*
X2604668Y4994148D01*
X2606243Y4997907D01*
X2609189Y5000701D01*
X2611120Y5001869D01*
X2615184Y5005984D01*
X2618282Y5010861D01*
X2620162Y5016347D01*
X2620873Y5022646D01*
X2620873Y5121503D01*
X2620162Y5127853D01*
X2618282Y5133289D01*
X2615184Y5138216D01*
X2611120Y5142280D01*
X2606192Y5145379D01*
X2600756Y5147310D01*
X2594406Y5148021D01*
X2588768Y5148021D01*
X2584856Y5148783D01*
X2581605Y5150967D01*
X2579370Y5154269D01*
X2578608Y5158181D01*
X2578608Y5278678D01*
X2579522Y5282844D01*
X2582011Y5286248D01*
X2585770Y5288381D01*
X2587447Y5288889D01*
X2601315Y5295138D01*
X2614320Y5303012D01*
X2626258Y5312359D01*
X2637028Y5323128D01*
X2646375Y5335066D01*
X2654249Y5348071D01*
X2660548Y5361990D01*
X2662732Y5365191D01*
X2665984Y5367274D01*
X2669794Y5367985D01*
X2673604Y5367274D01*
X2676855Y5365191D01*
X2679039Y5361990D01*
X2685338Y5348071D01*
X2693212Y5335066D01*
X2702560Y5323128D01*
X2713329Y5312359D01*
X2725267Y5303012D01*
X2738272Y5295138D01*
X2749397Y5290108D01*
X2752547Y5287873D01*
X2754680Y5284673D01*
X2755392Y5280863D01*
X2755392Y5158181D01*
X2754630Y5154269D01*
X2752394Y5150967D01*
X2749143Y5148783D01*
X2745232Y5148021D01*
X2739542Y5148021D01*
X2733243Y5147310D01*
X2727756Y5145379D01*
X2722880Y5142280D01*
X2718765Y5138216D01*
X2715717Y5133289D01*
X2713786Y5127853D01*
X2713075Y5121503D01*
X2713075Y5022646D01*
X2713786Y5016347D01*
X2715717Y5010861D01*
X2718765Y5005984D01*
X2722880Y5001869D01*
X2724759Y5000701D01*
X2727706Y4997907D01*
X2729331Y4994148D01*
X2729331Y4990084D01*
X2727706Y4986324D01*
X2724759Y4983480D01*
X2722880Y4982311D01*
X2718765Y4978196D01*
X2715717Y4973320D01*
X2713786Y4967884D01*
X2713075Y4961534D01*
X2713075Y4924806D01*
X2781300Y4924806D01*
X2781300Y4986020D01*
X2782062Y4989931D01*
X2784246Y4993233D01*
X2787548Y4995418D01*
X2791460Y4996180D01*
X2796540Y4996180D01*
X2800400Y4995418D01*
X2803702Y4993233D01*
X2805938Y4989931D01*
X2806700Y4986020D01*
X2806700Y4924806D01*
X2874873Y4924806D01*
X2874873Y4961534D01*
X2874162Y4967884D01*
X2872282Y4973320D01*
X2869184Y4978196D01*
X2865120Y4982311D01*
X2863189Y4983480D01*
X2860243Y4986324D01*
X2858668Y4990084D01*
X2858668Y4994148D01*
X2860243Y4997907D01*
X2863189Y5000701D01*
X2865120Y5001869D01*
X2869184Y5005984D01*
X2872282Y5010861D01*
X2874162Y5016347D01*
X2874873Y5022646D01*
X2874873Y5121503D01*
X2874162Y5127853D01*
X2872282Y5133289D01*
X2869184Y5138216D01*
X2865120Y5142280D01*
X2860192Y5145379D01*
X2854756Y5147310D01*
X2848406Y5148021D01*
X2842768Y5148021D01*
X2838856Y5148783D01*
X2835605Y5150967D01*
X2833370Y5154269D01*
X2832608Y5158181D01*
X2832608Y5278678D01*
X2833522Y5282844D01*
X2836011Y5286248D01*
X2839770Y5288381D01*
X2841447Y5288889D01*
X2855315Y5295138D01*
X2868320Y5303012D01*
X2880258Y5312359D01*
X2891028Y5323128D01*
X2900375Y5335066D01*
X2908249Y5348071D01*
X2914548Y5361990D01*
X2916732Y5365191D01*
X2919984Y5367274D01*
X2923794Y5367985D01*
X2927604Y5367274D01*
X2930855Y5365191D01*
X2933039Y5361990D01*
X2939338Y5348071D01*
X2947212Y5335066D01*
X2956560Y5323128D01*
X2967329Y5312359D01*
X2979267Y5303012D01*
X2992272Y5295138D01*
X3003397Y5290108D01*
X3006547Y5287873D01*
X3008680Y5284673D01*
X3009392Y5280863D01*
X3009392Y5158181D01*
X3008630Y5154269D01*
X3006394Y5150967D01*
X3003143Y5148783D01*
X2999232Y5148021D01*
X2993542Y5148021D01*
X2987243Y5147310D01*
X2981756Y5145379D01*
X2976880Y5142280D01*
X2972765Y5138216D01*
X2969717Y5133289D01*
X2967786Y5127853D01*
X2967075Y5121503D01*
X2967075Y5022646D01*
X2967786Y5016347D01*
X2969717Y5010861D01*
X2972765Y5005984D01*
X2976880Y5001869D01*
X2978759Y5000701D01*
X2981706Y4997907D01*
X2983331Y4994148D01*
X2983331Y4990084D01*
X2981706Y4986324D01*
X2978759Y4983480D01*
X2976880Y4982311D01*
X2972765Y4978196D01*
X2969717Y4973320D01*
X2967786Y4967884D01*
X2967075Y4961534D01*
X2967075Y4924806D01*
X3035300Y4924806D01*
X3035300Y4986020D01*
X3036062Y4989931D01*
X3038246Y4993233D01*
X3041548Y4995418D01*
X3045460Y4996180D01*
X3050540Y4996180D01*
X3054400Y4995418D01*
X3057702Y4993233D01*
X3059938Y4989931D01*
X3060700Y4986020D01*
X3060700Y4924806D01*
X3128873Y4924806D01*
X3128873Y4961534D01*
X3128162Y4967884D01*
X3126282Y4973320D01*
X3123184Y4978196D01*
X3119120Y4982311D01*
X3117189Y4983480D01*
X3114243Y4986324D01*
X3112668Y4990084D01*
X3112668Y4994148D01*
X3114243Y4997907D01*
X3117189Y5000701D01*
X3119120Y5001869D01*
X3123184Y5005984D01*
X3126282Y5010861D01*
X3128162Y5016347D01*
X3128873Y5022646D01*
X3128873Y5121503D01*
X3128162Y5127853D01*
X3126282Y5133289D01*
X3123184Y5138216D01*
X3119120Y5142280D01*
X3114192Y5145379D01*
X3108756Y5147310D01*
X3102406Y5148021D01*
X3096768Y5148021D01*
X3092856Y5148783D01*
X3089605Y5150967D01*
X3087370Y5154269D01*
X3086608Y5158181D01*
X3086608Y5278678D01*
X3087522Y5282844D01*
X3090011Y5286248D01*
X3093770Y5288381D01*
X3095447Y5288889D01*
X3109315Y5295138D01*
X3122320Y5303012D01*
X3134258Y5312359D01*
X3145028Y5323128D01*
X3154375Y5335066D01*
X3162249Y5348071D01*
X3168548Y5361990D01*
X3170732Y5365191D01*
X3173984Y5367274D01*
X3177794Y5367985D01*
X3181604Y5367274D01*
X3184855Y5365191D01*
X3187039Y5361990D01*
X3193338Y5348071D01*
X3201212Y5335066D01*
X3210560Y5323128D01*
X3221329Y5312359D01*
X3233267Y5303012D01*
X3246272Y5295138D01*
X3257397Y5290108D01*
X3260547Y5287873D01*
X3262680Y5284673D01*
X3263392Y5280863D01*
X3263392Y5158181D01*
X3262629Y5154269D01*
X3260394Y5150967D01*
X3257143Y5148783D01*
X3253232Y5148021D01*
X3247542Y5148021D01*
X3241243Y5147310D01*
X3235756Y5145379D01*
X3230880Y5142280D01*
X3226765Y5138216D01*
X3223717Y5133289D01*
X3221786Y5127853D01*
X3221075Y5121503D01*
X3221075Y5022646D01*
X3221786Y5016347D01*
X3223717Y5010861D01*
X3226765Y5005984D01*
X3230880Y5001869D01*
X3232759Y5000701D01*
X3235706Y4997907D01*
X3237331Y4994148D01*
X3237331Y4990084D01*
X3235706Y4986324D01*
X3232759Y4983480D01*
X3230880Y4982311D01*
X3226765Y4978196D01*
X3223717Y4973320D01*
X3221786Y4967884D01*
X3221075Y4961534D01*
X3221075Y4924806D01*
X3289300Y4924806D01*
X3289300Y4986020D01*
X3290062Y4989931D01*
X3292246Y4993233D01*
X3295548Y4995418D01*
X3299460Y4996180D01*
X3304540Y4996180D01*
X3308400Y4995418D01*
X3311702Y4993233D01*
X3313937Y4989931D01*
X3314700Y4986020D01*
X3314700Y4924806D01*
X3382873Y4924806D01*
X3382873Y4961534D01*
X3382162Y4967884D01*
X3380282Y4973320D01*
X3377184Y4978196D01*
X3373120Y4982311D01*
X3371189Y4983480D01*
X3368243Y4986324D01*
X3366668Y4990084D01*
X3366668Y4994148D01*
X3368243Y4997907D01*
X3371189Y5000701D01*
X3373120Y5001869D01*
X3377184Y5005984D01*
X3380282Y5010861D01*
X3382162Y5016347D01*
X3382873Y5022646D01*
X3382873Y5121503D01*
X3382162Y5127853D01*
X3380282Y5133289D01*
X3377184Y5138216D01*
X3373120Y5142280D01*
X3368192Y5145379D01*
X3362756Y5147310D01*
X3356406Y5148021D01*
X3350768Y5148021D01*
X3346856Y5148783D01*
X3343605Y5150967D01*
X3341370Y5154269D01*
X3340608Y5158181D01*
X3340608Y5278678D01*
X3341522Y5282844D01*
X3344011Y5286248D01*
X3347770Y5288381D01*
X3349447Y5288889D01*
X3363315Y5295138D01*
X3376320Y5303012D01*
X3388258Y5312359D01*
X3399028Y5323128D01*
X3408375Y5335066D01*
X3416249Y5348071D01*
X3422548Y5361990D01*
X3424732Y5365191D01*
X3427984Y5367274D01*
X3431794Y5367985D01*
X3435604Y5367274D01*
X3438855Y5365191D01*
X3441039Y5361990D01*
X3447338Y5348071D01*
X3455212Y5335066D01*
X3464560Y5323128D01*
X3475329Y5312359D01*
X3487267Y5303012D01*
X3500272Y5295138D01*
X3508603Y5291378D01*
X3511753Y5289143D01*
X3513836Y5285892D01*
X3514598Y5282133D01*
X3514598Y5161737D01*
X3513836Y5157876D01*
X3511600Y5154574D01*
X3508298Y5152390D01*
X3504437Y5151577D01*
X3498748Y5151577D01*
X3492449Y5150866D01*
X3486962Y5148986D01*
X3482086Y5145887D01*
X3477971Y5141823D01*
X3474923Y5136896D01*
X3472992Y5131460D01*
X3472281Y5125110D01*
X3472281Y5026253D01*
X3472992Y5019954D01*
X3474923Y5014468D01*
X3477971Y5009591D01*
X3482086Y5005476D01*
X3483965Y5004308D01*
X3486912Y5001463D01*
X3488486Y4997754D01*
X3488486Y4993640D01*
X3486912Y4989931D01*
X3483965Y4987086D01*
X3482086Y4985918D01*
X3477971Y4981803D01*
X3474923Y4976926D01*
X3472992Y4971440D01*
X3472281Y4965141D01*
X3472281Y4928412D01*
X3540506Y4928412D01*
X3540506Y4989626D01*
X3541268Y4993538D01*
X3543452Y4996789D01*
X3546754Y4999024D01*
X3550665Y4999786D01*
X3555746Y4999786D01*
X3559606Y4999024D01*
X3562908Y4996789D01*
X3565093Y4993538D01*
X3565906Y4989626D01*
X3565906Y4928412D01*
X3634079Y4928412D01*
X3634079Y4965141D01*
X3633368Y4971440D01*
X3631488Y4976926D01*
X3628390Y4981803D01*
X3624326Y4985918D01*
X3622395Y4987086D01*
X3619449Y4989931D01*
X3617874Y4993640D01*
X3617874Y4997754D01*
X3619449Y5001463D01*
X3622395Y5004308D01*
X3624326Y5005476D01*
X3628390Y5009591D01*
X3631488Y5014468D01*
X3633368Y5019954D01*
X3634079Y5026253D01*
X3634079Y5125110D01*
X3633368Y5131460D01*
X3631488Y5136896D01*
X3628390Y5141823D01*
X3624326Y5145887D01*
X3619398Y5148986D01*
X3613962Y5150866D01*
X3607612Y5151577D01*
X3601974Y5151577D01*
X3598062Y5152390D01*
X3594760Y5154574D01*
X3592576Y5157876D01*
X3591814Y5161737D01*
X3591814Y5277764D01*
X3592677Y5281930D01*
X3595217Y5285384D01*
X3598926Y5287467D01*
X3603447Y5288889D01*
X3617315Y5295138D01*
X3630320Y5303012D01*
X3642258Y5312359D01*
X3653028Y5323128D01*
X3662375Y5335066D01*
X3670249Y5348071D01*
X3676548Y5361990D01*
X3678732Y5365191D01*
X3681984Y5367274D01*
X3685794Y5367985D01*
X3689604Y5367274D01*
X3692855Y5365191D01*
X3695039Y5361990D01*
X3701338Y5348071D01*
X3709212Y5335066D01*
X3718560Y5323128D01*
X3729329Y5312359D01*
X3741267Y5303012D01*
X3754272Y5295138D01*
X3765397Y5290108D01*
X3768547Y5287873D01*
X3770680Y5284673D01*
X3771392Y5280863D01*
X3771392Y5158181D01*
X3770629Y5154269D01*
X3768394Y5150967D01*
X3765143Y5148783D01*
X3761232Y5148021D01*
X3755542Y5148021D01*
X3749243Y5147310D01*
X3743756Y5145379D01*
X3738879Y5142280D01*
X3734765Y5138216D01*
X3731717Y5133289D01*
X3729786Y5127853D01*
X3729075Y5121503D01*
X3729075Y5022646D01*
X3729786Y5016347D01*
X3731717Y5010861D01*
X3734765Y5005984D01*
X3738879Y5001869D01*
X3740759Y5000701D01*
X3743706Y4997907D01*
X3745331Y4994148D01*
X3745331Y4990084D01*
X3743706Y4986324D01*
X3740759Y4983480D01*
X3738879Y4982311D01*
X3734765Y4978196D01*
X3731717Y4973320D01*
X3729786Y4967884D01*
X3729075Y4961534D01*
X3729075Y4924806D01*
X3797300Y4924806D01*
X3797300Y4986020D01*
X3798062Y4989931D01*
X3800246Y4993233D01*
X3803548Y4995418D01*
X3807460Y4996180D01*
X3812540Y4996180D01*
X3816400Y4995418D01*
X3819702Y4993233D01*
X3821937Y4989931D01*
X3822700Y4986020D01*
X3822700Y4924806D01*
X3890873Y4924806D01*
X3890873Y4961534D01*
X3890162Y4967884D01*
X3888282Y4973320D01*
X3885184Y4978196D01*
X3881120Y4982311D01*
X3879189Y4983480D01*
X3876243Y4986324D01*
X3874668Y4990084D01*
X3874668Y4994148D01*
X3876243Y4997907D01*
X3879189Y5000701D01*
X3881120Y5001869D01*
X3885184Y5005984D01*
X3888282Y5010861D01*
X3890162Y5016347D01*
X3890873Y5022646D01*
X3890873Y5121503D01*
X3890162Y5127853D01*
X3888282Y5133289D01*
X3885184Y5138216D01*
X3881120Y5142280D01*
X3876192Y5145379D01*
X3870756Y5147310D01*
X3864406Y5148021D01*
X3858768Y5148021D01*
X3854856Y5148783D01*
X3851605Y5150967D01*
X3849370Y5154269D01*
X3848608Y5158181D01*
X3848608Y5278678D01*
X3849522Y5282844D01*
X3852011Y5286248D01*
X3855770Y5288381D01*
X3857447Y5288889D01*
X3871315Y5295138D01*
X3884320Y5303012D01*
X3896258Y5312359D01*
X3907028Y5323128D01*
X3916375Y5335066D01*
X3924249Y5348071D01*
X3930497Y5361940D01*
X3935018Y5376468D01*
X3937762Y5391404D01*
X3938676Y5406593D01*
X3937762Y5421782D01*
X3935018Y5436717D01*
X3930497Y5451246D01*
X3924249Y5465114D01*
X3916375Y5478119D01*
X3907028Y5490057D01*
X3896258Y5500827D01*
X3884320Y5510174D01*
X3871315Y5518048D01*
X3857447Y5524296D01*
X3842918Y5528818D01*
X3827983Y5531561D01*
X3812794Y5532475D01*
X3797604Y5531561D01*
X3782669Y5528818D01*
X3768140Y5524296D01*
X3754272Y5518048D01*
X3741267Y5510174D01*
X3729329Y5500827D01*
X3718560Y5490057D01*
X3709212Y5478119D01*
X3701338Y5465114D01*
X3695039Y5451195D01*
X3692855Y5447995D01*
X3689604Y5445912D01*
X3685794Y5445201D01*
X3681984Y5445912D01*
X3678732Y5447995D01*
X3676548Y5451195D01*
X3670249Y5465114D01*
X3662375Y5478119D01*
X3653028Y5490057D01*
X3642258Y5500827D01*
X3630320Y5510174D01*
X3617315Y5518048D01*
X3603447Y5524296D01*
X3588918Y5528818D01*
X3573983Y5531561D01*
X3558794Y5532475D01*
X3543604Y5531561D01*
X3528669Y5528818D01*
X3514140Y5524296D01*
X3500272Y5518048D01*
X3487267Y5510174D01*
X3475329Y5500827D01*
X3464560Y5490057D01*
X3455212Y5478119D01*
X3447338Y5465114D01*
X3441039Y5451195D01*
X3438855Y5447995D01*
X3435604Y5445912D01*
X3431794Y5445201D01*
X3427984Y5445912D01*
X3424732Y5447995D01*
X3422548Y5451195D01*
X3416249Y5465114D01*
X3408375Y5478119D01*
X3399028Y5490057D01*
X3388258Y5500827D01*
X3376320Y5510174D01*
X3363315Y5518048D01*
X3349447Y5524296D01*
X3334918Y5528818D01*
X3319983Y5531561D01*
X3304794Y5532475D01*
X3289604Y5531561D01*
X3274669Y5528818D01*
X3260140Y5524296D01*
X3246272Y5518048D01*
X3233267Y5510174D01*
X3221329Y5500827D01*
X3210560Y5490057D01*
X3201212Y5478119D01*
X3193338Y5465114D01*
X3187039Y5451195D01*
X3184855Y5447995D01*
X3181604Y5445912D01*
X3177794Y5445201D01*
X3173984Y5445912D01*
X3170732Y5447995D01*
X3168548Y5451195D01*
X3162249Y5465114D01*
X3154375Y5478119D01*
X3145028Y5490057D01*
X3134258Y5500827D01*
X3122320Y5510174D01*
X3109315Y5518048D01*
X3095447Y5524296D01*
X3080918Y5528818D01*
X3065983Y5531561D01*
X3050794Y5532475D01*
X3035604Y5531561D01*
X3020669Y5528818D01*
X3006140Y5524296D01*
X2992272Y5518048D01*
X2979267Y5510174D01*
X2967329Y5500827D01*
X2956560Y5490057D01*
X2947212Y5478119D01*
X2939338Y5465114D01*
X2933039Y5451195D01*
X2930855Y5447995D01*
X2927604Y5445912D01*
X2923794Y5445201D01*
X2919984Y5445912D01*
X2916732Y5447995D01*
X2914548Y5451195D01*
X2908249Y5465114D01*
X2900375Y5478119D01*
X2891028Y5490057D01*
X2880258Y5500827D01*
X2868320Y5510174D01*
X2855315Y5518048D01*
X2841447Y5524296D01*
X2826918Y5528818D01*
X2811983Y5531561D01*
X2796794Y5532475D01*
X2781604Y5531561D01*
X2766669Y5528818D01*
X2752140Y5524296D01*
X2738272Y5518048D01*
X2725267Y5510174D01*
X2713329Y5500827D01*
X2702560Y5490057D01*
X2693212Y5478119D01*
X2685338Y5465114D01*
X2679039Y5451195D01*
X2676855Y5447995D01*
X2673604Y5445912D01*
X2669794Y5445201D01*
X2665984Y5445912D01*
X2662732Y5447995D01*
X2660548Y5451195D01*
X2654249Y5465114D01*
X2646375Y5478119D01*
X2637028Y5490057D01*
X2626258Y5500827D01*
X2614320Y5510174D01*
X2601315Y5518048D01*
X2587447Y5524296D01*
X2572918Y5528818D01*
X2557983Y5531561D01*
X2542794Y5532475D01*
X2527604Y5531561D01*
X2512669Y5528818D01*
X2498140Y5524296D01*
X2484272Y5518048D01*
X2471267Y5510174D01*
X2459329Y5500827D01*
X2448560Y5490057D01*
X2439212Y5478119D01*
X2431338Y5465114D01*
X2425039Y5451195D01*
X2422855Y5447995D01*
X2419604Y5445912D01*
X2415794Y5445201D01*
X2411984Y5445912D01*
X2408732Y5447995D01*
X2406548Y5451195D01*
X2400249Y5465114D01*
X2392375Y5478119D01*
X2383028Y5490057D01*
X2372258Y5500827D01*
X2360320Y5510174D01*
X2347315Y5518048D01*
X2333447Y5524296D01*
X2318918Y5528818D01*
X2303983Y5531561D01*
X2288794Y5532475D01*
X2273604Y5531561D01*
X2258669Y5528818D01*
X2244140Y5524296D01*
X2230272Y5518048D01*
X2217267Y5510174D01*
X2205329Y5500827D01*
X2194560Y5490057D01*
X2185212Y5478119D01*
X2177338Y5465114D01*
X2171039Y5451195D01*
X2168855Y5447995D01*
X2165604Y5445912D01*
X2161794Y5445201D01*
X2157984Y5445912D01*
X2154732Y5447995D01*
X2152548Y5451195D01*
X2146249Y5465114D01*
X2138375Y5478119D01*
X2129028Y5490057D01*
X2118258Y5500827D01*
X2106320Y5510174D01*
X2093315Y5518048D01*
X2079447Y5524296D01*
X2064918Y5528818D01*
X2049983Y5531561D01*
X2034793Y5532475D01*
X2019604Y5531561D01*
X2004669Y5528818D01*
X1990140Y5524296D01*
X1976272Y5518048D01*
X1963267Y5510174D01*
X1951329Y5500827D01*
X1940560Y5490057D01*
X1931212Y5478119D01*
X1923338Y5465114D01*
X1917090Y5451246D01*
X1912569Y5436717D01*
X1909825Y5421782D01*
X1908911Y5406593D01*
X1909825Y5391404D01*
X1912569Y5376468D01*
X1917090Y5361940D01*
X1923338Y5348071D01*
X1931212Y5335066D01*
X1940560Y5323128D01*
X1951329Y5312359D01*
X1963267Y5303012D01*
X1976272Y5295138D01*
X1987397Y5290108D01*
X1990547Y5287873D01*
X1992680Y5284673D01*
X1993392Y5280863D01*
X1993392Y5158181D01*
X1992630Y5154269D01*
X1990394Y5150967D01*
X1987143Y5148783D01*
X1983232Y5148021D01*
X1977542Y5148021D01*
X1971243Y5147310D01*
X1965756Y5145379D01*
X1960880Y5142280D01*
X1956765Y5138216D01*
X1953717Y5133289D01*
X1951786Y5127853D01*
X1951075Y5121503D01*
X1951075Y5022646D01*
X1951786Y5016347D01*
X1953717Y5010861D01*
X1956765Y5005984D01*
X1960880Y5001869D01*
X1962759Y5000701D01*
X1965706Y4997907D01*
X1967331Y4994148D01*
X1967331Y4990084D01*
X1965706Y4986324D01*
X1962759Y4983480D01*
X1960880Y4982311D01*
X1956765Y4978196D01*
X1953717Y4973320D01*
X1951786Y4967884D01*
X1951075Y4961534D01*
G37*
G36*
X3498748Y4839817D02*
G01*
X3540506Y4839817D01*
X3540506Y4903012D01*
X3472281Y4903012D01*
X3472281Y4866284D01*
X3472992Y4859934D01*
X3474923Y4854498D01*
X3477971Y4849571D01*
X3482086Y4845507D01*
X3486962Y4842408D01*
X3492449Y4840528D01*
G37*
G36*
X3565906Y4839817D02*
G01*
X3607612Y4839817D01*
X3613962Y4840528D01*
X3619398Y4842408D01*
X3624326Y4845507D01*
X3628390Y4849571D01*
X3631488Y4854498D01*
X3633368Y4859934D01*
X3634079Y4866284D01*
X3634079Y4903012D01*
X3565906Y4903012D01*
G37*
G36*
X1977542Y4836210D02*
G01*
X2019300Y4836210D01*
X2019300Y4899406D01*
X1951075Y4899406D01*
X1951075Y4862677D01*
X1951786Y4856378D01*
X1953717Y4850892D01*
X1956765Y4846015D01*
X1960880Y4841900D01*
X1965756Y4838801D01*
X1971243Y4836922D01*
G37*
G36*
X2806700Y4836210D02*
G01*
X2848406Y4836210D01*
X2854756Y4836922D01*
X2860192Y4838801D01*
X2865120Y4841900D01*
X2869184Y4846015D01*
X2872282Y4850892D01*
X2874162Y4856378D01*
X2874873Y4862677D01*
X2874873Y4899406D01*
X2806700Y4899406D01*
G37*
G36*
X3822700Y4836210D02*
G01*
X3864406Y4836210D01*
X3870756Y4836922D01*
X3876192Y4838801D01*
X3881120Y4841900D01*
X3885184Y4846015D01*
X3888282Y4850892D01*
X3890162Y4856378D01*
X3890873Y4862677D01*
X3890873Y4899406D01*
X3822700Y4899406D01*
G37*
G36*
X2739542Y4836210D02*
G01*
X2781300Y4836210D01*
X2781300Y4899406D01*
X2713075Y4899406D01*
X2713075Y4862677D01*
X2713786Y4856378D01*
X2715717Y4850892D01*
X2718765Y4846015D01*
X2722880Y4841900D01*
X2727756Y4838801D01*
X2733243Y4836922D01*
G37*
G36*
X2993542Y4836210D02*
G01*
X3035300Y4836210D01*
X3035300Y4899406D01*
X2967075Y4899406D01*
X2967075Y4862677D01*
X2967786Y4856378D01*
X2969717Y4850892D01*
X2972765Y4846015D01*
X2976880Y4841900D01*
X2981756Y4838801D01*
X2987243Y4836922D01*
G37*
G36*
X2485542Y4836210D02*
G01*
X2527300Y4836210D01*
X2527300Y4899406D01*
X2459075Y4899406D01*
X2459075Y4862677D01*
X2459786Y4856378D01*
X2461717Y4850892D01*
X2464765Y4846015D01*
X2468880Y4841900D01*
X2473756Y4838801D01*
X2479243Y4836922D01*
G37*
G36*
X3247542Y4836210D02*
G01*
X3289300Y4836210D01*
X3289300Y4899406D01*
X3221075Y4899406D01*
X3221075Y4862677D01*
X3221786Y4856378D01*
X3223717Y4850892D01*
X3226765Y4846015D01*
X3230880Y4841900D01*
X3235756Y4838801D01*
X3241243Y4836922D01*
G37*
G36*
X2044700Y4836210D02*
G01*
X2086406Y4836210D01*
X2092756Y4836922D01*
X2098192Y4838801D01*
X2103120Y4841900D01*
X2107184Y4846015D01*
X2110282Y4850892D01*
X2112162Y4856378D01*
X2112873Y4862677D01*
X2112873Y4899406D01*
X2044700Y4899406D01*
G37*
G36*
X3755542Y4836210D02*
G01*
X3797300Y4836210D01*
X3797300Y4899406D01*
X3729075Y4899406D01*
X3729075Y4862677D01*
X3729786Y4856378D01*
X3731717Y4850892D01*
X3734765Y4846015D01*
X3738879Y4841900D01*
X3743756Y4838801D01*
X3749243Y4836922D01*
G37*
G36*
X2298700Y4836210D02*
G01*
X2340406Y4836210D01*
X2346756Y4836922D01*
X2352192Y4838801D01*
X2357120Y4841900D01*
X2361184Y4846015D01*
X2364282Y4850892D01*
X2366162Y4856378D01*
X2366873Y4862677D01*
X2366873Y4899406D01*
X2298700Y4899406D01*
G37*
G36*
X2552700Y4836210D02*
G01*
X2594406Y4836210D01*
X2600756Y4836922D01*
X2606192Y4838801D01*
X2611120Y4841900D01*
X2615184Y4846015D01*
X2618282Y4850892D01*
X2620162Y4856378D01*
X2620873Y4862677D01*
X2620873Y4899406D01*
X2552700Y4899406D01*
G37*
G36*
X3060700Y4836210D02*
G01*
X3102406Y4836210D01*
X3108756Y4836922D01*
X3114192Y4838801D01*
X3119120Y4841900D01*
X3123184Y4846015D01*
X3126282Y4850892D01*
X3128162Y4856378D01*
X3128873Y4862677D01*
X3128873Y4899406D01*
X3060700Y4899406D01*
G37*
G36*
X3314700Y4836210D02*
G01*
X3356406Y4836210D01*
X3362756Y4836922D01*
X3368192Y4838801D01*
X3373120Y4841900D01*
X3377184Y4846015D01*
X3380282Y4850892D01*
X3382162Y4856378D01*
X3382873Y4862677D01*
X3382873Y4899406D01*
X3314700Y4899406D01*
G37*
G36*
X2231542Y4836210D02*
G01*
X2273300Y4836210D01*
X2273300Y4899406D01*
X2205075Y4899406D01*
X2205075Y4862677D01*
X2205786Y4856378D01*
X2207717Y4850892D01*
X2210765Y4846015D01*
X2214880Y4841900D01*
X2219756Y4838801D01*
X2225243Y4836922D01*
G37*
G36*
X3755542Y3869994D02*
G01*
X3797300Y3869994D01*
X3797300Y3933190D01*
X3729075Y3933190D01*
X3729075Y3896461D01*
X3729786Y3890162D01*
X3731717Y3884676D01*
X3734765Y3879799D01*
X3738879Y3875684D01*
X3743756Y3872585D01*
X3749243Y3870706D01*
G37*
G36*
X2044700Y3869994D02*
G01*
X2086406Y3869994D01*
X2092756Y3870706D01*
X2098192Y3872585D01*
X2103120Y3875684D01*
X2107184Y3879799D01*
X2110282Y3884676D01*
X2112213Y3890162D01*
X2112924Y3896461D01*
X2112924Y3933190D01*
X2044700Y3933190D01*
G37*
G36*
X2231542Y3869994D02*
G01*
X2273300Y3869994D01*
X2273300Y3933190D01*
X2205075Y3933190D01*
X2205075Y3896461D01*
X2205786Y3890162D01*
X2207717Y3884676D01*
X2210765Y3879799D01*
X2214880Y3875684D01*
X2219756Y3872585D01*
X2225243Y3870706D01*
G37*
G36*
X2806700Y3869994D02*
G01*
X2848406Y3869994D01*
X2854756Y3870706D01*
X2860192Y3872585D01*
X2865120Y3875684D01*
X2869184Y3879799D01*
X2872282Y3884676D01*
X2874213Y3890162D01*
X2874924Y3896461D01*
X2874924Y3933190D01*
X2806700Y3933190D01*
G37*
G36*
X3822700Y3869994D02*
G01*
X3864406Y3869994D01*
X3870756Y3870706D01*
X3876192Y3872585D01*
X3881120Y3875684D01*
X3885184Y3879799D01*
X3888282Y3884676D01*
X3890213Y3890162D01*
X3890924Y3896461D01*
X3890924Y3933190D01*
X3822700Y3933190D01*
G37*
G36*
X3568700Y3869994D02*
G01*
X3610406Y3869994D01*
X3616756Y3870706D01*
X3622192Y3872585D01*
X3627120Y3875684D01*
X3631184Y3879799D01*
X3634282Y3884676D01*
X3636213Y3890162D01*
X3636924Y3896461D01*
X3636924Y3933190D01*
X3568700Y3933190D01*
G37*
G36*
X2993542Y3869994D02*
G01*
X3035300Y3869994D01*
X3035300Y3933190D01*
X2967075Y3933190D01*
X2967075Y3896461D01*
X2967786Y3890162D01*
X2969717Y3884676D01*
X2972765Y3879799D01*
X2976880Y3875684D01*
X2981756Y3872585D01*
X2987243Y3870706D01*
G37*
G36*
X1977542Y3869994D02*
G01*
X2019300Y3869994D01*
X2019300Y3933190D01*
X1951075Y3933190D01*
X1951075Y3896461D01*
X1951786Y3890162D01*
X1953717Y3884676D01*
X1956765Y3879799D01*
X1960880Y3875684D01*
X1965756Y3872585D01*
X1971243Y3870706D01*
G37*
G36*
X4495495Y3370681D02*
G01*
X4538675Y3370681D01*
X4538675Y3417570D01*
X4537811Y3427679D01*
X4535271Y3437077D01*
X4531156Y3445916D01*
X4525568Y3453892D01*
X4518710Y3460800D01*
X4510735Y3466388D01*
X4501896Y3470503D01*
X4495495Y3472230D01*
G37*
G36*
X4495495Y3243783D02*
G01*
X4501896Y3245510D01*
X4510735Y3249625D01*
X4518710Y3255213D01*
X4525568Y3262071D01*
X4531156Y3270046D01*
X4535271Y3278886D01*
X4537811Y3288284D01*
X4538675Y3298444D01*
X4538675Y3345281D01*
X4495495Y3345281D01*
G37*
G36*
X3568700Y2889402D02*
G01*
X3626916Y2889402D01*
X3626916Y2916123D01*
X3626205Y2922422D01*
X3624275Y2927908D01*
X3621227Y2932785D01*
X3617112Y2936900D01*
X3612235Y2939999D01*
X3606749Y2941878D01*
X3600450Y2942590D01*
X3568700Y2942590D01*
G37*
G36*
X3485083Y2889402D02*
G01*
X3543300Y2889402D01*
X3543300Y2942590D01*
X3511600Y2942590D01*
X3505250Y2941878D01*
X3499815Y2939999D01*
X3494887Y2936900D01*
X3490823Y2932785D01*
X3487724Y2927908D01*
X3485794Y2922422D01*
X3485083Y2916123D01*
G37*
G36*
X1084783Y2889402D02*
G01*
X1143000Y2889402D01*
X1143000Y2942590D01*
X1111300Y2942590D01*
X1104950Y2941878D01*
X1099515Y2939999D01*
X1094587Y2936900D01*
X1090523Y2932785D01*
X1087424Y2927908D01*
X1085494Y2922422D01*
X1084783Y2916123D01*
G37*
G36*
X1168400Y2889402D02*
G01*
X1226616Y2889402D01*
X1226616Y2916123D01*
X1225905Y2922422D01*
X1223975Y2927908D01*
X1220927Y2932785D01*
X1216812Y2936900D01*
X1211935Y2939999D01*
X1206449Y2941878D01*
X1200150Y2942590D01*
X1168400Y2942590D01*
G37*

%LPD*%
G36*
X3667912Y3249574D02*
G01*
X3663645Y3250184D01*
X3660089Y3252520D01*
X3216605Y3696004D01*
X3214370Y3699306D01*
X3213608Y3703218D01*
X3213608Y3868420D01*
X3214370Y3872280D01*
X3216554Y3875582D01*
X3219856Y3877818D01*
X3223717Y3878579D01*
X3227578Y3877868D01*
X3235756Y3872585D01*
X3241243Y3870706D01*
X3247542Y3869994D01*
X3289300Y3869994D01*
X3289300Y3933190D01*
X3223768Y3933190D01*
X3219856Y3933951D01*
X3216605Y3936187D01*
X3214370Y3939489D01*
X3213608Y3943350D01*
X3213608Y3948429D01*
X3214370Y3952341D01*
X3216605Y3955643D01*
X3219856Y3957828D01*
X3223768Y3958590D01*
X3289300Y3958590D01*
X3289300Y4019804D01*
X3290062Y4023715D01*
X3292246Y4027017D01*
X3295548Y4029201D01*
X3299460Y4029964D01*
X3304540Y4029964D01*
X3308400Y4029201D01*
X3311702Y4027017D01*
X3313937Y4023715D01*
X3314700Y4019804D01*
X3314700Y3958590D01*
X3380232Y3958590D01*
X3384092Y3957828D01*
X3387394Y3955643D01*
X3389629Y3952341D01*
X3390392Y3948429D01*
X3390392Y3943350D01*
X3389629Y3939489D01*
X3387394Y3936187D01*
X3384092Y3933951D01*
X3380232Y3933190D01*
X3314700Y3933190D01*
X3314700Y3869994D01*
X3356406Y3869994D01*
X3362756Y3870706D01*
X3368192Y3872585D01*
X3376422Y3877868D01*
X3380282Y3878579D01*
X3384143Y3877818D01*
X3387445Y3875582D01*
X3389629Y3872331D01*
X3390392Y3868420D01*
X3390392Y3670808D01*
X3391154Y3662781D01*
X3393338Y3655517D01*
X3396945Y3648862D01*
X3402025Y3642664D01*
X3426714Y3617925D01*
X3432962Y3612845D01*
X3439617Y3609289D01*
X3446881Y3607054D01*
X3454908Y3606292D01*
X3713581Y3606292D01*
X3717493Y3605529D01*
X3720795Y3603294D01*
X3742994Y3581095D01*
X3745229Y3577793D01*
X3745992Y3573881D01*
X3745992Y3558286D01*
X3745077Y3554120D01*
X3742588Y3550665D01*
X3738879Y3548583D01*
X3734663Y3548176D01*
X3730599Y3549548D01*
X3727500Y3552444D01*
X3726332Y3554120D01*
X3719372Y3561079D01*
X3711346Y3566718D01*
X3702405Y3570833D01*
X3692956Y3573373D01*
X3683152Y3574237D01*
X3673348Y3573373D01*
X3663899Y3570833D01*
X3654958Y3566718D01*
X3646932Y3561079D01*
X3639972Y3554120D01*
X3634333Y3546094D01*
X3630218Y3537153D01*
X3627678Y3527704D01*
X3626815Y3517900D01*
X3627678Y3508095D01*
X3630218Y3498646D01*
X3634333Y3489706D01*
X3639972Y3481679D01*
X3646932Y3474720D01*
X3654958Y3469081D01*
X3663899Y3464966D01*
X3668268Y3463798D01*
X3671722Y3462070D01*
X3674313Y3459175D01*
X3675684Y3455568D01*
X3675532Y3451656D01*
X3673957Y3448151D01*
X3672382Y3445916D01*
X3668268Y3437077D01*
X3665778Y3427679D01*
X3664864Y3417570D01*
X3664864Y3298444D01*
X3665778Y3288284D01*
X3668268Y3278886D01*
X3672382Y3270046D01*
X3675583Y3265525D01*
X3677259Y3261563D01*
X3677158Y3257296D01*
X3675278Y3253435D01*
X3672027Y3250692D01*
G37*

%LPD*%
G36*
X1941068Y3015894D02*
G01*
X1937156Y3016656D01*
X1933905Y3018840D01*
X1931670Y3022142D01*
X1930907Y3026054D01*
X1930907Y3091281D01*
X1931670Y3095193D01*
X1933905Y3098495D01*
X1982724Y3147364D01*
X1987854Y3153562D01*
X1991410Y3160268D01*
X1993595Y3167481D01*
X1994407Y3175508D01*
X1994407Y3253689D01*
X1995170Y3257600D01*
X1997405Y3260852D01*
X1998573Y3262071D01*
X2004161Y3270046D01*
X2008276Y3278886D01*
X2009495Y3283305D01*
X2011527Y3287217D01*
X2014982Y3289909D01*
X2019300Y3290824D01*
X2023567Y3289909D01*
X2027072Y3287217D01*
X2029104Y3283305D01*
X2030272Y3278886D01*
X2034387Y3270046D01*
X2039975Y3262071D01*
X2046884Y3255213D01*
X2054860Y3249625D01*
X2063699Y3245510D01*
X2070100Y3243783D01*
X2070100Y3345281D01*
X2021839Y3345281D01*
X2017979Y3346043D01*
X2014677Y3348278D01*
X2012492Y3351580D01*
X2011680Y3355441D01*
X2011680Y3360521D01*
X2012492Y3364433D01*
X2014677Y3367735D01*
X2017979Y3369919D01*
X2021839Y3370681D01*
X2070100Y3370681D01*
X2070100Y3472230D01*
X2063699Y3470503D01*
X2054860Y3466388D01*
X2046884Y3460800D01*
X2039975Y3453892D01*
X2034387Y3445916D01*
X2030272Y3437077D01*
X2029104Y3432657D01*
X2027072Y3428796D01*
X2023567Y3426104D01*
X2019300Y3425139D01*
X2014982Y3426104D01*
X2011527Y3428796D01*
X2009495Y3432657D01*
X2008276Y3437077D01*
X2004161Y3445916D01*
X1998573Y3453892D01*
X1991715Y3460800D01*
X1983739Y3466388D01*
X1974900Y3470503D01*
X1965502Y3472992D01*
X1955800Y3473856D01*
X1946097Y3472992D01*
X1936699Y3470503D01*
X1927860Y3466388D01*
X1919884Y3460800D01*
X1912975Y3453892D01*
X1907387Y3445916D01*
X1903272Y3437077D01*
X1902104Y3432657D01*
X1900072Y3428796D01*
X1896567Y3426104D01*
X1892300Y3425139D01*
X1887982Y3426104D01*
X1884527Y3428796D01*
X1882495Y3432657D01*
X1881276Y3437077D01*
X1877161Y3445916D01*
X1871573Y3453892D01*
X1870405Y3455111D01*
X1868170Y3458413D01*
X1867407Y3462324D01*
X1867407Y3650081D01*
X1868170Y3653993D01*
X1870405Y3657295D01*
X1892604Y3679494D01*
X1895906Y3681729D01*
X1899818Y3682492D01*
X2361692Y3682492D01*
X2369718Y3683254D01*
X2376932Y3685489D01*
X2383637Y3689045D01*
X2389835Y3694125D01*
X2439924Y3744264D01*
X2445054Y3750462D01*
X2448610Y3757117D01*
X2450795Y3764381D01*
X2451608Y3772408D01*
X2451608Y3868420D01*
X2452370Y3872280D01*
X2454554Y3875582D01*
X2457856Y3877818D01*
X2461717Y3878579D01*
X2465578Y3877868D01*
X2473756Y3872585D01*
X2479243Y3870706D01*
X2485542Y3869994D01*
X2527300Y3869994D01*
X2527300Y3933190D01*
X2461768Y3933190D01*
X2457856Y3933951D01*
X2454605Y3936187D01*
X2452370Y3939489D01*
X2451608Y3943350D01*
X2451608Y3948429D01*
X2452370Y3952341D01*
X2454605Y3955643D01*
X2457856Y3957828D01*
X2461768Y3958590D01*
X2527300Y3958590D01*
X2527300Y4019804D01*
X2528062Y4023715D01*
X2530246Y4027017D01*
X2533548Y4029201D01*
X2537460Y4029964D01*
X2542540Y4029964D01*
X2546400Y4029201D01*
X2549702Y4027017D01*
X2551938Y4023715D01*
X2552700Y4019804D01*
X2552700Y3958590D01*
X2618232Y3958590D01*
X2622143Y3957828D01*
X2625394Y3955643D01*
X2627630Y3952341D01*
X2628392Y3948429D01*
X2628392Y3943350D01*
X2627630Y3939489D01*
X2625394Y3936187D01*
X2622143Y3933951D01*
X2618232Y3933190D01*
X2552700Y3933190D01*
X2552700Y3869994D01*
X2594406Y3869994D01*
X2600756Y3870706D01*
X2606192Y3872585D01*
X2614422Y3877868D01*
X2618282Y3878630D01*
X2622143Y3877818D01*
X2625445Y3875633D01*
X2627630Y3872331D01*
X2628392Y3868470D01*
X2628392Y3703218D01*
X2627630Y3699306D01*
X2625394Y3696004D01*
X1948230Y3018840D01*
X1944979Y3016656D01*
G37*

%LPC*%
G36*
X2095500Y3243783D02*
G01*
X2101900Y3245510D01*
X2110740Y3249625D01*
X2118715Y3255213D01*
X2125573Y3262071D01*
X2131161Y3270046D01*
X2135276Y3278886D01*
X2137816Y3288284D01*
X2138680Y3298444D01*
X2138680Y3345281D01*
X2095500Y3345281D01*
G37*
G36*
X2095500Y3370681D02*
G01*
X2138680Y3370681D01*
X2138680Y3417570D01*
X2137816Y3427679D01*
X2135276Y3437077D01*
X2131161Y3445916D01*
X2125573Y3453892D01*
X2118715Y3460800D01*
X2110740Y3466388D01*
X2101900Y3470503D01*
X2095500Y3472230D01*
G37*

%LPD*%
G36*
X1843582Y1226769D02*
G01*
X1839722Y1227531D01*
X1831492Y1232763D01*
X1826056Y1234694D01*
X1819706Y1235405D01*
X1814068Y1235405D01*
X1810156Y1236167D01*
X1806905Y1238351D01*
X1804670Y1241653D01*
X1803907Y1245565D01*
X1803907Y1541424D01*
X1803095Y1549400D01*
X1800910Y1556664D01*
X1797354Y1563319D01*
X1792224Y1569567D01*
X1750618Y1611172D01*
X1748637Y1614017D01*
X1747723Y1617370D01*
X1747977Y1620824D01*
X1750364Y1630578D01*
X1751736Y1643176D01*
X1751279Y1655825D01*
X1749043Y1668322D01*
X1745132Y1680362D01*
X1739595Y1691792D01*
X1732483Y1702307D01*
X1723999Y1711706D01*
X1714296Y1719884D01*
X1703578Y1726590D01*
X1691944Y1731721D01*
X1679803Y1735226D01*
X1667205Y1737004D01*
X1654556Y1737004D01*
X1642008Y1735226D01*
X1629816Y1731721D01*
X1618234Y1726590D01*
X1616252Y1725371D01*
X1612188Y1723898D01*
X1607921Y1724253D01*
X1604162Y1726336D01*
X1601622Y1729790D01*
X1600708Y1733956D01*
X1600708Y1808734D01*
X1601571Y1812798D01*
X1603959Y1816201D01*
X1607515Y1818335D01*
X1611630Y1818893D01*
X1615643Y1817725D01*
X1623923Y1813306D01*
X1635810Y1808988D01*
X1648256Y1806346D01*
X1660906Y1805482D01*
X1673555Y1806346D01*
X1685950Y1808988D01*
X1697837Y1813306D01*
X1709064Y1819249D01*
X1719325Y1826717D01*
X1728419Y1835505D01*
X1736242Y1845513D01*
X1742592Y1856486D01*
X1747316Y1868271D01*
X1750364Y1880565D01*
X1751736Y1893163D01*
X1751279Y1905863D01*
X1749043Y1918309D01*
X1745132Y1930400D01*
X1739595Y1941779D01*
X1732483Y1952294D01*
X1723999Y1961692D01*
X1714296Y1969871D01*
X1703578Y1976577D01*
X1691944Y1981758D01*
X1679803Y1985213D01*
X1667205Y1986991D01*
X1654556Y1986991D01*
X1642008Y1985213D01*
X1629816Y1981758D01*
X1618234Y1976577D01*
X1616252Y1975357D01*
X1612188Y1973884D01*
X1607921Y1974240D01*
X1604162Y1976323D01*
X1601622Y1979777D01*
X1600708Y1983993D01*
X1600708Y2027275D01*
X1601470Y2031187D01*
X1603705Y2034489D01*
X1625650Y2056434D01*
X1628394Y2058365D01*
X1631594Y2059330D01*
X1634947Y2059178D01*
X1648256Y2056333D01*
X1660855Y2055469D01*
X1673504Y2056333D01*
X1685950Y2058974D01*
X1697837Y2063292D01*
X1709013Y2069287D01*
X1719275Y2076704D01*
X1728419Y2085543D01*
X1736242Y2095500D01*
X1742541Y2106472D01*
X1747316Y2118258D01*
X1750364Y2130552D01*
X1751685Y2143150D01*
X1751279Y2155850D01*
X1749043Y2168347D01*
X1745132Y2180386D01*
X1739595Y2191766D01*
X1732483Y2202281D01*
X1723999Y2211730D01*
X1714296Y2219858D01*
X1703527Y2226564D01*
X1691944Y2231745D01*
X1679752Y2235250D01*
X1667205Y2236978D01*
X1654556Y2236978D01*
X1641957Y2235250D01*
X1629816Y2231745D01*
X1618234Y2226564D01*
X1607464Y2219858D01*
X1597761Y2211730D01*
X1589278Y2202281D01*
X1582166Y2191766D01*
X1576628Y2180386D01*
X1572717Y2168347D01*
X1570482Y2155850D01*
X1570024Y2143150D01*
X1571396Y2130552D01*
X1573834Y2120798D01*
X1574038Y2117293D01*
X1573123Y2113991D01*
X1571142Y2111146D01*
X1535176Y2075129D01*
X1530045Y2068931D01*
X1526489Y2062276D01*
X1524304Y2055012D01*
X1523492Y2046986D01*
X1523492Y1245565D01*
X1522730Y1241653D01*
X1520494Y1238351D01*
X1517243Y1236167D01*
X1513332Y1235405D01*
X1507642Y1235405D01*
X1501343Y1234694D01*
X1496110Y1233627D01*
X1492351Y1234541D01*
X1489202Y1236776D01*
X1487119Y1239977D01*
X1486408Y1243787D01*
X1486408Y2176881D01*
X1487170Y2180793D01*
X1489405Y2184095D01*
X1836369Y2531059D01*
X1839620Y2533243D01*
X1843532Y2534005D01*
X1847443Y2533243D01*
X1850694Y2531059D01*
X1852930Y2527757D01*
X1853692Y2523845D01*
X1853692Y1236929D01*
X1852930Y1233068D01*
X1850745Y1229766D01*
X1847443Y1227582D01*
G37*

%LPD*%
G36*
X4853533Y1038098D02*
G01*
X4849876Y1038758D01*
X4846726Y1040739D01*
X4844491Y1043686D01*
X4843424Y1047292D01*
X4842662Y1055319D01*
X4840782Y1060704D01*
X4837684Y1065631D01*
X4833620Y1069695D01*
X4831689Y1070914D01*
X4828743Y1073708D01*
X4827168Y1077468D01*
X4827168Y1081532D01*
X4828743Y1085291D01*
X4831689Y1088085D01*
X4833620Y1089304D01*
X4837684Y1093368D01*
X4840782Y1098296D01*
X4842662Y1103731D01*
X4843373Y1110081D01*
X4843373Y1208938D01*
X4842662Y1215237D01*
X4840782Y1220724D01*
X4837684Y1225600D01*
X4833620Y1229715D01*
X4828692Y1232763D01*
X4823256Y1234694D01*
X4816906Y1235405D01*
X4811268Y1235405D01*
X4807356Y1236167D01*
X4804105Y1238351D01*
X4801870Y1241653D01*
X4801108Y1245565D01*
X4801108Y1544218D01*
X4800295Y1552244D01*
X4798110Y1559458D01*
X4794554Y1566113D01*
X4789424Y1572361D01*
X4750612Y1611172D01*
X4748631Y1614017D01*
X4747717Y1617370D01*
X4747971Y1620824D01*
X4750358Y1630578D01*
X4751730Y1643176D01*
X4751273Y1655825D01*
X4749038Y1668322D01*
X4745126Y1680362D01*
X4739589Y1691792D01*
X4732477Y1702307D01*
X4723993Y1711706D01*
X4714290Y1719884D01*
X4703572Y1726590D01*
X4691938Y1731721D01*
X4679797Y1735226D01*
X4667199Y1737004D01*
X4654550Y1737004D01*
X4642002Y1735226D01*
X4629810Y1731721D01*
X4618228Y1726590D01*
X4613452Y1723593D01*
X4609388Y1722170D01*
X4605121Y1722526D01*
X4601362Y1724558D01*
X4598822Y1728012D01*
X4597908Y1732229D01*
X4597908Y1810257D01*
X4598771Y1814322D01*
X4601159Y1817674D01*
X4604715Y1819808D01*
X4608830Y1820367D01*
X4612843Y1819198D01*
X4623917Y1813306D01*
X4635804Y1808988D01*
X4648250Y1806346D01*
X4660900Y1805482D01*
X4673549Y1806346D01*
X4685944Y1808988D01*
X4697831Y1813306D01*
X4709058Y1819249D01*
X4719320Y1826717D01*
X4728413Y1835505D01*
X4736236Y1845513D01*
X4742586Y1856486D01*
X4747310Y1868271D01*
X4750358Y1880565D01*
X4751730Y1893163D01*
X4751273Y1905863D01*
X4749038Y1918309D01*
X4745126Y1930400D01*
X4739589Y1941779D01*
X4732477Y1952294D01*
X4723993Y1961692D01*
X4714290Y1969871D01*
X4703572Y1976577D01*
X4691938Y1981758D01*
X4679797Y1985213D01*
X4667199Y1986991D01*
X4654550Y1986991D01*
X4642002Y1985213D01*
X4629810Y1981758D01*
X4618228Y1976577D01*
X4613452Y1973630D01*
X4609388Y1972157D01*
X4605121Y1972513D01*
X4601362Y1974596D01*
X4598822Y1978050D01*
X4597908Y1982216D01*
X4597908Y2024481D01*
X4598670Y2028393D01*
X4600905Y2031695D01*
X4625644Y2056434D01*
X4628388Y2058365D01*
X4631588Y2059330D01*
X4634941Y2059178D01*
X4648250Y2056333D01*
X4660849Y2055469D01*
X4673498Y2056333D01*
X4685944Y2058974D01*
X4697831Y2063292D01*
X4709007Y2069287D01*
X4719269Y2076704D01*
X4728413Y2085543D01*
X4736236Y2095500D01*
X4742535Y2106472D01*
X4747310Y2118258D01*
X4750358Y2130552D01*
X4751679Y2143150D01*
X4751273Y2155850D01*
X4749038Y2168347D01*
X4745126Y2180386D01*
X4739589Y2191766D01*
X4732477Y2202281D01*
X4723993Y2211730D01*
X4714290Y2219858D01*
X4703521Y2226564D01*
X4691938Y2231745D01*
X4679746Y2235250D01*
X4667199Y2236978D01*
X4654550Y2236978D01*
X4641951Y2235250D01*
X4629810Y2231745D01*
X4618228Y2226564D01*
X4607458Y2219858D01*
X4597755Y2211730D01*
X4589272Y2202281D01*
X4582160Y2191766D01*
X4576622Y2180386D01*
X4572711Y2168347D01*
X4570476Y2155850D01*
X4570018Y2143150D01*
X4571390Y2130552D01*
X4573828Y2120798D01*
X4574032Y2117293D01*
X4573117Y2113991D01*
X4571136Y2111146D01*
X4532376Y2072335D01*
X4527245Y2066137D01*
X4523689Y2059482D01*
X4521504Y2052218D01*
X4520692Y2044192D01*
X4520692Y1245565D01*
X4519930Y1241653D01*
X4517694Y1238351D01*
X4514443Y1236167D01*
X4510532Y1235405D01*
X4504842Y1235405D01*
X4498543Y1234694D01*
X4493056Y1232763D01*
X4488180Y1229715D01*
X4484065Y1225600D01*
X4481017Y1220724D01*
X4479086Y1215237D01*
X4478477Y1209649D01*
X4477054Y1205534D01*
X4474057Y1202385D01*
X4469993Y1200759D01*
X4465624Y1201013D01*
X4461764Y1203096D01*
X4459122Y1206550D01*
X4458208Y1210818D01*
X4458208Y2393289D01*
X4458970Y2397201D01*
X4461205Y2400503D01*
X4509820Y2449118D01*
X4514900Y2455316D01*
X4518456Y2462022D01*
X4520692Y2469235D01*
X4521454Y2477262D01*
X4521454Y2633726D01*
X4522216Y2637637D01*
X4531156Y2650083D01*
X4535271Y2658872D01*
X4537811Y2668270D01*
X4538675Y2678430D01*
X4538675Y2797556D01*
X4537811Y2807716D01*
X4535271Y2817114D01*
X4531156Y2825953D01*
X4525568Y2833928D01*
X4518710Y2840786D01*
X4510735Y2846374D01*
X4501896Y2850489D01*
X4492498Y2853029D01*
X4482795Y2853842D01*
X4473092Y2853029D01*
X4463694Y2850489D01*
X4454855Y2846374D01*
X4446879Y2840786D01*
X4439970Y2833928D01*
X4434382Y2825953D01*
X4430268Y2817114D01*
X4429099Y2812694D01*
X4427067Y2808782D01*
X4423562Y2806090D01*
X4419295Y2805125D01*
X4414977Y2806090D01*
X4411522Y2808782D01*
X4409490Y2812694D01*
X4408271Y2817114D01*
X4404156Y2825953D01*
X4398568Y2833928D01*
X4397349Y2835097D01*
X4395165Y2838399D01*
X4394403Y2842310D01*
X4394403Y2920796D01*
X4393590Y2928823D01*
X4391406Y2936036D01*
X4387850Y2942691D01*
X4382719Y2948940D01*
X4105960Y3225749D01*
X4103624Y3229305D01*
X4102963Y3233470D01*
X4104081Y3237534D01*
X4106773Y3240836D01*
X4110532Y3242716D01*
X4120896Y3245510D01*
X4129735Y3249625D01*
X4137710Y3255213D01*
X4144568Y3262071D01*
X4150156Y3270046D01*
X4154271Y3278886D01*
X4155490Y3283305D01*
X4157522Y3287217D01*
X4160977Y3289909D01*
X4165295Y3290824D01*
X4169562Y3289909D01*
X4173067Y3287217D01*
X4175099Y3283305D01*
X4176268Y3278886D01*
X4180382Y3270046D01*
X4185970Y3262071D01*
X4192879Y3255213D01*
X4200855Y3249625D01*
X4209694Y3245510D01*
X4219092Y3242970D01*
X4228795Y3242106D01*
X4238498Y3242970D01*
X4247896Y3245510D01*
X4256735Y3249625D01*
X4264710Y3255213D01*
X4271568Y3262071D01*
X4277156Y3270046D01*
X4281271Y3278886D01*
X4282490Y3283305D01*
X4284522Y3287217D01*
X4287977Y3289909D01*
X4292295Y3290824D01*
X4296562Y3289909D01*
X4300067Y3287217D01*
X4302099Y3283305D01*
X4303268Y3278886D01*
X4307382Y3270046D01*
X4312970Y3262071D01*
X4314190Y3260852D01*
X4316425Y3257550D01*
X4317187Y3253689D01*
X4317187Y3112312D01*
X4317949Y3104286D01*
X4320184Y3097022D01*
X4323740Y3090367D01*
X4328820Y3084118D01*
X4949494Y2463495D01*
X4951730Y2460193D01*
X4952492Y2456281D01*
X4952492Y1061872D01*
X4951730Y1057960D01*
X4949494Y1054709D01*
X4935880Y1041095D01*
X4932578Y1038860D01*
X4928717Y1038098D01*
G37*

%LPD*%
G36*
X3850233Y1038098D02*
G01*
X3846576Y1038758D01*
X3843426Y1040739D01*
X3841191Y1043686D01*
X3840124Y1047292D01*
X3839362Y1055319D01*
X3837482Y1060704D01*
X3834384Y1065631D01*
X3830320Y1069695D01*
X3828389Y1070914D01*
X3825443Y1073708D01*
X3823868Y1077468D01*
X3823868Y1081532D01*
X3825443Y1085291D01*
X3828389Y1088085D01*
X3830320Y1089304D01*
X3834384Y1093368D01*
X3837482Y1098296D01*
X3839362Y1103731D01*
X3840073Y1110081D01*
X3840073Y1208938D01*
X3839362Y1215237D01*
X3837482Y1220724D01*
X3834384Y1225600D01*
X3830320Y1229715D01*
X3825392Y1232763D01*
X3819956Y1234694D01*
X3813606Y1235405D01*
X3807968Y1235405D01*
X3804056Y1236167D01*
X3800805Y1238351D01*
X3798570Y1241653D01*
X3797808Y1245565D01*
X3797808Y1547520D01*
X3796995Y1555496D01*
X3794810Y1562760D01*
X3791254Y1569415D01*
X3786124Y1575663D01*
X3750614Y1611172D01*
X3748633Y1614017D01*
X3747719Y1617370D01*
X3747973Y1620824D01*
X3750360Y1630578D01*
X3751732Y1643176D01*
X3751275Y1655825D01*
X3749040Y1668322D01*
X3745128Y1680362D01*
X3739591Y1691792D01*
X3732479Y1702307D01*
X3723995Y1711706D01*
X3714292Y1719884D01*
X3703574Y1726590D01*
X3691940Y1731721D01*
X3679799Y1735226D01*
X3667201Y1737004D01*
X3654551Y1737004D01*
X3642004Y1735226D01*
X3629812Y1731721D01*
X3618229Y1726590D01*
X3610152Y1721561D01*
X3606088Y1720088D01*
X3601821Y1720443D01*
X3598062Y1722526D01*
X3595522Y1725980D01*
X3594608Y1730146D01*
X3594608Y1812493D01*
X3595573Y1816811D01*
X3598316Y1820316D01*
X3602228Y1822348D01*
X3606647Y1822450D01*
X3610762Y1820722D01*
X3612743Y1819249D01*
X3623919Y1813306D01*
X3635806Y1808988D01*
X3648252Y1806346D01*
X3660901Y1805482D01*
X3673551Y1806346D01*
X3685946Y1808988D01*
X3697833Y1813306D01*
X3709060Y1819249D01*
X3719322Y1826717D01*
X3728415Y1835505D01*
X3736238Y1845513D01*
X3742588Y1856486D01*
X3747312Y1868271D01*
X3750360Y1880565D01*
X3751732Y1893163D01*
X3751275Y1905863D01*
X3749040Y1918309D01*
X3745128Y1930400D01*
X3739591Y1941779D01*
X3732479Y1952294D01*
X3723995Y1961692D01*
X3714292Y1969871D01*
X3703574Y1976577D01*
X3691940Y1981758D01*
X3679799Y1985213D01*
X3667201Y1986991D01*
X3654551Y1986991D01*
X3642004Y1985213D01*
X3629812Y1981758D01*
X3618229Y1976577D01*
X3610152Y1971548D01*
X3606088Y1970074D01*
X3601821Y1970430D01*
X3598062Y1972513D01*
X3595522Y1975967D01*
X3594608Y1980184D01*
X3594608Y2021230D01*
X3595370Y2025091D01*
X3597605Y2028393D01*
X3625646Y2056434D01*
X3628390Y2058365D01*
X3631590Y2059330D01*
X3634943Y2059178D01*
X3648252Y2056333D01*
X3660851Y2055469D01*
X3673500Y2056333D01*
X3685946Y2058974D01*
X3697833Y2063292D01*
X3709009Y2069287D01*
X3719271Y2076704D01*
X3728415Y2085543D01*
X3736238Y2095500D01*
X3742537Y2106472D01*
X3747312Y2118258D01*
X3750360Y2130552D01*
X3751681Y2143150D01*
X3751275Y2155850D01*
X3749040Y2168347D01*
X3745128Y2180386D01*
X3739591Y2191766D01*
X3732479Y2202281D01*
X3723995Y2211730D01*
X3714292Y2219858D01*
X3703523Y2226564D01*
X3691940Y2231745D01*
X3679748Y2235250D01*
X3667201Y2236978D01*
X3654551Y2236978D01*
X3641953Y2235250D01*
X3629812Y2231745D01*
X3618179Y2226564D01*
X3607460Y2219858D01*
X3597757Y2211730D01*
X3589274Y2202281D01*
X3582162Y2191766D01*
X3576624Y2180386D01*
X3572713Y2168347D01*
X3570478Y2155850D01*
X3570020Y2143150D01*
X3571392Y2130552D01*
X3573830Y2120798D01*
X3574034Y2117344D01*
X3573119Y2113991D01*
X3571138Y2111146D01*
X3529076Y2069084D01*
X3523945Y2062835D01*
X3520389Y2056180D01*
X3518204Y2048916D01*
X3517392Y2040889D01*
X3517392Y1245565D01*
X3516629Y1241653D01*
X3514394Y1238351D01*
X3511143Y1236167D01*
X3507232Y1235405D01*
X3501542Y1235405D01*
X3495243Y1234694D01*
X3489756Y1232763D01*
X3484879Y1229715D01*
X3480765Y1225600D01*
X3477717Y1220724D01*
X3475786Y1215237D01*
X3475177Y1209649D01*
X3473754Y1205534D01*
X3470757Y1202385D01*
X3466693Y1200759D01*
X3462324Y1201013D01*
X3458464Y1203045D01*
X3455822Y1206500D01*
X3454908Y1210767D01*
X3454908Y2392781D01*
X3455670Y2396693D01*
X3457905Y2399995D01*
X3467404Y2409494D01*
X3470706Y2411730D01*
X3474567Y2412492D01*
X3936492Y2412492D01*
X3944518Y2413254D01*
X3951732Y2415489D01*
X3958437Y2419045D01*
X3964635Y2424125D01*
X4001820Y2461310D01*
X4006900Y2467508D01*
X4010456Y2474214D01*
X4012692Y2481427D01*
X4013454Y2489454D01*
X4013454Y2633726D01*
X4014215Y2637637D01*
X4023156Y2650083D01*
X4027271Y2658872D01*
X4028490Y2663291D01*
X4030522Y2667203D01*
X4033977Y2669895D01*
X4038295Y2670860D01*
X4042562Y2669895D01*
X4046067Y2667203D01*
X4048099Y2663291D01*
X4049268Y2658872D01*
X4053382Y2650083D01*
X4058970Y2642108D01*
X4065879Y2635199D01*
X4073855Y2629611D01*
X4082694Y2625496D01*
X4092092Y2622956D01*
X4101795Y2622143D01*
X4111498Y2622956D01*
X4120896Y2625496D01*
X4129735Y2629611D01*
X4137710Y2635199D01*
X4144568Y2642108D01*
X4150156Y2650083D01*
X4154271Y2658872D01*
X4155490Y2663291D01*
X4157522Y2667203D01*
X4160977Y2669895D01*
X4165295Y2670860D01*
X4169562Y2669895D01*
X4173067Y2667203D01*
X4175099Y2663291D01*
X4176268Y2658872D01*
X4180382Y2650083D01*
X4185970Y2642108D01*
X4187291Y2640787D01*
X4189476Y2637536D01*
X4190237Y2633624D01*
X4190237Y2382164D01*
X4189476Y2378252D01*
X4187291Y2374950D01*
X4177995Y2365705D01*
X4174693Y2363470D01*
X4170781Y2362708D01*
X3950208Y2362708D01*
X3942181Y2361895D01*
X3934968Y2359710D01*
X3928262Y2356154D01*
X3922064Y2351024D01*
X3884676Y2313635D01*
X3879545Y2307437D01*
X3875989Y2300732D01*
X3873804Y2293518D01*
X3872992Y2285492D01*
X3872992Y1048918D01*
X3872229Y1045006D01*
X3869385Y1041095D01*
X3866083Y1038860D01*
X3862171Y1038098D01*
G37*

%LPD*%
D10*
X4924295Y588020D02*
G01*
X4924295Y591322D01*
X4921247Y597672D01*
X4917945Y600974D01*
X4911595Y604022D01*
X4898895Y604022D01*
X4892545Y600974D01*
X4889497Y597672D01*
X4886195Y591322D01*
X4886195Y584972D01*
X4889497Y578622D01*
X4895847Y568970D01*
X4927597Y537220D01*
X4883147Y537220D01*
D11*
X1587500Y4762500D02*
G01*
X3429000Y4762500D01*
X762000Y254000D02*
G01*
X762000Y1384297D01*
X1016000Y254000D02*
G01*
X1016000Y114300D01*
D12*
X4267200Y999492D02*
G01*
X4390392Y999492D01*
X4419600Y1028700D01*
X4419600Y2413507D01*
X4482851Y2476754D01*
X4482851Y2737865D01*
X3759200Y999492D02*
G01*
X3882392Y999492D01*
X3911600Y1028700D01*
X3911600Y2286000D01*
X3949700Y2324100D01*
X4191000Y2324100D01*
X4228851Y2361945D01*
X4228851Y2737865D01*
X3263900Y999492D02*
G01*
X3387092Y999492D01*
X3416300Y1028700D01*
X3416300Y2413000D01*
X3454387Y2451094D01*
X3937000Y2451094D01*
X3974851Y2488945D01*
X3974851Y2737865D01*
X1270000Y999492D02*
G01*
X1355092Y999492D01*
X1384300Y1028700D01*
X1384300Y2286000D01*
X1574800Y2476500D01*
X1574800Y2737865D01*
X2082800Y2737865D02*
G01*
X2082800Y2476500D01*
X2413000Y2146300D01*
X2413000Y1028687D01*
X2442194Y999492D01*
X2565400Y999492D01*
X2260600Y1159476D02*
G01*
X2260600Y1546608D01*
X2160910Y1646298D01*
X2057400Y1159476D02*
G01*
X2057400Y2042795D01*
X2160897Y2146294D01*
X1955800Y3357984D02*
G01*
X1955800Y3175000D01*
X1892300Y3111494D01*
X1892300Y1028694D01*
X1921507Y999487D01*
X2057400Y999487D01*
X4762500Y1159482D02*
G01*
X4762500Y1544698D01*
X4660900Y1646298D01*
X4559300Y1159482D02*
G01*
X4559300Y2044705D01*
X4660887Y2146294D01*
X4267200Y1159482D02*
G01*
X4267200Y1539999D01*
X4160898Y1646298D01*
X4064000Y1159482D02*
G01*
X4064000Y2049406D01*
X4160888Y2146294D01*
X3759200Y1159482D02*
G01*
X3759200Y1547997D01*
X3660899Y1646298D01*
X3556000Y1159482D02*
G01*
X3556000Y2041408D01*
X3660886Y2146294D01*
X3060700Y1159482D02*
G01*
X3060700Y2046094D01*
X3160897Y2146294D01*
X3263900Y1159482D02*
G01*
X3263900Y1543298D01*
X3160897Y1646298D01*
X2565400Y1159482D02*
G01*
X2565400Y2050795D01*
X2660898Y2146294D01*
X2768600Y1159482D02*
G01*
X2768600Y1538597D01*
X2660898Y1646298D01*
X1562100Y1159482D02*
G01*
X1562100Y2047496D01*
X1660895Y2146294D01*
X1765300Y1159482D02*
G01*
X1765300Y1541901D01*
X1660908Y1646298D01*
X1270000Y1159482D02*
G01*
X1270000Y1537207D01*
X1160909Y1646298D01*
X1066800Y1159482D02*
G01*
X1066800Y2052198D01*
X1160896Y2146294D01*
X4762500Y999492D02*
G01*
X4948908Y999492D01*
X4991087Y1041671D01*
X4991087Y2476494D01*
X4355790Y3111792D01*
X4355790Y3357984D01*
X4559300Y999492D02*
G01*
X4762500Y999492D01*
X4064000Y999492D02*
G01*
X4267200Y999492D01*
X3556000Y999492D02*
G01*
X3759200Y999492D01*
X3060700Y999492D02*
G01*
X3263900Y999492D01*
X2565400Y999492D02*
G01*
X2768600Y999492D01*
X2057400Y999492D02*
G01*
X2260600Y999492D01*
X1562100Y999492D02*
G01*
X1765300Y999492D01*
X1066800Y999492D02*
G01*
X1270000Y999492D01*
X1257300Y999492D01*
X4228790Y3357984D02*
G01*
X4228790Y4534184D01*
X4203687Y4559287D01*
X3810012Y4559287D01*
X3812791Y5406590D02*
G01*
X3810000Y5403799D01*
X3810000Y5072087D01*
X3558791Y5406590D02*
G01*
X3553195Y5400997D01*
X3553195Y5075684D01*
X3304791Y5406590D02*
G01*
X3302000Y5403799D01*
X3302000Y5072087D01*
X3050791Y5406590D02*
G01*
X3048000Y5403799D01*
X3048000Y5072087D01*
X2796791Y5406590D02*
G01*
X2794000Y5403799D01*
X2794000Y5072087D01*
X2542791Y5406590D02*
G01*
X2540000Y5403799D01*
X2540000Y5072087D01*
X2288791Y5406590D02*
G01*
X2286000Y5403799D01*
X2286000Y5072087D01*
X2032000Y5072087D02*
G01*
X2032000Y5403799D01*
X2034791Y5406590D01*
X4355790Y2737965D02*
G01*
X4355790Y2921292D01*
X4038587Y3238494D01*
X4038587Y4406887D01*
X4000487Y4444987D01*
X3683012Y4444987D01*
X3556000Y4572000D01*
X3847790Y2737965D02*
G01*
X3847790Y3010192D01*
X3175000Y3682994D01*
X3175000Y4445005D01*
X3048000Y4572000D01*
X1955800Y2737965D02*
G01*
X1955800Y2971800D01*
X2667000Y3682994D01*
X2667000Y4444994D01*
X2794000Y4572000D01*
X1828800Y3357984D02*
G01*
X1828800Y3670294D01*
X1879600Y3721094D01*
X2362200Y3721094D01*
X2413000Y3771894D01*
X2413000Y4444994D01*
X2540000Y4572000D01*
X1447800Y2737865D02*
G01*
X1447800Y2984500D01*
X1638300Y3175000D01*
X1638300Y4533900D01*
X1676400Y4572000D01*
X2032000Y4572000D01*
X2032000Y4318000D02*
G01*
X2032000Y4105920D01*
X3810000Y4318000D02*
G01*
X3810000Y4105920D01*
X3556000Y4318000D02*
G01*
X3556000Y4105920D01*
X3302000Y4318000D02*
G01*
X3302000Y4105920D01*
X3048000Y4318000D02*
G01*
X3048000Y4105920D01*
X2794000Y4318000D02*
G01*
X2794000Y4105920D01*
X2540000Y4318000D02*
G01*
X2540000Y4105920D01*
X2286000Y4318000D02*
G01*
X2286000Y4105920D01*
X1320800Y2737865D02*
G01*
X1155700Y2736595D01*
X3720851Y2737865D02*
G01*
X3555751Y2736595D01*
X1320800Y3357996D02*
G01*
X1320800Y3517894D01*
X1574800Y3357996D02*
G01*
X1574800Y3517894D01*
X3974790Y3357996D02*
G01*
X3974790Y3517894D01*
X3555690Y2736695D02*
G01*
X3435499Y2736695D01*
X3429000Y2743200D01*
X3720790Y3357996D02*
G01*
X3720790Y3480247D01*
X3683149Y3517894D01*
X1701800Y2737965D02*
G01*
X1701800Y3111494D01*
X1765300Y3174994D01*
X1765300Y4394187D01*
X1816100Y4444987D01*
X2158987Y4444987D01*
X2286000Y4572000D01*
X4101790Y2737965D02*
G01*
X4101790Y2908592D01*
X3784587Y3225794D01*
X3784587Y3594094D01*
X3733787Y3644894D01*
X3454387Y3644894D01*
X3428987Y3670294D01*
X3428987Y4445005D01*
X3302000Y4572000D01*
D11*
X939800Y1397000D02*
G01*
X762000Y1397000D01*
X939800Y1892300D02*
G01*
X762000Y1892300D01*
X762000Y1397000D01*
X762000Y1892300D02*
G01*
X762000Y2736595D01*
D12*
X1155700Y2736595D02*
G01*
X762000Y2736595D01*
D11*
X762000Y2736595D02*
G01*
X762000Y4711700D01*
X812800Y4762500D01*
X1320800Y4762500D01*
X1320800Y4762487D02*
G01*
X1587500Y4762487D01*
X3429000Y4762500D02*
G01*
X3683000Y4762500D01*
X3683000Y4762500D02*
G01*
X3975100Y4762500D01*
D12*
X1562100Y999487D02*
G01*
X1477007Y999487D01*
X1447800Y1028700D01*
X1447800Y2197094D01*
X1828800Y2578094D01*
X1828800Y2737965D01*
D13*
G01*
X2031992Y3945884D03*
G01*
X2031992Y4105884D03*
D14*
G01*
X2082800Y2737967D03*
G01*
X1955800Y2737967D03*
G01*
X1828800Y2737967D03*
G01*
X1701800Y2737967D03*
G01*
X1574800Y2737967D03*
G01*
X1447800Y2737967D03*
G01*
X1320800Y2737967D03*
G01*
X2082800Y3357981D03*
G01*
X1955800Y3357981D03*
G01*
X1828800Y3357981D03*
G01*
X1701800Y3357981D03*
G01*
X1574800Y3357981D03*
G01*
X1447800Y3357981D03*
G01*
X1320800Y3357981D03*
G01*
X4482795Y2737967D03*
G01*
X4355795Y2737967D03*
G01*
X4228795Y2737967D03*
G01*
X4101795Y2737967D03*
G01*
X3974795Y2737967D03*
G01*
X3847795Y2737967D03*
G01*
X3720795Y2737967D03*
G01*
X4482795Y3357981D03*
G01*
X4355795Y3357981D03*
G01*
X4228795Y3357981D03*
G01*
X4101795Y3357981D03*
G01*
X3974795Y3357981D03*
G01*
X3847795Y3357981D03*
G01*
X3720795Y3357981D03*
D13*
G01*
X2031989Y4912098D03*
G01*
X2031989Y5072098D03*
G01*
X3809992Y3945884D03*
G01*
X3809992Y4105884D03*
G01*
X3555992Y3945884D03*
G01*
X3555992Y4105884D03*
G01*
X3301992Y3945884D03*
G01*
X3301992Y4105884D03*
G01*
X3047992Y3945884D03*
G01*
X3047992Y4105884D03*
G01*
X2793992Y3945884D03*
G01*
X2793992Y4105884D03*
G01*
X2539992Y3945884D03*
G01*
X2539992Y4105884D03*
G01*
X2285992Y3945884D03*
G01*
X2285992Y4105884D03*
G01*
X3809989Y4912098D03*
G01*
X3809989Y5072098D03*
G01*
X3553188Y4915695D03*
G01*
X3553188Y5075694D03*
G01*
X3301989Y4912098D03*
G01*
X3301989Y5072098D03*
G01*
X3047989Y4912098D03*
G01*
X3047989Y5072098D03*
G01*
X2793989Y4912098D03*
G01*
X2793989Y5072098D03*
G01*
X2539989Y4912098D03*
G01*
X2539989Y5072098D03*
G01*
X2285989Y4912098D03*
G01*
X2285989Y5072098D03*
G01*
X1269994Y999489D03*
G01*
X1269994Y1159489D03*
G01*
X1066794Y999489D03*
G01*
X1066794Y1159489D03*
G01*
X4762487Y999489D03*
G01*
X4762487Y1159489D03*
G01*
X4559287Y999489D03*
G01*
X4559287Y1159489D03*
G01*
X4267189Y999489D03*
G01*
X4267189Y1159489D03*
G01*
X4063989Y999489D03*
G01*
X4063989Y1159489D03*
G01*
X3759189Y999489D03*
G01*
X3759189Y1159489D03*
G01*
X3555989Y999489D03*
G01*
X3555989Y1159489D03*
G01*
X3263889Y999489D03*
G01*
X3263889Y1159489D03*
G01*
X3060692Y999489D03*
G01*
X3060692Y1159489D03*
G01*
X2768592Y999489D03*
G01*
X2768592Y1159489D03*
G01*
X2565392Y999489D03*
G01*
X2565392Y1159489D03*
G01*
X2260592Y999489D03*
G01*
X2260592Y1159489D03*
G01*
X2057392Y999489D03*
G01*
X2057392Y1159489D03*
G01*
X1562094Y999489D03*
G01*
X1562094Y1159489D03*
G01*
X1765294Y999489D03*
G01*
X1765294Y1159489D03*
D15*
G01*
X1155710Y2876704D03*
G01*
X1155710Y2736705D03*
G01*
X3556005Y2876704D03*
G01*
X3556005Y2736705D03*
D16*
G01*
X999997Y6641998D03*
G01*
X11284000Y6641998D03*
G01*
X1499996Y-7241997D03*
G01*
X10784001Y-7241997D03*
D17*
G01*
X381000Y5461000D03*
G01*
X5461000Y5461000D03*
G01*
X5461000Y381000D03*
G01*
X381000Y381000D03*
D18*
G01*
X4660900Y2146300D03*
G01*
X4660900Y1396288D03*
G01*
X4660900Y1646301D03*
G01*
X4660900Y1896287D03*
G01*
X4160900Y2146300D03*
G01*
X4160900Y1396288D03*
G01*
X4160900Y1646301D03*
G01*
X4160900Y1896287D03*
G01*
X3660902Y2146300D03*
G01*
X3660902Y1396288D03*
G01*
X3660902Y1646301D03*
G01*
X3660902Y1896287D03*
G01*
X3160902Y2146300D03*
G01*
X3160902Y1396288D03*
G01*
X3160902Y1646301D03*
G01*
X3160902Y1896287D03*
G01*
X2660904Y2146300D03*
G01*
X2660904Y1396288D03*
G01*
X2660904Y1646301D03*
G01*
X2660904Y1896287D03*
G01*
X2160904Y2146300D03*
G01*
X2160904Y1396288D03*
G01*
X2160904Y1646301D03*
G01*
X2160904Y1896287D03*
G01*
X1660905Y1896287D03*
G01*
X1660905Y1646301D03*
G01*
X1660905Y1396288D03*
G01*
X1660905Y2146300D03*
G01*
X1160906Y1396288D03*
G01*
X1160906Y1646301D03*
G01*
X1160906Y1896287D03*
G01*
X1160906Y2146300D03*
D19*
G01*
X2794000Y4572000D03*
G01*
X2794000Y4318000D03*
G01*
X2540000Y4572000D03*
G01*
X2540000Y4318000D03*
G01*
X2032000Y4318000D03*
G01*
X2032000Y4572000D03*
G01*
X3302000Y4572000D03*
G01*
X3302000Y4318000D03*
G01*
X3048000Y4572000D03*
G01*
X3048000Y4318000D03*
G01*
X3810000Y4318000D03*
G01*
X3810000Y4559300D03*
D20*
G01*
X3812793Y5406593D03*
G01*
X3558793Y5406593D03*
G01*
X3304793Y5406593D03*
G01*
X3050793Y5406593D03*
G01*
X2796793Y5406593D03*
G01*
X2542793Y5406593D03*
G01*
X2288793Y5406593D03*
G01*
X2034793Y5406593D03*
D19*
G01*
X3556000Y4318000D03*
G01*
X3556000Y4572000D03*
G01*
X2286000Y4318000D03*
G01*
X2286000Y4572000D03*
D21*
G01*
X1270000Y254000D03*
G01*
X1270000Y508000D03*
G01*
X1016000Y508000D03*
G01*
X1016000Y254000D03*
D22*
G01*
X939800Y1892300D03*
G01*
X939800Y1397000D03*
G01*
X3302000Y3810000D03*
G01*
X2540000Y3810000D03*
G01*
X3429000Y4762500D03*
G01*
X3429000Y2743200D03*
G01*
X3683000Y4762500D03*
G01*
X3683152Y3517900D03*
G01*
X3974795Y3517900D03*
G01*
X3975100Y4762500D03*
G01*
X1574800Y3517900D03*
G01*
X1587500Y4762500D03*
G01*
X1320800Y4762500D03*
G01*
X1320800Y3517900D03*
G01*
X1016000Y114300D03*
G01*
X762000Y254000D03*
D23*
G01*
X3809992Y1650997D03*
G01*
X4813289Y1650997D03*
G01*
X1816097Y1650997D03*
M02*
